<svg width="1485" height="1485" viewBox="0 0 1485 1485" fill="none" xmlns="http://www.w3.org/2000/svg">
<g clip-path="url(#clip0_21_959)">
<circle cx="739.877" cy="688.877" r="481.377" stroke="black" stroke-width="5"/>
<path fill-rule="evenodd" clip-rule="evenodd" d="M335.113 235.104V264.668C367.623 234.552 387.906 223.115 427.675 213.252C370.346 307.015 336.507 340.611 277.281 342.946C273.984 343.076 271.523 339.999 272.298 336.792C282.514 294.489 296.17 271.061 335.113 235.104ZM296.546 373.928C280.493 379.438 270.389 381.386 254.601 379.017C250.417 378.389 247.191 375.038 246.572 370.853C242.776 345.199 244.504 327.942 251.551 298.089C211.848 346.08 198.362 380.071 197.591 453.082C197.555 456.542 200.916 459.017 204.19 457.894C242.385 444.795 263.469 424.829 296.546 373.928ZM190.369 498.187C208.667 496.965 221.105 494.025 241.266 487.044C222.102 529.44 206.28 547.922 170.876 567.093C168.529 568.364 165.591 567.584 164.237 565.284C131.142 509.079 140.49 433.103 173.13 381.64C171.656 433.584 172.907 460.051 180.128 490.604C181.236 495.295 185.559 498.508 190.369 498.187ZM212.983 579.593C193.454 590.461 181.728 595.522 164.302 600.796C160.321 602.001 155.999 600.603 153.471 597.3C126.571 562.139 116.179 535.338 106.28 481.902C89.8461 569.738 95.7733 612.76 150.816 671.514C152.539 673.354 155.379 673.667 157.432 672.204C195.557 645.029 204.888 621.806 212.983 579.593ZM165.721 722.017C182.513 712.908 191.63 703.881 205.27 686.282C203.922 738.373 196.235 763.034 165.346 791.951C163.844 793.357 161.606 793.694 159.745 792.816C86.2236 758.16 58.7131 707.829 58.7131 593.732C63.1695 601.261 67.3234 608.379 71.2657 615.134C99.1396 662.895 116.434 692.529 155.291 721.25C158.331 723.496 162.398 723.819 165.721 722.017ZM219.411 774.975C211.406 804.601 202.87 819.465 183.205 838.46C180.252 841.312 175.834 842.028 172.118 840.282C115.35 813.598 80.2315 777.815 42.0005 709.419C42.0005 803.653 73.862 872.492 186.639 906.424C188.564 907.003 190.7 906.39 191.993 904.851C223.54 867.302 227.343 836.892 219.411 774.975ZM209.431 946.329C149.384 937.083 117.176 916.296 63.8554 867.524C90.5451 955.208 149.903 1012.74 249.384 1010.31C251.458 1010.26 253.317 1008.93 254.024 1006.98C270.486 961.522 269.339 932.7 252.836 879.093C242.565 905.703 234.561 920.353 219.15 942.18C216.955 945.289 213.192 946.909 209.431 946.329ZM305.545 972.928C302.351 1000.9 297.702 1017.03 283.609 1042.97C282.063 1045.82 279.222 1047.74 276.008 1048.14C233.022 1053.41 206.293 1050.45 158.989 1039.77C210.031 1088.29 245.968 1103.39 324.422 1100.36C326.88 1100.27 328.951 1098.42 329.29 1095.98C336.473 1044.37 331.271 1016.69 305.545 972.928ZM358.893 1115.73C362.044 1090.15 362.247 1074.36 360.825 1047.48C398.778 1087.85 410.684 1114.07 410.968 1165.01C410.982 1167.62 408.975 1169.81 406.381 1170.08C326.431 1178.38 290.43 1169.4 243.837 1131.03C300.645 1134.39 330.504 1134.67 353.801 1123.14C356.659 1121.73 358.503 1118.9 358.893 1115.73ZM441.817 1141.32C446.273 1170.6 441.469 1181.73 422.533 1194.02L455.958 1205.59C556.075 1202.12 609.714 1206.83 653.938 1233.87C636.269 1248.31 610.149 1250.19 557.519 1248L585.802 1275C638.881 1276.75 664.127 1271.97 695.077 1245.43C669.365 1208.16 631.228 1196.18 581.945 1185.02L580.097 1184.6L580.096 1184.6L580.094 1184.6C513.183 1169.45 479.064 1161.73 441.817 1141.32ZM1148.89 235.104V264.668C1116.38 234.552 1096.09 223.115 1056.32 213.252C1113.65 307.015 1147.49 340.611 1206.72 342.946C1210.02 343.076 1212.48 339.999 1211.7 336.792C1201.49 294.489 1187.83 271.061 1148.89 235.104ZM1187.45 373.928C1203.51 379.438 1213.61 381.386 1229.4 379.017C1233.58 378.389 1236.81 375.038 1237.43 370.853C1241.22 345.199 1239.5 327.942 1232.45 298.089C1272.15 346.08 1285.64 380.071 1286.41 453.082C1286.45 456.542 1283.08 459.017 1279.81 457.894C1241.61 444.795 1220.53 424.829 1187.45 373.928ZM1293.63 498.187C1275.33 496.965 1262.9 494.025 1242.73 487.044C1261.9 529.44 1277.72 547.922 1313.12 567.093C1315.47 568.364 1318.41 567.584 1319.76 565.284C1352.86 509.079 1343.51 433.103 1310.87 381.64C1312.34 433.584 1311.09 460.051 1303.87 490.604C1302.76 495.295 1298.44 498.508 1293.63 498.187ZM1271.02 579.593C1290.55 590.461 1302.27 595.522 1319.7 600.796C1323.68 602.001 1328 600.603 1330.53 597.3C1357.43 562.139 1367.82 535.338 1377.72 481.902C1394.15 569.738 1388.23 612.76 1333.18 671.514C1331.46 673.354 1328.62 673.667 1326.57 672.204C1288.44 645.029 1279.11 621.806 1271.02 579.593ZM1318.28 722.017C1301.49 712.908 1292.37 703.881 1278.73 686.282C1280.08 738.373 1287.77 763.034 1318.65 791.951C1320.16 793.357 1322.39 793.694 1324.26 792.816C1397.78 758.16 1425.29 707.829 1425.29 593.732C1420.83 601.261 1416.68 608.379 1412.73 615.134C1384.86 662.895 1367.57 692.528 1328.71 721.25C1325.67 723.496 1321.6 723.819 1318.28 722.017ZM1264.59 774.975C1272.59 804.601 1281.13 819.465 1300.8 838.46C1303.75 841.312 1308.17 842.028 1311.88 840.282C1368.65 813.598 1403.77 777.815 1442 709.419C1442 803.653 1410.14 872.492 1297.36 906.424C1295.44 907.003 1293.3 906.39 1292.01 904.851C1260.46 867.302 1256.66 836.892 1264.59 774.975ZM1274.57 946.329C1334.62 937.083 1366.82 916.296 1420.15 867.524C1393.46 955.208 1334.1 1012.74 1234.62 1010.31C1232.54 1010.26 1230.68 1008.93 1229.98 1006.98C1213.51 961.522 1214.66 932.7 1231.16 879.093C1241.43 905.703 1249.44 920.353 1264.85 942.18C1267.05 945.289 1270.81 946.909 1274.57 946.329ZM1178.46 972.928C1181.65 1000.9 1186.3 1017.03 1200.39 1042.97C1201.94 1045.82 1204.78 1047.74 1207.99 1048.14C1250.98 1053.41 1277.71 1050.45 1325.01 1039.77C1273.97 1088.29 1238.03 1103.39 1159.58 1100.36C1157.12 1100.27 1155.05 1098.42 1154.71 1095.98C1147.53 1044.37 1152.73 1016.69 1178.46 972.928ZM1125.11 1115.73C1121.96 1090.15 1121.75 1074.36 1123.18 1047.48C1085.22 1087.85 1073.32 1114.07 1073.03 1165.01C1073.02 1167.62 1075.03 1169.81 1077.62 1170.08C1157.57 1178.38 1193.57 1169.4 1240.16 1131.03C1183.35 1134.39 1153.5 1134.67 1130.2 1123.14C1127.34 1121.73 1125.5 1118.9 1125.11 1115.73ZM1042.18 1141.32C1037.73 1170.6 1042.53 1181.73 1061.47 1194.02L1028.04 1205.59C927.926 1202.12 874.286 1206.83 830.063 1233.87C847.731 1248.31 873.852 1250.19 926.481 1248L898.198 1275C845.12 1276.75 819.873 1271.97 788.924 1245.43C814.636 1208.16 852.772 1196.18 902.055 1185.02L903.903 1184.6L903.904 1184.6C970.816 1169.45 1004.94 1161.73 1042.18 1141.32Z" fill="white"/>
<path d="M335.113 264.668H332.613V270.392L336.812 266.502L335.113 264.668ZM335.113 235.104H337.613V229.393L333.418 233.267L335.113 235.104ZM427.675 213.252L429.808 214.556L432.986 209.359L427.074 210.825L427.675 213.252ZM277.281 342.946L277.379 345.444L277.281 342.946ZM272.298 336.792L274.728 337.379L272.298 336.792ZM254.601 379.017L254.972 376.545L254.601 379.017ZM296.546 373.928L298.642 375.29L302.594 369.209L295.734 371.563L296.546 373.928ZM246.572 370.853L244.099 371.219V371.219L246.572 370.853ZM251.551 298.089L253.984 298.663L249.624 296.495L251.551 298.089ZM197.591 453.082L200.091 453.108L197.591 453.082ZM204.19 457.894L205.001 460.259H205.001L204.19 457.894ZM241.266 487.044L243.544 488.073L245.936 482.781L240.448 484.681L241.266 487.044ZM190.369 498.187L190.535 500.682L190.369 498.187ZM170.876 567.093L172.066 569.291H172.066L170.876 567.093ZM164.237 565.284L162.083 566.553H162.083L164.237 565.284ZM173.13 381.64L175.629 381.711L175.887 372.626L171.019 380.301L173.13 381.64ZM180.128 490.604L177.695 491.179V491.179L180.128 490.604ZM164.302 600.796L163.578 598.403L163.578 598.403L164.302 600.796ZM212.983 579.593L215.438 580.064L216.447 574.804L211.767 577.408L212.983 579.593ZM153.471 597.3L155.457 595.781H155.457L153.471 597.3ZM106.28 481.902L108.738 481.447L103.822 481.442L106.28 481.902ZM150.816 671.514L152.64 669.805H152.64L150.816 671.514ZM157.432 672.204L158.883 674.24H158.883L157.432 672.204ZM205.27 686.282L207.769 686.346L207.966 678.721L203.293 684.75L205.27 686.282ZM165.721 722.017L166.913 724.215L165.721 722.017ZM165.346 791.951L163.638 790.126H163.638L165.346 791.951ZM159.745 792.816L158.679 795.078H158.679L159.745 792.816ZM58.7131 593.732L60.8644 592.459L56.2131 584.601V593.732H58.7131ZM71.2657 615.134L69.1065 616.394L71.2657 615.134ZM155.291 721.25L156.777 719.239L156.777 719.239L155.291 721.25ZM183.205 838.46L181.468 836.661L183.205 838.46ZM219.411 774.975L221.891 774.657L216.997 774.323L219.411 774.975ZM172.118 840.282L173.182 838.019H173.182L172.118 840.282ZM42.0005 709.419L44.1827 708.199L39.5005 699.823V709.419H42.0005ZM186.639 906.424L187.359 904.03H187.359L186.639 906.424ZM191.993 904.851L193.907 906.459L193.907 906.459L191.993 904.851ZM63.8554 867.524L65.5427 865.679L58.8047 859.516L61.4637 868.252L63.8554 867.524ZM209.431 946.329L209.811 943.858H209.811L209.431 946.329ZM249.384 1010.31L249.323 1007.81H249.323L249.384 1010.31ZM254.024 1006.98L256.374 1007.83L254.024 1006.98ZM252.836 879.093L255.225 878.357L253.102 871.46L250.504 878.193L252.836 879.093ZM219.15 942.18L217.107 940.738L219.15 942.18ZM283.609 1042.97L281.412 1041.78L281.412 1041.78L283.609 1042.97ZM305.545 972.928L307.7 971.661L303.91 965.212L303.061 972.644L305.545 972.928ZM276.008 1048.14L276.312 1050.62H276.312L276.008 1048.14ZM158.989 1039.77L159.539 1037.33L150.692 1035.33L157.266 1041.58L158.989 1039.77ZM324.422 1100.36L324.326 1097.86L324.422 1100.36ZM329.29 1095.98L331.766 1096.33L329.29 1095.98ZM360.825 1047.48L362.647 1045.77L357.968 1040.79L358.329 1047.61L360.825 1047.48ZM358.893 1115.73L361.374 1116.04V1116.04L358.893 1115.73ZM410.968 1165.01L408.468 1165.03V1165.03L410.968 1165.01ZM406.381 1170.08L406.122 1167.6H406.122L406.381 1170.08ZM243.837 1131.03L243.984 1128.54L236.325 1128.08L242.248 1132.96L243.837 1131.03ZM353.801 1123.14L354.91 1125.38H354.91L353.801 1123.14ZM422.533 1194.02L421.172 1191.92L416.879 1194.71L421.715 1196.38L422.533 1194.02ZM441.817 1141.32L443.018 1139.12L438.585 1136.69L439.345 1141.69L441.817 1141.32ZM455.958 1205.59L455.14 1207.95L455.58 1208.1L456.045 1208.08L455.958 1205.59ZM653.938 1233.87L655.52 1235.8L658.249 1233.57L655.242 1231.73L653.938 1233.87ZM557.519 1248L557.623 1245.51L550.993 1245.23L555.793 1249.81L557.519 1248ZM585.802 1275L584.076 1276.81L584.766 1277.47L585.719 1277.5L585.802 1275ZM695.077 1245.43L696.704 1247.33L698.412 1245.87L697.134 1244.01L695.077 1245.43ZM581.945 1185.02L582.497 1182.58H582.497L581.945 1185.02ZM580.097 1184.6L580.649 1182.16L580.619 1182.16L580.588 1182.15L580.097 1184.6ZM580.096 1184.6L580.587 1182.15L580.565 1182.15L580.544 1182.14L580.096 1184.6ZM580.094 1184.6L579.542 1187.04L579.595 1187.05L579.647 1187.06L580.094 1184.6ZM1148.89 264.668L1147.19 266.502L1151.39 270.392V264.668H1148.89ZM1148.89 235.104L1150.58 233.267L1146.39 229.393V235.104H1148.89ZM1056.32 213.252L1056.93 210.825L1051.01 209.359L1054.19 214.556L1056.32 213.252ZM1206.72 342.946L1206.62 345.444L1206.72 342.946ZM1211.7 336.792L1214.13 336.205L1214.13 336.205L1211.7 336.792ZM1229.4 379.017L1229.03 376.545L1229.4 379.017ZM1187.45 373.928L1188.27 371.563L1181.41 369.209L1185.36 375.29L1187.45 373.928ZM1237.43 370.853L1239.9 371.219V371.219L1237.43 370.853ZM1232.45 298.089L1234.38 296.495L1230.02 298.663L1232.45 298.089ZM1286.41 453.082L1288.91 453.055V453.055L1286.41 453.082ZM1279.81 457.894L1279 460.259L1279.81 457.894ZM1242.73 487.044L1243.55 484.681L1238.06 482.781L1240.46 488.073L1242.73 487.044ZM1293.63 498.187L1293.46 500.682L1293.63 498.187ZM1313.12 567.093L1311.93 569.291L1313.12 567.093ZM1319.76 565.284L1321.92 566.553L1321.92 566.553L1319.76 565.284ZM1310.87 381.64L1312.98 380.301L1308.11 372.626L1308.37 381.711L1310.87 381.64ZM1303.87 490.604L1306.31 491.179V491.179L1303.87 490.604ZM1319.7 600.796L1320.42 598.403L1319.7 600.796ZM1271.02 579.593L1272.23 577.408L1267.55 574.804L1268.56 580.064L1271.02 579.593ZM1330.53 597.3L1332.51 598.819V598.819L1330.53 597.3ZM1377.72 481.902L1380.18 481.442L1375.26 481.447L1377.72 481.902ZM1333.18 671.514L1331.36 669.805L1333.18 671.514ZM1326.57 672.204L1328.02 670.168L1326.57 672.204ZM1278.73 686.282L1280.71 684.75L1276.03 678.721L1276.23 686.346L1278.73 686.282ZM1318.28 722.017L1317.09 724.215L1318.28 722.017ZM1318.65 791.951L1320.36 790.126L1318.65 791.951ZM1324.26 792.816L1325.32 795.078V795.078L1324.26 792.816ZM1425.29 593.732H1427.79V584.601L1423.14 592.459L1425.29 593.732ZM1412.73 615.134L1410.58 613.874L1412.73 615.134ZM1328.71 721.25L1327.22 719.239L1327.22 719.239L1328.71 721.25ZM1300.8 838.46L1302.53 836.661L1300.8 838.46ZM1264.59 774.975L1267 774.323L1262.11 774.657L1264.59 774.975ZM1311.88 840.282L1312.95 842.544L1311.88 840.282ZM1442 709.419H1444.5V699.823L1439.82 708.199L1442 709.419ZM1297.36 906.424L1296.64 904.03L1297.36 906.424ZM1292.01 904.851L1290.09 906.459L1290.09 906.459L1292.01 904.851ZM1420.15 867.524L1422.54 868.252L1425.2 859.516L1418.46 865.679L1420.15 867.524ZM1274.57 946.329L1274.19 943.858L1274.57 946.329ZM1234.62 1010.31L1234.68 1007.81L1234.62 1010.31ZM1229.98 1006.98L1232.33 1006.13L1229.98 1006.98ZM1231.16 879.093L1233.5 878.193L1230.9 871.46L1228.77 878.357L1231.16 879.093ZM1264.85 942.18L1266.89 940.738L1264.85 942.18ZM1200.39 1042.97L1202.59 1041.78V1041.78L1200.39 1042.97ZM1178.46 972.928L1180.94 972.644L1180.09 965.212L1176.3 971.661L1178.46 972.928ZM1207.99 1048.14L1207.69 1050.62H1207.69L1207.99 1048.14ZM1325.01 1039.77L1326.73 1041.58L1333.31 1035.33L1324.46 1037.33L1325.01 1039.77ZM1159.58 1100.36L1159.67 1097.86H1159.67L1159.58 1100.36ZM1154.71 1095.98L1157.19 1095.64V1095.64L1154.71 1095.98ZM1123.18 1047.48L1125.67 1047.61L1126.03 1040.79L1121.35 1045.77L1123.18 1047.48ZM1125.11 1115.73L1127.59 1115.43V1115.43L1125.11 1115.73ZM1073.03 1165.01L1075.53 1165.03L1073.03 1165.01ZM1077.62 1170.08L1077.88 1167.6H1077.88L1077.62 1170.08ZM1240.16 1131.03L1241.75 1132.96L1247.68 1128.08L1240.02 1128.54L1240.16 1131.03ZM1130.2 1123.14L1129.09 1125.38H1129.09L1130.2 1123.14ZM1061.47 1194.02L1062.28 1196.38L1067.12 1194.71L1062.83 1191.92L1061.47 1194.02ZM1042.18 1141.32L1044.66 1141.69L1045.42 1136.69L1040.98 1139.12L1042.18 1141.32ZM1028.04 1205.59L1027.96 1208.08L1028.42 1208.1L1028.86 1207.95L1028.04 1205.59ZM830.063 1233.87L828.759 1231.73L825.751 1233.57L828.48 1235.8L830.063 1233.87ZM926.481 1248L928.207 1249.81L933.007 1245.23L926.378 1245.51L926.481 1248ZM898.198 1275L898.281 1277.5L899.234 1277.47L899.924 1276.81L898.198 1275ZM788.924 1245.43L786.866 1244.01L785.588 1245.87L787.296 1247.33L788.924 1245.43ZM902.055 1185.02L901.503 1182.58H901.503L902.055 1185.02ZM903.903 1184.6L904.455 1187.04L904.482 1187.03L904.509 1187.03L903.903 1184.6ZM903.904 1184.6L903.352 1182.16L903.325 1182.17L903.297 1182.18L903.904 1184.6ZM337.613 264.668V235.104H332.613V264.668H337.613ZM427.074 210.825C407.062 215.788 391.82 221.18 377.456 229.181C363.102 237.175 349.737 247.713 333.414 262.834L336.812 266.502C352.999 251.507 366.03 241.268 379.889 233.549C393.735 225.837 408.519 220.578 428.277 215.678L427.074 210.825ZM277.379 345.444C307.559 344.254 331.379 335.056 354.847 314.255C378.18 293.575 401.137 261.449 429.808 214.556L425.543 211.948C396.884 258.818 374.256 290.372 351.531 310.514C328.941 330.535 306.229 339.303 277.182 340.448L277.379 345.444ZM269.868 336.205C268.714 340.981 272.38 345.641 277.379 345.444L277.182 340.448C275.587 340.511 274.332 339.017 274.728 337.379L269.868 336.205ZM333.418 233.267C313.862 251.323 300.528 266.348 290.8 282.265C281.06 298.2 275.013 314.901 269.868 336.205L274.728 337.379C279.799 316.381 285.688 300.216 295.066 284.872C304.456 269.509 317.421 254.842 336.809 236.941L333.418 233.267ZM254.23 381.489C270.55 383.939 281.078 381.88 297.358 376.292L295.734 371.563C279.907 376.996 270.229 378.834 254.972 376.545L254.23 381.489ZM244.099 371.219C244.873 376.449 248.915 380.692 254.23 381.489L254.972 376.545C251.918 376.086 249.51 373.627 249.045 370.487L244.099 371.219ZM249.117 297.515C242.025 327.562 240.242 345.153 244.099 371.219L249.045 370.487C245.31 345.244 246.983 328.323 253.984 298.663L249.117 297.515ZM200.091 453.108C200.475 416.74 204.026 390.299 212.326 367.043C220.621 343.801 233.722 323.562 253.477 299.682L249.624 296.495C229.677 320.607 216.184 341.358 207.617 365.362C199.056 389.352 195.478 416.412 195.092 453.055L200.091 453.108ZM203.379 455.529C201.772 456.08 200.073 454.878 200.091 453.108L195.092 453.055C195.037 458.206 200.06 461.953 205.001 460.259L203.379 455.529ZM294.45 372.566C277.945 397.965 264.542 415.469 250.599 428.243C236.71 440.968 222.203 449.074 203.379 455.529L205.001 460.259C224.372 453.616 239.505 445.188 253.976 431.93C268.393 418.721 282.071 400.792 298.642 375.29L294.45 372.566ZM240.448 484.681C220.433 491.611 208.219 494.49 190.202 495.693L190.535 500.682C209.114 499.441 221.777 496.438 242.084 489.406L240.448 484.681ZM172.066 569.291C189.937 559.614 203.011 550.031 214.042 537.424C225.053 524.84 233.919 509.367 243.544 488.073L238.988 486.014C229.449 507.117 220.822 522.083 210.279 534.131C199.758 546.157 187.218 555.4 169.685 564.895L172.066 569.291ZM162.083 566.553C164.136 570.04 168.565 571.187 172.066 569.291L169.685 564.895C168.493 565.54 167.046 565.127 166.391 564.016L162.083 566.553ZM171.019 380.301C137.994 432.371 128.41 509.366 162.083 566.553L166.391 564.016C133.874 508.791 142.987 433.834 175.241 382.979L171.019 380.301ZM182.561 490.029C175.417 459.8 174.156 433.597 175.629 381.711L170.631 381.569C169.155 433.571 170.397 460.301 177.695 491.179L182.561 490.029ZM190.202 495.693C186.619 495.932 183.39 493.539 182.561 490.029L177.695 491.179C179.082 497.051 184.498 501.085 190.535 500.682L190.202 495.693ZM165.026 603.189C182.651 597.854 194.543 592.716 214.199 581.777L211.767 577.408C192.366 588.205 180.804 593.19 163.578 598.403L165.026 603.189ZM151.486 598.819C154.645 602.948 160.046 604.696 165.026 603.189L163.578 598.403C160.596 599.306 157.352 598.258 155.457 595.781L151.486 598.819ZM103.821 482.357C113.77 536.06 124.282 563.261 151.486 598.819L155.457 595.781C128.86 561.017 118.588 534.616 108.738 481.447L103.821 482.357ZM152.64 669.805C125.304 640.625 110.367 615.572 104.187 587.083C97.9899 558.513 100.533 526.209 108.737 482.362L103.822 481.442C95.5922 525.431 92.8827 558.555 99.301 588.143C105.737 617.814 121.286 643.649 148.991 673.223L152.64 669.805ZM155.981 670.168C154.97 670.888 153.527 670.751 152.64 669.805L148.991 673.223C151.552 675.957 155.788 676.446 158.883 674.24L155.981 670.168ZM210.528 579.122C206.491 600.172 202.193 616.202 194.288 630.316C186.407 644.386 174.837 656.728 155.981 670.168L158.883 674.24C178.152 660.505 190.31 647.648 198.65 632.76C206.965 617.915 211.38 601.227 215.438 580.064L210.528 579.122ZM203.293 684.75C189.776 702.191 180.909 710.933 164.528 719.82L166.913 724.215C184.116 714.882 193.484 705.571 207.246 687.813L203.293 684.75ZM167.055 793.776C182.702 779.128 192.614 765.418 198.734 748.665C204.828 731.983 207.093 712.464 207.769 686.346L202.77 686.217C202.098 712.19 199.846 731.048 194.038 746.949C188.255 762.778 178.879 775.858 163.638 790.126L167.055 793.776ZM158.679 795.078C161.453 796.385 164.793 795.893 167.055 793.776L163.638 790.126C162.895 790.821 161.76 791.002 160.811 790.555L158.679 795.078ZM56.2131 593.732C56.2131 650.928 63.0979 692.508 79.4363 724.21C95.825 756.009 121.576 777.588 158.679 795.078L160.811 790.555C124.393 773.388 99.6277 752.473 83.8807 721.919C68.0835 691.267 61.2131 650.634 61.2131 593.732H56.2131ZM73.4249 613.874C69.483 607.12 65.3254 599.996 60.8644 592.459L56.5617 595.006C61.0136 602.527 65.1638 609.638 69.1065 616.394L73.4249 613.874ZM156.777 719.239C118.385 690.862 101.316 661.664 73.4249 613.874L69.1065 616.394C96.9634 664.126 114.483 694.195 153.805 723.26L156.777 719.239ZM164.529 719.82C162.078 721.149 159.054 720.922 156.777 719.239L153.805 723.26C157.609 726.071 162.718 726.49 166.913 724.215L164.529 719.82ZM184.941 840.258C194.884 830.654 202.106 822.005 207.851 811.944C213.59 801.895 217.793 790.549 221.824 775.627L216.997 774.323C213.024 789.028 208.957 799.926 203.51 809.464C198.07 818.99 191.191 827.27 181.468 836.661L184.941 840.258ZM171.055 842.544C175.702 844.729 181.236 843.837 184.941 840.258L181.468 836.661C179.267 838.787 175.966 839.328 173.182 838.019L171.055 842.544ZM39.8183 710.639C78.2327 779.363 113.697 815.584 171.055 842.544L173.182 838.019C117.003 811.613 82.2303 776.267 44.1827 708.199L39.8183 710.639ZM187.359 904.03C131.365 887.182 95.7676 861.771 74.1111 829.152C52.4286 796.494 44.5005 756.284 44.5005 709.419H39.5005C39.5005 756.788 47.5031 798.115 69.9456 831.917C92.4142 865.76 129.137 891.733 185.919 908.818L187.359 904.03ZM190.079 903.242C189.443 903.999 188.351 904.328 187.359 904.03L185.919 908.818C188.778 909.678 191.957 908.78 193.907 906.459L190.079 903.242ZM216.931 775.292C220.89 806.199 221.875 828.949 218.052 848.573C214.249 868.101 205.646 884.714 190.079 903.242L193.907 906.459C209.887 887.439 218.959 870.072 222.96 849.529C226.943 829.082 225.863 805.668 221.891 774.657L216.931 775.292ZM62.1681 869.369C88.8623 893.786 110.417 911.335 132.899 923.93C155.429 936.551 178.789 944.14 209.05 948.8L209.811 943.858C180.026 939.272 157.259 931.845 135.343 919.568C113.38 907.264 92.1696 890.035 65.5427 865.679L62.1681 869.369ZM249.323 1007.81C200.109 1009.01 161.002 995.393 130.906 970.775C100.777 946.129 79.49 910.303 66.2471 866.796L61.4637 868.252C74.9105 912.429 96.6475 949.211 127.74 974.645C158.866 1000.11 199.178 1014.04 249.445 1012.81L249.323 1007.81ZM251.673 1006.13C251.319 1007.1 250.371 1007.79 249.323 1007.81L249.445 1012.81C252.544 1012.74 255.316 1010.75 256.374 1007.83L251.673 1006.13ZM250.447 879.828C258.672 906.548 263.005 926.891 263.292 946.129C263.578 965.328 259.835 983.589 251.673 1006.13L256.374 1007.83C264.674 984.911 268.589 966.032 268.291 946.055C267.994 926.116 263.503 905.245 255.225 878.357L250.447 879.828ZM221.192 943.622C236.72 921.629 244.823 906.797 255.168 879.993L250.504 878.193C240.308 904.608 232.401 919.077 217.107 940.738L221.192 943.622ZM209.05 948.8C213.76 949.525 218.456 947.497 221.192 943.622L217.107 940.738C215.454 943.081 212.625 944.292 209.811 943.858L209.05 948.8ZM285.806 1044.16C300.062 1017.92 304.801 1001.48 308.029 973.211L303.061 972.644C299.901 1000.32 295.342 1016.14 281.412 1041.78L285.806 1044.16ZM276.312 1050.62C280.325 1050.13 283.873 1047.72 285.806 1044.16L281.412 1041.78C280.254 1043.91 278.119 1045.36 275.703 1045.65L276.312 1050.62ZM158.438 1042.21C205.92 1052.93 232.953 1055.93 276.312 1050.62L275.703 1045.65C233.091 1050.88 206.665 1047.97 159.539 1037.33L158.438 1042.21ZM324.326 1097.86C285.257 1099.37 257.036 1096.35 232.306 1087.05C207.583 1077.76 186.122 1062.11 160.711 1037.96L157.266 1041.58C182.898 1065.94 204.927 1082.1 230.546 1091.73C256.159 1101.36 285.133 1104.38 324.518 1102.86L324.326 1097.86ZM326.813 1095.64C326.643 1096.86 325.589 1097.82 324.326 1097.86L324.518 1102.86C328.171 1102.72 331.258 1099.98 331.766 1096.33L326.813 1095.64ZM303.39 974.194C316.175 995.944 323.759 1013.53 327.303 1031.98C330.849 1050.44 330.387 1069.96 326.813 1095.64L331.766 1096.33C335.376 1070.38 335.905 1050.26 332.214 1031.04C328.521 1011.81 320.641 993.675 307.7 971.661L303.39 974.194ZM358.329 1047.61C359.744 1074.38 359.541 1090.02 356.412 1115.43L361.374 1116.04C364.547 1090.29 364.749 1074.34 363.322 1047.35L358.329 1047.61ZM413.468 1165C413.325 1139.33 410.253 1119.67 402.318 1101.29C394.394 1082.93 381.704 1066.04 362.647 1045.77L359.004 1049.19C377.899 1069.29 390.138 1085.69 397.727 1103.27C405.304 1120.82 408.327 1139.75 408.468 1165.03L413.468 1165ZM406.639 1172.57C410.484 1172.17 413.49 1168.92 413.468 1165L408.468 1165.03C408.475 1166.32 407.467 1167.46 406.122 1167.6L406.639 1172.57ZM242.248 1132.96C265.73 1152.3 286.714 1164.37 312.012 1170.49C337.245 1176.59 366.57 1176.73 406.639 1172.57L406.122 1167.6C366.242 1171.74 337.591 1171.53 313.188 1165.63C288.85 1159.74 268.536 1148.13 245.426 1129.1L242.248 1132.96ZM352.692 1120.9C341.455 1126.46 328.535 1129.23 311.25 1130.17C293.934 1131.11 272.402 1130.21 243.984 1128.54L243.69 1133.53C272.081 1135.2 293.882 1136.12 311.522 1135.16C329.193 1134.2 342.85 1131.35 354.91 1125.38L352.692 1120.9ZM356.412 1115.43C356.115 1117.84 354.724 1119.9 352.692 1120.9L354.91 1125.38C358.593 1123.56 360.892 1119.95 361.374 1116.04L356.412 1115.43ZM423.894 1196.11C433.553 1189.85 440.002 1183.62 443.286 1174.92C446.533 1166.32 446.531 1155.68 444.288 1140.94L439.345 1141.69C441.558 1156.23 441.383 1165.8 438.608 1173.16C435.87 1180.41 430.449 1185.9 421.172 1191.92L423.894 1196.11ZM456.776 1203.22L423.351 1191.66L421.715 1196.38L455.14 1207.95L456.776 1203.22ZM655.242 1231.73C610.305 1204.26 555.945 1199.62 455.871 1203.09L456.045 1208.08C556.204 1204.61 609.124 1209.4 652.634 1236L655.242 1231.73ZM557.416 1250.5C583.733 1251.59 603.612 1251.68 619.163 1249.65C634.769 1247.61 646.21 1243.41 655.52 1235.8L652.356 1231.93C643.997 1238.76 633.544 1242.72 618.515 1244.69C603.431 1246.66 583.935 1246.6 557.623 1245.51L557.416 1250.5ZM587.528 1273.19L559.245 1246.2L555.793 1249.81L584.076 1276.81L587.528 1273.19ZM693.449 1243.54C678.202 1256.61 664.488 1264.22 648.119 1268.4C631.665 1272.6 612.38 1273.37 585.884 1272.5L585.719 1277.5C612.302 1278.37 632.18 1277.63 649.356 1273.25C666.617 1268.84 681.002 1260.8 696.704 1247.33L693.449 1243.54ZM581.393 1187.46C630.679 1198.62 667.906 1210.45 693.019 1246.85L697.134 1244.01C670.823 1205.87 631.778 1193.74 582.497 1182.58L581.393 1187.46ZM579.545 1187.04L581.393 1187.46L582.497 1182.58L580.649 1182.16L579.545 1187.04ZM579.606 1187.05L579.607 1187.05L580.588 1182.15L580.587 1182.15L579.606 1187.05ZM579.647 1187.06L579.649 1187.06L580.544 1182.14L580.542 1182.14L579.647 1187.06ZM440.615 1143.51C478.228 1164.12 512.713 1171.91 579.542 1187.04L580.646 1182.16C513.654 1167 479.901 1159.34 443.018 1139.12L440.615 1143.51ZM1151.39 264.668V235.104H1146.39V264.668H1151.39ZM1055.72 215.678C1075.48 220.578 1090.27 225.837 1104.11 233.549C1117.97 241.268 1131 251.507 1147.19 266.502L1150.59 262.834C1134.26 247.713 1120.9 237.175 1106.54 229.181C1092.18 221.18 1076.94 215.788 1056.93 210.825L1055.72 215.678ZM1206.82 340.448C1177.77 339.303 1155.06 330.535 1132.47 310.514C1109.74 290.372 1087.12 258.818 1058.46 211.948L1054.19 214.556C1082.86 261.449 1105.82 293.575 1129.15 314.255C1152.62 335.056 1176.44 344.254 1206.62 345.444L1206.82 340.448ZM1209.27 337.379C1209.67 339.017 1208.41 340.511 1206.82 340.448L1206.62 345.444C1211.62 345.641 1215.29 340.981 1214.13 336.205L1209.27 337.379ZM1147.19 236.941C1166.58 254.842 1179.54 269.509 1188.93 284.872C1198.31 300.216 1204.2 316.381 1209.27 337.379L1214.13 336.205C1208.99 314.901 1202.94 298.2 1193.2 282.265C1183.47 266.348 1170.14 251.323 1150.58 233.267L1147.19 236.941ZM1229.03 376.545C1213.77 378.834 1204.09 376.996 1188.27 371.563L1186.64 376.292C1202.92 381.88 1213.45 383.939 1229.77 381.489L1229.03 376.545ZM1234.96 370.487C1234.49 373.627 1232.08 376.086 1229.03 376.545L1229.77 381.489C1235.08 380.692 1239.13 376.449 1239.9 371.219L1234.96 370.487ZM1230.02 298.663C1237.02 328.323 1238.69 345.244 1234.96 370.487L1239.9 371.219C1243.76 345.153 1241.97 327.562 1234.88 297.515L1230.02 298.663ZM1288.91 453.055C1288.52 416.412 1284.94 389.352 1276.38 365.362C1267.82 341.358 1254.32 320.607 1234.38 296.495L1230.52 299.682C1250.28 323.562 1263.38 343.801 1271.67 367.043C1279.97 390.299 1283.53 416.74 1283.91 453.108L1288.91 453.055ZM1279 460.259C1283.94 461.953 1288.96 458.206 1288.91 453.055L1283.91 453.108C1283.93 454.878 1282.23 456.08 1280.62 455.529L1279 460.259ZM1185.36 375.29C1201.93 400.792 1215.61 418.721 1230.02 431.93C1244.49 445.188 1259.63 453.616 1279 460.259L1280.62 455.529C1261.8 449.074 1247.29 440.968 1233.4 428.243C1219.46 415.469 1206.06 397.965 1189.55 372.566L1185.36 375.29ZM1241.92 489.406C1262.22 496.438 1274.89 499.441 1293.46 500.682L1293.8 495.693C1275.78 494.49 1263.57 491.611 1243.55 484.681L1241.92 489.406ZM1314.32 564.895C1296.78 555.4 1284.24 546.157 1273.72 534.131C1263.18 522.083 1254.55 507.117 1245.01 486.014L1240.46 488.073C1250.08 509.367 1258.95 524.84 1269.96 537.424C1280.99 550.031 1294.06 559.614 1311.93 569.291L1314.32 564.895ZM1317.61 564.016C1316.95 565.127 1315.51 565.54 1314.32 564.895L1311.93 569.291C1315.44 571.187 1319.86 570.04 1321.92 566.553L1317.61 564.016ZM1308.76 382.979C1341.01 433.834 1350.13 508.791 1317.61 564.016L1321.92 566.553C1355.59 509.366 1346.01 432.371 1312.98 380.301L1308.76 382.979ZM1306.31 491.179C1313.6 460.301 1314.85 433.571 1313.37 381.569L1308.37 381.711C1309.84 433.597 1308.58 459.8 1301.44 490.029L1306.31 491.179ZM1293.46 500.682C1299.5 501.085 1304.92 497.051 1306.31 491.179L1301.44 490.029C1300.61 493.539 1297.38 495.932 1293.8 495.693L1293.46 500.682ZM1320.42 598.403C1303.2 593.19 1291.63 588.205 1272.23 577.408L1269.8 581.777C1289.46 592.716 1301.35 597.854 1318.97 603.189L1320.42 598.403ZM1328.54 595.78C1326.65 598.258 1323.4 599.306 1320.42 598.403L1318.97 603.189C1323.95 604.696 1329.36 602.948 1332.51 598.819L1328.54 595.78ZM1375.26 481.447C1365.41 534.616 1355.14 561.017 1328.54 595.781L1332.51 598.819C1359.72 563.261 1370.23 536.06 1380.18 482.357L1375.26 481.447ZM1335.01 673.223C1362.71 643.649 1378.26 617.814 1384.7 588.143C1391.12 558.555 1388.41 525.431 1380.18 481.442L1375.26 482.362C1383.47 526.209 1386.01 558.513 1379.81 587.083C1373.63 615.572 1358.7 640.625 1331.36 669.805L1335.01 673.223ZM1325.12 674.24C1328.21 676.446 1332.45 675.957 1335.01 673.223L1331.36 669.805C1330.47 670.751 1329.03 670.888 1328.02 670.168L1325.12 674.24ZM1268.56 580.064C1272.62 601.227 1277.04 617.915 1285.35 632.76C1293.69 647.648 1305.85 660.505 1325.12 674.24L1328.02 670.168C1309.16 656.728 1297.59 644.386 1289.71 630.316C1281.81 616.202 1277.51 600.172 1273.47 579.122L1268.56 580.064ZM1276.75 687.813C1290.52 705.571 1299.88 714.882 1317.09 724.215L1319.47 719.82C1303.09 710.933 1294.22 702.191 1280.71 684.75L1276.75 687.813ZM1320.36 790.126C1305.12 775.858 1295.75 762.778 1289.96 746.949C1284.15 731.048 1281.9 712.19 1281.23 686.217L1276.23 686.346C1276.91 712.464 1279.17 731.983 1285.27 748.665C1291.39 765.418 1301.3 779.128 1316.95 793.776L1320.36 790.126ZM1323.19 790.555C1322.24 791.002 1321.11 790.821 1320.36 790.126L1316.95 793.776C1319.21 795.893 1322.55 796.385 1325.32 795.078L1323.19 790.555ZM1422.79 593.732C1422.79 650.634 1415.92 691.267 1400.12 721.919C1384.37 752.473 1359.61 773.388 1323.19 790.555L1325.32 795.078C1362.42 777.588 1388.18 756.009 1404.56 724.21C1420.9 692.508 1427.79 650.928 1427.79 593.732H1422.79ZM1414.89 616.394C1418.84 609.638 1422.99 602.527 1427.44 595.006L1423.14 592.459C1418.68 599.995 1414.52 607.119 1410.58 613.874L1414.89 616.394ZM1330.19 723.26C1369.52 694.195 1387.04 664.126 1414.89 616.394L1410.58 613.874C1382.68 661.664 1365.61 690.862 1327.22 719.239L1330.19 723.26ZM1317.09 724.215C1321.28 726.49 1326.39 726.071 1330.19 723.26L1327.22 719.239C1324.95 720.922 1321.92 721.149 1319.47 719.82L1317.09 724.215ZM1302.53 836.661C1292.81 827.27 1285.93 818.99 1280.49 809.464C1275.04 799.926 1270.98 789.028 1267 774.323L1262.18 775.627C1266.21 790.549 1270.41 801.895 1276.15 811.944C1281.89 822.005 1289.12 830.654 1299.06 840.258L1302.53 836.661ZM1310.82 838.019C1308.03 839.328 1304.73 838.787 1302.53 836.661L1299.06 840.258C1302.76 843.837 1308.3 844.729 1312.95 842.544L1310.82 838.019ZM1439.82 708.199C1401.77 776.267 1367 811.613 1310.82 838.019L1312.95 842.544C1370.3 815.584 1405.77 779.363 1444.18 710.639L1439.82 708.199ZM1298.08 908.818C1354.86 891.733 1391.59 865.76 1414.05 831.917C1436.5 798.115 1444.5 756.788 1444.5 709.419H1439.5C1439.5 756.284 1431.57 796.494 1409.89 829.152C1388.23 861.771 1352.64 887.182 1296.64 904.03L1298.08 908.818ZM1290.09 906.459C1292.04 908.78 1295.22 909.678 1298.08 908.818L1296.64 904.03C1295.65 904.328 1294.56 903.999 1293.92 903.242L1290.09 906.459ZM1262.11 774.657C1258.14 805.668 1257.06 829.082 1261.04 849.529C1265.04 870.072 1274.11 887.439 1290.09 906.459L1293.92 903.242C1278.35 884.714 1269.75 868.101 1265.95 848.573C1262.13 828.949 1263.11 806.199 1267.07 775.292L1262.11 774.657ZM1418.46 865.679C1391.83 890.035 1370.62 907.264 1348.66 919.568C1326.74 931.845 1303.97 939.272 1274.19 943.858L1274.95 948.8C1305.21 944.14 1328.57 936.551 1351.1 923.93C1373.58 911.335 1395.14 893.786 1421.83 869.369L1418.46 865.679ZM1234.56 1012.81C1284.82 1014.04 1325.13 1000.11 1356.26 974.645C1387.35 949.211 1409.09 912.429 1422.54 868.252L1417.75 866.796C1404.51 910.303 1383.22 946.129 1353.09 970.775C1323 995.393 1283.89 1009.01 1234.68 1007.81L1234.56 1012.81ZM1227.63 1007.83C1228.68 1010.75 1231.46 1012.74 1234.56 1012.81L1234.68 1007.81C1233.63 1007.79 1232.68 1007.1 1232.33 1006.13L1227.63 1007.83ZM1228.77 878.357C1220.5 905.245 1216.01 926.116 1215.71 946.055C1215.41 966.032 1219.33 984.911 1227.63 1007.83L1232.33 1006.13C1224.17 983.589 1220.42 965.328 1220.71 946.129C1221 926.891 1225.33 906.548 1233.55 879.828L1228.77 878.357ZM1266.89 940.738C1251.6 919.077 1243.69 904.608 1233.5 878.193L1228.83 879.993C1239.18 906.797 1247.28 921.629 1262.81 943.622L1266.89 940.738ZM1274.19 943.858C1271.38 944.292 1268.55 943.081 1266.89 940.738L1262.81 943.622C1265.54 947.497 1270.24 949.525 1274.95 948.8L1274.19 943.858ZM1202.59 1041.78C1188.66 1016.14 1184.1 1000.32 1180.94 972.644L1175.97 973.211C1179.2 1001.48 1183.94 1017.92 1198.19 1044.16L1202.59 1041.78ZM1208.3 1045.65C1205.88 1045.36 1203.75 1043.91 1202.59 1041.78L1198.19 1044.16C1200.13 1047.72 1203.68 1050.13 1207.69 1050.62L1208.3 1045.65ZM1324.46 1037.33C1277.34 1047.97 1250.91 1050.88 1208.3 1045.65L1207.69 1050.62C1251.05 1055.93 1278.08 1052.93 1325.56 1042.21L1324.46 1037.33ZM1159.48 1102.86C1198.87 1104.38 1227.84 1101.36 1253.45 1091.73C1279.07 1082.1 1301.1 1065.94 1326.73 1041.58L1323.29 1037.96C1297.88 1062.11 1276.42 1077.76 1251.69 1087.05C1226.96 1096.35 1198.74 1099.37 1159.67 1097.86L1159.48 1102.86ZM1152.23 1096.33C1152.74 1099.98 1155.83 1102.72 1159.48 1102.86L1159.67 1097.86C1158.41 1097.82 1157.36 1096.86 1157.19 1095.64L1152.23 1096.33ZM1176.3 971.661C1163.36 993.675 1155.48 1011.81 1151.79 1031.04C1148.1 1050.26 1148.62 1070.38 1152.23 1096.33L1157.19 1095.64C1153.61 1069.96 1153.15 1050.44 1156.7 1031.98C1160.24 1013.53 1167.83 995.944 1180.61 974.194L1176.3 971.661ZM1120.68 1047.35C1119.25 1074.34 1119.45 1090.29 1122.63 1116.04L1127.59 1115.43C1124.46 1090.02 1124.26 1074.38 1125.67 1047.61L1120.68 1047.35ZM1075.53 1165.03C1075.67 1139.75 1078.7 1120.82 1086.27 1103.27C1093.86 1085.69 1106.1 1069.29 1125 1049.19L1121.35 1045.77C1102.3 1066.04 1089.61 1082.93 1081.68 1101.29C1073.75 1119.67 1070.68 1139.33 1070.53 1165L1075.53 1165.03ZM1077.88 1167.6C1076.53 1167.46 1075.53 1166.32 1075.53 1165.03L1070.53 1165C1070.51 1168.92 1073.52 1172.17 1077.36 1172.57L1077.88 1167.6ZM1238.57 1129.1C1215.46 1148.13 1195.15 1159.74 1170.81 1165.63C1146.41 1171.53 1117.76 1171.74 1077.88 1167.6L1077.36 1172.57C1117.43 1176.73 1146.76 1176.59 1171.99 1170.49C1197.29 1164.37 1218.27 1152.3 1241.75 1132.96L1238.57 1129.1ZM1129.09 1125.38C1141.15 1131.35 1154.81 1134.2 1172.48 1135.16C1190.12 1136.12 1211.92 1135.2 1240.31 1133.53L1240.02 1128.54C1211.6 1130.21 1190.07 1131.11 1172.75 1130.17C1155.47 1129.23 1142.55 1126.46 1131.31 1120.9L1129.09 1125.38ZM1122.63 1116.04C1123.11 1119.95 1125.41 1123.56 1129.09 1125.38L1131.31 1120.9C1129.28 1119.9 1127.89 1117.84 1127.59 1115.43L1122.63 1116.04ZM1062.83 1191.92C1053.55 1185.9 1048.13 1180.41 1045.39 1173.16C1042.62 1165.8 1042.44 1156.23 1044.66 1141.69L1039.71 1140.94C1037.47 1155.68 1037.47 1166.32 1040.71 1174.92C1044 1183.62 1050.45 1189.85 1060.11 1196.11L1062.83 1191.92ZM1028.86 1207.95L1062.28 1196.38L1060.65 1191.66L1027.22 1203.22L1028.86 1207.95ZM831.366 1236C874.877 1209.4 927.796 1204.61 1027.96 1208.08L1028.13 1203.09C928.055 1199.62 873.696 1204.26 828.759 1231.73L831.366 1236ZM926.378 1245.51C900.065 1246.6 880.569 1246.66 865.486 1244.69C850.457 1242.72 840.004 1238.76 831.645 1231.93L828.48 1235.8C837.79 1243.41 849.232 1247.61 864.838 1249.65C880.389 1251.68 900.268 1251.59 926.585 1250.5L926.378 1245.51ZM899.924 1276.81L928.207 1249.81L924.755 1246.2L896.472 1273.19L899.924 1276.81ZM787.296 1247.33C802.999 1260.8 817.383 1268.84 834.644 1273.25C851.82 1277.63 871.698 1278.37 898.281 1277.5L898.116 1272.5C871.62 1273.37 852.335 1272.6 835.881 1268.4C819.512 1264.22 805.799 1256.61 790.551 1243.54L787.296 1247.33ZM901.503 1182.58C852.223 1193.74 813.177 1205.87 786.866 1244.01L790.982 1246.85C816.094 1210.45 853.322 1198.62 902.607 1187.46L901.503 1182.58ZM903.351 1182.16L901.503 1182.58L902.607 1187.46L904.455 1187.04L903.351 1182.16ZM903.297 1182.18L903.297 1182.18L904.509 1187.03L904.51 1187.03L903.297 1182.18ZM1040.98 1139.12C1004.1 1159.34 970.346 1167 903.352 1182.16L904.456 1187.04C971.287 1171.91 1005.77 1164.12 1043.39 1143.51L1040.98 1139.12Z" fill="black"/>
<mask id="mask0_21_959" style="mask-type:alpha" maskUnits="userSpaceOnUse" x="261" y="209" width="958" height="959">
<circle cx="739.877" cy="688.877" r="478.877" fill="#D9D9D9"/>
</mask>
<g mask="url(#mask0_21_959)">
<circle cx="739.877" cy="688.877" r="478.877" fill="url(#paint0_linear_21_959)"/>
<path fill-rule="evenodd" clip-rule="evenodd" d="M1184.45 688.877C1184.45 934.41 985.41 1133.45 739.877 1133.45C494.344 1133.45 295.3 934.41 295.3 688.877C295.3 443.344 494.344 244.3 739.877 244.3C985.41 244.3 1184.45 443.344 1184.45 688.877ZM1174.06 688.877C1174.06 928.669 979.669 1123.06 739.877 1123.06C500.085 1123.06 305.695 928.669 305.695 688.877C305.695 449.085 500.085 254.695 739.877 254.695C979.669 254.695 1174.06 449.085 1174.06 688.877Z" fill="white"/>
<path fill-rule="evenodd" clip-rule="evenodd" d="M1218.75 688.877C1218.75 953.353 1004.35 1167.75 739.877 1167.75C475.4 1167.75 261 953.353 261 688.877C261 424.4 475.4 210 739.877 210C1004.35 210 1218.75 424.4 1218.75 688.877ZM1195.27 688.876C1195.27 940.381 991.381 1144.27 739.877 1144.27C488.372 1144.27 284.487 940.381 284.487 688.876C284.487 437.372 488.372 233.487 739.877 233.487C991.381 233.487 1195.27 437.372 1195.27 688.876Z" fill="white"/>
<mask id="mask1_21_959" style="mask-type:alpha" maskUnits="userSpaceOnUse" x="295" y="244" width="890" height="890">
<path fill-rule="evenodd" clip-rule="evenodd" d="M1184.45 688.877C1184.45 934.41 985.41 1133.45 739.877 1133.45C494.344 1133.45 295.3 934.41 295.3 688.877C295.3 443.344 494.344 244.3 739.877 244.3C985.41 244.3 1184.45 443.344 1184.45 688.877Z" fill="white"/>
</mask>
<g mask="url(#mask1_21_959)">
<path d="M694.116 1058.25C730.463 1061.72 736.457 1067.71 740.057 1104.2C743.521 1067.85 749.516 1061.85 785.999 1058.25C749.651 1054.79 743.657 1048.8 740.057 1012.31C736.593 1048.66 730.599 1054.65 694.116 1058.25Z" fill="white"/>
<path d="M694.116 1058.25C730.463 1061.72 736.457 1067.71 740.057 1104.2C743.521 1067.85 749.516 1061.85 785.999 1058.25C749.651 1054.79 743.657 1048.8 740.057 1012.31C736.593 1048.66 730.599 1054.65 694.116 1058.25Z" fill="white"/>
<path d="M544.595 1036.24C580.942 1039.7 586.936 1045.7 590.536 1082.18C594 1045.83 599.995 1039.84 636.478 1036.24C600.13 1032.78 594.136 1026.78 590.536 990.299C587.072 1026.65 581.078 1032.64 544.595 1036.24Z" fill="white"/>
<path d="M544.595 1036.24C580.942 1039.7 586.936 1045.7 590.536 1082.18C594 1045.83 599.995 1039.84 636.478 1036.24C600.13 1032.78 594.136 1026.78 590.536 990.299C587.072 1026.65 581.078 1032.64 544.595 1036.24Z" fill="white"/>
<path d="M844.594 1036.24C880.941 1039.7 886.935 1045.7 890.535 1082.18C893.999 1045.83 899.994 1039.84 936.477 1036.24C900.129 1032.78 894.135 1026.78 890.535 990.299C887.071 1026.65 881.077 1032.64 844.594 1036.24Z" fill="white"/>
<path d="M844.594 1036.24C880.941 1039.7 886.935 1045.7 890.535 1082.18C893.999 1045.83 899.994 1039.84 936.477 1036.24C900.129 1032.78 894.135 1026.78 890.535 990.299C887.071 1026.65 881.077 1032.64 844.594 1036.24Z" fill="white"/>
<path d="M694.116 321.282C730.463 317.818 736.457 311.823 740.057 275.34C743.521 311.687 749.516 317.682 785.999 321.282C749.651 324.746 743.657 330.74 740.057 367.223C736.593 330.876 730.599 324.882 694.116 321.282Z" fill="white"/>
<path d="M694.116 321.282C730.463 317.818 736.457 311.823 740.057 275.34C743.521 311.687 749.516 317.682 785.999 321.282C749.651 324.746 743.657 330.74 740.057 367.223C736.593 330.876 730.599 324.882 694.116 321.282Z" fill="white"/>
<path d="M544.595 343.295C580.942 339.831 586.936 333.837 590.536 297.354C594 333.701 599.995 339.695 636.478 343.295C600.13 346.759 594.136 352.754 590.536 389.237C587.072 352.89 581.078 346.895 544.595 343.295Z" fill="white"/>
<path d="M544.595 343.295C580.942 339.831 586.936 333.837 590.536 297.354C594 333.701 599.995 339.695 636.478 343.295C600.13 346.759 594.136 352.754 590.536 389.237C587.072 352.89 581.078 346.895 544.595 343.295Z" fill="white"/>
<path d="M844.594 343.295C880.941 339.831 886.935 333.837 890.535 297.354C893.999 333.701 899.994 339.695 936.477 343.295C900.129 346.759 894.135 352.754 890.535 389.237C887.071 352.89 881.077 346.895 844.594 343.295Z" fill="white"/>
<path d="M844.594 343.295C880.941 339.831 886.935 333.837 890.535 297.354C893.999 333.701 899.994 339.695 936.477 343.295C900.129 346.759 894.135 352.754 890.535 389.237C887.071 352.89 881.077 346.895 844.594 343.295Z" fill="white"/>
<path d="M940.942 655.261C888.411 651.578 836.408 654.735 786.337 672.449C774.214 676.658 762.619 682.095 751.902 689.461C749.267 687.356 751.551 685.778 752.605 684.375C788.972 631.234 845.368 602.121 911.953 615.274C914.413 615.801 917.224 615.801 919.508 619.133C905.101 623.167 890.168 623.342 875.235 629.831C902.115 632.286 925.305 640.705 948.145 654.56C944.631 654.735 942.698 654.911 940.942 655.261Z" fill="white"/>
<path d="M940.942 655.261C888.411 651.578 836.408 654.735 786.337 672.449C774.214 676.658 762.619 682.095 751.902 689.461C749.267 687.356 751.551 685.778 752.605 684.375C788.972 631.234 845.368 602.121 911.953 615.274C914.413 615.801 917.224 615.801 919.508 619.133C905.101 623.167 890.168 623.342 875.235 629.831C902.115 632.286 925.305 640.705 948.145 654.56C944.631 654.735 942.698 654.911 940.942 655.261Z" fill="black"/>
<path d="M940.942 655.261C888.411 651.578 836.408 654.735 786.337 672.449C774.214 676.658 762.619 682.095 751.902 689.461C749.267 687.356 751.551 685.778 752.605 684.375C788.972 631.234 845.368 602.121 911.953 615.274C914.413 615.801 917.224 615.801 919.508 619.133C905.101 623.167 890.168 623.342 875.235 629.831C902.115 632.286 925.305 640.705 948.145 654.56C944.631 654.735 942.698 654.911 940.942 655.261Z" fill="#FBB603"/>
<path d="M940.942 655.261C888.411 651.578 836.408 654.735 786.337 672.449C774.214 676.658 762.619 682.095 751.902 689.461C749.267 687.356 751.551 685.778 752.605 684.375C788.972 631.234 845.368 602.121 911.953 615.274C914.413 615.801 917.224 615.801 919.508 619.133C905.101 623.167 890.168 623.342 875.235 629.831C902.115 632.286 925.305 640.705 948.145 654.56C944.631 654.735 942.698 654.911 940.942 655.261Z" fill="url(#paint1_linear_21_959)"/>
<path d="M900.358 534.775C914.237 543.193 926.711 553.541 938.13 565.116C942.874 569.851 949.198 572.306 956.402 576.516C923.021 592.3 889.816 593.001 854.503 586.337C857.49 582.478 860.476 581.602 863.287 580.725C866.098 579.848 868.734 578.971 872.423 577.743C866.274 570.026 861.882 562.134 857.49 554.067C853.976 547.578 855.03 545.122 862.76 545.999C865.571 546.35 868.383 545.999 872.423 545.999C864.342 538.107 855.382 534.424 846.246 530.566C837.11 526.707 827.096 530.741 817.433 527.233C834.475 518.464 851.692 520.218 869.085 521.797C879.802 525.129 890.519 528.987 900.358 534.775ZM892.452 555.295C885.425 554.768 879.099 552.313 872.072 553.891C874.707 559.503 878.397 563.537 882.789 567.045C884.897 568.623 887.532 570.202 889.992 568.974C892.452 567.922 890.168 565.291 890.519 563.537C891.222 561.082 891.749 558.627 892.452 555.295Z" fill="white"/>
<path d="M900.358 534.775C914.237 543.193 926.711 553.541 938.13 565.116C942.874 569.851 949.198 572.306 956.402 576.516C923.021 592.3 889.816 593.001 854.503 586.337C857.49 582.478 860.476 581.602 863.287 580.725C866.098 579.848 868.734 578.971 872.423 577.743C866.274 570.026 861.882 562.134 857.49 554.067C853.976 547.578 855.03 545.122 862.76 545.999C865.571 546.35 868.383 545.999 872.423 545.999C864.342 538.107 855.382 534.424 846.246 530.566C837.11 526.707 827.096 530.741 817.433 527.233C834.475 518.464 851.692 520.218 869.085 521.797C879.802 525.129 890.519 528.987 900.358 534.775ZM892.452 555.295C885.425 554.768 879.099 552.313 872.072 553.891C874.707 559.503 878.397 563.537 882.789 567.045C884.897 568.623 887.532 570.202 889.992 568.974C892.452 567.922 890.168 565.291 890.519 563.537C891.222 561.082 891.749 558.627 892.452 555.295Z" fill="black"/>
<path d="M900.358 534.775C914.237 543.193 926.711 553.541 938.13 565.116C942.874 569.851 949.198 572.306 956.402 576.516C923.021 592.3 889.816 593.001 854.503 586.337C857.49 582.478 860.476 581.602 863.287 580.725C866.098 579.848 868.734 578.971 872.423 577.743C866.274 570.026 861.882 562.134 857.49 554.067C853.976 547.578 855.03 545.122 862.76 545.999C865.571 546.35 868.383 545.999 872.423 545.999C864.342 538.107 855.382 534.424 846.246 530.566C837.11 526.707 827.096 530.741 817.433 527.233C834.475 518.464 851.692 520.218 869.085 521.797C879.802 525.129 890.519 528.987 900.358 534.775ZM892.452 555.295C885.425 554.768 879.099 552.313 872.072 553.891C874.707 559.503 878.397 563.537 882.789 567.045C884.897 568.623 887.532 570.202 889.992 568.974C892.452 567.922 890.168 565.291 890.519 563.537C891.222 561.082 891.749 558.627 892.452 555.295Z" fill="#FBB603"/>
<path d="M900.358 534.775C914.237 543.193 926.711 553.541 938.13 565.116C942.874 569.851 949.198 572.306 956.402 576.516C923.021 592.3 889.816 593.001 854.503 586.337C857.49 582.478 860.476 581.602 863.287 580.725C866.098 579.848 868.734 578.971 872.423 577.743C866.274 570.026 861.882 562.134 857.49 554.067C853.976 547.578 855.03 545.122 862.76 545.999C865.571 546.35 868.383 545.999 872.423 545.999C864.342 538.107 855.382 534.424 846.246 530.566C837.11 526.707 827.096 530.741 817.433 527.233C834.475 518.464 851.692 520.218 869.085 521.797C879.802 525.129 890.519 528.987 900.358 534.775ZM892.452 555.295C885.425 554.768 879.099 552.313 872.072 553.891C874.707 559.503 878.397 563.537 882.789 567.045C884.897 568.623 887.532 570.202 889.992 568.974C892.452 567.922 890.168 565.291 890.519 563.537C891.222 561.082 891.749 558.627 892.452 555.295Z" fill="url(#paint2_linear_21_959)"/>
<path d="M490.655 889.22C487.141 875.716 482.925 862.387 479.938 848.707C475.019 825.557 472.384 802.231 470.978 778.555C470.627 774.17 472.208 771.54 476.073 769.435C483.628 765.577 490.655 761.017 498.21 757.158C501.899 755.229 502.778 752.949 502.251 748.915C496.629 706.122 496.277 663.329 501.548 620.536C501.899 617.028 498.737 610.364 504.359 610.364C508.575 610.364 506.116 617.204 506.467 620.712C510.332 669.468 523.684 715.593 545.997 759.087C549.686 766.278 548.808 769.26 541.429 772.416C534.05 775.398 523.86 777.152 520.522 783.992C517.184 790.656 520.698 799.951 521.752 808.019C524.211 825.908 526.847 843.621 534.401 860.283C536.334 871.682 542.307 881.328 547.402 891.325C549.159 894.833 550.916 894.657 554.078 892.553C566.376 884.31 578.85 876.242 591.5 868.525C594.486 866.596 595.189 865.018 593.959 861.686C590.621 852.39 587.81 842.92 584.648 833.625C580.607 814.859 576.742 796.268 575.336 777.152C574.809 770.487 575.688 765.752 582.891 763.823C588.162 762.42 589.743 759.438 589.216 753.651C586.229 721.205 587.459 688.935 595.716 657.191C596.419 654.385 596.595 651.579 599.23 648.773C600.987 662.102 600.987 675.255 603.798 688.058C608.893 712.261 615.92 735.937 627.691 757.684C630.678 763.297 629.448 765.401 624.002 767.856C608.366 775.047 608.366 775.223 611.001 792.585C612.231 800.653 612.933 808.72 616.096 816.437C617.501 825.557 621.191 833.625 624.529 842.043C626.637 847.48 628.745 848.707 634.543 845.901C660.018 833.098 686.722 822.576 713.954 814.157C719.751 812.403 724.671 812.754 729.941 815.034C748.388 822.751 762.268 835.729 773.336 852.04C790.729 877.996 800.392 906.934 804.608 937.45C805.838 946.57 809.879 949.201 817.961 950.253C850.638 954.462 880.681 949.902 906.155 926.226C906.331 934.82 900.709 939.906 897.195 946.746C900.182 946.746 902.642 946.921 904.926 946.746C924.076 944.29 954.469 911.319 955.523 892.202C955.699 889.922 955.172 888.344 952.888 887.291C929.873 876.944 913.71 858.353 895.263 842.218C874.883 823.979 851.692 809.597 823.231 807.843C818.488 807.493 817.433 805.739 816.731 801.705C814.974 792.41 814.798 783.115 815.677 773.819C818.136 744.355 826.042 715.944 834.826 687.883C836.759 681.569 840.273 678.587 846.422 676.658C868.031 670.169 890.168 669.818 912.48 669.468C938.13 673.151 963.605 677.535 989.256 688.233C984.688 679.64 976.606 677.184 971.687 670.344C978.89 669.292 984.336 672.624 989.782 674.904C1009.11 683.147 1027.38 693.319 1042.84 708.227C1044.6 709.981 1046.18 711.734 1048.64 709.805C1051.8 707.35 1048.46 705.771 1047.23 704.368C1038.45 695.073 1029.66 686.129 1020.88 677.009C1029.66 675.431 1036.16 681.043 1043.37 684.55C1051.27 688.409 1059.18 692.969 1065.33 699.809C1068.31 703.316 1071.3 704.018 1073.94 699.107C1075.34 696.301 1077.27 693.67 1078.86 690.864C1083.25 682.797 1085.36 676.307 1076.22 668.591C1064.1 658.419 1059 643.336 1056.19 627.902C1054.96 621.588 1056.9 618.607 1063.75 619.133C1067.79 619.484 1071.83 619.133 1078.33 619.133C1073.23 615.801 1069.72 613.17 1065.86 610.89C1036.69 593.527 1005.24 581.952 972.565 573.359C969.052 572.482 965.011 572.131 963.254 568.097C962.2 558.627 957.807 550.384 954.294 541.79C945.861 521.095 932.684 506.538 908.966 503.557C898.601 502.329 889.114 497.068 878.045 498.821C863.288 501.101 848.706 503.557 834.299 507.766C816.731 512.15 800.567 520.393 781.417 527.584C790.202 516.535 799.689 510.221 807.946 502.504C815.325 497.945 822.528 493.385 830.259 488.474C814.622 482.16 801.446 487.948 788.445 494.788C764.2 504.083 741.537 516.71 717.116 530.39C726.954 512.677 741.361 501.803 754.186 489.702C759.105 487.597 763.673 485.142 768.065 481.108C750.672 479.003 733.982 478.302 717.292 479.529C705.345 479.88 693.574 475.671 680.397 478.302C686.371 483.739 691.817 488.474 697.263 493.385C699.02 494.963 701.304 496.541 699.547 498.997C697.615 501.452 695.682 499.698 693.574 498.471C675.302 488.474 655.801 481.634 635.773 476.197C632.962 475.32 630.151 475.846 627.34 474.619C612.406 469.007 596.595 468.13 580.783 468.13C575.336 468.13 573.931 470.234 573.931 475.32C574.458 493.209 577.796 510.572 584.297 527.233C584.824 528.812 584.648 531.793 587.634 531.442C590.621 531.092 590.797 528.636 590.973 526.181C591.675 518.64 592.554 511.098 593.257 503.557C593.608 499.523 594.838 497.944 599.23 498.646C631.908 503.907 662.829 513.553 690.412 532.319C691.817 533.372 694.452 533.722 693.75 536.879C682.506 535.652 671.789 530.039 659.139 531.968C673.897 539.51 673.897 539.685 668.802 554.768C665.991 563.362 661.599 571.254 657.207 579.146C650.882 588.441 642.8 596.334 634.719 604.05C632.786 605.804 630.678 608.259 627.867 606.856C624.88 605.278 627.867 602.823 628.043 601.069C629.448 593.352 629.799 585.811 627.867 578.269C626.637 573.885 624.88 571.605 619.61 571.429C601.69 570.728 586.932 576.515 576.391 591.774C572.525 588.792 570.241 584.758 567.958 580.9C554.078 557.223 544.943 532.144 543.186 504.434C542.132 487.948 543.888 490.579 528.428 489.702C509.981 488.825 509.981 489 502.953 505.661C479.235 562.66 447.26 614.749 406.852 661.575C402.285 666.837 401.757 669.818 408.961 671.397C420.907 674.027 418.096 682.446 417.218 690.513C410.19 755.755 390.689 816.788 354.322 872.033C347.821 881.854 339.915 890.273 332.537 899.217C330.955 900.971 329.55 903.602 325.509 903.426C330.78 890.097 336.226 877.645 340.618 864.842C356.254 818.892 366.971 771.89 362.403 722.959C360.12 699.809 356.255 676.483 343.605 655.963C340.97 651.579 341.848 648.948 345.362 645.616C385.594 605.979 411.42 558.1 427.935 504.609C429.34 500.049 430.394 495.138 431.624 490.578C429.165 488.825 426.354 489.526 423.894 489.702C389.108 490.579 354.322 492.157 319.536 494.963C292.656 497.068 265.6 499.523 238.72 501.803C261.91 477.776 287.912 456.905 315.144 437.613C317.955 435.684 320.766 434.983 324.104 434.807C377.337 431.826 430.57 434.106 483.628 437.789C502.075 439.016 520.346 441.121 538.618 443.226C543.01 443.752 544.064 442.524 544.943 438.49C548.281 421.303 548.456 421.303 565.849 425.161C572.35 426.564 579.904 430.773 584.999 428.844C589.567 427.09 591.148 418.321 594.486 413.06C614.69 381.842 613.461 381.667 650.355 390.436C685.317 398.679 714.832 418.672 742.591 440.595C749.794 446.382 757.173 448.838 766.308 449.188C828.677 451.468 890.168 460.588 950.604 475.846C955.172 477.074 958.159 479.354 960.618 483.388C971.335 502.154 981.877 520.919 989.08 541.264C990.485 545.298 992.594 547.227 996.459 548.454C1053.03 565.642 1099.06 599.315 1141.05 639.302C1144.56 642.634 1144.04 645.616 1142.81 649.474C1137.54 665.083 1126.64 676.307 1113.64 685.603C1109.6 688.409 1107.14 691.39 1105.91 696.301C1099.76 718.224 1085.88 734.183 1066.38 745.408C1062.17 747.863 1059.18 750.845 1056.72 754.878C1041.79 779.782 1020.18 795.918 990.485 803.81C1000.32 779.256 1000.85 755.404 994.175 731.377C992.066 723.836 985.039 726.817 980.296 724.713C978.714 724.362 977.309 724.187 975.727 723.836C975.552 722.783 974.849 722.783 973.971 723.134C956.578 718.75 938.833 715.944 920.913 714.014C915.818 713.488 912.48 714.365 909.669 719.276C900.006 736.463 892.627 754.177 888.762 773.644C884.897 792.936 890.871 808.019 904.75 820.646C912.129 827.311 919.859 833.449 927.238 840.289C930.752 843.621 934.09 843.621 938.306 841.867C955.172 834.501 967.47 823.102 973.619 803.81C986.62 821.172 987.85 839.061 983.633 857.827C983.282 859.581 983.107 861.335 982.228 862.913C977.836 870.455 981.701 872.91 988.728 873.261C992.066 873.436 994.878 873.085 993.999 878.522C985.39 929.383 936.725 986.382 868.207 986.732C865.572 986.732 863.112 986.206 859.598 985.856C865.045 980.068 873.653 978.665 875.937 969.545C838.867 984.803 801.446 988.136 762.619 983.4C764.025 977.437 765.606 971.825 766.484 966.037C768.944 950.604 766.836 936.223 759.984 921.841C749.97 900.971 738.55 881.153 723.616 863.264C718.697 857.301 715.008 856.249 707.805 859.932C638.057 896.411 579.553 946.044 529.482 1006.2C508.751 1031.1 490.128 1057.59 473.965 1085.82C470.451 1092.14 468.167 1091.61 463.248 1087.93C447.963 1076.7 432.854 1065.13 417.921 1053.55C412.123 1048.99 412.65 1045.84 415.988 1040.22C439.354 1001.46 467.816 966.739 501.372 936.223C505.764 932.189 507.345 929.207 504.359 923.244C498.737 911.669 494.872 900.269 490.655 889.22ZM1015.61 734.885C1017.19 746.11 1018.6 757.158 1015.96 768.032C1015.61 769.435 1013.32 771.013 1015.26 772.241C1016.66 773.118 1018.42 772.241 1020 771.013C1027.91 764.524 1034.76 757.158 1040.03 748.389C1041.43 745.934 1041.79 744.18 1038.8 743.128C1031.24 740.497 1024.22 736.464 1015.61 734.885ZM969.052 833.625C963.078 843.095 955.875 848.883 947.794 854.144C963.43 864.492 964.835 863.966 969.052 846.252C969.755 842.569 970.282 839.061 969.052 833.625Z" fill="white"/>
<path d="M490.655 889.22C487.141 875.716 482.925 862.387 479.938 848.707C475.019 825.557 472.384 802.231 470.978 778.555C470.627 774.17 472.208 771.54 476.073 769.435C483.628 765.577 490.655 761.017 498.21 757.158C501.899 755.229 502.778 752.949 502.251 748.915C496.629 706.122 496.277 663.329 501.548 620.536C501.899 617.028 498.737 610.364 504.359 610.364C508.575 610.364 506.116 617.204 506.467 620.712C510.332 669.468 523.684 715.593 545.997 759.087C549.686 766.278 548.808 769.26 541.429 772.416C534.05 775.398 523.86 777.152 520.522 783.992C517.184 790.656 520.698 799.951 521.752 808.019C524.211 825.908 526.847 843.621 534.401 860.283C536.334 871.682 542.307 881.328 547.402 891.325C549.159 894.833 550.916 894.657 554.078 892.553C566.376 884.31 578.85 876.242 591.5 868.525C594.486 866.596 595.189 865.018 593.959 861.686C590.621 852.39 587.81 842.92 584.648 833.625C580.607 814.859 576.742 796.268 575.336 777.152C574.809 770.487 575.688 765.752 582.891 763.823C588.162 762.42 589.743 759.438 589.216 753.651C586.229 721.205 587.459 688.935 595.716 657.191C596.419 654.385 596.595 651.579 599.23 648.773C600.987 662.102 600.987 675.255 603.798 688.058C608.893 712.261 615.92 735.937 627.691 757.684C630.678 763.297 629.448 765.401 624.002 767.856C608.366 775.047 608.366 775.223 611.001 792.585C612.231 800.653 612.933 808.72 616.096 816.437C617.501 825.557 621.191 833.625 624.529 842.043C626.637 847.48 628.745 848.707 634.543 845.901C660.018 833.098 686.722 822.576 713.954 814.157C719.751 812.403 724.671 812.754 729.941 815.034C748.388 822.751 762.268 835.729 773.336 852.04C790.729 877.996 800.392 906.934 804.608 937.45C805.838 946.57 809.879 949.201 817.961 950.253C850.638 954.462 880.681 949.902 906.155 926.226C906.331 934.82 900.709 939.906 897.195 946.746C900.182 946.746 902.642 946.921 904.926 946.746C924.076 944.29 954.469 911.319 955.523 892.202C955.699 889.922 955.172 888.344 952.888 887.291C929.873 876.944 913.71 858.353 895.263 842.218C874.883 823.979 851.692 809.597 823.231 807.843C818.488 807.493 817.433 805.739 816.731 801.705C814.974 792.41 814.798 783.115 815.677 773.819C818.136 744.355 826.042 715.944 834.826 687.883C836.759 681.569 840.273 678.587 846.422 676.658C868.031 670.169 890.168 669.818 912.48 669.468C938.13 673.151 963.605 677.535 989.256 688.233C984.688 679.64 976.606 677.184 971.687 670.344C978.89 669.292 984.336 672.624 989.782 674.904C1009.11 683.147 1027.38 693.319 1042.84 708.227C1044.6 709.981 1046.18 711.734 1048.64 709.805C1051.8 707.35 1048.46 705.771 1047.23 704.368C1038.45 695.073 1029.66 686.129 1020.88 677.009C1029.66 675.431 1036.16 681.043 1043.37 684.55C1051.27 688.409 1059.18 692.969 1065.33 699.809C1068.31 703.316 1071.3 704.018 1073.94 699.107C1075.34 696.301 1077.27 693.67 1078.86 690.864C1083.25 682.797 1085.36 676.307 1076.22 668.591C1064.1 658.419 1059 643.336 1056.19 627.902C1054.96 621.588 1056.9 618.607 1063.75 619.133C1067.79 619.484 1071.83 619.133 1078.33 619.133C1073.23 615.801 1069.72 613.17 1065.86 610.89C1036.69 593.527 1005.24 581.952 972.565 573.359C969.052 572.482 965.011 572.131 963.254 568.097C962.2 558.627 957.807 550.384 954.294 541.79C945.861 521.095 932.684 506.538 908.966 503.557C898.601 502.329 889.114 497.068 878.045 498.821C863.288 501.101 848.706 503.557 834.299 507.766C816.731 512.15 800.567 520.393 781.417 527.584C790.202 516.535 799.689 510.221 807.946 502.504C815.325 497.945 822.528 493.385 830.259 488.474C814.622 482.16 801.446 487.948 788.445 494.788C764.2 504.083 741.537 516.71 717.116 530.39C726.954 512.677 741.361 501.803 754.186 489.702C759.105 487.597 763.673 485.142 768.065 481.108C750.672 479.003 733.982 478.302 717.292 479.529C705.345 479.88 693.574 475.671 680.397 478.302C686.371 483.739 691.817 488.474 697.263 493.385C699.02 494.963 701.304 496.541 699.547 498.997C697.615 501.452 695.682 499.698 693.574 498.471C675.302 488.474 655.801 481.634 635.773 476.197C632.962 475.32 630.151 475.846 627.34 474.619C612.406 469.007 596.595 468.13 580.783 468.13C575.336 468.13 573.931 470.234 573.931 475.32C574.458 493.209 577.796 510.572 584.297 527.233C584.824 528.812 584.648 531.793 587.634 531.442C590.621 531.092 590.797 528.636 590.973 526.181C591.675 518.64 592.554 511.098 593.257 503.557C593.608 499.523 594.838 497.944 599.23 498.646C631.908 503.907 662.829 513.553 690.412 532.319C691.817 533.372 694.452 533.722 693.75 536.879C682.506 535.652 671.789 530.039 659.139 531.968C673.897 539.51 673.897 539.685 668.802 554.768C665.991 563.362 661.599 571.254 657.207 579.146C650.882 588.441 642.8 596.334 634.719 604.05C632.786 605.804 630.678 608.259 627.867 606.856C624.88 605.278 627.867 602.823 628.043 601.069C629.448 593.352 629.799 585.811 627.867 578.269C626.637 573.885 624.88 571.605 619.61 571.429C601.69 570.728 586.932 576.515 576.391 591.774C572.525 588.792 570.241 584.758 567.958 580.9C554.078 557.223 544.943 532.144 543.186 504.434C542.132 487.948 543.888 490.579 528.428 489.702C509.981 488.825 509.981 489 502.953 505.661C479.235 562.66 447.26 614.749 406.852 661.575C402.285 666.837 401.757 669.818 408.961 671.397C420.907 674.027 418.096 682.446 417.218 690.513C410.19 755.755 390.689 816.788 354.322 872.033C347.821 881.854 339.915 890.273 332.537 899.217C330.955 900.971 329.55 903.602 325.509 903.426C330.78 890.097 336.226 877.645 340.618 864.842C356.254 818.892 366.971 771.89 362.403 722.959C360.12 699.809 356.255 676.483 343.605 655.963C340.97 651.579 341.848 648.948 345.362 645.616C385.594 605.979 411.42 558.1 427.935 504.609C429.34 500.049 430.394 495.138 431.624 490.578C429.165 488.825 426.354 489.526 423.894 489.702C389.108 490.579 354.322 492.157 319.536 494.963C292.656 497.068 265.6 499.523 238.72 501.803C261.91 477.776 287.912 456.905 315.144 437.613C317.955 435.684 320.766 434.983 324.104 434.807C377.337 431.826 430.57 434.106 483.628 437.789C502.075 439.016 520.346 441.121 538.618 443.226C543.01 443.752 544.064 442.524 544.943 438.49C548.281 421.303 548.456 421.303 565.849 425.161C572.35 426.564 579.904 430.773 584.999 428.844C589.567 427.09 591.148 418.321 594.486 413.06C614.69 381.842 613.461 381.667 650.355 390.436C685.317 398.679 714.832 418.672 742.591 440.595C749.794 446.382 757.173 448.838 766.308 449.188C828.677 451.468 890.168 460.588 950.604 475.846C955.172 477.074 958.159 479.354 960.618 483.388C971.335 502.154 981.877 520.919 989.08 541.264C990.485 545.298 992.594 547.227 996.459 548.454C1053.03 565.642 1099.06 599.315 1141.05 639.302C1144.56 642.634 1144.04 645.616 1142.81 649.474C1137.54 665.083 1126.64 676.307 1113.64 685.603C1109.6 688.409 1107.14 691.39 1105.91 696.301C1099.76 718.224 1085.88 734.183 1066.38 745.408C1062.17 747.863 1059.18 750.845 1056.72 754.878C1041.79 779.782 1020.18 795.918 990.485 803.81C1000.32 779.256 1000.85 755.404 994.175 731.377C992.066 723.836 985.039 726.817 980.296 724.713C978.714 724.362 977.309 724.187 975.727 723.836C975.552 722.783 974.849 722.783 973.971 723.134C956.578 718.75 938.833 715.944 920.913 714.014C915.818 713.488 912.48 714.365 909.669 719.276C900.006 736.463 892.627 754.177 888.762 773.644C884.897 792.936 890.871 808.019 904.75 820.646C912.129 827.311 919.859 833.449 927.238 840.289C930.752 843.621 934.09 843.621 938.306 841.867C955.172 834.501 967.47 823.102 973.619 803.81C986.62 821.172 987.85 839.061 983.633 857.827C983.282 859.581 983.107 861.335 982.228 862.913C977.836 870.455 981.701 872.91 988.728 873.261C992.066 873.436 994.878 873.085 993.999 878.522C985.39 929.383 936.725 986.382 868.207 986.732C865.572 986.732 863.112 986.206 859.598 985.856C865.045 980.068 873.653 978.665 875.937 969.545C838.867 984.803 801.446 988.136 762.619 983.4C764.025 977.437 765.606 971.825 766.484 966.037C768.944 950.604 766.836 936.223 759.984 921.841C749.97 900.971 738.55 881.153 723.616 863.264C718.697 857.301 715.008 856.249 707.805 859.932C638.057 896.411 579.553 946.044 529.482 1006.2C508.751 1031.1 490.128 1057.59 473.965 1085.82C470.451 1092.14 468.167 1091.61 463.248 1087.93C447.963 1076.7 432.854 1065.13 417.921 1053.55C412.123 1048.99 412.65 1045.84 415.988 1040.22C439.354 1001.46 467.816 966.739 501.372 936.223C505.764 932.189 507.345 929.207 504.359 923.244C498.737 911.669 494.872 900.269 490.655 889.22ZM1015.61 734.885C1017.19 746.11 1018.6 757.158 1015.96 768.032C1015.61 769.435 1013.32 771.013 1015.26 772.241C1016.66 773.118 1018.42 772.241 1020 771.013C1027.91 764.524 1034.76 757.158 1040.03 748.389C1041.43 745.934 1041.79 744.18 1038.8 743.128C1031.24 740.497 1024.22 736.464 1015.61 734.885ZM969.052 833.625C963.078 843.095 955.875 848.883 947.794 854.144C963.43 864.492 964.835 863.966 969.052 846.252C969.755 842.569 970.282 839.061 969.052 833.625Z" fill="black"/>
<path d="M490.655 889.22C487.141 875.716 482.925 862.387 479.938 848.707C475.019 825.557 472.384 802.231 470.978 778.555C470.627 774.17 472.208 771.54 476.073 769.435C483.628 765.577 490.655 761.017 498.21 757.158C501.899 755.229 502.778 752.949 502.251 748.915C496.629 706.122 496.277 663.329 501.548 620.536C501.899 617.028 498.737 610.364 504.359 610.364C508.575 610.364 506.116 617.204 506.467 620.712C510.332 669.468 523.684 715.593 545.997 759.087C549.686 766.278 548.808 769.26 541.429 772.416C534.05 775.398 523.86 777.152 520.522 783.992C517.184 790.656 520.698 799.951 521.752 808.019C524.211 825.908 526.847 843.621 534.401 860.283C536.334 871.682 542.307 881.328 547.402 891.325C549.159 894.833 550.916 894.657 554.078 892.553C566.376 884.31 578.85 876.242 591.5 868.525C594.486 866.596 595.189 865.018 593.959 861.686C590.621 852.39 587.81 842.92 584.648 833.625C580.607 814.859 576.742 796.268 575.336 777.152C574.809 770.487 575.688 765.752 582.891 763.823C588.162 762.42 589.743 759.438 589.216 753.651C586.229 721.205 587.459 688.935 595.716 657.191C596.419 654.385 596.595 651.579 599.23 648.773C600.987 662.102 600.987 675.255 603.798 688.058C608.893 712.261 615.92 735.937 627.691 757.684C630.678 763.297 629.448 765.401 624.002 767.856C608.366 775.047 608.366 775.223 611.001 792.585C612.231 800.653 612.933 808.72 616.096 816.437C617.501 825.557 621.191 833.625 624.529 842.043C626.637 847.48 628.745 848.707 634.543 845.901C660.018 833.098 686.722 822.576 713.954 814.157C719.751 812.403 724.671 812.754 729.941 815.034C748.388 822.751 762.268 835.729 773.336 852.04C790.729 877.996 800.392 906.934 804.608 937.45C805.838 946.57 809.879 949.201 817.961 950.253C850.638 954.462 880.681 949.902 906.155 926.226C906.331 934.82 900.709 939.906 897.195 946.746C900.182 946.746 902.642 946.921 904.926 946.746C924.076 944.29 954.469 911.319 955.523 892.202C955.699 889.922 955.172 888.344 952.888 887.291C929.873 876.944 913.71 858.353 895.263 842.218C874.883 823.979 851.692 809.597 823.231 807.843C818.488 807.493 817.433 805.739 816.731 801.705C814.974 792.41 814.798 783.115 815.677 773.819C818.136 744.355 826.042 715.944 834.826 687.883C836.759 681.569 840.273 678.587 846.422 676.658C868.031 670.169 890.168 669.818 912.48 669.468C938.13 673.151 963.605 677.535 989.256 688.233C984.688 679.64 976.606 677.184 971.687 670.344C978.89 669.292 984.336 672.624 989.782 674.904C1009.11 683.147 1027.38 693.319 1042.84 708.227C1044.6 709.981 1046.18 711.734 1048.64 709.805C1051.8 707.35 1048.46 705.771 1047.23 704.368C1038.45 695.073 1029.66 686.129 1020.88 677.009C1029.66 675.431 1036.16 681.043 1043.37 684.55C1051.27 688.409 1059.18 692.969 1065.33 699.809C1068.31 703.316 1071.3 704.018 1073.94 699.107C1075.34 696.301 1077.27 693.67 1078.86 690.864C1083.25 682.797 1085.36 676.307 1076.22 668.591C1064.1 658.419 1059 643.336 1056.19 627.902C1054.96 621.588 1056.9 618.607 1063.75 619.133C1067.79 619.484 1071.83 619.133 1078.33 619.133C1073.23 615.801 1069.72 613.17 1065.86 610.89C1036.69 593.527 1005.24 581.952 972.565 573.359C969.052 572.482 965.011 572.131 963.254 568.097C962.2 558.627 957.807 550.384 954.294 541.79C945.861 521.095 932.684 506.538 908.966 503.557C898.601 502.329 889.114 497.068 878.045 498.821C863.288 501.101 848.706 503.557 834.299 507.766C816.731 512.15 800.567 520.393 781.417 527.584C790.202 516.535 799.689 510.221 807.946 502.504C815.325 497.945 822.528 493.385 830.259 488.474C814.622 482.16 801.446 487.948 788.445 494.788C764.2 504.083 741.537 516.71 717.116 530.39C726.954 512.677 741.361 501.803 754.186 489.702C759.105 487.597 763.673 485.142 768.065 481.108C750.672 479.003 733.982 478.302 717.292 479.529C705.345 479.88 693.574 475.671 680.397 478.302C686.371 483.739 691.817 488.474 697.263 493.385C699.02 494.963 701.304 496.541 699.547 498.997C697.615 501.452 695.682 499.698 693.574 498.471C675.302 488.474 655.801 481.634 635.773 476.197C632.962 475.32 630.151 475.846 627.34 474.619C612.406 469.007 596.595 468.13 580.783 468.13C575.336 468.13 573.931 470.234 573.931 475.32C574.458 493.209 577.796 510.572 584.297 527.233C584.824 528.812 584.648 531.793 587.634 531.442C590.621 531.092 590.797 528.636 590.973 526.181C591.675 518.64 592.554 511.098 593.257 503.557C593.608 499.523 594.838 497.944 599.23 498.646C631.908 503.907 662.829 513.553 690.412 532.319C691.817 533.372 694.452 533.722 693.75 536.879C682.506 535.652 671.789 530.039 659.139 531.968C673.897 539.51 673.897 539.685 668.802 554.768C665.991 563.362 661.599 571.254 657.207 579.146C650.882 588.441 642.8 596.334 634.719 604.05C632.786 605.804 630.678 608.259 627.867 606.856C624.88 605.278 627.867 602.823 628.043 601.069C629.448 593.352 629.799 585.811 627.867 578.269C626.637 573.885 624.88 571.605 619.61 571.429C601.69 570.728 586.932 576.515 576.391 591.774C572.525 588.792 570.241 584.758 567.958 580.9C554.078 557.223 544.943 532.144 543.186 504.434C542.132 487.948 543.888 490.579 528.428 489.702C509.981 488.825 509.981 489 502.953 505.661C479.235 562.66 447.26 614.749 406.852 661.575C402.285 666.837 401.757 669.818 408.961 671.397C420.907 674.027 418.096 682.446 417.218 690.513C410.19 755.755 390.689 816.788 354.322 872.033C347.821 881.854 339.915 890.273 332.537 899.217C330.955 900.971 329.55 903.602 325.509 903.426C330.78 890.097 336.226 877.645 340.618 864.842C356.254 818.892 366.971 771.89 362.403 722.959C360.12 699.809 356.255 676.483 343.605 655.963C340.97 651.579 341.848 648.948 345.362 645.616C385.594 605.979 411.42 558.1 427.935 504.609C429.34 500.049 430.394 495.138 431.624 490.578C429.165 488.825 426.354 489.526 423.894 489.702C389.108 490.579 354.322 492.157 319.536 494.963C292.656 497.068 265.6 499.523 238.72 501.803C261.91 477.776 287.912 456.905 315.144 437.613C317.955 435.684 320.766 434.983 324.104 434.807C377.337 431.826 430.57 434.106 483.628 437.789C502.075 439.016 520.346 441.121 538.618 443.226C543.01 443.752 544.064 442.524 544.943 438.49C548.281 421.303 548.456 421.303 565.849 425.161C572.35 426.564 579.904 430.773 584.999 428.844C589.567 427.09 591.148 418.321 594.486 413.06C614.69 381.842 613.461 381.667 650.355 390.436C685.317 398.679 714.832 418.672 742.591 440.595C749.794 446.382 757.173 448.838 766.308 449.188C828.677 451.468 890.168 460.588 950.604 475.846C955.172 477.074 958.159 479.354 960.618 483.388C971.335 502.154 981.877 520.919 989.08 541.264C990.485 545.298 992.594 547.227 996.459 548.454C1053.03 565.642 1099.06 599.315 1141.05 639.302C1144.56 642.634 1144.04 645.616 1142.81 649.474C1137.54 665.083 1126.64 676.307 1113.64 685.603C1109.6 688.409 1107.14 691.39 1105.91 696.301C1099.76 718.224 1085.88 734.183 1066.38 745.408C1062.17 747.863 1059.18 750.845 1056.72 754.878C1041.79 779.782 1020.18 795.918 990.485 803.81C1000.32 779.256 1000.85 755.404 994.175 731.377C992.066 723.836 985.039 726.817 980.296 724.713C978.714 724.362 977.309 724.187 975.727 723.836C975.552 722.783 974.849 722.783 973.971 723.134C956.578 718.75 938.833 715.944 920.913 714.014C915.818 713.488 912.48 714.365 909.669 719.276C900.006 736.463 892.627 754.177 888.762 773.644C884.897 792.936 890.871 808.019 904.75 820.646C912.129 827.311 919.859 833.449 927.238 840.289C930.752 843.621 934.09 843.621 938.306 841.867C955.172 834.501 967.47 823.102 973.619 803.81C986.62 821.172 987.85 839.061 983.633 857.827C983.282 859.581 983.107 861.335 982.228 862.913C977.836 870.455 981.701 872.91 988.728 873.261C992.066 873.436 994.878 873.085 993.999 878.522C985.39 929.383 936.725 986.382 868.207 986.732C865.572 986.732 863.112 986.206 859.598 985.856C865.045 980.068 873.653 978.665 875.937 969.545C838.867 984.803 801.446 988.136 762.619 983.4C764.025 977.437 765.606 971.825 766.484 966.037C768.944 950.604 766.836 936.223 759.984 921.841C749.97 900.971 738.55 881.153 723.616 863.264C718.697 857.301 715.008 856.249 707.805 859.932C638.057 896.411 579.553 946.044 529.482 1006.2C508.751 1031.1 490.128 1057.59 473.965 1085.82C470.451 1092.14 468.167 1091.61 463.248 1087.93C447.963 1076.7 432.854 1065.13 417.921 1053.55C412.123 1048.99 412.65 1045.84 415.988 1040.22C439.354 1001.46 467.816 966.739 501.372 936.223C505.764 932.189 507.345 929.207 504.359 923.244C498.737 911.669 494.872 900.269 490.655 889.22ZM1015.61 734.885C1017.19 746.11 1018.6 757.158 1015.96 768.032C1015.61 769.435 1013.32 771.013 1015.26 772.241C1016.66 773.118 1018.42 772.241 1020 771.013C1027.91 764.524 1034.76 757.158 1040.03 748.389C1041.43 745.934 1041.79 744.18 1038.8 743.128C1031.24 740.497 1024.22 736.464 1015.61 734.885ZM969.052 833.625C963.078 843.095 955.875 848.883 947.794 854.144C963.43 864.492 964.835 863.966 969.052 846.252C969.755 842.569 970.282 839.061 969.052 833.625Z" fill="#FBB603"/>
<path d="M490.655 889.22C487.141 875.716 482.925 862.387 479.938 848.707C475.019 825.557 472.384 802.231 470.978 778.555C470.627 774.17 472.208 771.54 476.073 769.435C483.628 765.577 490.655 761.017 498.21 757.158C501.899 755.229 502.778 752.949 502.251 748.915C496.629 706.122 496.277 663.329 501.548 620.536C501.899 617.028 498.737 610.364 504.359 610.364C508.575 610.364 506.116 617.204 506.467 620.712C510.332 669.468 523.684 715.593 545.997 759.087C549.686 766.278 548.808 769.26 541.429 772.416C534.05 775.398 523.86 777.152 520.522 783.992C517.184 790.656 520.698 799.951 521.752 808.019C524.211 825.908 526.847 843.621 534.401 860.283C536.334 871.682 542.307 881.328 547.402 891.325C549.159 894.833 550.916 894.657 554.078 892.553C566.376 884.31 578.85 876.242 591.5 868.525C594.486 866.596 595.189 865.018 593.959 861.686C590.621 852.39 587.81 842.92 584.648 833.625C580.607 814.859 576.742 796.268 575.336 777.152C574.809 770.487 575.688 765.752 582.891 763.823C588.162 762.42 589.743 759.438 589.216 753.651C586.229 721.205 587.459 688.935 595.716 657.191C596.419 654.385 596.595 651.579 599.23 648.773C600.987 662.102 600.987 675.255 603.798 688.058C608.893 712.261 615.92 735.937 627.691 757.684C630.678 763.297 629.448 765.401 624.002 767.856C608.366 775.047 608.366 775.223 611.001 792.585C612.231 800.653 612.933 808.72 616.096 816.437C617.501 825.557 621.191 833.625 624.529 842.043C626.637 847.48 628.745 848.707 634.543 845.901C660.018 833.098 686.722 822.576 713.954 814.157C719.751 812.403 724.671 812.754 729.941 815.034C748.388 822.751 762.268 835.729 773.336 852.04C790.729 877.996 800.392 906.934 804.608 937.45C805.838 946.57 809.879 949.201 817.961 950.253C850.638 954.462 880.681 949.902 906.155 926.226C906.331 934.82 900.709 939.906 897.195 946.746C900.182 946.746 902.642 946.921 904.926 946.746C924.076 944.29 954.469 911.319 955.523 892.202C955.699 889.922 955.172 888.344 952.888 887.291C929.873 876.944 913.71 858.353 895.263 842.218C874.883 823.979 851.692 809.597 823.231 807.843C818.488 807.493 817.433 805.739 816.731 801.705C814.974 792.41 814.798 783.115 815.677 773.819C818.136 744.355 826.042 715.944 834.826 687.883C836.759 681.569 840.273 678.587 846.422 676.658C868.031 670.169 890.168 669.818 912.48 669.468C938.13 673.151 963.605 677.535 989.256 688.233C984.688 679.64 976.606 677.184 971.687 670.344C978.89 669.292 984.336 672.624 989.782 674.904C1009.11 683.147 1027.38 693.319 1042.84 708.227C1044.6 709.981 1046.18 711.734 1048.64 709.805C1051.8 707.35 1048.46 705.771 1047.23 704.368C1038.45 695.073 1029.66 686.129 1020.88 677.009C1029.66 675.431 1036.16 681.043 1043.37 684.55C1051.27 688.409 1059.18 692.969 1065.33 699.809C1068.31 703.316 1071.3 704.018 1073.94 699.107C1075.34 696.301 1077.27 693.67 1078.86 690.864C1083.25 682.797 1085.36 676.307 1076.22 668.591C1064.1 658.419 1059 643.336 1056.19 627.902C1054.96 621.588 1056.9 618.607 1063.75 619.133C1067.79 619.484 1071.83 619.133 1078.33 619.133C1073.23 615.801 1069.72 613.17 1065.86 610.89C1036.69 593.527 1005.24 581.952 972.565 573.359C969.052 572.482 965.011 572.131 963.254 568.097C962.2 558.627 957.807 550.384 954.294 541.79C945.861 521.095 932.684 506.538 908.966 503.557C898.601 502.329 889.114 497.068 878.045 498.821C863.288 501.101 848.706 503.557 834.299 507.766C816.731 512.15 800.567 520.393 781.417 527.584C790.202 516.535 799.689 510.221 807.946 502.504C815.325 497.945 822.528 493.385 830.259 488.474C814.622 482.16 801.446 487.948 788.445 494.788C764.2 504.083 741.537 516.71 717.116 530.39C726.954 512.677 741.361 501.803 754.186 489.702C759.105 487.597 763.673 485.142 768.065 481.108C750.672 479.003 733.982 478.302 717.292 479.529C705.345 479.88 693.574 475.671 680.397 478.302C686.371 483.739 691.817 488.474 697.263 493.385C699.02 494.963 701.304 496.541 699.547 498.997C697.615 501.452 695.682 499.698 693.574 498.471C675.302 488.474 655.801 481.634 635.773 476.197C632.962 475.32 630.151 475.846 627.34 474.619C612.406 469.007 596.595 468.13 580.783 468.13C575.336 468.13 573.931 470.234 573.931 475.32C574.458 493.209 577.796 510.572 584.297 527.233C584.824 528.812 584.648 531.793 587.634 531.442C590.621 531.092 590.797 528.636 590.973 526.181C591.675 518.64 592.554 511.098 593.257 503.557C593.608 499.523 594.838 497.944 599.23 498.646C631.908 503.907 662.829 513.553 690.412 532.319C691.817 533.372 694.452 533.722 693.75 536.879C682.506 535.652 671.789 530.039 659.139 531.968C673.897 539.51 673.897 539.685 668.802 554.768C665.991 563.362 661.599 571.254 657.207 579.146C650.882 588.441 642.8 596.334 634.719 604.05C632.786 605.804 630.678 608.259 627.867 606.856C624.88 605.278 627.867 602.823 628.043 601.069C629.448 593.352 629.799 585.811 627.867 578.269C626.637 573.885 624.88 571.605 619.61 571.429C601.69 570.728 586.932 576.515 576.391 591.774C572.525 588.792 570.241 584.758 567.958 580.9C554.078 557.223 544.943 532.144 543.186 504.434C542.132 487.948 543.888 490.579 528.428 489.702C509.981 488.825 509.981 489 502.953 505.661C479.235 562.66 447.26 614.749 406.852 661.575C402.285 666.837 401.757 669.818 408.961 671.397C420.907 674.027 418.096 682.446 417.218 690.513C410.19 755.755 390.689 816.788 354.322 872.033C347.821 881.854 339.915 890.273 332.537 899.217C330.955 900.971 329.55 903.602 325.509 903.426C330.78 890.097 336.226 877.645 340.618 864.842C356.254 818.892 366.971 771.89 362.403 722.959C360.12 699.809 356.255 676.483 343.605 655.963C340.97 651.579 341.848 648.948 345.362 645.616C385.594 605.979 411.42 558.1 427.935 504.609C429.34 500.049 430.394 495.138 431.624 490.578C429.165 488.825 426.354 489.526 423.894 489.702C389.108 490.579 354.322 492.157 319.536 494.963C292.656 497.068 265.6 499.523 238.72 501.803C261.91 477.776 287.912 456.905 315.144 437.613C317.955 435.684 320.766 434.983 324.104 434.807C377.337 431.826 430.57 434.106 483.628 437.789C502.075 439.016 520.346 441.121 538.618 443.226C543.01 443.752 544.064 442.524 544.943 438.49C548.281 421.303 548.456 421.303 565.849 425.161C572.35 426.564 579.904 430.773 584.999 428.844C589.567 427.09 591.148 418.321 594.486 413.06C614.69 381.842 613.461 381.667 650.355 390.436C685.317 398.679 714.832 418.672 742.591 440.595C749.794 446.382 757.173 448.838 766.308 449.188C828.677 451.468 890.168 460.588 950.604 475.846C955.172 477.074 958.159 479.354 960.618 483.388C971.335 502.154 981.877 520.919 989.08 541.264C990.485 545.298 992.594 547.227 996.459 548.454C1053.03 565.642 1099.06 599.315 1141.05 639.302C1144.56 642.634 1144.04 645.616 1142.81 649.474C1137.54 665.083 1126.64 676.307 1113.64 685.603C1109.6 688.409 1107.14 691.39 1105.91 696.301C1099.76 718.224 1085.88 734.183 1066.38 745.408C1062.17 747.863 1059.18 750.845 1056.72 754.878C1041.79 779.782 1020.18 795.918 990.485 803.81C1000.32 779.256 1000.85 755.404 994.175 731.377C992.066 723.836 985.039 726.817 980.296 724.713C978.714 724.362 977.309 724.187 975.727 723.836C975.552 722.783 974.849 722.783 973.971 723.134C956.578 718.75 938.833 715.944 920.913 714.014C915.818 713.488 912.48 714.365 909.669 719.276C900.006 736.463 892.627 754.177 888.762 773.644C884.897 792.936 890.871 808.019 904.75 820.646C912.129 827.311 919.859 833.449 927.238 840.289C930.752 843.621 934.09 843.621 938.306 841.867C955.172 834.501 967.47 823.102 973.619 803.81C986.62 821.172 987.85 839.061 983.633 857.827C983.282 859.581 983.107 861.335 982.228 862.913C977.836 870.455 981.701 872.91 988.728 873.261C992.066 873.436 994.878 873.085 993.999 878.522C985.39 929.383 936.725 986.382 868.207 986.732C865.572 986.732 863.112 986.206 859.598 985.856C865.045 980.068 873.653 978.665 875.937 969.545C838.867 984.803 801.446 988.136 762.619 983.4C764.025 977.437 765.606 971.825 766.484 966.037C768.944 950.604 766.836 936.223 759.984 921.841C749.97 900.971 738.55 881.153 723.616 863.264C718.697 857.301 715.008 856.249 707.805 859.932C638.057 896.411 579.553 946.044 529.482 1006.2C508.751 1031.1 490.128 1057.59 473.965 1085.82C470.451 1092.14 468.167 1091.61 463.248 1087.93C447.963 1076.7 432.854 1065.13 417.921 1053.55C412.123 1048.99 412.65 1045.84 415.988 1040.22C439.354 1001.46 467.816 966.739 501.372 936.223C505.764 932.189 507.345 929.207 504.359 923.244C498.737 911.669 494.872 900.269 490.655 889.22ZM1015.61 734.885C1017.19 746.11 1018.6 757.158 1015.96 768.032C1015.61 769.435 1013.32 771.013 1015.26 772.241C1016.66 773.118 1018.42 772.241 1020 771.013C1027.91 764.524 1034.76 757.158 1040.03 748.389C1041.43 745.934 1041.79 744.18 1038.8 743.128C1031.24 740.497 1024.22 736.464 1015.61 734.885ZM969.052 833.625C963.078 843.095 955.875 848.883 947.794 854.144C963.43 864.492 964.835 863.966 969.052 846.252C969.755 842.569 970.282 839.061 969.052 833.625Z" fill="url(#paint3_linear_21_959)"/>
</g>
<path d="M739.877 250.552C981.958 250.552 1178.2 446.797 1178.2 688.877C1178.2 930.957 981.958 1127.2 739.877 1127.2C497.797 1127.2 301.552 930.957 301.552 688.877C301.552 446.797 497.797 250.552 739.877 250.552Z" stroke="white" stroke-width="12.5033"/>
</g>
</g>
<defs>
<linearGradient id="paint0_linear_21_959" x1="385.924" y1="337.527" x2="1083.43" y2="1048.03" gradientUnits="userSpaceOnUse">
<stop stop-color="#020202"/>
<stop offset="0.33" stop-color="#0049AD"/>
<stop offset="1"/>
</linearGradient>
<linearGradient id="paint1_linear_21_959" x1="451.41" y1="385.461" x2="1046.28" y2="980.329" gradientUnits="userSpaceOnUse">
<stop stop-color="#FBB603"/>
<stop offset="0.315" stop-color="white"/>
<stop offset="0.685" stop-color="#FBB603"/>
<stop offset="1" stop-color="white"/>
</linearGradient>
<linearGradient id="paint2_linear_21_959" x1="451.41" y1="385.461" x2="1046.28" y2="980.329" gradientUnits="userSpaceOnUse">
<stop stop-color="#FBB603"/>
<stop offset="0.315" stop-color="white"/>
<stop offset="0.685" stop-color="#FBB603"/>
<stop offset="1" stop-color="white"/>
</linearGradient>
<linearGradient id="paint3_linear_21_959" x1="451.41" y1="385.461" x2="1046.28" y2="980.329" gradientUnits="userSpaceOnUse">
<stop stop-color="#FBB603"/>
<stop offset="0.315" stop-color="white"/>
<stop offset="0.685" stop-color="#FBB603"/>
<stop offset="1" stop-color="white"/>
</linearGradient>
<clipPath id="clip0_21_959">
<rect width="1485" height="1485" fill="white"/>
</clipPath>
</defs>
</svg>
