<svg width="1485" height="1485" viewBox="0 0 1485 1485" fill="none" xmlns="http://www.w3.org/2000/svg">
<rect width="1485" height="1485" rx="150" fill="black"/>
<path fill-rule="evenodd" clip-rule="evenodd" d="M371.694 280.776V307.653C401.248 280.274 419.687 269.877 455.841 260.911C403.723 346.15 372.961 376.692 319.119 378.815C316.121 378.933 313.885 376.135 314.589 373.22C323.876 334.763 336.291 313.465 371.694 280.776ZM336.633 406.98C322.039 411.989 312.854 413.76 298.501 411.606C294.697 411.035 291.765 407.989 291.202 404.184C287.751 380.862 289.322 365.175 295.728 338.035C259.635 381.663 247.375 412.564 246.674 478.938C246.641 482.084 249.696 484.334 252.672 483.313C287.396 471.405 306.563 453.254 336.633 406.98ZM240.108 519.943C256.742 518.832 268.05 516.159 286.378 509.812C268.956 548.355 254.572 565.156 222.387 582.585C220.254 583.74 217.583 583.031 216.352 580.94C186.265 529.844 194.764 460.775 224.436 413.991C223.096 461.213 224.234 485.273 230.798 513.049C231.805 517.314 235.735 520.235 240.108 519.943ZM260.666 593.948C242.913 603.828 232.252 608.429 216.411 613.224C212.792 614.319 208.862 613.048 206.565 610.045C182.11 578.081 172.663 553.717 163.663 505.138C148.724 584.989 154.112 624.1 204.151 677.513C205.718 679.185 208.299 679.47 210.165 678.14C244.825 653.436 253.307 632.324 260.666 593.948ZM217.7 723.425C232.966 715.143 241.254 706.937 253.654 690.938C252.429 738.294 245.441 760.713 217.36 787.001C215.995 788.279 213.96 788.585 212.268 787.787C145.43 756.282 120.421 710.527 120.421 606.802C124.469 613.641 128.242 620.107 131.824 626.244L131.832 626.257L131.832 626.258C157.172 669.677 172.894 696.617 208.219 722.727C210.983 724.77 214.68 725.063 217.7 723.425ZM266.51 771.568C259.233 798.501 251.473 812.013 233.595 829.281C230.911 831.874 226.894 832.526 223.516 830.938C171.909 806.68 139.983 774.15 105.228 711.972C105.228 797.639 134.193 860.22 236.717 891.067C238.467 891.594 240.409 891.036 241.584 889.637C270.263 855.502 273.72 827.857 266.51 771.568ZM257.437 927.345C202.849 918.939 173.569 900.042 125.096 855.704C149.359 935.416 203.321 987.718 293.758 985.511C295.643 985.465 297.334 984.253 297.976 982.48C312.941 941.156 311.899 914.955 296.896 866.221C287.559 890.411 280.282 903.73 266.272 923.573C264.277 926.399 260.857 927.871 257.437 927.345ZM344.814 951.525C341.909 976.958 337.683 991.62 324.872 1015.2C323.466 1017.79 320.884 1019.54 317.961 1019.9C278.884 1024.69 254.584 1022 211.58 1012.29C257.983 1056.4 290.652 1070.12 361.974 1067.38C364.209 1067.29 366.091 1065.61 366.4 1063.39C372.93 1016.47 368.201 991.31 344.814 951.525ZM393.312 1081.35C396.176 1058.09 396.36 1043.74 395.068 1019.3C429.571 1056 440.395 1079.83 440.652 1126.15C440.666 1128.52 438.841 1130.51 436.482 1130.76C363.801 1138.3 331.072 1130.14 288.715 1095.26C340.359 1098.31 367.504 1098.56 388.683 1088.08C391.281 1086.8 392.957 1084.22 393.312 1081.35ZM468.697 1104.61C472.748 1131.22 468.381 1141.35 451.166 1152.52L481.553 1163.03C572.568 1159.88 621.331 1164.17 661.534 1188.74C645.472 1201.87 621.726 1203.58 573.881 1201.6L599.593 1226.13C647.846 1227.73 670.797 1223.39 698.933 1199.26C675.559 1165.37 640.889 1154.48 596.086 1144.34L594.407 1143.96C533.576 1130.19 502.559 1123.16 468.697 1104.61ZM1111.49 280.776V307.653C1081.93 280.274 1063.49 269.877 1027.34 260.911C1079.46 346.15 1110.22 376.692 1164.06 378.815C1167.06 378.933 1169.3 376.135 1168.59 373.22C1159.31 334.763 1146.89 313.465 1111.49 280.776ZM1146.55 406.98C1161.14 411.989 1170.33 413.76 1184.68 411.606C1188.49 411.035 1191.42 407.989 1191.98 404.184C1195.43 380.862 1193.86 365.175 1187.45 338.035C1223.55 381.663 1235.81 412.564 1236.51 478.938C1236.54 482.084 1233.49 484.334 1230.51 483.313C1195.79 471.405 1176.62 453.254 1146.55 406.98ZM1243.07 519.943C1226.44 518.832 1215.13 516.159 1196.8 509.812C1214.23 548.355 1228.61 565.156 1260.8 582.585C1262.93 583.74 1265.6 583.031 1266.83 580.94C1296.92 529.844 1288.42 460.775 1258.75 413.991C1260.09 461.213 1258.95 485.273 1252.38 513.049C1251.38 517.314 1247.45 520.235 1243.07 519.943ZM1222.52 593.948C1240.27 603.828 1250.93 608.429 1266.77 613.224C1270.39 614.319 1274.32 613.048 1276.62 610.045C1301.07 578.081 1310.52 553.717 1319.52 505.138C1334.46 584.989 1329.07 624.1 1279.03 677.513C1277.46 679.185 1274.88 679.47 1273.02 678.14C1238.36 653.436 1229.87 632.324 1222.52 593.948ZM1265.48 723.425C1250.22 715.143 1241.93 706.937 1229.53 690.938C1230.75 738.294 1237.74 760.713 1265.82 787.001C1267.19 788.279 1269.22 788.585 1270.91 787.787C1337.75 756.282 1362.76 710.527 1362.76 606.802C1358.71 613.647 1354.93 620.117 1351.35 626.258C1326.01 669.677 1310.29 696.617 1274.96 722.727C1272.2 724.77 1268.5 725.063 1265.48 723.425ZM1216.67 771.568C1223.95 798.501 1231.71 812.013 1249.59 829.281C1252.27 831.874 1256.29 832.526 1259.67 830.938C1311.27 806.68 1343.2 774.15 1377.95 711.972C1377.95 797.639 1348.99 860.22 1246.46 891.067C1244.71 891.594 1242.77 891.036 1241.6 889.637C1212.92 855.502 1209.46 827.857 1216.67 771.568ZM1225.74 927.345C1280.33 918.939 1309.61 900.042 1358.09 855.704C1333.82 935.416 1279.86 987.718 1189.42 985.511C1187.54 985.465 1185.85 984.253 1185.21 982.48C1170.24 941.156 1171.28 914.955 1186.29 866.221C1195.62 890.411 1202.9 903.73 1216.91 923.573C1218.9 926.399 1222.33 927.871 1225.74 927.345ZM1138.37 951.525C1141.27 976.958 1145.5 991.62 1158.31 1015.2C1159.72 1017.79 1162.3 1019.54 1165.22 1019.9C1204.3 1024.69 1228.6 1022 1271.6 1012.29C1225.2 1056.4 1192.53 1070.12 1121.21 1067.38C1118.97 1067.29 1117.09 1065.61 1116.78 1063.39C1110.25 1016.47 1114.98 991.31 1138.37 951.525ZM1089.87 1081.35C1087.01 1058.09 1086.82 1043.74 1088.11 1019.3C1053.61 1056 1042.79 1079.83 1042.53 1126.15C1042.52 1128.52 1044.34 1130.51 1046.7 1130.76C1119.38 1138.3 1152.11 1130.14 1194.47 1095.26C1142.82 1098.31 1115.68 1098.56 1094.5 1088.08C1091.9 1086.8 1090.22 1084.22 1089.87 1081.35ZM1014.48 1104.61C1010.43 1131.22 1014.8 1141.35 1032.02 1152.52L1001.63 1163.03C910.614 1159.88 861.851 1164.17 821.648 1188.74C837.71 1201.87 861.456 1203.58 909.301 1201.6L883.589 1226.13C835.336 1227.73 812.385 1223.39 784.249 1199.26C807.623 1165.37 842.293 1154.48 887.096 1144.34L888.775 1143.96C949.606 1130.19 980.623 1123.16 1014.48 1104.61Z" fill="white"/>
<mask id="mask0_31_1143" style="mask-type:alpha" maskUnits="userSpaceOnUse" x="304" y="258" width="872" height="872">
<circle cx="739.661" cy="693.751" r="435.343" fill="#D9D9D9"/>
</mask>
<g mask="url(#mask0_31_1143)">
<circle cx="739.661" cy="693.751" r="435.343" fill="url(#paint0_linear_31_1143)"/>
<path fill-rule="evenodd" clip-rule="evenodd" d="M1143.82 693.752C1143.82 916.963 962.873 1097.91 739.661 1097.91C516.449 1097.91 335.5 916.963 335.5 693.752C335.5 470.54 516.449 289.591 739.661 289.591C962.873 289.591 1143.82 470.54 1143.82 693.752ZM1134.37 693.751C1134.37 911.744 957.653 1088.46 739.661 1088.46C521.668 1088.46 344.95 911.744 344.95 693.751C344.95 475.759 521.668 299.041 739.661 299.041C957.653 299.041 1134.37 475.759 1134.37 693.751Z" fill="white"/>
<path fill-rule="evenodd" clip-rule="evenodd" d="M1175 693.751C1175 934.184 980.094 1129.09 739.661 1129.09C499.228 1129.09 304.318 934.184 304.318 693.751C304.318 453.318 499.228 258.409 739.661 258.409C980.094 258.409 1175 453.318 1175 693.751ZM1153.65 693.751C1153.65 922.392 968.301 1107.74 739.661 1107.74C511.02 1107.74 325.67 922.392 325.67 693.751C325.67 465.111 511.02 279.761 739.661 279.761C968.301 279.761 1153.65 465.111 1153.65 693.751Z" fill="white"/>
<mask id="mask1_31_1143" style="mask-type:alpha" maskUnits="userSpaceOnUse" x="335" y="289" width="809" height="809">
<path fill-rule="evenodd" clip-rule="evenodd" d="M1143.82 693.752C1143.82 916.964 962.873 1097.91 739.661 1097.91C516.449 1097.91 335.5 916.964 335.5 693.752C335.5 470.54 516.449 289.591 739.661 289.591C962.873 289.591 1143.82 470.54 1143.82 693.752Z" fill="white"/>
</mask>
<g mask="url(#mask1_31_1143)">
<path d="M698.06 1029.55C731.103 1032.7 736.552 1038.15 739.825 1071.31C742.974 1038.27 748.423 1032.82 781.59 1029.55C748.546 1026.4 743.097 1020.95 739.825 987.784C736.675 1020.83 731.226 1026.28 698.06 1029.55Z" fill="white"/>
<path d="M698.06 1029.55C731.103 1032.7 736.552 1038.15 739.825 1071.31C742.974 1038.27 748.423 1032.82 781.59 1029.55C748.546 1026.4 743.097 1020.95 739.825 987.784C736.675 1020.83 731.226 1026.28 698.06 1029.55Z" fill="white"/>
<path d="M562.131 1009.54C595.174 1012.69 600.624 1018.14 603.896 1051.3C607.046 1018.26 612.495 1012.81 645.661 1009.54C612.618 1006.39 607.169 1000.94 603.896 967.772C600.747 1000.81 595.298 1006.26 562.131 1009.54Z" fill="white"/>
<path d="M562.131 1009.54C595.174 1012.69 600.624 1018.14 603.896 1051.3C607.046 1018.26 612.495 1012.81 645.661 1009.54C612.618 1006.39 607.169 1000.94 603.896 967.772C600.747 1000.81 595.298 1006.26 562.131 1009.54Z" fill="white"/>
<path d="M834.858 1009.54C867.901 1012.69 873.35 1018.14 876.623 1051.3C879.772 1018.26 885.222 1012.81 918.388 1009.54C885.345 1006.39 879.895 1000.94 876.623 967.772C873.474 1000.81 868.024 1006.26 834.858 1009.54Z" fill="white"/>
<path d="M834.858 1009.54C867.901 1012.69 873.35 1018.14 876.623 1051.3C879.772 1018.26 885.222 1012.81 918.388 1009.54C885.345 1006.39 879.895 1000.94 876.623 967.772C873.474 1000.81 868.024 1006.26 834.858 1009.54Z" fill="white"/>
<path d="M698.06 359.574C731.103 356.425 736.552 350.976 739.825 317.809C742.974 350.852 748.423 356.302 781.59 359.574C748.546 362.724 743.097 368.173 739.825 401.339C736.675 368.297 731.226 362.847 698.06 359.574Z" fill="white"/>
<path d="M698.06 359.574C731.103 356.425 736.552 350.976 739.825 317.809C742.974 350.852 748.423 356.302 781.59 359.574C748.546 362.724 743.097 368.173 739.825 401.339C736.675 368.297 731.226 362.847 698.06 359.574Z" fill="white"/>
<path d="M562.131 379.587C595.174 376.438 600.624 370.988 603.896 337.822C607.046 370.865 612.495 376.314 645.661 379.587C612.618 382.736 607.169 388.185 603.896 421.352C600.747 388.309 595.298 382.859 562.131 379.587Z" fill="white"/>
<path d="M562.131 379.587C595.174 376.438 600.624 370.988 603.896 337.822C607.046 370.865 612.495 376.314 645.661 379.587C612.618 382.736 607.169 388.185 603.896 421.352C600.747 388.309 595.298 382.859 562.131 379.587Z" fill="white"/>
<path d="M834.858 379.587C867.901 376.438 873.35 370.988 876.623 337.822C879.772 370.865 885.222 376.314 918.388 379.587C885.345 382.736 879.895 388.185 876.623 421.352C873.474 388.309 868.024 382.859 834.858 379.587Z" fill="white"/>
<path d="M834.858 379.587C867.901 376.438 873.35 370.988 876.623 337.822C879.772 370.865 885.222 376.314 918.388 379.587C885.345 382.736 879.895 388.185 876.623 421.352C873.474 388.309 868.024 382.859 834.858 379.587Z" fill="white"/>
<path d="M922.447 663.192C874.692 659.844 827.416 662.714 781.897 678.817C770.876 682.644 760.335 687.586 750.592 694.283C748.197 692.369 750.273 690.934 751.231 689.659C784.292 641.349 835.561 614.883 896.093 626.84C898.329 627.319 900.885 627.319 902.961 630.348C889.864 634.015 876.289 634.175 862.713 640.074C887.149 642.306 908.232 649.959 928.995 662.555C925.801 662.714 924.044 662.873 922.447 663.192Z" fill="white"/>
<path d="M922.447 663.192C874.692 659.844 827.416 662.714 781.897 678.817C770.876 682.644 760.335 687.586 750.592 694.283C748.197 692.369 750.273 690.934 751.231 689.659C784.292 641.349 835.561 614.883 896.093 626.84C898.329 627.319 900.885 627.319 902.961 630.348C889.864 634.015 876.289 634.175 862.713 640.074C887.149 642.306 908.232 649.959 928.995 662.555C925.801 662.714 924.044 662.873 922.447 663.192Z" fill="black"/>
<path d="M922.447 663.192C874.692 659.844 827.416 662.714 781.897 678.817C770.876 682.644 760.335 687.586 750.592 694.283C748.197 692.369 750.273 690.934 751.231 689.659C784.292 641.349 835.561 614.883 896.093 626.84C898.329 627.319 900.885 627.319 902.961 630.348C889.864 634.015 876.289 634.175 862.713 640.074C887.149 642.306 908.232 649.959 928.995 662.555C925.801 662.714 924.044 662.873 922.447 663.192Z" fill="#FBB603"/>
<path d="M922.447 663.192C874.692 659.844 827.416 662.714 781.897 678.817C770.876 682.644 760.335 687.586 750.592 694.283C748.197 692.369 750.273 690.934 751.231 689.659C784.292 641.349 835.561 614.883 896.093 626.84C898.329 627.319 900.885 627.319 902.961 630.348C889.864 634.015 876.289 634.175 862.713 640.074C887.149 642.306 908.232 649.959 928.995 662.555C925.801 662.714 924.044 662.873 922.447 663.192Z" fill="url(#paint1_linear_31_1143)"/>
<path d="M885.552 553.659C898.17 561.312 909.509 570.719 919.891 581.242C924.203 585.546 929.953 587.779 936.501 591.605C906.155 605.954 875.969 606.592 843.866 600.534C846.581 597.026 849.296 596.229 851.852 595.432C854.407 594.634 856.803 593.837 860.157 592.721C854.567 585.706 850.574 578.531 846.581 571.197C843.387 565.298 844.345 563.066 851.373 563.863C853.928 564.182 856.484 563.863 860.157 563.863C852.81 556.688 844.665 553.34 836.359 549.832C828.054 546.325 818.95 549.992 810.166 546.803C825.659 538.831 841.311 540.426 857.123 541.861C866.865 544.89 876.608 548.397 885.552 553.659ZM878.365 572.313C871.977 571.835 866.226 569.603 859.838 571.038C862.233 576.14 865.588 579.807 869.58 582.995C871.497 584.43 873.893 585.865 876.129 584.749C878.365 583.793 876.288 581.401 876.608 579.807C877.247 577.575 877.726 575.343 878.365 572.313Z" fill="white"/>
<path d="M885.552 553.659C898.17 561.312 909.509 570.719 919.891 581.242C924.203 585.546 929.953 587.779 936.501 591.605C906.155 605.954 875.969 606.592 843.866 600.534C846.581 597.026 849.296 596.229 851.852 595.432C854.407 594.634 856.803 593.837 860.157 592.721C854.567 585.706 850.574 578.531 846.581 571.197C843.387 565.298 844.345 563.066 851.373 563.863C853.928 564.182 856.484 563.863 860.157 563.863C852.81 556.688 844.665 553.34 836.359 549.832C828.054 546.325 818.95 549.992 810.166 546.803C825.659 538.831 841.311 540.426 857.123 541.861C866.865 544.89 876.608 548.397 885.552 553.659ZM878.365 572.313C871.977 571.835 866.226 569.603 859.838 571.038C862.233 576.14 865.588 579.807 869.58 582.995C871.497 584.43 873.893 585.865 876.129 584.749C878.365 583.793 876.288 581.401 876.608 579.807C877.247 577.575 877.726 575.343 878.365 572.313Z" fill="black"/>
<path d="M885.552 553.659C898.17 561.312 909.509 570.719 919.891 581.242C924.203 585.546 929.953 587.779 936.501 591.605C906.155 605.954 875.969 606.592 843.866 600.534C846.581 597.026 849.296 596.229 851.852 595.432C854.407 594.634 856.803 593.837 860.157 592.721C854.567 585.706 850.574 578.531 846.581 571.197C843.387 565.298 844.345 563.066 851.373 563.863C853.928 564.182 856.484 563.863 860.157 563.863C852.81 556.688 844.665 553.34 836.359 549.832C828.054 546.325 818.95 549.992 810.166 546.803C825.659 538.831 841.311 540.426 857.123 541.861C866.865 544.89 876.608 548.397 885.552 553.659ZM878.365 572.313C871.977 571.835 866.226 569.603 859.838 571.038C862.233 576.14 865.588 579.807 869.58 582.995C871.497 584.43 873.893 585.865 876.129 584.749C878.365 583.793 876.288 581.401 876.608 579.807C877.247 577.575 877.726 575.343 878.365 572.313Z" fill="#FBB603"/>
<path d="M885.552 553.659C898.17 561.312 909.509 570.719 919.891 581.242C924.203 585.546 929.953 587.779 936.501 591.605C906.155 605.954 875.969 606.592 843.866 600.534C846.581 597.026 849.296 596.229 851.852 595.432C854.407 594.634 856.803 593.837 860.157 592.721C854.567 585.706 850.574 578.531 846.581 571.197C843.387 565.298 844.345 563.066 851.373 563.863C853.928 564.182 856.484 563.863 860.157 563.863C852.81 556.688 844.665 553.34 836.359 549.832C828.054 546.325 818.95 549.992 810.166 546.803C825.659 538.831 841.311 540.426 857.123 541.861C866.865 544.89 876.608 548.397 885.552 553.659ZM878.365 572.313C871.977 571.835 866.226 569.603 859.838 571.038C862.233 576.14 865.588 579.807 869.58 582.995C871.497 584.43 873.893 585.865 876.129 584.749C878.365 583.793 876.288 581.401 876.608 579.807C877.247 577.575 877.726 575.343 878.365 572.313Z" fill="url(#paint2_linear_31_1143)"/>
<path d="M513.095 875.882C509.901 863.606 506.068 851.488 503.353 839.052C498.881 818.006 496.485 796.801 495.207 775.277C494.888 771.291 496.325 768.9 499.839 766.986C506.707 763.479 513.095 759.333 519.963 755.826C523.317 754.072 524.116 751.999 523.637 748.332C518.526 709.429 518.206 670.527 522.998 631.624C523.317 628.435 520.442 622.376 525.553 622.376C529.386 622.376 527.15 628.595 527.47 631.783C530.983 676.107 543.122 718.039 563.406 757.58C566.76 764.116 565.961 766.827 559.253 769.697C552.545 772.407 543.281 774.002 540.247 780.22C537.212 786.278 540.407 794.729 541.365 802.063C543.601 818.325 545.997 834.428 552.864 849.575C554.621 859.939 560.052 868.708 564.683 877.796C566.281 880.984 567.878 880.825 570.753 878.912C581.933 871.418 593.272 864.084 604.772 857.069C607.487 855.315 608.126 853.88 607.008 850.851C603.974 842.4 601.418 833.791 598.543 825.341C594.87 808.281 591.356 791.38 590.078 774.002C589.599 767.943 590.398 763.638 596.946 761.884C601.737 760.609 603.175 757.898 602.696 752.637C599.981 723.141 601.099 693.805 608.605 664.946C609.244 662.395 609.404 659.844 611.8 657.293C613.397 669.411 613.397 681.368 615.952 693.007C620.584 715.01 626.972 736.534 637.673 756.304C640.389 761.406 639.271 763.319 634.319 765.551C620.105 772.088 620.105 772.248 622.5 788.032C623.618 795.366 624.257 802.7 627.132 809.716C628.41 818.006 631.764 825.341 634.799 832.994C636.715 837.936 638.632 839.052 643.902 836.501C667.061 824.862 691.338 815.296 716.094 807.643C721.364 806.049 725.836 806.367 730.628 808.44C747.398 815.455 760.016 827.254 770.078 842.081C785.89 865.678 794.674 891.986 798.507 919.728C799.625 928.018 803.299 930.41 810.646 931.367C840.353 935.193 867.664 931.048 890.823 909.524C890.982 917.336 885.872 921.96 882.677 928.178C885.392 928.178 887.629 928.337 889.705 928.178C907.114 925.946 934.745 895.971 935.703 878.593C935.863 876.52 935.383 875.085 933.307 874.129C912.384 864.722 897.691 847.821 880.92 833.153C862.393 816.572 841.311 803.498 815.437 801.903C811.125 801.584 810.166 799.99 809.527 796.323C807.93 787.873 807.771 779.423 808.569 770.972C810.805 744.187 817.992 718.358 825.978 692.848C827.735 687.108 830.929 684.398 836.519 682.644C856.164 676.745 876.289 676.426 896.572 676.107C919.891 679.455 943.05 683.441 966.368 693.167C962.216 685.354 954.869 683.122 950.397 676.904C956.945 675.947 961.896 678.977 966.847 681.049C984.416 688.543 1001.03 697.79 1015.08 711.343C1016.68 712.937 1018.12 714.531 1020.35 712.778C1023.23 710.545 1020.19 709.11 1019.07 707.835C1011.09 699.385 1003.1 691.253 995.117 682.963C1003.1 681.528 1009.01 686.63 1015.56 689.819C1022.75 693.326 1029.94 697.472 1035.53 703.69C1038.24 706.878 1040.96 707.516 1043.35 703.052C1044.63 700.501 1046.39 698.109 1047.82 695.558C1051.82 688.224 1053.73 682.325 1045.43 675.31C1034.41 666.062 1029.78 652.351 1027.22 638.32C1026.1 632.58 1027.86 629.87 1034.09 630.348C1037.76 630.667 1041.43 630.348 1047.34 630.348C1042.71 627.319 1039.52 624.927 1036 622.855C1009.49 607.07 980.902 596.548 951.195 588.735C948.001 587.938 944.327 587.619 942.73 583.952C941.772 575.342 937.779 567.849 934.585 560.036C926.919 541.223 914.94 527.989 893.378 525.279C883.955 524.163 875.33 519.38 865.268 520.974C851.852 523.047 838.596 525.279 825.499 529.105C809.527 533.091 794.834 540.585 777.425 547.122C785.41 537.077 794.035 531.338 801.542 524.322C808.25 520.177 814.798 516.031 821.826 511.567C807.611 505.827 795.632 511.089 783.813 517.307C761.772 525.757 741.169 537.237 718.969 549.673C727.913 533.57 741.009 523.685 752.669 512.683C757.141 510.77 761.293 508.538 765.286 504.871C749.474 502.958 734.301 502.32 719.128 503.436C708.268 503.755 697.567 499.928 685.588 502.32C691.018 507.262 695.97 511.567 700.921 516.031C702.518 517.466 704.594 518.901 702.997 521.133C701.24 523.366 699.483 521.771 697.567 520.655C680.956 511.567 663.228 505.349 645.02 500.407C642.465 499.609 639.91 500.088 637.354 498.972C623.778 493.87 609.404 493.072 595.029 493.072C590.078 493.072 588.8 494.986 588.8 499.609C589.28 515.872 592.314 531.656 598.224 546.803C598.703 548.238 598.543 550.948 601.258 550.629C603.973 550.311 604.133 548.078 604.293 545.846C604.932 538.991 605.73 532.135 606.369 525.279C606.689 521.612 607.807 520.177 611.8 520.815C641.507 525.598 669.617 534.367 694.692 551.427C695.97 552.383 698.365 552.702 697.727 555.572C687.505 554.456 677.762 549.354 666.263 551.108C679.679 557.964 679.679 558.123 675.047 571.835C672.491 579.647 668.499 586.822 664.506 593.997C658.756 602.447 651.409 609.621 644.062 616.637C642.305 618.231 640.389 620.463 637.833 619.188C635.118 617.753 637.833 615.521 637.993 613.926C639.271 606.911 639.59 600.055 637.833 593.199C636.715 589.213 635.118 587.141 630.327 586.981C614.036 586.343 600.619 591.605 591.037 605.476C587.523 602.766 585.446 599.099 583.37 595.591C570.753 574.067 562.447 551.267 560.85 526.076C559.892 511.089 561.489 513.48 547.434 512.683C530.664 511.886 530.664 512.046 524.275 527.192C502.714 579.009 473.646 626.362 436.911 668.932C432.758 673.715 432.279 676.426 438.827 677.861C449.688 680.252 447.133 687.905 446.334 695.239C439.945 754.55 422.217 810.035 389.156 860.257C383.246 869.186 376.059 876.839 369.351 884.97C367.914 886.565 366.636 888.956 362.963 888.797C367.754 876.679 372.705 865.359 376.698 853.72C390.913 811.948 400.655 769.219 396.503 724.735C394.426 703.69 390.913 682.484 379.413 663.83C377.018 659.844 377.816 657.453 381.01 654.423C417.585 618.39 441.064 574.864 456.077 526.236C457.355 522.09 458.313 517.626 459.431 513.48C457.195 511.886 454.639 512.524 452.403 512.683C420.78 513.48 389.156 514.915 357.532 517.466C333.096 519.38 308.5 521.612 284.063 523.685C305.145 501.842 328.783 482.868 353.539 465.33C356.095 463.576 358.65 462.939 361.685 462.779C410.079 460.069 458.472 462.142 506.707 465.49C523.477 466.606 540.087 468.519 556.698 470.432C560.691 470.911 561.649 469.795 562.447 466.128C565.482 450.503 565.642 450.503 581.454 454.01C587.363 455.286 594.231 459.112 598.863 457.358C603.015 455.764 604.453 447.792 607.487 443.009C625.855 414.629 624.736 414.47 658.277 422.442C690.06 429.935 716.892 448.111 742.128 468.041C748.676 473.302 755.384 475.534 763.689 475.853C820.388 477.926 876.289 486.217 931.231 500.088C935.384 501.204 938.099 503.276 940.335 506.944C950.077 524.003 959.66 541.063 966.209 559.558C967.486 563.225 969.403 564.979 972.917 566.095C1024.35 581.72 1066.19 612.332 1104.36 648.684C1107.56 651.713 1107.08 654.423 1105.96 657.931C1101.17 672.121 1091.27 682.325 1079.45 690.775C1075.77 693.326 1073.54 696.037 1072.42 700.501C1066.83 720.431 1054.21 734.939 1036.48 745.143C1032.65 747.376 1029.94 750.086 1027.7 753.753C1014.12 776.393 994.478 791.061 967.486 798.236C976.43 775.915 976.909 754.231 970.84 732.388C968.924 725.533 962.535 728.243 958.223 726.33C956.785 726.011 955.508 725.851 954.07 725.533C953.91 724.576 953.272 724.576 952.473 724.895C936.661 720.909 920.53 718.358 904.239 716.604C899.607 716.126 896.572 716.923 894.017 721.387C885.233 737.012 878.525 753.115 875.011 770.813C871.497 788.351 876.928 802.063 889.545 813.542C896.253 819.601 903.281 825.181 909.989 831.399C913.183 834.428 916.218 834.429 920.051 832.834C935.384 826.138 946.564 815.774 952.154 798.236C963.973 814.02 965.09 830.283 961.257 847.343C960.938 848.937 960.778 850.532 959.98 851.967C955.987 858.822 959.501 861.055 965.889 861.374C968.924 861.533 971.479 861.214 970.681 866.157C962.855 912.394 918.613 964.211 856.324 964.53C853.928 964.53 851.692 964.051 848.498 963.732C853.449 958.471 861.275 957.195 863.352 948.905C829.652 962.776 795.632 965.805 760.335 961.5C761.613 956.079 763.05 950.977 763.849 945.716C766.085 931.685 764.168 918.612 757.939 905.538C748.836 886.565 738.454 868.548 724.878 852.286C720.406 846.865 717.052 845.908 710.504 849.256C647.097 882.419 593.911 927.54 548.392 982.227C529.546 1004.87 512.616 1028.94 497.922 1054.61C494.728 1060.35 492.652 1059.87 488.18 1056.53C474.284 1046.32 460.549 1035.8 446.973 1025.28C441.702 1021.13 442.181 1018.26 445.216 1013.16C466.458 977.922 492.332 946.354 522.838 918.612C526.831 914.944 528.268 912.234 525.553 906.813C520.442 896.29 516.928 885.927 513.095 875.882ZM990.325 735.578C991.763 745.782 993.041 755.826 990.645 765.711C990.326 766.986 988.249 768.421 990.006 769.537C991.284 770.335 992.881 769.537 994.319 768.421C1001.51 762.522 1007.73 755.826 1012.53 747.854C1013.8 745.622 1014.12 744.027 1011.41 743.071C1004.54 740.679 998.152 737.013 990.325 735.578ZM948.001 825.341C942.571 833.95 936.023 839.212 928.676 843.995C942.89 853.402 944.168 852.923 948.001 836.82C948.64 833.472 949.119 830.283 948.001 825.341Z" fill="white"/>
<path d="M513.095 875.882C509.901 863.606 506.068 851.488 503.353 839.052C498.881 818.006 496.485 796.801 495.207 775.277C494.888 771.291 496.325 768.9 499.839 766.986C506.707 763.479 513.095 759.333 519.963 755.826C523.317 754.072 524.116 751.999 523.637 748.332C518.526 709.429 518.206 670.527 522.998 631.624C523.317 628.435 520.442 622.376 525.553 622.376C529.386 622.376 527.15 628.595 527.47 631.783C530.983 676.107 543.122 718.039 563.406 757.58C566.76 764.116 565.961 766.827 559.253 769.697C552.545 772.407 543.281 774.002 540.247 780.22C537.212 786.278 540.407 794.729 541.365 802.063C543.601 818.325 545.997 834.428 552.864 849.575C554.621 859.939 560.052 868.708 564.683 877.796C566.281 880.984 567.878 880.825 570.753 878.912C581.933 871.418 593.272 864.084 604.772 857.069C607.487 855.315 608.126 853.88 607.008 850.851C603.974 842.4 601.418 833.791 598.543 825.341C594.87 808.281 591.356 791.38 590.078 774.002C589.599 767.943 590.398 763.638 596.946 761.884C601.737 760.609 603.175 757.898 602.696 752.637C599.981 723.141 601.099 693.805 608.605 664.946C609.244 662.395 609.404 659.844 611.8 657.293C613.397 669.411 613.397 681.368 615.952 693.007C620.584 715.01 626.972 736.534 637.673 756.304C640.389 761.406 639.271 763.319 634.319 765.551C620.105 772.088 620.105 772.248 622.5 788.032C623.618 795.366 624.257 802.7 627.132 809.716C628.41 818.006 631.764 825.341 634.799 832.994C636.715 837.936 638.632 839.052 643.902 836.501C667.061 824.862 691.338 815.296 716.094 807.643C721.364 806.049 725.836 806.367 730.628 808.44C747.398 815.455 760.016 827.254 770.078 842.081C785.89 865.678 794.674 891.986 798.507 919.728C799.625 928.018 803.299 930.41 810.646 931.367C840.353 935.193 867.664 931.048 890.823 909.524C890.982 917.336 885.872 921.96 882.677 928.178C885.392 928.178 887.629 928.337 889.705 928.178C907.114 925.946 934.745 895.971 935.703 878.593C935.863 876.52 935.383 875.085 933.307 874.129C912.384 864.722 897.691 847.821 880.92 833.153C862.393 816.572 841.311 803.498 815.437 801.903C811.125 801.584 810.166 799.99 809.527 796.323C807.93 787.873 807.771 779.423 808.569 770.972C810.805 744.187 817.992 718.358 825.978 692.848C827.735 687.108 830.929 684.398 836.519 682.644C856.164 676.745 876.289 676.426 896.572 676.107C919.891 679.455 943.05 683.441 966.368 693.167C962.216 685.354 954.869 683.122 950.397 676.904C956.945 675.947 961.896 678.977 966.847 681.049C984.416 688.543 1001.03 697.79 1015.08 711.343C1016.68 712.937 1018.12 714.531 1020.35 712.778C1023.23 710.545 1020.19 709.11 1019.07 707.835C1011.09 699.385 1003.1 691.253 995.117 682.963C1003.1 681.528 1009.01 686.63 1015.56 689.819C1022.75 693.326 1029.94 697.472 1035.53 703.69C1038.24 706.878 1040.96 707.516 1043.35 703.052C1044.63 700.501 1046.39 698.109 1047.82 695.558C1051.82 688.224 1053.73 682.325 1045.43 675.31C1034.41 666.062 1029.78 652.351 1027.22 638.32C1026.1 632.58 1027.86 629.87 1034.09 630.348C1037.76 630.667 1041.43 630.348 1047.34 630.348C1042.71 627.319 1039.52 624.927 1036 622.855C1009.49 607.07 980.902 596.548 951.195 588.735C948.001 587.938 944.327 587.619 942.73 583.952C941.772 575.342 937.779 567.849 934.585 560.036C926.919 541.223 914.94 527.989 893.378 525.279C883.955 524.163 875.33 519.38 865.268 520.974C851.852 523.047 838.596 525.279 825.499 529.105C809.527 533.091 794.834 540.585 777.425 547.122C785.41 537.077 794.035 531.338 801.542 524.322C808.25 520.177 814.798 516.031 821.826 511.567C807.611 505.827 795.632 511.089 783.813 517.307C761.772 525.757 741.169 537.237 718.969 549.673C727.913 533.57 741.009 523.685 752.669 512.683C757.141 510.77 761.293 508.538 765.286 504.871C749.474 502.958 734.301 502.32 719.128 503.436C708.268 503.755 697.567 499.928 685.588 502.32C691.018 507.262 695.97 511.567 700.921 516.031C702.518 517.466 704.594 518.901 702.997 521.133C701.24 523.366 699.483 521.771 697.567 520.655C680.956 511.567 663.228 505.349 645.02 500.407C642.465 499.609 639.91 500.088 637.354 498.972C623.778 493.87 609.404 493.072 595.029 493.072C590.078 493.072 588.8 494.986 588.8 499.609C589.28 515.872 592.314 531.656 598.224 546.803C598.703 548.238 598.543 550.948 601.258 550.629C603.973 550.311 604.133 548.078 604.293 545.846C604.932 538.991 605.73 532.135 606.369 525.279C606.689 521.612 607.807 520.177 611.8 520.815C641.507 525.598 669.617 534.367 694.692 551.427C695.97 552.383 698.365 552.702 697.727 555.572C687.505 554.456 677.762 549.354 666.263 551.108C679.679 557.964 679.679 558.123 675.047 571.835C672.491 579.647 668.499 586.822 664.506 593.997C658.756 602.447 651.409 609.621 644.062 616.637C642.305 618.231 640.389 620.463 637.833 619.188C635.118 617.753 637.833 615.521 637.993 613.926C639.271 606.911 639.59 600.055 637.833 593.199C636.715 589.213 635.118 587.141 630.327 586.981C614.036 586.343 600.619 591.605 591.037 605.476C587.523 602.766 585.446 599.099 583.37 595.591C570.753 574.067 562.447 551.267 560.85 526.076C559.892 511.089 561.489 513.48 547.434 512.683C530.664 511.886 530.664 512.046 524.275 527.192C502.714 579.009 473.646 626.362 436.911 668.932C432.758 673.715 432.279 676.426 438.827 677.861C449.688 680.252 447.133 687.905 446.334 695.239C439.945 754.55 422.217 810.035 389.156 860.257C383.246 869.186 376.059 876.839 369.351 884.97C367.914 886.565 366.636 888.956 362.963 888.797C367.754 876.679 372.705 865.359 376.698 853.72C390.913 811.948 400.655 769.219 396.503 724.735C394.426 703.69 390.913 682.484 379.413 663.83C377.018 659.844 377.816 657.453 381.01 654.423C417.585 618.39 441.064 574.864 456.077 526.236C457.355 522.09 458.313 517.626 459.431 513.48C457.195 511.886 454.639 512.524 452.403 512.683C420.78 513.48 389.156 514.915 357.532 517.466C333.096 519.38 308.5 521.612 284.063 523.685C305.145 501.842 328.783 482.868 353.539 465.33C356.095 463.576 358.65 462.939 361.685 462.779C410.079 460.069 458.472 462.142 506.707 465.49C523.477 466.606 540.087 468.519 556.698 470.432C560.691 470.911 561.649 469.795 562.447 466.128C565.482 450.503 565.642 450.503 581.454 454.01C587.363 455.286 594.231 459.112 598.863 457.358C603.015 455.764 604.453 447.792 607.487 443.009C625.855 414.629 624.736 414.47 658.277 422.442C690.06 429.935 716.892 448.111 742.128 468.041C748.676 473.302 755.384 475.534 763.689 475.853C820.388 477.926 876.289 486.217 931.231 500.088C935.384 501.204 938.099 503.276 940.335 506.944C950.077 524.003 959.66 541.063 966.209 559.558C967.486 563.225 969.403 564.979 972.917 566.095C1024.35 581.72 1066.19 612.332 1104.36 648.684C1107.56 651.713 1107.08 654.423 1105.96 657.931C1101.17 672.121 1091.27 682.325 1079.45 690.775C1075.77 693.326 1073.54 696.037 1072.42 700.501C1066.83 720.431 1054.21 734.939 1036.48 745.143C1032.65 747.376 1029.94 750.086 1027.7 753.753C1014.12 776.393 994.478 791.061 967.486 798.236C976.43 775.915 976.909 754.231 970.84 732.388C968.924 725.533 962.535 728.243 958.223 726.33C956.785 726.011 955.508 725.851 954.07 725.533C953.91 724.576 953.272 724.576 952.473 724.895C936.661 720.909 920.53 718.358 904.239 716.604C899.607 716.126 896.572 716.923 894.017 721.387C885.233 737.012 878.525 753.115 875.011 770.813C871.497 788.351 876.928 802.063 889.545 813.542C896.253 819.601 903.281 825.181 909.989 831.399C913.183 834.428 916.218 834.429 920.051 832.834C935.384 826.138 946.564 815.774 952.154 798.236C963.973 814.02 965.09 830.283 961.257 847.343C960.938 848.937 960.778 850.532 959.98 851.967C955.987 858.822 959.501 861.055 965.889 861.374C968.924 861.533 971.479 861.214 970.681 866.157C962.855 912.394 918.613 964.211 856.324 964.53C853.928 964.53 851.692 964.051 848.498 963.732C853.449 958.471 861.275 957.195 863.352 948.905C829.652 962.776 795.632 965.805 760.335 961.5C761.613 956.079 763.05 950.977 763.849 945.716C766.085 931.685 764.168 918.612 757.939 905.538C748.836 886.565 738.454 868.548 724.878 852.286C720.406 846.865 717.052 845.908 710.504 849.256C647.097 882.419 593.911 927.54 548.392 982.227C529.546 1004.87 512.616 1028.94 497.922 1054.61C494.728 1060.35 492.652 1059.87 488.18 1056.53C474.284 1046.32 460.549 1035.8 446.973 1025.28C441.702 1021.13 442.181 1018.26 445.216 1013.16C466.458 977.922 492.332 946.354 522.838 918.612C526.831 914.944 528.268 912.234 525.553 906.813C520.442 896.29 516.928 885.927 513.095 875.882ZM990.325 735.578C991.763 745.782 993.041 755.826 990.645 765.711C990.326 766.986 988.249 768.421 990.006 769.537C991.284 770.335 992.881 769.537 994.319 768.421C1001.51 762.522 1007.73 755.826 1012.53 747.854C1013.8 745.622 1014.12 744.027 1011.41 743.071C1004.54 740.679 998.152 737.013 990.325 735.578ZM948.001 825.341C942.571 833.95 936.023 839.212 928.676 843.995C942.89 853.402 944.168 852.923 948.001 836.82C948.64 833.472 949.119 830.283 948.001 825.341Z" fill="black"/>
<path d="M513.095 875.882C509.901 863.606 506.068 851.488 503.353 839.052C498.881 818.006 496.485 796.801 495.207 775.277C494.888 771.291 496.325 768.9 499.839 766.986C506.707 763.479 513.095 759.333 519.963 755.826C523.317 754.072 524.116 751.999 523.637 748.332C518.526 709.429 518.206 670.527 522.998 631.624C523.317 628.435 520.442 622.376 525.553 622.376C529.386 622.376 527.15 628.595 527.47 631.783C530.983 676.107 543.122 718.039 563.406 757.58C566.76 764.116 565.961 766.827 559.253 769.697C552.545 772.407 543.281 774.002 540.247 780.22C537.212 786.278 540.407 794.729 541.365 802.063C543.601 818.325 545.997 834.428 552.864 849.575C554.621 859.939 560.052 868.708 564.683 877.796C566.281 880.984 567.878 880.825 570.753 878.912C581.933 871.418 593.272 864.084 604.772 857.069C607.487 855.315 608.126 853.88 607.008 850.851C603.974 842.4 601.418 833.791 598.543 825.341C594.87 808.281 591.356 791.38 590.078 774.002C589.599 767.943 590.398 763.638 596.946 761.884C601.737 760.609 603.175 757.898 602.696 752.637C599.981 723.141 601.099 693.805 608.605 664.946C609.244 662.395 609.404 659.844 611.8 657.293C613.397 669.411 613.397 681.368 615.952 693.007C620.584 715.01 626.972 736.534 637.673 756.304C640.389 761.406 639.271 763.319 634.319 765.551C620.105 772.088 620.105 772.248 622.5 788.032C623.618 795.366 624.257 802.7 627.132 809.716C628.41 818.006 631.764 825.341 634.799 832.994C636.715 837.936 638.632 839.052 643.902 836.501C667.061 824.862 691.338 815.296 716.094 807.643C721.364 806.049 725.836 806.367 730.628 808.44C747.398 815.455 760.016 827.254 770.078 842.081C785.89 865.678 794.674 891.986 798.507 919.728C799.625 928.018 803.299 930.41 810.646 931.367C840.353 935.193 867.664 931.048 890.823 909.524C890.982 917.336 885.872 921.96 882.677 928.178C885.392 928.178 887.629 928.337 889.705 928.178C907.114 925.946 934.745 895.971 935.703 878.593C935.863 876.52 935.383 875.085 933.307 874.129C912.384 864.722 897.691 847.821 880.92 833.153C862.393 816.572 841.311 803.498 815.437 801.903C811.125 801.584 810.166 799.99 809.527 796.323C807.93 787.873 807.771 779.423 808.569 770.972C810.805 744.187 817.992 718.358 825.978 692.848C827.735 687.108 830.929 684.398 836.519 682.644C856.164 676.745 876.289 676.426 896.572 676.107C919.891 679.455 943.05 683.441 966.368 693.167C962.216 685.354 954.869 683.122 950.397 676.904C956.945 675.947 961.896 678.977 966.847 681.049C984.416 688.543 1001.03 697.79 1015.08 711.343C1016.68 712.937 1018.12 714.531 1020.35 712.778C1023.23 710.545 1020.19 709.11 1019.07 707.835C1011.09 699.385 1003.1 691.253 995.117 682.963C1003.1 681.528 1009.01 686.63 1015.56 689.819C1022.75 693.326 1029.94 697.472 1035.53 703.69C1038.24 706.878 1040.96 707.516 1043.35 703.052C1044.63 700.501 1046.39 698.109 1047.82 695.558C1051.82 688.224 1053.73 682.325 1045.43 675.31C1034.41 666.062 1029.78 652.351 1027.22 638.32C1026.1 632.58 1027.86 629.87 1034.09 630.348C1037.76 630.667 1041.43 630.348 1047.34 630.348C1042.71 627.319 1039.52 624.927 1036 622.855C1009.49 607.07 980.902 596.548 951.195 588.735C948.001 587.938 944.327 587.619 942.73 583.952C941.772 575.342 937.779 567.849 934.585 560.036C926.919 541.223 914.94 527.989 893.378 525.279C883.955 524.163 875.33 519.38 865.268 520.974C851.852 523.047 838.596 525.279 825.499 529.105C809.527 533.091 794.834 540.585 777.425 547.122C785.41 537.077 794.035 531.338 801.542 524.322C808.25 520.177 814.798 516.031 821.826 511.567C807.611 505.827 795.632 511.089 783.813 517.307C761.772 525.757 741.169 537.237 718.969 549.673C727.913 533.57 741.009 523.685 752.669 512.683C757.141 510.77 761.293 508.538 765.286 504.871C749.474 502.958 734.301 502.32 719.128 503.436C708.268 503.755 697.567 499.928 685.588 502.32C691.018 507.262 695.97 511.567 700.921 516.031C702.518 517.466 704.594 518.901 702.997 521.133C701.24 523.366 699.483 521.771 697.567 520.655C680.956 511.567 663.228 505.349 645.02 500.407C642.465 499.609 639.91 500.088 637.354 498.972C623.778 493.87 609.404 493.072 595.029 493.072C590.078 493.072 588.8 494.986 588.8 499.609C589.28 515.872 592.314 531.656 598.224 546.803C598.703 548.238 598.543 550.948 601.258 550.629C603.973 550.311 604.133 548.078 604.293 545.846C604.932 538.991 605.73 532.135 606.369 525.279C606.689 521.612 607.807 520.177 611.8 520.815C641.507 525.598 669.617 534.367 694.692 551.427C695.97 552.383 698.365 552.702 697.727 555.572C687.505 554.456 677.762 549.354 666.263 551.108C679.679 557.964 679.679 558.123 675.047 571.835C672.491 579.647 668.499 586.822 664.506 593.997C658.756 602.447 651.409 609.621 644.062 616.637C642.305 618.231 640.389 620.463 637.833 619.188C635.118 617.753 637.833 615.521 637.993 613.926C639.271 606.911 639.59 600.055 637.833 593.199C636.715 589.213 635.118 587.141 630.327 586.981C614.036 586.343 600.619 591.605 591.037 605.476C587.523 602.766 585.446 599.099 583.37 595.591C570.753 574.067 562.447 551.267 560.85 526.076C559.892 511.089 561.489 513.48 547.434 512.683C530.664 511.886 530.664 512.046 524.275 527.192C502.714 579.009 473.646 626.362 436.911 668.932C432.758 673.715 432.279 676.426 438.827 677.861C449.688 680.252 447.133 687.905 446.334 695.239C439.945 754.55 422.217 810.035 389.156 860.257C383.246 869.186 376.059 876.839 369.351 884.97C367.914 886.565 366.636 888.956 362.963 888.797C367.754 876.679 372.705 865.359 376.698 853.72C390.913 811.948 400.655 769.219 396.503 724.735C394.426 703.69 390.913 682.484 379.413 663.83C377.018 659.844 377.816 657.453 381.01 654.423C417.585 618.39 441.064 574.864 456.077 526.236C457.355 522.09 458.313 517.626 459.431 513.48C457.195 511.886 454.639 512.524 452.403 512.683C420.78 513.48 389.156 514.915 357.532 517.466C333.096 519.38 308.5 521.612 284.063 523.685C305.145 501.842 328.783 482.868 353.539 465.33C356.095 463.576 358.65 462.939 361.685 462.779C410.079 460.069 458.472 462.142 506.707 465.49C523.477 466.606 540.087 468.519 556.698 470.432C560.691 470.911 561.649 469.795 562.447 466.128C565.482 450.503 565.642 450.503 581.454 454.01C587.363 455.286 594.231 459.112 598.863 457.358C603.015 455.764 604.453 447.792 607.487 443.009C625.855 414.629 624.736 414.47 658.277 422.442C690.06 429.935 716.892 448.111 742.128 468.041C748.676 473.302 755.384 475.534 763.689 475.853C820.388 477.926 876.289 486.217 931.231 500.088C935.384 501.204 938.099 503.276 940.335 506.944C950.077 524.003 959.66 541.063 966.209 559.558C967.486 563.225 969.403 564.979 972.917 566.095C1024.35 581.72 1066.19 612.332 1104.36 648.684C1107.56 651.713 1107.08 654.423 1105.96 657.931C1101.17 672.121 1091.27 682.325 1079.45 690.775C1075.77 693.326 1073.54 696.037 1072.42 700.501C1066.83 720.431 1054.21 734.939 1036.48 745.143C1032.65 747.376 1029.94 750.086 1027.7 753.753C1014.12 776.393 994.478 791.061 967.486 798.236C976.43 775.915 976.909 754.231 970.84 732.388C968.924 725.533 962.535 728.243 958.223 726.33C956.785 726.011 955.508 725.851 954.07 725.533C953.91 724.576 953.272 724.576 952.473 724.895C936.661 720.909 920.53 718.358 904.239 716.604C899.607 716.126 896.572 716.923 894.017 721.387C885.233 737.012 878.525 753.115 875.011 770.813C871.497 788.351 876.928 802.063 889.545 813.542C896.253 819.601 903.281 825.181 909.989 831.399C913.183 834.428 916.218 834.429 920.051 832.834C935.384 826.138 946.564 815.774 952.154 798.236C963.973 814.02 965.09 830.283 961.257 847.343C960.938 848.937 960.778 850.532 959.98 851.967C955.987 858.822 959.501 861.055 965.889 861.374C968.924 861.533 971.479 861.214 970.681 866.157C962.855 912.394 918.613 964.211 856.324 964.53C853.928 964.53 851.692 964.051 848.498 963.732C853.449 958.471 861.275 957.195 863.352 948.905C829.652 962.776 795.632 965.805 760.335 961.5C761.613 956.079 763.05 950.977 763.849 945.716C766.085 931.685 764.168 918.612 757.939 905.538C748.836 886.565 738.454 868.548 724.878 852.286C720.406 846.865 717.052 845.908 710.504 849.256C647.097 882.419 593.911 927.54 548.392 982.227C529.546 1004.87 512.616 1028.94 497.922 1054.61C494.728 1060.35 492.652 1059.87 488.18 1056.53C474.284 1046.32 460.549 1035.8 446.973 1025.28C441.702 1021.13 442.181 1018.26 445.216 1013.16C466.458 977.922 492.332 946.354 522.838 918.612C526.831 914.944 528.268 912.234 525.553 906.813C520.442 896.29 516.928 885.927 513.095 875.882ZM990.325 735.578C991.763 745.782 993.041 755.826 990.645 765.711C990.326 766.986 988.249 768.421 990.006 769.537C991.284 770.335 992.881 769.537 994.319 768.421C1001.51 762.522 1007.73 755.826 1012.53 747.854C1013.8 745.622 1014.12 744.027 1011.41 743.071C1004.54 740.679 998.152 737.013 990.325 735.578ZM948.001 825.341C942.571 833.95 936.023 839.212 928.676 843.995C942.89 853.402 944.168 852.923 948.001 836.82C948.64 833.472 949.119 830.283 948.001 825.341Z" fill="#FBB603"/>
<path d="M513.095 875.882C509.901 863.606 506.068 851.488 503.353 839.052C498.881 818.006 496.485 796.801 495.207 775.277C494.888 771.291 496.325 768.9 499.839 766.986C506.707 763.479 513.095 759.333 519.963 755.826C523.317 754.072 524.116 751.999 523.637 748.332C518.526 709.429 518.206 670.527 522.998 631.624C523.317 628.435 520.442 622.376 525.553 622.376C529.386 622.376 527.15 628.595 527.47 631.783C530.983 676.107 543.122 718.039 563.406 757.58C566.76 764.116 565.961 766.827 559.253 769.697C552.545 772.407 543.281 774.002 540.247 780.22C537.212 786.278 540.407 794.729 541.365 802.063C543.601 818.325 545.997 834.428 552.864 849.575C554.621 859.939 560.052 868.708 564.683 877.796C566.281 880.984 567.878 880.825 570.753 878.912C581.933 871.418 593.272 864.084 604.772 857.069C607.487 855.315 608.126 853.88 607.008 850.851C603.974 842.4 601.418 833.791 598.543 825.341C594.87 808.281 591.356 791.38 590.078 774.002C589.599 767.943 590.398 763.638 596.946 761.884C601.737 760.609 603.175 757.898 602.696 752.637C599.981 723.141 601.099 693.805 608.605 664.946C609.244 662.395 609.404 659.844 611.8 657.293C613.397 669.411 613.397 681.368 615.952 693.007C620.584 715.01 626.972 736.534 637.673 756.304C640.389 761.406 639.271 763.319 634.319 765.551C620.105 772.088 620.105 772.248 622.5 788.032C623.618 795.366 624.257 802.7 627.132 809.716C628.41 818.006 631.764 825.341 634.799 832.994C636.715 837.936 638.632 839.052 643.902 836.501C667.061 824.862 691.338 815.296 716.094 807.643C721.364 806.049 725.836 806.367 730.628 808.44C747.398 815.455 760.016 827.254 770.078 842.081C785.89 865.678 794.674 891.986 798.507 919.728C799.625 928.018 803.299 930.41 810.646 931.367C840.353 935.193 867.664 931.048 890.823 909.524C890.982 917.336 885.872 921.96 882.677 928.178C885.392 928.178 887.629 928.337 889.705 928.178C907.114 925.946 934.745 895.971 935.703 878.593C935.863 876.52 935.383 875.085 933.307 874.129C912.384 864.722 897.691 847.821 880.92 833.153C862.393 816.572 841.311 803.498 815.437 801.903C811.125 801.584 810.166 799.99 809.527 796.323C807.93 787.873 807.771 779.423 808.569 770.972C810.805 744.187 817.992 718.358 825.978 692.848C827.735 687.108 830.929 684.398 836.519 682.644C856.164 676.745 876.289 676.426 896.572 676.107C919.891 679.455 943.05 683.441 966.368 693.167C962.216 685.354 954.869 683.122 950.397 676.904C956.945 675.947 961.896 678.977 966.847 681.049C984.416 688.543 1001.03 697.79 1015.08 711.343C1016.68 712.937 1018.12 714.531 1020.35 712.778C1023.23 710.545 1020.19 709.11 1019.07 707.835C1011.09 699.385 1003.1 691.253 995.117 682.963C1003.1 681.528 1009.01 686.63 1015.56 689.819C1022.75 693.326 1029.94 697.472 1035.53 703.69C1038.24 706.878 1040.96 707.516 1043.35 703.052C1044.63 700.501 1046.39 698.109 1047.82 695.558C1051.82 688.224 1053.73 682.325 1045.43 675.31C1034.41 666.062 1029.78 652.351 1027.22 638.32C1026.1 632.58 1027.86 629.87 1034.09 630.348C1037.76 630.667 1041.43 630.348 1047.34 630.348C1042.71 627.319 1039.52 624.927 1036 622.855C1009.49 607.07 980.902 596.548 951.195 588.735C948.001 587.938 944.327 587.619 942.73 583.952C941.772 575.342 937.779 567.849 934.585 560.036C926.919 541.223 914.94 527.989 893.378 525.279C883.955 524.163 875.33 519.38 865.268 520.974C851.852 523.047 838.596 525.279 825.499 529.105C809.527 533.091 794.834 540.585 777.425 547.122C785.41 537.077 794.035 531.338 801.542 524.322C808.25 520.177 814.798 516.031 821.826 511.567C807.611 505.827 795.632 511.089 783.813 517.307C761.772 525.757 741.169 537.237 718.969 549.673C727.913 533.57 741.009 523.685 752.669 512.683C757.141 510.77 761.293 508.538 765.286 504.871C749.474 502.958 734.301 502.32 719.128 503.436C708.268 503.755 697.567 499.928 685.588 502.32C691.018 507.262 695.97 511.567 700.921 516.031C702.518 517.466 704.594 518.901 702.997 521.133C701.24 523.366 699.483 521.771 697.567 520.655C680.956 511.567 663.228 505.349 645.02 500.407C642.465 499.609 639.91 500.088 637.354 498.972C623.778 493.87 609.404 493.072 595.029 493.072C590.078 493.072 588.8 494.986 588.8 499.609C589.28 515.872 592.314 531.656 598.224 546.803C598.703 548.238 598.543 550.948 601.258 550.629C603.973 550.311 604.133 548.078 604.293 545.846C604.932 538.991 605.73 532.135 606.369 525.279C606.689 521.612 607.807 520.177 611.8 520.815C641.507 525.598 669.617 534.367 694.692 551.427C695.97 552.383 698.365 552.702 697.727 555.572C687.505 554.456 677.762 549.354 666.263 551.108C679.679 557.964 679.679 558.123 675.047 571.835C672.491 579.647 668.499 586.822 664.506 593.997C658.756 602.447 651.409 609.621 644.062 616.637C642.305 618.231 640.389 620.463 637.833 619.188C635.118 617.753 637.833 615.521 637.993 613.926C639.271 606.911 639.59 600.055 637.833 593.199C636.715 589.213 635.118 587.141 630.327 586.981C614.036 586.343 600.619 591.605 591.037 605.476C587.523 602.766 585.446 599.099 583.37 595.591C570.753 574.067 562.447 551.267 560.85 526.076C559.892 511.089 561.489 513.48 547.434 512.683C530.664 511.886 530.664 512.046 524.275 527.192C502.714 579.009 473.646 626.362 436.911 668.932C432.758 673.715 432.279 676.426 438.827 677.861C449.688 680.252 447.133 687.905 446.334 695.239C439.945 754.55 422.217 810.035 389.156 860.257C383.246 869.186 376.059 876.839 369.351 884.97C367.914 886.565 366.636 888.956 362.963 888.797C367.754 876.679 372.705 865.359 376.698 853.72C390.913 811.948 400.655 769.219 396.503 724.735C394.426 703.69 390.913 682.484 379.413 663.83C377.018 659.844 377.816 657.453 381.01 654.423C417.585 618.39 441.064 574.864 456.077 526.236C457.355 522.09 458.313 517.626 459.431 513.48C457.195 511.886 454.639 512.524 452.403 512.683C420.78 513.48 389.156 514.915 357.532 517.466C333.096 519.38 308.5 521.612 284.063 523.685C305.145 501.842 328.783 482.868 353.539 465.33C356.095 463.576 358.65 462.939 361.685 462.779C410.079 460.069 458.472 462.142 506.707 465.49C523.477 466.606 540.087 468.519 556.698 470.432C560.691 470.911 561.649 469.795 562.447 466.128C565.482 450.503 565.642 450.503 581.454 454.01C587.363 455.286 594.231 459.112 598.863 457.358C603.015 455.764 604.453 447.792 607.487 443.009C625.855 414.629 624.736 414.47 658.277 422.442C690.06 429.935 716.892 448.111 742.128 468.041C748.676 473.302 755.384 475.534 763.689 475.853C820.388 477.926 876.289 486.217 931.231 500.088C935.384 501.204 938.099 503.276 940.335 506.944C950.077 524.003 959.66 541.063 966.209 559.558C967.486 563.225 969.403 564.979 972.917 566.095C1024.35 581.72 1066.19 612.332 1104.36 648.684C1107.56 651.713 1107.08 654.423 1105.96 657.931C1101.17 672.121 1091.27 682.325 1079.45 690.775C1075.77 693.326 1073.54 696.037 1072.42 700.501C1066.83 720.431 1054.21 734.939 1036.48 745.143C1032.65 747.376 1029.94 750.086 1027.7 753.753C1014.12 776.393 994.478 791.061 967.486 798.236C976.43 775.915 976.909 754.231 970.84 732.388C968.924 725.533 962.535 728.243 958.223 726.33C956.785 726.011 955.508 725.851 954.07 725.533C953.91 724.576 953.272 724.576 952.473 724.895C936.661 720.909 920.53 718.358 904.239 716.604C899.607 716.126 896.572 716.923 894.017 721.387C885.233 737.012 878.525 753.115 875.011 770.813C871.497 788.351 876.928 802.063 889.545 813.542C896.253 819.601 903.281 825.181 909.989 831.399C913.183 834.428 916.218 834.429 920.051 832.834C935.384 826.138 946.564 815.774 952.154 798.236C963.973 814.02 965.09 830.283 961.257 847.343C960.938 848.937 960.778 850.532 959.98 851.967C955.987 858.822 959.501 861.055 965.889 861.374C968.924 861.533 971.479 861.214 970.681 866.157C962.855 912.394 918.613 964.211 856.324 964.53C853.928 964.53 851.692 964.051 848.498 963.732C853.449 958.471 861.275 957.195 863.352 948.905C829.652 962.776 795.632 965.805 760.335 961.5C761.613 956.079 763.05 950.977 763.849 945.716C766.085 931.685 764.168 918.612 757.939 905.538C748.836 886.565 738.454 868.548 724.878 852.286C720.406 846.865 717.052 845.908 710.504 849.256C647.097 882.419 593.911 927.54 548.392 982.227C529.546 1004.87 512.616 1028.94 497.922 1054.61C494.728 1060.35 492.652 1059.87 488.18 1056.53C474.284 1046.32 460.549 1035.8 446.973 1025.28C441.702 1021.13 442.181 1018.26 445.216 1013.16C466.458 977.922 492.332 946.354 522.838 918.612C526.831 914.944 528.268 912.234 525.553 906.813C520.442 896.29 516.928 885.927 513.095 875.882ZM990.325 735.578C991.763 745.782 993.041 755.826 990.645 765.711C990.326 766.986 988.249 768.421 990.006 769.537C991.284 770.335 992.881 769.537 994.319 768.421C1001.51 762.522 1007.73 755.826 1012.53 747.854C1013.8 745.622 1014.12 744.027 1011.41 743.071C1004.54 740.679 998.152 737.013 990.325 735.578ZM948.001 825.341C942.571 833.95 936.023 839.212 928.676 843.995C942.89 853.402 944.168 852.923 948.001 836.82C948.64 833.472 949.119 830.283 948.001 825.341Z" fill="url(#paint3_linear_31_1143)"/>
</g>
<path d="M739.661 295.274C959.734 295.275 1138.14 473.679 1138.14 693.752C1138.14 913.825 959.734 1092.23 739.661 1092.23C519.588 1092.23 341.184 913.825 341.184 693.752C341.184 473.679 519.588 295.274 739.661 295.274Z" stroke="white" stroke-width="11.3667"/>
</g>
<defs>
<linearGradient id="paint0_linear_31_1143" x1="417.886" y1="374.342" x2="1051.98" y2="1020.25" gradientUnits="userSpaceOnUse">
<stop stop-color="#020202"/>
<stop offset="0.33" stop-color="#0049AD"/>
<stop offset="1"/>
</linearGradient>
<linearGradient id="paint1_linear_31_1143" x1="477.418" y1="417.919" x2="1018.21" y2="958.708" gradientUnits="userSpaceOnUse">
<stop stop-color="#FBB603"/>
<stop offset="0.315" stop-color="white"/>
<stop offset="0.685" stop-color="#FBB603"/>
<stop offset="1" stop-color="white"/>
</linearGradient>
<linearGradient id="paint2_linear_31_1143" x1="477.418" y1="417.919" x2="1018.21" y2="958.708" gradientUnits="userSpaceOnUse">
<stop stop-color="#FBB603"/>
<stop offset="0.315" stop-color="white"/>
<stop offset="0.685" stop-color="#FBB603"/>
<stop offset="1" stop-color="white"/>
</linearGradient>
<linearGradient id="paint3_linear_31_1143" x1="477.418" y1="417.919" x2="1018.21" y2="958.708" gradientUnits="userSpaceOnUse">
<stop stop-color="#FBB603"/>
<stop offset="0.315" stop-color="white"/>
<stop offset="0.685" stop-color="#FBB603"/>
<stop offset="1" stop-color="white"/>
</linearGradient>
</defs>
</svg>
