<svg width="1485" height="1485" viewBox="0 0 1485 1485" fill="none" xmlns="http://www.w3.org/2000/svg">
<g filter="url(#filter0_d_25_5293)">
<path d="M106.64 1260.7L115.92 1239.53C118.433 1235.28 121.913 1231.7 126.36 1228.8C130.807 1225.9 136.993 1224.45 144.92 1224.45H224.96L209.3 1260.7H106.64ZM67.78 1397C64.4933 1397 61.11 1396.13 57.63 1394.39C55.1167 1392.46 53.86 1389.56 53.86 1385.69C53.86 1382.02 54.9233 1377.76 57.05 1372.93L94.75 1288.54H139.7L109.54 1356.4H166.67L149.27 1397H67.78ZM221.761 1260.7L228.721 1245.04C231.428 1238.85 235.294 1233.92 240.321 1230.25C245.348 1226.38 251.824 1224.45 259.751 1224.45H343.271C347.911 1224.45 352.744 1226.09 357.771 1229.38C362.798 1232.67 365.311 1236.53 365.311 1240.98L364.441 1245.33L357.481 1260.7H221.761ZM345.591 1288.25L308.471 1372.35C305.571 1379.31 301.124 1385.21 295.131 1390.04C289.911 1394.68 283.144 1397 274.831 1397H185.221C182.514 1397 179.421 1395.16 175.941 1391.49C173.041 1387.62 171.591 1383.18 171.591 1378.15C171.591 1376.6 172.171 1373.9 173.331 1370.03L209.581 1288.25H254.821L231.911 1339.87L230.751 1345.09C230.751 1348.18 231.428 1350.79 232.781 1352.92C234.328 1354.66 235.874 1355.82 237.421 1356.4H255.981C260.428 1356.4 264.391 1355.05 267.871 1352.34C271.544 1349.44 274.831 1345.19 277.731 1339.58L300.641 1288.25H345.591ZM391.909 1224.45H466.439C474.559 1224.45 480.746 1225.51 484.999 1227.64C489.253 1229.77 491.379 1232.57 491.379 1236.05L490.509 1239.53C495.149 1232.76 499.113 1228.61 502.399 1227.06C505.879 1225.32 510.036 1224.45 514.869 1224.45H571.129C577.316 1224.45 582.246 1226 585.919 1229.09C589.786 1231.99 591.719 1236.82 591.719 1243.59V1249.1L590.269 1254.9C590.269 1256.25 589.786 1257.9 588.819 1259.83L585.629 1267.66L529.369 1397H484.419L538.359 1274.33L539.809 1268.53C539.809 1263.31 534.106 1260.7 522.699 1260.7H504.719L444.399 1397H399.449L454.839 1271.43L455.999 1266.5C455.999 1262.63 449.136 1260.7 435.409 1260.7H375.669L391.909 1224.45ZM408.729 1288.25L360.879 1397H315.349L363.779 1288.25H408.729ZM600.632 1288.25H669.072C673.906 1288.25 677.869 1285.83 680.962 1281L686.762 1267.95C687.922 1265.63 687.342 1263.99 685.022 1263.02C682.702 1261.86 680.286 1261.09 677.772 1260.7H612.522L628.762 1224.45H728.812C732.872 1224.45 736.546 1225.71 739.832 1228.22C743.119 1230.54 744.762 1233.63 744.762 1237.5L743.892 1241.85L714.022 1307.68C711.896 1312.9 709.382 1316.96 706.482 1319.86C703.969 1322.95 697.686 1324.5 687.632 1324.5H629.632L597.732 1397H552.202L600.632 1288.25ZM888.947 1224.45L823.407 1372.35C819.927 1379.31 815.48 1385.21 810.067 1390.04C804.847 1394.68 797.887 1397 789.187 1397H713.207C710.693 1397 707.697 1395.16 704.217 1391.49C703.25 1390.33 702.38 1388.98 701.607 1387.43C700.253 1384.72 699.577 1381.63 699.577 1378.15C699.577 1376.6 700.157 1373.9 701.317 1370.03L766.277 1224.45H811.227L759.897 1339.87L757.867 1348.57C757.867 1351.47 758.64 1353.6 760.187 1354.95L765.987 1356.4H770.917C775.75 1356.4 779.617 1355.34 782.517 1353.21C785.61 1350.89 788.897 1346.35 792.377 1339.58L843.417 1224.45H888.947ZM857.223 1397L905.653 1288.25H950.313L902.753 1397H857.223ZM888.253 1260.7L904.783 1224.45H1012.95L997.293 1260.7H888.253ZM961.424 1397L1037.69 1224.45H1136.29C1139 1224.45 1142.67 1226.19 1147.31 1229.67C1151.18 1233.15 1153.11 1237.11 1153.11 1241.56C1153.11 1243.49 1152.73 1245.23 1151.95 1246.78L1131.07 1294.05C1128.75 1299.46 1124.89 1304.3 1119.47 1308.55C1113.87 1311.84 1107.2 1313.48 1099.46 1313.48C1102.36 1313.48 1105.46 1315.03 1108.74 1318.12C1112.03 1321.02 1113.67 1324.79 1113.67 1329.43C1113.67 1331.56 1113.29 1333.49 1112.51 1335.23L1085.25 1397H1040.59L1065.53 1340.45L1066.69 1335.81L1067.85 1330.88C1067.85 1326.82 1066.11 1324.79 1062.63 1324.79H1038.56L1006.66 1397H961.424ZM1077.71 1288.54L1084.96 1287.67C1086.9 1287.09 1088.73 1285.83 1090.47 1283.9L1096.85 1269.4L1097.72 1266.5C1097.72 1262.63 1094.53 1260.7 1088.15 1260.7H1066.98L1054.22 1288.54H1077.71ZM1104.93 1397L1181.2 1224.45H1297.2L1280.96 1260.7H1210.49L1195.41 1294.05H1266.75L1250.51 1330.3H1179.75L1167.86 1356.4H1239.2L1220.93 1397H1104.93ZM1245.19 1397L1321.46 1224.45H1366.41L1338.28 1288.25L1394.25 1224.45H1448.48L1368.73 1316.96L1392.8 1397H1349.88L1325.81 1316.96L1322.33 1324.5L1290.43 1397H1245.19Z" fill="#3279BE"/>
<path fill-rule="evenodd" clip-rule="evenodd" d="M335.113 105.104V134.668C367.623 104.552 387.906 93.1146 427.675 83.252C370.346 177.015 336.507 210.611 277.281 212.946C273.984 213.076 271.523 209.999 272.298 206.792C282.514 164.489 296.17 141.061 335.113 105.104ZM296.546 243.928C280.492 249.438 270.389 251.386 254.601 249.017C250.417 248.389 247.191 245.038 246.572 240.853C242.776 215.199 244.504 197.942 251.55 168.089C211.848 216.08 198.362 250.071 197.591 323.082C197.555 326.542 200.916 329.017 204.19 327.894C242.385 314.795 263.469 294.829 296.546 243.928ZM190.369 368.187C208.666 366.965 221.105 364.025 241.266 357.044C222.102 399.44 206.28 417.922 170.875 437.093C168.529 438.364 165.591 437.584 164.237 435.284C131.142 379.079 140.49 303.103 173.13 251.64C171.655 303.584 172.907 330.051 180.127 360.604C181.236 365.295 185.559 368.508 190.369 368.187ZM212.983 449.593C193.454 460.461 181.728 465.522 164.302 470.796C160.321 472.001 155.998 470.603 153.471 467.3C126.571 432.139 116.179 405.338 106.28 351.902C89.8459 439.738 95.7732 482.76 150.816 541.514C152.539 543.354 155.379 543.667 157.432 542.204C195.557 515.029 204.888 491.806 212.983 449.593ZM165.72 592.017C182.513 582.908 191.63 573.881 205.269 556.282C203.922 608.373 196.235 633.034 165.346 661.951C163.844 663.357 161.606 663.694 159.745 662.816C86.2235 628.16 58.7129 577.829 58.7129 463.732C63.1694 471.261 67.3233 478.379 71.2656 485.134C99.1395 532.895 116.434 562.529 155.291 591.25C158.331 593.496 162.398 593.819 165.72 592.017ZM219.411 644.975C211.406 674.601 202.87 689.465 183.204 708.46C180.252 711.312 175.834 712.028 172.118 710.282C115.35 683.598 80.2314 647.815 42.0004 579.419C42.0004 673.653 73.8619 742.492 186.639 776.424C188.564 777.003 190.7 776.39 191.993 774.851C223.54 737.302 227.342 706.892 219.411 644.975ZM209.431 816.329C149.384 807.083 117.176 786.296 63.8553 737.524C90.5449 825.208 149.903 882.74 249.384 880.312C251.457 880.261 253.317 878.928 254.023 876.978C270.485 831.522 269.339 802.7 252.836 749.093C242.565 775.703 234.56 790.353 219.15 812.18C216.955 815.289 213.192 816.909 209.431 816.329ZM305.545 842.928C302.35 870.904 297.702 887.032 283.609 912.97C282.063 915.815 279.222 917.742 276.008 918.136C233.022 923.406 206.292 920.452 158.988 909.769C210.031 958.286 245.968 973.387 324.422 970.363C326.88 970.268 328.95 968.417 329.289 965.981C336.473 914.365 331.271 886.691 305.545 842.928ZM358.893 985.732C362.044 960.154 362.246 944.362 360.825 917.481C398.778 957.848 410.684 984.067 410.968 1035.01C410.982 1037.62 408.975 1039.81 406.38 1040.08C326.431 1048.38 290.43 1039.4 243.837 1001.03C300.645 1004.39 330.504 1004.67 353.801 993.142C356.659 991.728 358.503 988.896 358.893 985.732ZM441.817 1011.32C446.273 1040.6 441.469 1051.73 422.533 1064.02L455.958 1075.59C556.075 1072.12 609.714 1076.83 653.938 1103.87C636.269 1118.31 610.149 1120.19 557.519 1118L585.802 1145C638.88 1146.75 664.127 1141.97 695.076 1115.43C669.365 1078.16 631.228 1066.18 581.945 1055.02L580.097 1054.6L580.096 1054.6L580.094 1054.6C513.183 1039.45 479.064 1031.73 441.817 1011.32ZM1148.89 105.104V134.668C1116.38 104.552 1096.09 93.1146 1056.32 83.252C1113.65 177.015 1147.49 210.611 1206.72 212.946C1210.02 213.076 1212.48 209.999 1211.7 206.792C1201.49 164.489 1187.83 141.061 1148.89 105.104ZM1187.45 243.928C1203.51 249.438 1213.61 251.386 1229.4 249.017C1233.58 248.389 1236.81 245.038 1237.43 240.853C1241.22 215.199 1239.5 197.942 1232.45 168.089C1272.15 216.08 1285.64 250.071 1286.41 323.082C1286.45 326.542 1283.08 329.017 1279.81 327.894C1241.61 314.795 1220.53 294.829 1187.45 243.928ZM1293.63 368.187C1275.33 366.965 1262.9 364.025 1242.73 357.044C1261.9 399.44 1277.72 417.922 1313.12 437.093C1315.47 438.364 1318.41 437.584 1319.76 435.284C1352.86 379.079 1343.51 303.103 1310.87 251.64C1312.34 303.584 1311.09 330.051 1303.87 360.604C1302.76 365.295 1298.44 368.508 1293.63 368.187ZM1271.02 449.593C1290.55 460.461 1302.27 465.522 1319.7 470.796C1323.68 472.001 1328 470.603 1330.53 467.3C1357.43 432.139 1367.82 405.338 1377.72 351.902C1394.15 439.738 1388.23 482.76 1333.18 541.514C1331.46 543.354 1328.62 543.667 1326.57 542.204C1288.44 515.029 1279.11 491.806 1271.02 449.593ZM1318.28 592.017C1301.49 582.908 1292.37 573.881 1278.73 556.282C1280.08 608.373 1287.77 633.034 1318.65 661.951C1320.16 663.357 1322.39 663.694 1324.26 662.816C1397.78 628.16 1425.29 577.829 1425.29 463.732C1420.84 471.252 1416.69 478.361 1412.75 485.109L1412.73 485.134C1384.86 532.895 1367.57 562.529 1328.71 591.25C1325.67 593.496 1321.6 593.819 1318.28 592.017ZM1264.59 644.975C1272.59 674.601 1281.13 689.465 1300.8 708.46C1303.75 711.312 1308.17 712.028 1311.88 710.282C1368.65 683.598 1403.77 647.815 1442 579.419C1442 673.653 1410.14 742.492 1297.36 776.424C1295.44 777.003 1293.3 776.39 1292.01 774.851C1260.46 737.302 1256.66 706.892 1264.59 644.975ZM1274.57 816.329C1334.62 807.083 1366.82 786.296 1420.14 737.524C1393.46 825.208 1334.1 882.74 1234.62 880.312C1232.54 880.261 1230.68 878.928 1229.98 876.978C1213.51 831.522 1214.66 802.7 1231.16 749.093C1241.43 775.703 1249.44 790.353 1264.85 812.18C1267.05 815.289 1270.81 816.909 1274.57 816.329ZM1178.46 842.928C1181.65 870.904 1186.3 887.032 1200.39 912.97C1201.94 915.815 1204.78 917.742 1207.99 918.136C1250.98 923.406 1277.71 920.452 1325.01 909.769C1273.97 958.286 1238.03 973.387 1159.58 970.363C1157.12 970.268 1155.05 968.417 1154.71 965.981C1147.53 914.365 1152.73 886.691 1178.46 842.928ZM1125.11 985.732C1121.96 960.154 1121.75 944.362 1123.18 917.481C1085.22 957.848 1073.32 984.067 1073.03 1035.01C1073.02 1037.62 1075.03 1039.81 1077.62 1040.08C1157.57 1048.38 1193.57 1039.4 1240.16 1001.03C1183.35 1004.39 1153.5 1004.67 1130.2 993.142C1127.34 991.728 1125.5 988.896 1125.11 985.732ZM1042.18 1011.32C1037.73 1040.6 1042.53 1051.73 1061.47 1064.02L1028.04 1075.59C927.925 1072.12 874.286 1076.83 830.062 1103.87C847.731 1118.31 873.852 1120.19 926.481 1118L898.198 1145C845.12 1146.75 819.873 1141.97 788.924 1115.43C814.635 1078.16 852.772 1066.18 902.055 1055.02L903.903 1054.6L903.904 1054.6C970.816 1039.45 1004.94 1031.73 1042.18 1011.32Z" fill="white"/>
<mask id="mask0_25_5293" style="mask-type:alpha" maskUnits="userSpaceOnUse" x="261" y="79" width="958" height="959">
<circle cx="739.877" cy="558.877" r="478.877" fill="#D9D9D9"/>
</mask>
<g mask="url(#mask0_25_5293)">
<circle cx="739.877" cy="558.877" r="478.877" fill="url(#paint0_linear_25_5293)"/>
<path fill-rule="evenodd" clip-rule="evenodd" d="M1184.45 558.877C1184.45 804.41 985.41 1003.45 739.877 1003.45C494.344 1003.45 295.3 804.41 295.3 558.877C295.3 313.344 494.344 114.3 739.877 114.3C985.41 114.3 1184.45 313.344 1184.45 558.877ZM1174.06 558.877C1174.06 798.669 979.669 993.058 739.877 993.058C500.085 993.058 305.695 798.669 305.695 558.877C305.695 319.085 500.085 124.695 739.877 124.695C979.669 124.695 1174.06 319.085 1174.06 558.877Z" fill="white"/>
<path fill-rule="evenodd" clip-rule="evenodd" d="M1218.75 558.877C1218.75 823.353 1004.35 1037.75 739.877 1037.75C475.4 1037.75 261 823.353 261 558.877C261 294.4 475.4 79.9998 739.877 79.9998C1004.35 79.9998 1218.75 294.4 1218.75 558.877ZM1195.27 558.876C1195.27 810.381 991.381 1014.27 739.877 1014.27C488.372 1014.27 284.487 810.381 284.487 558.876C284.487 307.372 488.372 103.487 739.877 103.487C991.381 103.487 1195.27 307.372 1195.27 558.876Z" fill="white"/>
<mask id="mask1_25_5293" style="mask-type:alpha" maskUnits="userSpaceOnUse" x="295" y="114" width="890" height="890">
<path fill-rule="evenodd" clip-rule="evenodd" d="M1184.45 558.877C1184.45 804.41 985.41 1003.45 739.877 1003.45C494.344 1003.45 295.3 804.41 295.3 558.877C295.3 313.344 494.344 114.3 739.877 114.3C985.41 114.3 1184.45 313.344 1184.45 558.877Z" fill="white"/>
</mask>
<g mask="url(#mask1_25_5293)">
<path d="M694.115 928.254C730.463 931.718 736.457 937.713 740.057 974.196C743.521 937.848 749.515 931.854 785.998 928.254C749.651 924.79 743.657 918.796 740.057 882.313C736.593 918.66 730.598 924.654 694.115 928.254Z" fill="white"/>
<path d="M694.115 928.254C730.463 931.718 736.457 937.713 740.057 974.196C743.521 937.848 749.515 931.854 785.998 928.254C749.651 924.79 743.657 918.796 740.057 882.313C736.593 918.66 730.598 924.654 694.115 928.254Z" fill="white"/>
<path d="M544.594 906.241C580.942 909.705 586.936 915.699 590.536 952.182C594 915.835 599.994 909.84 636.477 906.241C600.13 902.777 594.136 896.782 590.536 860.299C587.072 896.646 581.077 902.641 544.594 906.241Z" fill="white"/>
<path d="M544.594 906.241C580.942 909.705 586.936 915.699 590.536 952.182C594 915.835 599.994 909.84 636.477 906.241C600.13 902.777 594.136 896.782 590.536 860.299C587.072 896.646 581.077 902.641 544.594 906.241Z" fill="white"/>
<path d="M844.594 906.241C880.941 909.705 886.935 915.699 890.535 952.182C893.999 915.835 899.994 909.84 936.477 906.241C900.129 902.777 894.135 896.782 890.535 860.299C887.071 896.646 881.077 902.641 844.594 906.241Z" fill="white"/>
<path d="M844.594 906.241C880.941 909.705 886.935 915.699 890.535 952.182C893.999 915.835 899.994 909.84 936.477 906.241C900.129 902.777 894.135 896.782 890.535 860.299C887.071 896.646 881.077 902.641 844.594 906.241Z" fill="white"/>
<path d="M694.115 191.282C730.463 187.818 736.457 181.823 740.057 145.34C743.521 181.688 749.515 187.682 785.998 191.282C749.651 194.746 743.657 200.74 740.057 237.223C736.593 200.876 730.598 194.882 694.115 191.282Z" fill="white"/>
<path d="M694.115 191.282C730.463 187.818 736.457 181.823 740.057 145.34C743.521 181.688 749.515 187.682 785.998 191.282C749.651 194.746 743.657 200.74 740.057 237.223C736.593 200.876 730.598 194.882 694.115 191.282Z" fill="white"/>
<path d="M544.594 213.295C580.942 209.831 586.936 203.837 590.536 167.354C594 203.701 599.994 209.695 636.477 213.295C600.13 216.759 594.136 222.754 590.536 259.237C587.072 222.89 581.077 216.895 544.594 213.295Z" fill="white"/>
<path d="M544.594 213.295C580.942 209.831 586.936 203.837 590.536 167.354C594 203.701 599.994 209.695 636.477 213.295C600.13 216.759 594.136 222.754 590.536 259.237C587.072 222.89 581.077 216.895 544.594 213.295Z" fill="white"/>
<path d="M844.594 213.295C880.941 209.831 886.935 203.837 890.535 167.354C893.999 203.701 899.994 209.695 936.477 213.295C900.129 216.759 894.135 222.754 890.535 259.237C887.071 222.89 881.077 216.895 844.594 213.295Z" fill="white"/>
<path d="M844.594 213.295C880.941 209.831 886.935 203.837 890.535 167.354C893.999 203.701 899.994 209.695 936.477 213.295C900.129 216.759 894.135 222.754 890.535 259.237C887.071 222.89 881.077 216.895 844.594 213.295Z" fill="white"/>
<path d="M940.941 525.261C888.411 521.578 836.407 524.735 786.336 542.449C774.214 546.658 762.619 552.095 751.902 559.461C749.266 557.356 751.55 555.778 752.604 554.375C788.972 501.234 845.367 472.121 911.953 485.274C914.412 485.801 917.223 485.801 919.507 489.133C905.101 493.167 890.168 493.342 875.234 499.831C902.114 502.286 925.305 510.705 948.144 524.56C944.631 524.735 942.698 524.911 940.941 525.261Z" fill="white"/>
<path d="M940.941 525.261C888.411 521.578 836.407 524.735 786.336 542.449C774.214 546.658 762.619 552.095 751.902 559.461C749.266 557.356 751.55 555.778 752.604 554.375C788.972 501.234 845.367 472.121 911.953 485.274C914.412 485.801 917.223 485.801 919.507 489.133C905.101 493.167 890.168 493.342 875.234 499.831C902.114 502.286 925.305 510.705 948.144 524.56C944.631 524.735 942.698 524.911 940.941 525.261Z" fill="black"/>
<path d="M940.941 525.261C888.411 521.578 836.407 524.735 786.336 542.449C774.214 546.658 762.619 552.095 751.902 559.461C749.266 557.356 751.55 555.778 752.604 554.375C788.972 501.234 845.367 472.121 911.953 485.274C914.412 485.801 917.223 485.801 919.507 489.133C905.101 493.167 890.168 493.342 875.234 499.831C902.114 502.286 925.305 510.705 948.144 524.56C944.631 524.735 942.698 524.911 940.941 525.261Z" fill="#FBB603"/>
<path d="M940.941 525.261C888.411 521.578 836.407 524.735 786.336 542.449C774.214 546.658 762.619 552.095 751.902 559.461C749.266 557.356 751.55 555.778 752.604 554.375C788.972 501.234 845.367 472.121 911.953 485.274C914.412 485.801 917.223 485.801 919.507 489.133C905.101 493.167 890.168 493.342 875.234 499.831C902.114 502.286 925.305 510.705 948.144 524.56C944.631 524.735 942.698 524.911 940.941 525.261Z" fill="url(#paint1_linear_25_5293)"/>
<path d="M900.358 404.775C914.237 413.193 926.71 423.541 938.13 435.116C942.874 439.851 949.198 442.306 956.401 446.516C923.021 462.3 889.816 463.001 854.503 456.337C857.489 452.478 860.476 451.602 863.287 450.725C866.098 449.848 868.734 448.971 872.423 447.743C866.274 440.026 861.882 432.134 857.49 424.067C853.976 417.578 855.03 415.122 862.76 415.999C865.571 416.35 868.382 415.999 872.423 415.999C864.341 408.107 855.381 404.424 846.245 400.566C837.11 396.707 827.096 400.741 817.433 397.233C834.474 388.464 851.692 390.218 869.085 391.797C879.802 395.129 890.519 398.987 900.358 404.775ZM892.452 425.295C885.424 424.768 879.099 422.313 872.071 423.891C874.707 429.503 878.396 433.537 882.789 437.045C884.897 438.623 887.532 440.202 889.992 438.974C892.451 437.922 890.167 435.291 890.519 433.537C891.221 431.082 891.749 428.627 892.452 425.295Z" fill="white"/>
<path d="M900.358 404.775C914.237 413.193 926.71 423.541 938.13 435.116C942.874 439.851 949.198 442.306 956.401 446.516C923.021 462.3 889.816 463.001 854.503 456.337C857.489 452.478 860.476 451.602 863.287 450.725C866.098 449.848 868.734 448.971 872.423 447.743C866.274 440.026 861.882 432.134 857.49 424.067C853.976 417.578 855.03 415.122 862.76 415.999C865.571 416.35 868.382 415.999 872.423 415.999C864.341 408.107 855.381 404.424 846.245 400.566C837.11 396.707 827.096 400.741 817.433 397.233C834.474 388.464 851.692 390.218 869.085 391.797C879.802 395.129 890.519 398.987 900.358 404.775ZM892.452 425.295C885.424 424.768 879.099 422.313 872.071 423.891C874.707 429.503 878.396 433.537 882.789 437.045C884.897 438.623 887.532 440.202 889.992 438.974C892.451 437.922 890.167 435.291 890.519 433.537C891.221 431.082 891.749 428.627 892.452 425.295Z" fill="black"/>
<path d="M900.358 404.775C914.237 413.193 926.71 423.541 938.13 435.116C942.874 439.851 949.198 442.306 956.401 446.516C923.021 462.3 889.816 463.001 854.503 456.337C857.489 452.478 860.476 451.602 863.287 450.725C866.098 449.848 868.734 448.971 872.423 447.743C866.274 440.026 861.882 432.134 857.49 424.067C853.976 417.578 855.03 415.122 862.76 415.999C865.571 416.35 868.382 415.999 872.423 415.999C864.341 408.107 855.381 404.424 846.245 400.566C837.11 396.707 827.096 400.741 817.433 397.233C834.474 388.464 851.692 390.218 869.085 391.797C879.802 395.129 890.519 398.987 900.358 404.775ZM892.452 425.295C885.424 424.768 879.099 422.313 872.071 423.891C874.707 429.503 878.396 433.537 882.789 437.045C884.897 438.623 887.532 440.202 889.992 438.974C892.451 437.922 890.167 435.291 890.519 433.537C891.221 431.082 891.749 428.627 892.452 425.295Z" fill="#FBB603"/>
<path d="M900.358 404.775C914.237 413.193 926.71 423.541 938.13 435.116C942.874 439.851 949.198 442.306 956.401 446.516C923.021 462.3 889.816 463.001 854.503 456.337C857.489 452.478 860.476 451.602 863.287 450.725C866.098 449.848 868.734 448.971 872.423 447.743C866.274 440.026 861.882 432.134 857.49 424.067C853.976 417.578 855.03 415.122 862.76 415.999C865.571 416.35 868.382 415.999 872.423 415.999C864.341 408.107 855.381 404.424 846.245 400.566C837.11 396.707 827.096 400.741 817.433 397.233C834.474 388.464 851.692 390.218 869.085 391.797C879.802 395.129 890.519 398.987 900.358 404.775ZM892.452 425.295C885.424 424.768 879.099 422.313 872.071 423.891C874.707 429.503 878.396 433.537 882.789 437.045C884.897 438.623 887.532 440.202 889.992 438.974C892.451 437.922 890.167 435.291 890.519 433.537C891.221 431.082 891.749 428.627 892.452 425.295Z" fill="url(#paint2_linear_25_5293)"/>
<path d="M490.655 759.22C487.141 745.716 482.925 732.387 479.938 718.707C475.019 695.557 472.383 672.231 470.978 648.555C470.627 644.17 472.208 641.54 476.073 639.435C483.627 635.577 490.655 631.017 498.209 627.158C501.899 625.229 502.777 622.949 502.25 618.915C496.628 576.122 496.277 533.329 501.547 490.536C501.899 487.028 498.736 480.364 504.358 480.364C508.575 480.364 506.115 487.204 506.467 490.712C510.332 539.468 523.684 585.593 545.996 629.087C549.686 636.278 548.807 639.26 541.428 642.416C534.05 645.398 523.86 647.152 520.522 653.992C517.184 660.656 520.697 669.951 521.751 678.019C524.211 695.908 526.846 713.621 534.401 730.283C536.333 741.682 542.307 751.328 547.402 761.325C549.159 764.833 550.916 764.657 554.078 762.553C566.376 754.31 578.85 746.242 591.499 738.525C594.486 736.596 595.189 735.018 593.959 731.686C590.621 722.39 587.81 712.92 584.647 703.625C580.607 684.859 576.742 666.268 575.336 647.152C574.809 640.487 575.687 635.752 582.891 633.823C588.161 632.42 589.742 629.438 589.215 623.651C586.229 591.205 587.458 558.935 595.716 527.191C596.419 524.385 596.594 521.579 599.23 518.773C600.986 532.102 600.986 545.255 603.797 558.058C608.892 582.261 615.92 605.937 627.691 627.684C630.677 633.297 629.448 635.401 624.001 637.856C608.365 645.047 608.365 645.223 611.001 662.585C612.23 670.653 612.933 678.72 616.095 686.437C617.501 695.557 621.19 703.625 624.528 712.043C626.637 717.48 628.745 718.707 634.543 715.901C660.017 703.098 686.722 692.576 713.953 684.157C719.751 682.403 724.67 682.754 729.941 685.034C748.388 692.751 762.267 705.729 773.336 722.04C790.729 747.996 800.391 776.934 804.608 807.45C805.838 816.57 809.879 819.201 817.96 820.253C850.638 824.462 880.68 819.902 906.155 796.226C906.331 804.82 900.709 809.906 897.195 816.746C900.182 816.746 902.641 816.921 904.925 816.746C924.075 814.29 954.469 781.319 955.523 762.202C955.699 759.922 955.172 758.344 952.888 757.291C929.873 746.944 913.71 728.353 895.263 712.218C874.883 693.979 851.692 679.597 823.231 677.843C818.487 677.493 817.433 675.739 816.73 671.705C814.973 662.41 814.798 653.115 815.676 643.819C818.136 614.355 826.042 585.944 834.826 557.883C836.759 551.569 840.272 548.587 846.421 546.658C868.031 540.169 890.167 539.818 912.48 539.468C938.13 543.151 963.605 547.535 989.255 558.233C984.687 549.64 976.606 547.184 971.686 540.344C978.89 539.292 984.336 542.624 989.782 544.904C1009.11 553.147 1027.38 563.319 1042.84 578.227C1044.6 579.981 1046.18 581.734 1048.64 579.805C1051.8 577.35 1048.46 575.771 1047.23 574.368C1038.45 565.073 1029.66 556.129 1020.88 547.009C1029.66 545.431 1036.16 551.043 1043.37 554.55C1051.27 558.409 1059.18 562.969 1065.33 569.809C1068.31 573.316 1071.3 574.018 1073.94 569.107C1075.34 566.301 1077.27 563.67 1078.86 560.864C1083.25 552.797 1085.36 546.307 1076.22 538.591C1064.1 528.419 1059 513.336 1056.19 497.902C1054.96 491.588 1056.89 488.607 1063.75 489.133C1067.79 489.484 1071.83 489.133 1078.33 489.133C1073.23 485.801 1069.72 483.17 1065.85 480.89C1036.69 463.527 1005.24 451.952 972.565 443.359C969.051 442.482 965.01 442.131 963.253 438.097C962.199 428.627 957.807 420.384 954.293 411.79C945.86 391.095 932.684 376.538 908.966 373.557C898.6 372.329 889.113 367.068 878.045 368.821C863.287 371.101 848.705 373.557 834.299 377.766C816.73 382.15 800.567 390.393 781.417 397.584C790.201 386.535 799.689 380.221 807.946 372.504C815.325 367.945 822.528 363.385 830.258 358.474C814.622 352.16 801.445 357.948 788.445 364.788C764.2 374.083 741.536 386.71 717.116 400.39C726.954 382.677 741.36 371.803 754.186 359.702C759.105 357.597 763.673 355.142 768.065 351.108C750.672 349.003 733.982 348.302 717.291 349.529C705.345 349.88 693.574 345.671 680.397 348.302C686.37 353.739 691.817 358.474 697.263 363.385C699.02 364.963 701.304 366.541 699.547 368.997C697.614 371.452 695.682 369.698 693.574 368.471C675.302 358.474 655.801 351.634 635.772 346.197C632.961 345.32 630.151 345.846 627.34 344.619C612.406 339.007 596.594 338.13 580.782 338.13C575.336 338.13 573.931 340.234 573.931 345.32C574.458 363.209 577.796 380.572 584.296 397.233C584.823 398.812 584.647 401.793 587.634 401.442C590.621 401.092 590.797 398.636 590.972 396.181C591.675 388.64 592.553 381.098 593.256 373.557C593.608 369.523 594.837 367.944 599.23 368.646C631.907 373.907 662.828 383.553 690.411 402.319C691.817 403.372 694.452 403.722 693.749 406.879C682.505 405.652 671.788 400.039 659.139 401.968C673.897 409.51 673.897 409.685 668.802 424.768C665.991 433.362 661.599 441.254 657.206 449.146C650.882 458.441 642.8 466.334 634.718 474.05C632.786 475.804 630.678 478.259 627.867 476.856C624.88 475.278 627.867 472.823 628.042 471.069C629.448 463.352 629.799 455.811 627.867 448.269C626.637 443.885 624.88 441.605 619.609 441.429C601.689 440.728 586.931 446.515 576.39 461.774C572.525 458.792 570.241 454.758 567.957 450.9C554.078 427.223 544.942 402.144 543.185 374.434C542.131 357.948 543.888 360.579 528.428 359.702C509.98 358.825 509.98 359 502.953 375.661C479.235 432.66 447.26 484.749 406.852 531.575C402.284 536.837 401.757 539.818 408.96 541.397C420.907 544.027 418.096 552.446 417.218 560.513C410.19 625.755 390.689 686.788 354.322 742.033C347.821 751.854 339.915 760.273 332.536 769.217C330.955 770.971 329.55 773.602 325.509 773.426C330.779 760.097 336.226 747.645 340.618 734.842C356.254 688.892 366.971 641.89 362.403 592.959C360.119 569.809 356.254 546.483 343.605 525.963C340.969 521.579 341.848 518.948 345.362 515.616C385.594 475.979 411.42 428.1 427.935 374.609C429.34 370.049 430.394 365.138 431.624 360.578C429.164 358.825 426.353 359.526 423.894 359.702C389.108 360.579 354.322 362.157 319.535 364.963C292.655 367.068 265.6 369.523 238.719 371.803C261.91 347.776 287.912 326.905 315.143 307.613C317.954 305.684 320.765 304.983 324.103 304.807C377.337 301.826 430.57 304.106 483.627 307.789C502.074 309.016 520.346 311.121 538.617 313.226C543.01 313.752 544.064 312.524 544.942 308.49C548.28 291.303 548.456 291.303 565.849 295.161C572.349 296.564 579.904 300.773 584.999 298.844C589.567 297.09 591.148 288.321 594.486 283.06C614.69 251.842 613.46 251.667 650.354 260.436C685.316 268.679 714.832 288.672 742.59 310.595C749.793 316.382 757.172 318.838 766.308 319.188C828.677 321.468 890.168 330.588 950.604 345.846C955.172 347.074 958.158 349.354 960.618 353.388C971.335 372.154 981.876 390.919 989.08 411.264C990.485 415.298 992.593 417.227 996.458 418.454C1053.03 435.642 1099.06 469.315 1141.05 509.302C1144.56 512.634 1144.04 515.616 1142.81 519.474C1137.54 535.083 1126.64 546.307 1113.64 555.603C1109.6 558.409 1107.14 561.39 1105.91 566.301C1099.76 588.224 1085.88 604.183 1066.38 615.408C1062.17 617.863 1059.18 620.845 1056.72 624.878C1041.79 649.782 1020.18 665.918 990.485 673.81C1000.32 649.256 1000.85 625.404 994.174 601.377C992.066 593.836 985.039 596.817 980.295 594.713C978.714 594.362 977.308 594.187 975.727 593.836C975.551 592.783 974.849 592.783 973.97 593.134C956.577 588.75 938.833 585.944 920.913 584.014C915.818 583.488 912.48 584.365 909.669 589.276C900.006 606.463 892.627 624.177 888.762 643.644C884.897 662.936 890.87 678.019 904.75 690.646C912.129 697.311 919.859 703.449 927.237 710.289C930.751 713.621 934.089 713.621 938.306 711.867C955.172 704.501 967.47 693.102 973.619 673.81C986.62 691.172 987.85 709.061 983.633 727.827C983.282 729.581 983.106 731.335 982.228 732.913C977.836 740.455 981.701 742.91 988.728 743.261C992.066 743.436 994.877 743.085 993.999 748.522C985.39 799.383 936.725 856.382 868.207 856.732C865.571 856.732 863.112 856.206 859.598 855.856C865.044 850.068 873.653 848.665 875.937 839.545C838.867 854.803 801.446 858.136 762.619 853.4C764.024 847.437 765.605 841.825 766.484 836.037C768.943 820.604 766.835 806.223 759.983 791.841C749.969 770.971 738.549 751.153 723.616 733.264C718.697 727.301 715.007 726.249 707.804 729.932C638.056 766.411 579.553 816.044 529.482 876.2C508.751 901.104 490.128 927.587 473.964 955.823C470.451 962.137 468.167 961.611 463.248 957.928C447.963 946.703 432.854 935.128 417.92 923.553C412.123 918.993 412.65 915.836 415.988 910.224C439.354 871.464 467.815 836.739 501.372 806.223C505.764 802.189 507.345 799.207 504.358 793.244C498.736 781.669 494.871 770.269 490.655 759.22ZM1015.61 604.885C1017.19 616.11 1018.59 627.158 1015.96 638.032C1015.61 639.435 1013.32 641.013 1015.26 642.241C1016.66 643.118 1018.42 642.241 1020 641.013C1027.91 634.524 1034.76 627.158 1040.03 618.389C1041.43 615.934 1041.79 614.18 1038.8 613.128C1031.24 610.497 1024.22 606.464 1015.61 604.885ZM969.051 703.625C963.078 713.095 955.875 718.883 947.793 724.144C963.429 734.492 964.835 733.966 969.051 716.252C969.754 712.569 970.281 709.061 969.051 703.625Z" fill="white"/>
<path d="M490.655 759.22C487.141 745.716 482.925 732.387 479.938 718.707C475.019 695.557 472.383 672.231 470.978 648.555C470.627 644.17 472.208 641.54 476.073 639.435C483.627 635.577 490.655 631.017 498.209 627.158C501.899 625.229 502.777 622.949 502.25 618.915C496.628 576.122 496.277 533.329 501.547 490.536C501.899 487.028 498.736 480.364 504.358 480.364C508.575 480.364 506.115 487.204 506.467 490.712C510.332 539.468 523.684 585.593 545.996 629.087C549.686 636.278 548.807 639.26 541.428 642.416C534.05 645.398 523.86 647.152 520.522 653.992C517.184 660.656 520.697 669.951 521.751 678.019C524.211 695.908 526.846 713.621 534.401 730.283C536.333 741.682 542.307 751.328 547.402 761.325C549.159 764.833 550.916 764.657 554.078 762.553C566.376 754.31 578.85 746.242 591.499 738.525C594.486 736.596 595.189 735.018 593.959 731.686C590.621 722.39 587.81 712.92 584.647 703.625C580.607 684.859 576.742 666.268 575.336 647.152C574.809 640.487 575.687 635.752 582.891 633.823C588.161 632.42 589.742 629.438 589.215 623.651C586.229 591.205 587.458 558.935 595.716 527.191C596.419 524.385 596.594 521.579 599.23 518.773C600.986 532.102 600.986 545.255 603.797 558.058C608.892 582.261 615.92 605.937 627.691 627.684C630.677 633.297 629.448 635.401 624.001 637.856C608.365 645.047 608.365 645.223 611.001 662.585C612.23 670.653 612.933 678.72 616.095 686.437C617.501 695.557 621.19 703.625 624.528 712.043C626.637 717.48 628.745 718.707 634.543 715.901C660.017 703.098 686.722 692.576 713.953 684.157C719.751 682.403 724.67 682.754 729.941 685.034C748.388 692.751 762.267 705.729 773.336 722.04C790.729 747.996 800.391 776.934 804.608 807.45C805.838 816.57 809.879 819.201 817.96 820.253C850.638 824.462 880.68 819.902 906.155 796.226C906.331 804.82 900.709 809.906 897.195 816.746C900.182 816.746 902.641 816.921 904.925 816.746C924.075 814.29 954.469 781.319 955.523 762.202C955.699 759.922 955.172 758.344 952.888 757.291C929.873 746.944 913.71 728.353 895.263 712.218C874.883 693.979 851.692 679.597 823.231 677.843C818.487 677.493 817.433 675.739 816.73 671.705C814.973 662.41 814.798 653.115 815.676 643.819C818.136 614.355 826.042 585.944 834.826 557.883C836.759 551.569 840.272 548.587 846.421 546.658C868.031 540.169 890.167 539.818 912.48 539.468C938.13 543.151 963.605 547.535 989.255 558.233C984.687 549.64 976.606 547.184 971.686 540.344C978.89 539.292 984.336 542.624 989.782 544.904C1009.11 553.147 1027.38 563.319 1042.84 578.227C1044.6 579.981 1046.18 581.734 1048.64 579.805C1051.8 577.35 1048.46 575.771 1047.23 574.368C1038.45 565.073 1029.66 556.129 1020.88 547.009C1029.66 545.431 1036.16 551.043 1043.37 554.55C1051.27 558.409 1059.18 562.969 1065.33 569.809C1068.31 573.316 1071.3 574.018 1073.94 569.107C1075.34 566.301 1077.27 563.67 1078.86 560.864C1083.25 552.797 1085.36 546.307 1076.22 538.591C1064.1 528.419 1059 513.336 1056.19 497.902C1054.96 491.588 1056.89 488.607 1063.75 489.133C1067.79 489.484 1071.83 489.133 1078.33 489.133C1073.23 485.801 1069.72 483.17 1065.85 480.89C1036.69 463.527 1005.24 451.952 972.565 443.359C969.051 442.482 965.01 442.131 963.253 438.097C962.199 428.627 957.807 420.384 954.293 411.79C945.86 391.095 932.684 376.538 908.966 373.557C898.6 372.329 889.113 367.068 878.045 368.821C863.287 371.101 848.705 373.557 834.299 377.766C816.73 382.15 800.567 390.393 781.417 397.584C790.201 386.535 799.689 380.221 807.946 372.504C815.325 367.945 822.528 363.385 830.258 358.474C814.622 352.16 801.445 357.948 788.445 364.788C764.2 374.083 741.536 386.71 717.116 400.39C726.954 382.677 741.36 371.803 754.186 359.702C759.105 357.597 763.673 355.142 768.065 351.108C750.672 349.003 733.982 348.302 717.291 349.529C705.345 349.88 693.574 345.671 680.397 348.302C686.37 353.739 691.817 358.474 697.263 363.385C699.02 364.963 701.304 366.541 699.547 368.997C697.614 371.452 695.682 369.698 693.574 368.471C675.302 358.474 655.801 351.634 635.772 346.197C632.961 345.32 630.151 345.846 627.34 344.619C612.406 339.007 596.594 338.13 580.782 338.13C575.336 338.13 573.931 340.234 573.931 345.32C574.458 363.209 577.796 380.572 584.296 397.233C584.823 398.812 584.647 401.793 587.634 401.442C590.621 401.092 590.797 398.636 590.972 396.181C591.675 388.64 592.553 381.098 593.256 373.557C593.608 369.523 594.837 367.944 599.23 368.646C631.907 373.907 662.828 383.553 690.411 402.319C691.817 403.372 694.452 403.722 693.749 406.879C682.505 405.652 671.788 400.039 659.139 401.968C673.897 409.51 673.897 409.685 668.802 424.768C665.991 433.362 661.599 441.254 657.206 449.146C650.882 458.441 642.8 466.334 634.718 474.05C632.786 475.804 630.678 478.259 627.867 476.856C624.88 475.278 627.867 472.823 628.042 471.069C629.448 463.352 629.799 455.811 627.867 448.269C626.637 443.885 624.88 441.605 619.609 441.429C601.689 440.728 586.931 446.515 576.39 461.774C572.525 458.792 570.241 454.758 567.957 450.9C554.078 427.223 544.942 402.144 543.185 374.434C542.131 357.948 543.888 360.579 528.428 359.702C509.98 358.825 509.98 359 502.953 375.661C479.235 432.66 447.26 484.749 406.852 531.575C402.284 536.837 401.757 539.818 408.96 541.397C420.907 544.027 418.096 552.446 417.218 560.513C410.19 625.755 390.689 686.788 354.322 742.033C347.821 751.854 339.915 760.273 332.536 769.217C330.955 770.971 329.55 773.602 325.509 773.426C330.779 760.097 336.226 747.645 340.618 734.842C356.254 688.892 366.971 641.89 362.403 592.959C360.119 569.809 356.254 546.483 343.605 525.963C340.969 521.579 341.848 518.948 345.362 515.616C385.594 475.979 411.42 428.1 427.935 374.609C429.34 370.049 430.394 365.138 431.624 360.578C429.164 358.825 426.353 359.526 423.894 359.702C389.108 360.579 354.322 362.157 319.535 364.963C292.655 367.068 265.6 369.523 238.719 371.803C261.91 347.776 287.912 326.905 315.143 307.613C317.954 305.684 320.765 304.983 324.103 304.807C377.337 301.826 430.57 304.106 483.627 307.789C502.074 309.016 520.346 311.121 538.617 313.226C543.01 313.752 544.064 312.524 544.942 308.49C548.28 291.303 548.456 291.303 565.849 295.161C572.349 296.564 579.904 300.773 584.999 298.844C589.567 297.09 591.148 288.321 594.486 283.06C614.69 251.842 613.46 251.667 650.354 260.436C685.316 268.679 714.832 288.672 742.59 310.595C749.793 316.382 757.172 318.838 766.308 319.188C828.677 321.468 890.168 330.588 950.604 345.846C955.172 347.074 958.158 349.354 960.618 353.388C971.335 372.154 981.876 390.919 989.08 411.264C990.485 415.298 992.593 417.227 996.458 418.454C1053.03 435.642 1099.06 469.315 1141.05 509.302C1144.56 512.634 1144.04 515.616 1142.81 519.474C1137.54 535.083 1126.64 546.307 1113.64 555.603C1109.6 558.409 1107.14 561.39 1105.91 566.301C1099.76 588.224 1085.88 604.183 1066.38 615.408C1062.17 617.863 1059.18 620.845 1056.72 624.878C1041.79 649.782 1020.18 665.918 990.485 673.81C1000.32 649.256 1000.85 625.404 994.174 601.377C992.066 593.836 985.039 596.817 980.295 594.713C978.714 594.362 977.308 594.187 975.727 593.836C975.551 592.783 974.849 592.783 973.97 593.134C956.577 588.75 938.833 585.944 920.913 584.014C915.818 583.488 912.48 584.365 909.669 589.276C900.006 606.463 892.627 624.177 888.762 643.644C884.897 662.936 890.87 678.019 904.75 690.646C912.129 697.311 919.859 703.449 927.237 710.289C930.751 713.621 934.089 713.621 938.306 711.867C955.172 704.501 967.47 693.102 973.619 673.81C986.62 691.172 987.85 709.061 983.633 727.827C983.282 729.581 983.106 731.335 982.228 732.913C977.836 740.455 981.701 742.91 988.728 743.261C992.066 743.436 994.877 743.085 993.999 748.522C985.39 799.383 936.725 856.382 868.207 856.732C865.571 856.732 863.112 856.206 859.598 855.856C865.044 850.068 873.653 848.665 875.937 839.545C838.867 854.803 801.446 858.136 762.619 853.4C764.024 847.437 765.605 841.825 766.484 836.037C768.943 820.604 766.835 806.223 759.983 791.841C749.969 770.971 738.549 751.153 723.616 733.264C718.697 727.301 715.007 726.249 707.804 729.932C638.056 766.411 579.553 816.044 529.482 876.2C508.751 901.104 490.128 927.587 473.964 955.823C470.451 962.137 468.167 961.611 463.248 957.928C447.963 946.703 432.854 935.128 417.92 923.553C412.123 918.993 412.65 915.836 415.988 910.224C439.354 871.464 467.815 836.739 501.372 806.223C505.764 802.189 507.345 799.207 504.358 793.244C498.736 781.669 494.871 770.269 490.655 759.22ZM1015.61 604.885C1017.19 616.11 1018.59 627.158 1015.96 638.032C1015.61 639.435 1013.32 641.013 1015.26 642.241C1016.66 643.118 1018.42 642.241 1020 641.013C1027.91 634.524 1034.76 627.158 1040.03 618.389C1041.43 615.934 1041.79 614.18 1038.8 613.128C1031.24 610.497 1024.22 606.464 1015.61 604.885ZM969.051 703.625C963.078 713.095 955.875 718.883 947.793 724.144C963.429 734.492 964.835 733.966 969.051 716.252C969.754 712.569 970.281 709.061 969.051 703.625Z" fill="black"/>
<path d="M490.655 759.22C487.141 745.716 482.925 732.387 479.938 718.707C475.019 695.557 472.383 672.231 470.978 648.555C470.627 644.17 472.208 641.54 476.073 639.435C483.627 635.577 490.655 631.017 498.209 627.158C501.899 625.229 502.777 622.949 502.25 618.915C496.628 576.122 496.277 533.329 501.547 490.536C501.899 487.028 498.736 480.364 504.358 480.364C508.575 480.364 506.115 487.204 506.467 490.712C510.332 539.468 523.684 585.593 545.996 629.087C549.686 636.278 548.807 639.26 541.428 642.416C534.05 645.398 523.86 647.152 520.522 653.992C517.184 660.656 520.697 669.951 521.751 678.019C524.211 695.908 526.846 713.621 534.401 730.283C536.333 741.682 542.307 751.328 547.402 761.325C549.159 764.833 550.916 764.657 554.078 762.553C566.376 754.31 578.85 746.242 591.499 738.525C594.486 736.596 595.189 735.018 593.959 731.686C590.621 722.39 587.81 712.92 584.647 703.625C580.607 684.859 576.742 666.268 575.336 647.152C574.809 640.487 575.687 635.752 582.891 633.823C588.161 632.42 589.742 629.438 589.215 623.651C586.229 591.205 587.458 558.935 595.716 527.191C596.419 524.385 596.594 521.579 599.23 518.773C600.986 532.102 600.986 545.255 603.797 558.058C608.892 582.261 615.92 605.937 627.691 627.684C630.677 633.297 629.448 635.401 624.001 637.856C608.365 645.047 608.365 645.223 611.001 662.585C612.23 670.653 612.933 678.72 616.095 686.437C617.501 695.557 621.19 703.625 624.528 712.043C626.637 717.48 628.745 718.707 634.543 715.901C660.017 703.098 686.722 692.576 713.953 684.157C719.751 682.403 724.67 682.754 729.941 685.034C748.388 692.751 762.267 705.729 773.336 722.04C790.729 747.996 800.391 776.934 804.608 807.45C805.838 816.57 809.879 819.201 817.96 820.253C850.638 824.462 880.68 819.902 906.155 796.226C906.331 804.82 900.709 809.906 897.195 816.746C900.182 816.746 902.641 816.921 904.925 816.746C924.075 814.29 954.469 781.319 955.523 762.202C955.699 759.922 955.172 758.344 952.888 757.291C929.873 746.944 913.71 728.353 895.263 712.218C874.883 693.979 851.692 679.597 823.231 677.843C818.487 677.493 817.433 675.739 816.73 671.705C814.973 662.41 814.798 653.115 815.676 643.819C818.136 614.355 826.042 585.944 834.826 557.883C836.759 551.569 840.272 548.587 846.421 546.658C868.031 540.169 890.167 539.818 912.48 539.468C938.13 543.151 963.605 547.535 989.255 558.233C984.687 549.64 976.606 547.184 971.686 540.344C978.89 539.292 984.336 542.624 989.782 544.904C1009.11 553.147 1027.38 563.319 1042.84 578.227C1044.6 579.981 1046.18 581.734 1048.64 579.805C1051.8 577.35 1048.46 575.771 1047.23 574.368C1038.45 565.073 1029.66 556.129 1020.88 547.009C1029.66 545.431 1036.16 551.043 1043.37 554.55C1051.27 558.409 1059.18 562.969 1065.33 569.809C1068.31 573.316 1071.3 574.018 1073.94 569.107C1075.34 566.301 1077.27 563.67 1078.86 560.864C1083.25 552.797 1085.36 546.307 1076.22 538.591C1064.1 528.419 1059 513.336 1056.19 497.902C1054.96 491.588 1056.89 488.607 1063.75 489.133C1067.79 489.484 1071.83 489.133 1078.33 489.133C1073.23 485.801 1069.72 483.17 1065.85 480.89C1036.69 463.527 1005.24 451.952 972.565 443.359C969.051 442.482 965.01 442.131 963.253 438.097C962.199 428.627 957.807 420.384 954.293 411.79C945.86 391.095 932.684 376.538 908.966 373.557C898.6 372.329 889.113 367.068 878.045 368.821C863.287 371.101 848.705 373.557 834.299 377.766C816.73 382.15 800.567 390.393 781.417 397.584C790.201 386.535 799.689 380.221 807.946 372.504C815.325 367.945 822.528 363.385 830.258 358.474C814.622 352.16 801.445 357.948 788.445 364.788C764.2 374.083 741.536 386.71 717.116 400.39C726.954 382.677 741.36 371.803 754.186 359.702C759.105 357.597 763.673 355.142 768.065 351.108C750.672 349.003 733.982 348.302 717.291 349.529C705.345 349.88 693.574 345.671 680.397 348.302C686.37 353.739 691.817 358.474 697.263 363.385C699.02 364.963 701.304 366.541 699.547 368.997C697.614 371.452 695.682 369.698 693.574 368.471C675.302 358.474 655.801 351.634 635.772 346.197C632.961 345.32 630.151 345.846 627.34 344.619C612.406 339.007 596.594 338.13 580.782 338.13C575.336 338.13 573.931 340.234 573.931 345.32C574.458 363.209 577.796 380.572 584.296 397.233C584.823 398.812 584.647 401.793 587.634 401.442C590.621 401.092 590.797 398.636 590.972 396.181C591.675 388.64 592.553 381.098 593.256 373.557C593.608 369.523 594.837 367.944 599.23 368.646C631.907 373.907 662.828 383.553 690.411 402.319C691.817 403.372 694.452 403.722 693.749 406.879C682.505 405.652 671.788 400.039 659.139 401.968C673.897 409.51 673.897 409.685 668.802 424.768C665.991 433.362 661.599 441.254 657.206 449.146C650.882 458.441 642.8 466.334 634.718 474.05C632.786 475.804 630.678 478.259 627.867 476.856C624.88 475.278 627.867 472.823 628.042 471.069C629.448 463.352 629.799 455.811 627.867 448.269C626.637 443.885 624.88 441.605 619.609 441.429C601.689 440.728 586.931 446.515 576.39 461.774C572.525 458.792 570.241 454.758 567.957 450.9C554.078 427.223 544.942 402.144 543.185 374.434C542.131 357.948 543.888 360.579 528.428 359.702C509.98 358.825 509.98 359 502.953 375.661C479.235 432.66 447.26 484.749 406.852 531.575C402.284 536.837 401.757 539.818 408.96 541.397C420.907 544.027 418.096 552.446 417.218 560.513C410.19 625.755 390.689 686.788 354.322 742.033C347.821 751.854 339.915 760.273 332.536 769.217C330.955 770.971 329.55 773.602 325.509 773.426C330.779 760.097 336.226 747.645 340.618 734.842C356.254 688.892 366.971 641.89 362.403 592.959C360.119 569.809 356.254 546.483 343.605 525.963C340.969 521.579 341.848 518.948 345.362 515.616C385.594 475.979 411.42 428.1 427.935 374.609C429.34 370.049 430.394 365.138 431.624 360.578C429.164 358.825 426.353 359.526 423.894 359.702C389.108 360.579 354.322 362.157 319.535 364.963C292.655 367.068 265.6 369.523 238.719 371.803C261.91 347.776 287.912 326.905 315.143 307.613C317.954 305.684 320.765 304.983 324.103 304.807C377.337 301.826 430.57 304.106 483.627 307.789C502.074 309.016 520.346 311.121 538.617 313.226C543.01 313.752 544.064 312.524 544.942 308.49C548.28 291.303 548.456 291.303 565.849 295.161C572.349 296.564 579.904 300.773 584.999 298.844C589.567 297.09 591.148 288.321 594.486 283.06C614.69 251.842 613.46 251.667 650.354 260.436C685.316 268.679 714.832 288.672 742.59 310.595C749.793 316.382 757.172 318.838 766.308 319.188C828.677 321.468 890.168 330.588 950.604 345.846C955.172 347.074 958.158 349.354 960.618 353.388C971.335 372.154 981.876 390.919 989.08 411.264C990.485 415.298 992.593 417.227 996.458 418.454C1053.03 435.642 1099.06 469.315 1141.05 509.302C1144.56 512.634 1144.04 515.616 1142.81 519.474C1137.54 535.083 1126.64 546.307 1113.64 555.603C1109.6 558.409 1107.14 561.39 1105.91 566.301C1099.76 588.224 1085.88 604.183 1066.38 615.408C1062.17 617.863 1059.18 620.845 1056.72 624.878C1041.79 649.782 1020.18 665.918 990.485 673.81C1000.32 649.256 1000.85 625.404 994.174 601.377C992.066 593.836 985.039 596.817 980.295 594.713C978.714 594.362 977.308 594.187 975.727 593.836C975.551 592.783 974.849 592.783 973.97 593.134C956.577 588.75 938.833 585.944 920.913 584.014C915.818 583.488 912.48 584.365 909.669 589.276C900.006 606.463 892.627 624.177 888.762 643.644C884.897 662.936 890.87 678.019 904.75 690.646C912.129 697.311 919.859 703.449 927.237 710.289C930.751 713.621 934.089 713.621 938.306 711.867C955.172 704.501 967.47 693.102 973.619 673.81C986.62 691.172 987.85 709.061 983.633 727.827C983.282 729.581 983.106 731.335 982.228 732.913C977.836 740.455 981.701 742.91 988.728 743.261C992.066 743.436 994.877 743.085 993.999 748.522C985.39 799.383 936.725 856.382 868.207 856.732C865.571 856.732 863.112 856.206 859.598 855.856C865.044 850.068 873.653 848.665 875.937 839.545C838.867 854.803 801.446 858.136 762.619 853.4C764.024 847.437 765.605 841.825 766.484 836.037C768.943 820.604 766.835 806.223 759.983 791.841C749.969 770.971 738.549 751.153 723.616 733.264C718.697 727.301 715.007 726.249 707.804 729.932C638.056 766.411 579.553 816.044 529.482 876.2C508.751 901.104 490.128 927.587 473.964 955.823C470.451 962.137 468.167 961.611 463.248 957.928C447.963 946.703 432.854 935.128 417.92 923.553C412.123 918.993 412.65 915.836 415.988 910.224C439.354 871.464 467.815 836.739 501.372 806.223C505.764 802.189 507.345 799.207 504.358 793.244C498.736 781.669 494.871 770.269 490.655 759.22ZM1015.61 604.885C1017.19 616.11 1018.59 627.158 1015.96 638.032C1015.61 639.435 1013.32 641.013 1015.26 642.241C1016.66 643.118 1018.42 642.241 1020 641.013C1027.91 634.524 1034.76 627.158 1040.03 618.389C1041.43 615.934 1041.79 614.18 1038.8 613.128C1031.24 610.497 1024.22 606.464 1015.61 604.885ZM969.051 703.625C963.078 713.095 955.875 718.883 947.793 724.144C963.429 734.492 964.835 733.966 969.051 716.252C969.754 712.569 970.281 709.061 969.051 703.625Z" fill="#FBB603"/>
<path d="M490.655 759.22C487.141 745.716 482.925 732.387 479.938 718.707C475.019 695.557 472.383 672.231 470.978 648.555C470.627 644.17 472.208 641.54 476.073 639.435C483.627 635.577 490.655 631.017 498.209 627.158C501.899 625.229 502.777 622.949 502.25 618.915C496.628 576.122 496.277 533.329 501.547 490.536C501.899 487.028 498.736 480.364 504.358 480.364C508.575 480.364 506.115 487.204 506.467 490.712C510.332 539.468 523.684 585.593 545.996 629.087C549.686 636.278 548.807 639.26 541.428 642.416C534.05 645.398 523.86 647.152 520.522 653.992C517.184 660.656 520.697 669.951 521.751 678.019C524.211 695.908 526.846 713.621 534.401 730.283C536.333 741.682 542.307 751.328 547.402 761.325C549.159 764.833 550.916 764.657 554.078 762.553C566.376 754.31 578.85 746.242 591.499 738.525C594.486 736.596 595.189 735.018 593.959 731.686C590.621 722.39 587.81 712.92 584.647 703.625C580.607 684.859 576.742 666.268 575.336 647.152C574.809 640.487 575.687 635.752 582.891 633.823C588.161 632.42 589.742 629.438 589.215 623.651C586.229 591.205 587.458 558.935 595.716 527.191C596.419 524.385 596.594 521.579 599.23 518.773C600.986 532.102 600.986 545.255 603.797 558.058C608.892 582.261 615.92 605.937 627.691 627.684C630.677 633.297 629.448 635.401 624.001 637.856C608.365 645.047 608.365 645.223 611.001 662.585C612.23 670.653 612.933 678.72 616.095 686.437C617.501 695.557 621.19 703.625 624.528 712.043C626.637 717.48 628.745 718.707 634.543 715.901C660.017 703.098 686.722 692.576 713.953 684.157C719.751 682.403 724.67 682.754 729.941 685.034C748.388 692.751 762.267 705.729 773.336 722.04C790.729 747.996 800.391 776.934 804.608 807.45C805.838 816.57 809.879 819.201 817.96 820.253C850.638 824.462 880.68 819.902 906.155 796.226C906.331 804.82 900.709 809.906 897.195 816.746C900.182 816.746 902.641 816.921 904.925 816.746C924.075 814.29 954.469 781.319 955.523 762.202C955.699 759.922 955.172 758.344 952.888 757.291C929.873 746.944 913.71 728.353 895.263 712.218C874.883 693.979 851.692 679.597 823.231 677.843C818.487 677.493 817.433 675.739 816.73 671.705C814.973 662.41 814.798 653.115 815.676 643.819C818.136 614.355 826.042 585.944 834.826 557.883C836.759 551.569 840.272 548.587 846.421 546.658C868.031 540.169 890.167 539.818 912.48 539.468C938.13 543.151 963.605 547.535 989.255 558.233C984.687 549.64 976.606 547.184 971.686 540.344C978.89 539.292 984.336 542.624 989.782 544.904C1009.11 553.147 1027.38 563.319 1042.84 578.227C1044.6 579.981 1046.18 581.734 1048.64 579.805C1051.8 577.35 1048.46 575.771 1047.23 574.368C1038.45 565.073 1029.66 556.129 1020.88 547.009C1029.66 545.431 1036.16 551.043 1043.37 554.55C1051.27 558.409 1059.18 562.969 1065.33 569.809C1068.31 573.316 1071.3 574.018 1073.94 569.107C1075.34 566.301 1077.27 563.67 1078.86 560.864C1083.25 552.797 1085.36 546.307 1076.22 538.591C1064.1 528.419 1059 513.336 1056.19 497.902C1054.96 491.588 1056.89 488.607 1063.75 489.133C1067.79 489.484 1071.83 489.133 1078.33 489.133C1073.23 485.801 1069.72 483.17 1065.85 480.89C1036.69 463.527 1005.24 451.952 972.565 443.359C969.051 442.482 965.01 442.131 963.253 438.097C962.199 428.627 957.807 420.384 954.293 411.79C945.86 391.095 932.684 376.538 908.966 373.557C898.6 372.329 889.113 367.068 878.045 368.821C863.287 371.101 848.705 373.557 834.299 377.766C816.73 382.15 800.567 390.393 781.417 397.584C790.201 386.535 799.689 380.221 807.946 372.504C815.325 367.945 822.528 363.385 830.258 358.474C814.622 352.16 801.445 357.948 788.445 364.788C764.2 374.083 741.536 386.71 717.116 400.39C726.954 382.677 741.36 371.803 754.186 359.702C759.105 357.597 763.673 355.142 768.065 351.108C750.672 349.003 733.982 348.302 717.291 349.529C705.345 349.88 693.574 345.671 680.397 348.302C686.37 353.739 691.817 358.474 697.263 363.385C699.02 364.963 701.304 366.541 699.547 368.997C697.614 371.452 695.682 369.698 693.574 368.471C675.302 358.474 655.801 351.634 635.772 346.197C632.961 345.32 630.151 345.846 627.34 344.619C612.406 339.007 596.594 338.13 580.782 338.13C575.336 338.13 573.931 340.234 573.931 345.32C574.458 363.209 577.796 380.572 584.296 397.233C584.823 398.812 584.647 401.793 587.634 401.442C590.621 401.092 590.797 398.636 590.972 396.181C591.675 388.64 592.553 381.098 593.256 373.557C593.608 369.523 594.837 367.944 599.23 368.646C631.907 373.907 662.828 383.553 690.411 402.319C691.817 403.372 694.452 403.722 693.749 406.879C682.505 405.652 671.788 400.039 659.139 401.968C673.897 409.51 673.897 409.685 668.802 424.768C665.991 433.362 661.599 441.254 657.206 449.146C650.882 458.441 642.8 466.334 634.718 474.05C632.786 475.804 630.678 478.259 627.867 476.856C624.88 475.278 627.867 472.823 628.042 471.069C629.448 463.352 629.799 455.811 627.867 448.269C626.637 443.885 624.88 441.605 619.609 441.429C601.689 440.728 586.931 446.515 576.39 461.774C572.525 458.792 570.241 454.758 567.957 450.9C554.078 427.223 544.942 402.144 543.185 374.434C542.131 357.948 543.888 360.579 528.428 359.702C509.98 358.825 509.98 359 502.953 375.661C479.235 432.66 447.26 484.749 406.852 531.575C402.284 536.837 401.757 539.818 408.96 541.397C420.907 544.027 418.096 552.446 417.218 560.513C410.19 625.755 390.689 686.788 354.322 742.033C347.821 751.854 339.915 760.273 332.536 769.217C330.955 770.971 329.55 773.602 325.509 773.426C330.779 760.097 336.226 747.645 340.618 734.842C356.254 688.892 366.971 641.89 362.403 592.959C360.119 569.809 356.254 546.483 343.605 525.963C340.969 521.579 341.848 518.948 345.362 515.616C385.594 475.979 411.42 428.1 427.935 374.609C429.34 370.049 430.394 365.138 431.624 360.578C429.164 358.825 426.353 359.526 423.894 359.702C389.108 360.579 354.322 362.157 319.535 364.963C292.655 367.068 265.6 369.523 238.719 371.803C261.91 347.776 287.912 326.905 315.143 307.613C317.954 305.684 320.765 304.983 324.103 304.807C377.337 301.826 430.57 304.106 483.627 307.789C502.074 309.016 520.346 311.121 538.617 313.226C543.01 313.752 544.064 312.524 544.942 308.49C548.28 291.303 548.456 291.303 565.849 295.161C572.349 296.564 579.904 300.773 584.999 298.844C589.567 297.09 591.148 288.321 594.486 283.06C614.69 251.842 613.46 251.667 650.354 260.436C685.316 268.679 714.832 288.672 742.59 310.595C749.793 316.382 757.172 318.838 766.308 319.188C828.677 321.468 890.168 330.588 950.604 345.846C955.172 347.074 958.158 349.354 960.618 353.388C971.335 372.154 981.876 390.919 989.08 411.264C990.485 415.298 992.593 417.227 996.458 418.454C1053.03 435.642 1099.06 469.315 1141.05 509.302C1144.56 512.634 1144.04 515.616 1142.81 519.474C1137.54 535.083 1126.64 546.307 1113.64 555.603C1109.6 558.409 1107.14 561.39 1105.91 566.301C1099.76 588.224 1085.88 604.183 1066.38 615.408C1062.17 617.863 1059.18 620.845 1056.72 624.878C1041.79 649.782 1020.18 665.918 990.485 673.81C1000.32 649.256 1000.85 625.404 994.174 601.377C992.066 593.836 985.039 596.817 980.295 594.713C978.714 594.362 977.308 594.187 975.727 593.836C975.551 592.783 974.849 592.783 973.97 593.134C956.577 588.75 938.833 585.944 920.913 584.014C915.818 583.488 912.48 584.365 909.669 589.276C900.006 606.463 892.627 624.177 888.762 643.644C884.897 662.936 890.87 678.019 904.75 690.646C912.129 697.311 919.859 703.449 927.237 710.289C930.751 713.621 934.089 713.621 938.306 711.867C955.172 704.501 967.47 693.102 973.619 673.81C986.62 691.172 987.85 709.061 983.633 727.827C983.282 729.581 983.106 731.335 982.228 732.913C977.836 740.455 981.701 742.91 988.728 743.261C992.066 743.436 994.877 743.085 993.999 748.522C985.39 799.383 936.725 856.382 868.207 856.732C865.571 856.732 863.112 856.206 859.598 855.856C865.044 850.068 873.653 848.665 875.937 839.545C838.867 854.803 801.446 858.136 762.619 853.4C764.024 847.437 765.605 841.825 766.484 836.037C768.943 820.604 766.835 806.223 759.983 791.841C749.969 770.971 738.549 751.153 723.616 733.264C718.697 727.301 715.007 726.249 707.804 729.932C638.056 766.411 579.553 816.044 529.482 876.2C508.751 901.104 490.128 927.587 473.964 955.823C470.451 962.137 468.167 961.611 463.248 957.928C447.963 946.703 432.854 935.128 417.92 923.553C412.123 918.993 412.65 915.836 415.988 910.224C439.354 871.464 467.815 836.739 501.372 806.223C505.764 802.189 507.345 799.207 504.358 793.244C498.736 781.669 494.871 770.269 490.655 759.22ZM1015.61 604.885C1017.19 616.11 1018.59 627.158 1015.96 638.032C1015.61 639.435 1013.32 641.013 1015.26 642.241C1016.66 643.118 1018.42 642.241 1020 641.013C1027.91 634.524 1034.76 627.158 1040.03 618.389C1041.43 615.934 1041.79 614.18 1038.8 613.128C1031.24 610.497 1024.22 606.464 1015.61 604.885ZM969.051 703.625C963.078 713.095 955.875 718.883 947.793 724.144C963.429 734.492 964.835 733.966 969.051 716.252C969.754 712.569 970.281 709.061 969.051 703.625Z" fill="url(#paint3_linear_25_5293)"/>
</g>
<path d="M739.877 120.552C981.958 120.552 1178.2 316.797 1178.2 558.877C1178.2 800.957 981.958 997.202 739.877 997.202C497.797 997.202 301.552 800.957 301.552 558.877C301.552 316.797 497.797 120.552 739.877 120.552Z" stroke="white" stroke-width="12.5033"/>
</g>
</g>
<defs>
<filter id="filter0_d_25_5293" x="37" y="74.9998" width="1446.48" height="1357" filterUnits="userSpaceOnUse" color-interpolation-filters="sRGB">
<feFlood flood-opacity="0" result="BackgroundImageFix"/>
<feColorMatrix in="SourceAlpha" type="matrix" values="0 0 0 0 0 0 0 0 0 0 0 0 0 0 0 0 0 0 127 0" result="hardAlpha"/>
<feOffset dx="15" dy="15"/>
<feGaussianBlur stdDeviation="10"/>
<feColorMatrix type="matrix" values="0 0 0 0 0 0 0 0 0 0 0 0 0 0 0 0 0 0 1 0"/>
<feBlend mode="normal" in2="BackgroundImageFix" result="effect1_dropShadow_25_5293"/>
<feBlend mode="normal" in="SourceGraphic" in2="effect1_dropShadow_25_5293" result="shape"/>
</filter>
<linearGradient id="paint0_linear_25_5293" x1="385.924" y1="207.527" x2="1083.43" y2="918.026" gradientUnits="userSpaceOnUse">
<stop stop-color="#020202"/>
<stop offset="0.33" stop-color="#0049AD"/>
<stop offset="1"/>
</linearGradient>
<linearGradient id="paint1_linear_25_5293" x1="451.409" y1="255.461" x2="1046.28" y2="850.329" gradientUnits="userSpaceOnUse">
<stop stop-color="#FBB603"/>
<stop offset="0.315" stop-color="white"/>
<stop offset="0.685" stop-color="#FBB603"/>
<stop offset="1" stop-color="white"/>
</linearGradient>
<linearGradient id="paint2_linear_25_5293" x1="451.409" y1="255.461" x2="1046.28" y2="850.329" gradientUnits="userSpaceOnUse">
<stop stop-color="#FBB603"/>
<stop offset="0.315" stop-color="white"/>
<stop offset="0.685" stop-color="#FBB603"/>
<stop offset="1" stop-color="white"/>
</linearGradient>
<linearGradient id="paint3_linear_25_5293" x1="451.409" y1="255.461" x2="1046.28" y2="850.329" gradientUnits="userSpaceOnUse">
<stop stop-color="#FBB603"/>
<stop offset="0.315" stop-color="white"/>
<stop offset="0.685" stop-color="#FBB603"/>
<stop offset="1" stop-color="white"/>
</linearGradient>
</defs>
</svg>
