<svg width="65" height="52" viewBox="0 0 65 52" fill="none" xmlns="http://www.w3.org/2000/svg">
<g clip-path="url(#clip0_225_1351)">
<path d="M19.5 6.5C19.5 2.91484 22.4148 0 26 0H58.5C62.0852 0 65 2.91484 65 6.5V13.5688C63.6898 12.9492 62.1664 12.8477 60.7648 13.3148L50.7203 16.6664L46.8813 10.5219C46.5867 10.0445 46.0586 9.76016 45.5 9.76016C44.9414 9.76016 44.4234 10.0445 44.1187 10.5219L39.4062 18.068L37.8523 16.0672C37.5477 15.6711 37.0703 15.4375 36.5727 15.4375C36.075 15.4375 35.5977 15.6711 35.293 16.0672L29.6055 23.3797C29.2195 23.8672 29.1586 24.5375 29.4328 25.0961C29.707 25.6547 30.2758 26.0102 30.8953 26.0102H37.3953V32.5102H26C22.4148 32.5102 19.5 29.5953 19.5 26.0102V6.5ZM32.5 9.75C32.5 8.88805 32.1576 8.0614 31.5481 7.4519C30.9386 6.84241 30.112 6.5 29.25 6.5C28.388 6.5 27.5614 6.84241 26.9519 7.4519C26.3424 8.0614 26 8.88805 26 9.75C26 10.612 26.3424 11.4386 26.9519 12.0481C27.5614 12.6576 28.388 13 29.25 13C30.112 13 30.9386 12.6576 31.5481 12.0481C32.1576 11.4386 32.5 10.612 32.5 9.75Z" fill="white"/>
<path opacity="0.4" d="M16.25 9.75H6.5C2.91484 9.75 0 12.6648 0 16.25V39C0 42.5852 2.91484 45.5 6.5 45.5H29.443C29.8898 43.6516 31.0578 42.1383 32.4492 41.0922C33.1398 40.5742 33.9219 40.1375 34.7445 39.8125H19.5C17.7023 39.8125 16.25 38.3602 16.25 36.5625V9.75ZM5.6875 17.0625C5.6875 16.1687 6.41875 15.4375 7.3125 15.4375H8.9375C9.83125 15.4375 10.5625 16.1687 10.5625 17.0625V18.6875C10.5625 19.5813 9.83125 20.3125 8.9375 20.3125H7.3125C6.41875 20.3125 5.6875 19.5813 5.6875 18.6875V17.0625ZM7.3125 25.1875H8.9375C9.83125 25.1875 10.5625 25.9187 10.5625 26.8125V28.4375C10.5625 29.3313 9.83125 30.0625 8.9375 30.0625H7.3125C6.41875 30.0625 5.6875 29.3313 5.6875 28.4375V26.8125C5.6875 25.9187 6.41875 25.1875 7.3125 25.1875ZM5.6875 36.5625C5.6875 35.6687 6.41875 34.9375 7.3125 34.9375H8.9375C9.83125 34.9375 10.5625 35.6687 10.5625 36.5625V38.1875C10.5625 39.0813 9.83125 39.8125 8.9375 39.8125H7.3125C6.41875 39.8125 5.6875 39.0813 5.6875 38.1875V36.5625ZM65 18.6875C65 17.9055 64.6242 17.1641 63.9844 16.707C63.3445 16.25 62.532 16.1281 61.7906 16.3719L42.2906 22.8719C41.2953 23.207 40.625 24.1313 40.625 25.1875V30.0625V42.4023C40.107 42.3008 39.5586 42.25 39 42.25C35.4148 42.25 32.5 44.4336 32.5 47.125C32.5 49.8164 35.4148 52 39 52C42.5852 52 45.5 49.8164 45.5 47.125V31.8195L60.125 26.9445V35.9023C59.607 35.8008 59.0586 35.75 58.5 35.75C54.9148 35.75 52 37.9336 52 40.625C52 43.3164 54.9148 45.5 58.5 45.5C62.0852 45.5 65 43.3164 65 40.625C65 40.4727 64.9898 40.3203 64.9695 40.1781C64.9898 40.0563 65 39.9344 65 39.8125V23.5625V18.6875ZM46.8813 10.5117C46.5867 10.0344 46.0586 9.75 45.5 9.75C44.9414 9.75 44.4234 10.0344 44.1187 10.5117L39.4062 18.068L37.8523 16.0672C37.5477 15.6711 37.0703 15.4375 36.5727 15.4375C36.075 15.4375 35.5977 15.6711 35.293 16.0672L29.6055 23.3797C29.2195 23.8672 29.1586 24.5375 29.4328 25.0961C29.707 25.6547 30.2758 26.0102 30.8953 26.0102H37.3953V25.2078C37.3953 22.7602 38.9594 20.5867 41.2852 19.8148L50.7406 16.6664L46.9016 10.5219L46.8813 10.5117Z" fill="white"/>
</g>
<defs>
<clipPath id="clip0_225_1351">
<rect width="65" height="52" fill="white"/>
</clipPath>
</defs>
</svg>
