<svg width="65" height="65" viewBox="0 0 65 65" fill="none" xmlns="http://www.w3.org/2000/svg">
<path d="M0 24.0625C0 21.818 1.81797 20 4.0625 20H10.5625C13.2234 20 15.5797 21.2797 17.0625 23.25H46.3125C53.3508 23.25 60.0234 25.5555 64.5125 31.5375C65.1625 32.4008 65.1625 33.5992 64.5125 34.4625C60.0234 40.4445 53.3508 42.75 46.3125 42.75H17.0625C15.5797 44.7203 13.2234 46 10.5625 46H4.0625C1.81797 46 0 44.182 0 41.9375V40.3125V25.6875V24.0625ZM52 34.2594V31.7406C52 29.75 50.3852 28.125 48.3844 28.125C48.1305 28.125 47.9375 28.3281 47.9375 28.5719V37.418C47.9375 37.6719 48.1406 37.8648 48.3844 37.8648C50.375 37.8648 52 36.25 52 34.2492V34.2594Z" fill="white"/>
<path d="M9.75 10.25V20H3.25V15.125C3.25 12.4336 5.43359 10.25 8.125 10.25H9.75ZM9.75 46V55.75H8.125C5.43359 55.75 3.25 53.5664 3.25 50.875V46H9.75ZM13 55.75V45.6242C14.6352 45.1062 16.057 44.0906 17.0625 42.75H41.1633L24.9031 52.5102C21.3687 54.6328 17.3266 55.75 13.2031 55.75H13ZM13 20.3758V10.25H13.2031C17.3266 10.25 21.3687 11.3672 24.9031 13.4898L41.1633 23.25H17.0625C16.057 21.9094 14.6352 20.8836 13 20.3758Z" fill="#3279BE"/>
</svg>
