<svg width="65" height="52" viewBox="0 0 65 52" fill="none" xmlns="http://www.w3.org/2000/svg">
<g clip-path="url(#clip0_230_623)">
<path d="M32.5 32.5C33.7804 32.5 35.0482 32.2478 36.2312 31.7578C37.4141 31.2678 38.4889 30.5497 39.3943 29.6443C40.2997 28.7389 41.0178 27.6641 41.5078 26.4812C41.9978 25.2982 42.25 24.0304 42.25 22.75C42.25 21.4696 41.9978 20.2018 41.5078 19.0188C41.0178 17.8359 40.2997 16.7611 39.3943 15.8557C38.4889 14.9503 37.4141 14.2322 36.2312 13.7422C35.0482 13.2522 33.7804 13 32.5 13C31.2196 13 29.9518 13.2522 28.7688 13.7422C27.5859 14.2322 26.5111 14.9503 25.6057 15.8557C24.7003 16.7611 23.9822 17.8359 23.4922 19.0188C23.0022 20.2018 22.75 21.4696 22.75 22.75C22.75 24.0304 23.0022 25.2982 23.4922 26.4812C23.9822 27.6641 24.7003 28.7389 25.6057 29.6443C26.5111 30.5497 27.5859 31.2678 28.7688 31.7578C29.9518 32.2478 31.2196 32.5 32.5 32.5ZM26.5383 35.75C19.0633 35.75 13 41.8133 13 49.2883C13 50.7812 14.2086 52 15.7117 52H49.2883C50.7812 52 52 50.7914 52 49.2883C52 41.8133 45.9367 35.75 38.4617 35.75H26.5383Z" fill="white"/>
<path d="M22.75 8.125C22.75 5.97012 21.894 3.90349 20.3702 2.37976C18.8465 0.856024 16.7799 0 14.625 0C12.4701 0 10.4035 0.856024 8.87976 2.37976C7.35602 3.90349 6.5 5.97012 6.5 8.125C6.5 10.2799 7.35602 12.3465 8.87976 13.8702C10.4035 15.394 12.4701 16.25 14.625 16.25C16.7799 16.25 18.8465 15.394 20.3702 13.8702C21.894 12.3465 22.75 10.2799 22.75 8.125ZM60.125 8.125C60.125 5.97012 59.269 3.90349 57.7452 2.37976C56.2215 0.856024 54.1549 0 52 0C49.8451 0 47.7785 0.856024 46.2548 2.37976C44.731 3.90349 43.875 5.97012 43.875 8.125C43.875 10.2799 44.731 12.3465 46.2548 13.8702C47.7785 15.394 49.8451 16.25 52 16.25C54.1549 16.25 56.2215 15.394 57.7452 13.8702C59.269 12.3465 60.125 10.2799 60.125 8.125ZM10.8367 19.5C4.85469 19.5 0 24.3547 0 30.3367C0 31.525 0.975 32.5 2.16328 32.5H23.8367C23.857 32.5 23.8773 32.5 23.9078 32.5C21.2062 30.1133 19.5102 26.6297 19.5102 22.75C19.5102 21.9781 19.5812 21.2266 19.7031 20.4852C18.3219 19.8453 16.7883 19.5 15.1734 19.5H10.8367ZM41.1023 32.5C41.1227 32.5 41.143 32.5 41.1734 32.5H62.8367C64.0352 32.5 65 31.525 65 30.3367C65 24.3547 60.1453 19.5 54.1633 19.5H49.8367C48.2219 19.5 46.6883 19.8555 45.307 20.4852C45.4391 21.2164 45.5 21.9781 45.5 22.75C45.5 26.6297 43.7938 30.1133 41.1023 32.5Z" fill="#FF9900"/>
</g>
<defs>
<clipPath id="clip0_230_623">
<rect width="65" height="52" fill="white"/>
</clipPath>
</defs>
</svg>
