<svg width="65" height="65" viewBox="0 0 65 65" fill="none" xmlns="http://www.w3.org/2000/svg">
<path d="M51.5557 2.03125L46.5156 7.07129L57.8525 18.4082L62.9053 13.4697C65.3301 11.0957 65.3428 7.19825 62.9561 4.81153L60.1631 2.03125C57.7764 -0.355466 53.917 -0.34277 51.543 2.03125H51.5557ZM43.6338 9.95313L25.4541 28.1582C24.5654 29.0469 23.8926 30.1387 23.499 31.332L20.4775 40.3838C20.1094 41.4756 20.4014 42.6816 21.2139 43.5068C22.0264 44.332 23.2324 44.6113 24.3369 44.2432L33.4141 41.209C34.582 40.8154 35.6484 40.168 36.5244 39.3047L54.9453 21.2647L43.6338 9.95313Z" fill="white"/>
<path d="M32.5 1.01562C36.3213 1.01562 39.9902 1.70117 43.3799 2.94531L38.543 7.83301C36.6006 7.36328 34.582 7.10938 32.5 7.10938C18.4717 7.10938 7.10938 18.4717 7.10938 32.5C7.10938 46.5283 18.4717 57.8906 32.5 57.8906C34.1885 57.8906 35.5469 59.249 35.5469 60.9375C35.5469 62.626 34.1885 63.9844 32.5 63.9844C15.1074 63.9844 1.01562 49.8926 1.01562 32.5C1.01562 15.1074 15.1074 1.01562 32.5 1.01562ZM57.8906 32.5C57.8906 30.4688 57.6494 28.4756 57.1924 26.584L62.0801 21.6963C63.3115 25.0605 63.9844 28.7041 63.9844 32.5C63.9844 43.1514 55.3389 51.7969 44.6875 51.7969C43.0244 51.7969 41.4121 51.5811 39.8633 51.1875C38.2383 50.7686 37.248 49.1055 37.667 47.4805C38.0859 45.8555 39.749 44.8652 41.374 45.2842C42.4277 45.5508 43.5322 45.7031 44.6748 45.7031C51.9619 45.7031 57.8779 39.7871 57.8779 32.5H57.8906Z" fill="#3279BE"/>
</svg>
