<svg width="65" height="58" viewBox="0 0 65 58" fill="none" xmlns="http://www.w3.org/2000/svg">
<path d="M9.02778 14.4444C8.03472 14.4444 7.22222 15.2569 7.22222 16.25V19.8611C7.22222 20.8542 8.03472 21.6667 9.02778 21.6667H12.6389C13.6319 21.6667 14.4444 20.8542 14.4444 19.8611V16.25C14.4444 15.2569 13.6319 14.4444 12.6389 14.4444H9.02778ZM9.02778 25.2778C8.03472 25.2778 7.22222 26.0903 7.22222 27.0833V30.6944C7.22222 31.6875 8.03472 32.5 9.02778 32.5H12.6389C13.6319 32.5 14.4444 31.6875 14.4444 30.6944V27.0833C14.4444 26.0903 13.6319 25.2778 12.6389 25.2778H9.02778ZM7.22222 37.9167V41.5278C7.22222 42.5208 8.03472 43.3333 9.02778 43.3333H12.6389C13.6319 43.3333 14.4444 42.5208 14.4444 41.5278V37.9167C14.4444 36.9236 13.6319 36.1111 12.6389 36.1111H9.02778C8.03472 36.1111 7.22222 36.9236 7.22222 37.9167ZM19.8611 14.4444C18.8681 14.4444 18.0556 15.2569 18.0556 16.25V19.8611C18.0556 20.8542 18.8681 21.6667 19.8611 21.6667H23.4722C24.4653 21.6667 25.2778 20.8542 25.2778 19.8611V16.25C25.2778 15.2569 24.4653 14.4444 23.4722 14.4444H19.8611ZM18.0556 27.0833V30.6944C18.0556 31.6875 18.8681 32.5 19.8611 32.5H23.4722C24.4653 32.5 25.2778 31.6875 25.2778 30.6944V27.0833C25.2778 26.0903 24.4653 25.2778 23.4722 25.2778H19.8611C18.8681 25.2778 18.0556 26.0903 18.0556 27.0833ZM30.6944 14.4444C29.7014 14.4444 28.8889 15.2569 28.8889 16.25V19.8611C28.8889 20.8542 29.7014 21.6667 30.6944 21.6667H34.3056C35.2986 21.6667 36.1111 20.8542 36.1111 19.8611V16.25C36.1111 15.2569 35.2986 14.4444 34.3056 14.4444H30.6944ZM28.8889 27.0833V30.6944C28.8889 31.6875 29.7014 32.5 30.6944 32.5H34.3056C35.2986 32.5 36.1111 31.6875 36.1111 30.6944V27.0833C36.1111 26.0903 35.2986 25.2778 34.3056 25.2778H30.6944C29.7014 25.2778 28.8889 26.0903 28.8889 27.0833ZM41.5278 14.4444C40.5347 14.4444 39.7222 15.2569 39.7222 16.25V19.8611C39.7222 20.8542 40.5347 21.6667 41.5278 21.6667H45.1389C46.1319 21.6667 46.9444 20.8542 46.9444 19.8611V16.25C46.9444 15.2569 46.1319 14.4444 45.1389 14.4444H41.5278ZM39.7222 27.0833V30.6944C39.7222 31.6875 40.5347 32.5 41.5278 32.5H45.1389C46.1319 32.5 46.9444 31.6875 46.9444 30.6944V27.0833C46.9444 26.0903 46.1319 25.2778 45.1389 25.2778H41.5278C40.5347 25.2778 39.7222 26.0903 39.7222 27.0833ZM52.3611 14.4444C51.3681 14.4444 50.5556 15.2569 50.5556 16.25V19.8611C50.5556 20.8542 51.3681 21.6667 52.3611 21.6667H55.9722C56.9653 21.6667 57.7778 20.8542 57.7778 19.8611V16.25C57.7778 15.2569 56.9653 14.4444 55.9722 14.4444H52.3611ZM50.5556 27.0833V30.6944C50.5556 31.6875 51.3681 32.5 52.3611 32.5H55.9722C56.9653 32.5 57.7778 31.6875 57.7778 30.6944V27.0833C57.7778 26.0903 56.9653 25.2778 55.9722 25.2778H52.3611C51.3681 25.2778 50.5556 26.0903 50.5556 27.0833ZM52.3611 36.1111C51.3681 36.1111 50.5556 36.9236 50.5556 37.9167V41.5278C50.5556 42.5208 51.3681 43.3333 52.3611 43.3333H55.9722C56.9653 43.3333 57.7778 42.5208 57.7778 41.5278V37.9167C57.7778 36.9236 56.9653 36.1111 55.9722 36.1111H52.3611Z" fill="white"/>
<path d="M7.22222 7.22221C3.23872 7.22221 0 10.4609 0 14.4444V43.3333C0 47.3168 3.23872 50.5555 7.22222 50.5555H57.7778C61.7613 50.5555 65 47.3168 65 43.3333V14.4444C65 10.4609 61.7613 7.22221 57.7778 7.22221H7.22222ZM9.02778 14.4444H12.6389C13.6319 14.4444 14.4444 15.2569 14.4444 16.25V19.8611C14.4444 20.8542 13.6319 21.6667 12.6389 21.6667H9.02778C8.03472 21.6667 7.22222 20.8542 7.22222 19.8611V16.25C7.22222 15.2569 8.03472 14.4444 9.02778 14.4444ZM7.22222 27.0833C7.22222 26.0903 8.03472 25.2778 9.02778 25.2778H12.6389C13.6319 25.2778 14.4444 26.0903 14.4444 27.0833V30.6944C14.4444 31.6875 13.6319 32.5 12.6389 32.5H9.02778C8.03472 32.5 7.22222 31.6875 7.22222 30.6944V27.0833ZM9.02778 36.1111H12.6389C13.6319 36.1111 14.4444 36.9236 14.4444 37.9167V41.5278C14.4444 42.5208 13.6319 43.3333 12.6389 43.3333H9.02778C8.03472 43.3333 7.22222 42.5208 7.22222 41.5278V37.9167C7.22222 36.9236 8.03472 36.1111 9.02778 36.1111ZM18.0556 16.25C18.0556 15.2569 18.8681 14.4444 19.8611 14.4444H23.4722C24.4653 14.4444 25.2778 15.2569 25.2778 16.25V19.8611C25.2778 20.8542 24.4653 21.6667 23.4722 21.6667H19.8611C18.8681 21.6667 18.0556 20.8542 18.0556 19.8611V16.25ZM19.8611 25.2778H23.4722C24.4653 25.2778 25.2778 26.0903 25.2778 27.0833V30.6944C25.2778 31.6875 24.4653 32.5 23.4722 32.5H19.8611C18.8681 32.5 18.0556 31.6875 18.0556 30.6944V27.0833C18.0556 26.0903 18.8681 25.2778 19.8611 25.2778ZM18.0556 37.9167C18.0556 36.9236 18.8681 36.1111 19.8611 36.1111H45.1389C46.1319 36.1111 46.9444 36.9236 46.9444 37.9167V41.5278C46.9444 42.5208 46.1319 43.3333 45.1389 43.3333H19.8611C18.8681 43.3333 18.0556 42.5208 18.0556 41.5278V37.9167ZM30.6944 14.4444H34.3056C35.2986 14.4444 36.1111 15.2569 36.1111 16.25V19.8611C36.1111 20.8542 35.2986 21.6667 34.3056 21.6667H30.6944C29.7014 21.6667 28.8889 20.8542 28.8889 19.8611V16.25C28.8889 15.2569 29.7014 14.4444 30.6944 14.4444ZM28.8889 27.0833C28.8889 26.0903 29.7014 25.2778 30.6944 25.2778H34.3056C35.2986 25.2778 36.1111 26.0903 36.1111 27.0833V30.6944C36.1111 31.6875 35.2986 32.5 34.3056 32.5H30.6944C29.7014 32.5 28.8889 31.6875 28.8889 30.6944V27.0833ZM41.5278 14.4444H45.1389C46.1319 14.4444 46.9444 15.2569 46.9444 16.25V19.8611C46.9444 20.8542 46.1319 21.6667 45.1389 21.6667H41.5278C40.5347 21.6667 39.7222 20.8542 39.7222 19.8611V16.25C39.7222 15.2569 40.5347 14.4444 41.5278 14.4444ZM39.7222 27.0833C39.7222 26.0903 40.5347 25.2778 41.5278 25.2778H45.1389C46.1319 25.2778 46.9444 26.0903 46.9444 27.0833V30.6944C46.9444 31.6875 46.1319 32.5 45.1389 32.5H41.5278C40.5347 32.5 39.7222 31.6875 39.7222 30.6944V27.0833ZM52.3611 14.4444H55.9722C56.9653 14.4444 57.7778 15.2569 57.7778 16.25V19.8611C57.7778 20.8542 56.9653 21.6667 55.9722 21.6667H52.3611C51.3681 21.6667 50.5556 20.8542 50.5556 19.8611V16.25C50.5556 15.2569 51.3681 14.4444 52.3611 14.4444ZM50.5556 27.0833C50.5556 26.0903 51.3681 25.2778 52.3611 25.2778H55.9722C56.9653 25.2778 57.7778 26.0903 57.7778 27.0833V30.6944C57.7778 31.6875 56.9653 32.5 55.9722 32.5H52.3611C51.3681 32.5 50.5556 31.6875 50.5556 30.6944V27.0833ZM52.3611 36.1111H55.9722C56.9653 36.1111 57.7778 36.9236 57.7778 37.9167V41.5278C57.7778 42.5208 56.9653 43.3333 55.9722 43.3333H52.3611C51.3681 43.3333 50.5556 42.5208 50.5556 41.5278V37.9167C50.5556 36.9236 51.3681 36.1111 52.3611 36.1111Z" fill="#FF9900"/>
</svg>
