<svg width="57" height="65" viewBox="0 0 57 65" fill="none" xmlns="http://www.w3.org/2000/svg">
<g clip-path="url(#clip0_230_648)">
<path d="M20.3125 4.0625C20.3125 1.81543 18.4971 0 16.25 0C14.0029 0 12.1875 1.81543 12.1875 4.0625V8.125H6.09375C2.72949 8.125 0 10.8545 0 14.2188V24.375H56.875V14.2188C56.875 10.8545 54.1455 8.125 50.7812 8.125H44.6875V4.0625C44.6875 1.81543 42.8721 0 40.625 0C38.3779 0 36.5625 1.81543 36.5625 4.0625V8.125H20.3125V4.0625Z" fill="white"/>
<path d="M0 24.375H56.875V58.9062C56.875 62.2705 54.1455 65 50.7812 65H6.09375C2.72949 65 0 62.2705 0 58.9062V24.375ZM8.125 34.5312V38.5938C8.125 39.7109 9.03906 40.625 10.1562 40.625H14.2188C15.3359 40.625 16.25 39.7109 16.25 38.5938V34.5312C16.25 33.4141 15.3359 32.5 14.2188 32.5H10.1562C9.03906 32.5 8.125 33.4141 8.125 34.5312ZM26.4062 32.5C25.2891 32.5 24.375 33.4141 24.375 34.5312V38.5938C24.375 39.7109 25.2891 40.625 26.4062 40.625H30.4688C31.5859 40.625 32.5 39.7109 32.5 38.5938V34.5312C32.5 33.4141 31.5859 32.5 30.4688 32.5H26.4062ZM40.625 34.5312V38.5938C40.625 39.7109 41.5391 40.625 42.6562 40.625H46.7188C47.8359 40.625 48.75 39.7109 48.75 38.5938V34.5312C48.75 33.4141 47.8359 32.5 46.7188 32.5H42.6562C41.5391 32.5 40.625 33.4141 40.625 34.5312ZM10.1562 48.75C9.03906 48.75 8.125 49.6641 8.125 50.7812V54.8438C8.125 55.9609 9.03906 56.875 10.1562 56.875H14.2188C15.3359 56.875 16.25 55.9609 16.25 54.8438V50.7812C16.25 49.6641 15.3359 48.75 14.2188 48.75H10.1562ZM24.375 50.7812V54.8438C24.375 55.9609 25.2891 56.875 26.4062 56.875H30.4688C31.5859 56.875 32.5 55.9609 32.5 54.8438V50.7812C32.5 49.6641 31.5859 48.75 30.4688 48.75H26.4062C25.2891 48.75 24.375 49.6641 24.375 50.7812ZM42.6562 48.75C41.5391 48.75 40.625 49.6641 40.625 50.7812V54.8438C40.625 55.9609 41.5391 56.875 42.6562 56.875H46.7188C47.8359 56.875 48.75 55.9609 48.75 54.8438V50.7812C48.75 49.6641 47.8359 48.75 46.7188 48.75H42.6562Z" fill="#FF9900"/>
</g>
<defs>
<clipPath id="clip0_230_648">
<rect width="56.875" height="65" fill="white"/>
</clipPath>
</defs>
</svg>
