<svg width="65" height="52" viewBox="0 0 65 52" fill="none" xmlns="http://www.w3.org/2000/svg">
<path d="M13.1117 22.0188L6.51015 16.25H13.9141L19.0328 20.7289L27.3203 18.9312C26.4672 21.125 26 23.5117 26 26C26 28.4883 26.4672 30.875 27.3203 33.0688L19.0328 31.2711L13.9141 35.75H6.51015L13.1016 29.9813L12.9187 29.9406C11.0703 29.5344 9.75 27.8992 9.75 26C9.75 24.1008 11.0703 22.4656 12.9289 22.0594L13.1117 22.0188ZM39 26C39 24.2761 39.6848 22.6228 40.9038 21.4038C42.1228 20.1848 43.7761 19.5 45.5 19.5C47.2239 19.5 48.8772 20.1848 50.0962 21.4038C51.3152 22.6228 52 24.2761 52 26C52 27.7239 51.3152 29.3772 50.0962 30.5962C48.8772 31.8152 47.2239 32.5 45.5 32.5C43.7761 32.5 42.1228 31.8152 40.9038 30.5962C39.6848 29.3772 39 27.7239 39 26ZM45.5 29.25C46.3619 29.25 47.1886 28.9076 47.7981 28.2981C48.4076 27.6886 48.75 26.862 48.75 26C48.75 25.138 48.4076 24.3114 47.7981 23.7019C47.1886 23.0924 46.3619 22.75 45.5 22.75C44.638 22.75 43.8114 23.0924 43.2019 23.7019C42.5924 24.3114 42.25 25.138 42.25 26C42.25 26.862 42.5924 27.6886 43.2019 28.2981C43.8114 28.9076 44.638 29.25 45.5 29.25Z" fill="white"/>
<path d="M45.5 19.5C47.2239 19.5 48.8772 20.1848 50.0962 21.4038C51.3152 22.6228 52 24.2761 52 26C52 27.7239 51.3152 29.3772 50.0962 30.5962C48.8772 31.8152 47.2239 32.5 45.5 32.5C43.7761 32.5 42.1228 31.8152 40.9038 30.5962C39.6848 29.3772 39 27.7239 39 26C39 24.2761 39.6848 22.6228 40.9038 21.4038C42.1228 20.1848 43.7761 19.5 45.5 19.5ZM45.5 45.5C48.0608 45.5 50.5965 44.9956 52.9623 44.0156C55.3282 43.0357 57.4778 41.5993 59.2886 39.7886C61.0993 37.9778 62.5357 35.8282 63.5157 33.4623C64.4956 31.0965 65 28.5608 65 26C65 23.4392 64.4956 20.9035 63.5157 18.5377C62.5357 16.1718 61.0993 14.0222 59.2886 12.2114C57.4778 10.4007 55.3282 8.96432 52.9623 7.98435C50.5965 7.00438 48.0608 6.5 45.5 6.5C42.9392 6.5 40.4035 7.00438 38.0377 7.98435C35.6718 8.96432 33.5222 10.4007 31.7114 12.2114C29.9007 14.0222 28.4643 16.1718 27.4843 18.5377C26.5044 20.9035 26 23.4392 26 26C26 28.5608 26.5044 31.0965 27.4843 33.4623C28.4643 35.8282 29.9007 37.9778 31.7114 39.7886C33.5222 41.5993 35.6718 43.0357 38.0377 44.0156C40.4035 44.9956 42.9392 45.5 45.5 45.5ZM0 13C0 14.7977 1.45234 16.25 3.25 16.25H21.125C22.9227 16.25 24.375 14.7977 24.375 13C24.375 11.2023 22.9227 9.75 21.125 9.75H3.25C1.45234 9.75 0 11.2023 0 13ZM3.25 35.75C1.45234 35.75 0 37.2023 0 39C0 40.7977 1.45234 42.25 3.25 42.25H21.125C22.9227 42.25 24.375 40.7977 24.375 39C24.375 37.2023 22.9227 35.75 21.125 35.75H3.25Z" fill="#FF9900"/>
</svg>
