<svg width="65" height="65" viewBox="0 0 65 65" fill="none" xmlns="http://www.w3.org/2000/svg">
<g clip-path="url(#clip0_230_638)">
<path d="M63.0957 6.22071C64.2891 5.02735 64.2891 3.09766 63.0957 1.917C61.9023 0.736334 59.9727 0.723639 58.792 1.917L35.6865 25.0225C34.709 24.6035 33.6426 24.375 32.5127 24.375C28.0312 24.375 24.3877 28.0186 24.3877 32.5C24.3877 36.9815 28.0312 40.625 32.5127 40.625C36.9941 40.625 40.6377 36.9815 40.6377 32.5C40.6377 31.3701 40.4092 30.3037 39.9902 29.3262L63.0957 6.22071Z" fill="white"/>
<path d="M44.5479 16.1484L38.6953 22.001C36.8799 20.9346 34.7598 20.3125 32.5 20.3125C25.7715 20.3125 20.3125 25.7715 20.3125 32.5C20.3125 39.2285 25.7715 44.6875 32.5 44.6875C39.2285 44.6875 44.6875 39.2285 44.6875 32.5H52.8125C52.8125 41.8311 46.5156 49.7021 37.9336 52.0762C36.918 50.1084 34.874 48.75 32.5 48.75C30.126 48.75 28.082 50.1084 27.0664 52.0762C20.5029 50.2607 15.2852 45.2334 13.1777 38.7969C15.0059 37.7432 16.2373 35.7754 16.2373 33.5029C16.2373 31.04 14.7773 28.9199 12.6826 27.9551C14.752 18.9287 22.8389 12.1875 32.5 12.1875C37.0068 12.1875 41.1709 13.6602 44.5479 16.1484ZM47.4424 13.2539C43.3164 10.0293 38.1367 8.125 32.5 8.125C20.7061 8.125 10.8799 16.4912 8.62012 27.625C5.99219 28.2979 4.0625 30.6846 4.0625 33.5156C4.0625 36.5371 6.25879 39.0508 9.15332 39.5332C11.6035 47.6963 18.2305 54.0566 26.5459 56.1514C27.1426 58.8809 29.5801 60.9375 32.5 60.9375C35.4199 60.9375 37.8574 58.8809 38.4541 56.1387C49.042 53.4854 56.875 43.9131 56.875 32.5H65C65 50.4512 50.4512 65 32.5 65C14.5488 65 0 50.4512 0 32.5C0 14.5488 14.5488 0 32.5 0C40.3838 0 47.5947 2.80566 53.2314 7.46484L47.4551 13.2412L47.4424 13.2539Z" fill="#FF9900"/>
</g>
<defs>
<clipPath id="clip0_230_638">
<rect width="65" height="65" fill="white"/>
</clipPath>
</defs>
</svg>
