<svg width="65" height="57" viewBox="0 0 65 57" fill="none" xmlns="http://www.w3.org/2000/svg">
<path d="M2.5 7.8125C2.5 4.70703 5.01953 2.1875 8.125 2.1875H23.125C26.2305 2.1875 28.75 4.70703 28.75 7.8125V20.9375C28.75 24.043 26.2305 26.5625 23.125 26.5625H8.125C5.01953 26.5625 2.5 24.043 2.5 20.9375V7.8125ZM32.5 7.8125C32.5 4.70703 35.0195 2.1875 38.125 2.1875H56.875C59.9805 2.1875 62.5 4.70703 62.5 7.8125V11.5625C62.5 14.668 59.9805 17.1875 56.875 17.1875H38.125C35.0195 17.1875 32.5 14.668 32.5 11.5625V7.8125ZM38.125 39.6875H56.875C59.9805 39.6875 62.5 42.207 62.5 45.3125V49.0625C62.5 52.168 59.9805 54.6875 56.875 54.6875H38.125C35.0195 54.6875 32.5 52.168 32.5 49.0625V45.3125C32.5 42.207 35.0195 39.6875 38.125 39.6875Z" fill="white"/>
<path d="M38.125 20.9375C35.0195 20.9375 32.5 23.457 32.5 26.5625V30.3125C32.5 33.418 35.0195 35.9375 38.125 35.9375H56.875C59.9805 35.9375 62.5 33.418 62.5 30.3125V26.5625C62.5 23.457 59.9805 20.9375 56.875 20.9375H38.125ZM8.125 30.3125C5.01953 30.3125 2.5 32.832 2.5 35.9375V49.0625C2.5 52.168 5.01953 54.6875 8.125 54.6875H23.125C26.2305 54.6875 28.75 52.168 28.75 49.0625V35.9375C28.75 32.832 26.2305 30.3125 23.125 30.3125H8.125Z" fill="#3279BE"/>
</svg>
