<svg width="57" height="65" viewBox="0 0 57 65" fill="none" xmlns="http://www.w3.org/2000/svg">
<g clip-path="url(#clip0_230_652)">
<path d="M12.1875 4.0625C12.1875 1.81543 14.0029 0 16.25 0C18.4971 0 20.3125 1.81543 20.3125 4.0625V8.125H36.5625V4.0625C36.5625 1.81543 38.3779 0 40.625 0C42.8721 0 44.6875 1.81543 44.6875 4.0625V8.125H50.7812C54.1455 8.125 56.875 10.8545 56.875 14.2188V24.375H0V14.2188C0 10.8545 2.72949 8.125 6.09375 8.125H12.1875V4.0625Z" fill="white"/>
<path d="M56.875 24.375H0V58.9062C0 62.2705 2.72949 65 6.09375 65H50.7812C54.1455 65 56.875 62.2705 56.875 58.9062V24.375ZM10.1562 32.5H46.7188C47.8359 32.5 48.75 33.4141 48.75 34.5312V42.6562C48.75 43.7734 47.8359 44.6875 46.7188 44.6875H10.1562C9.03906 44.6875 8.125 43.7734 8.125 42.6562V34.5312C8.125 33.4141 9.03906 32.5 10.1562 32.5Z" fill="#FF9900"/>
</g>
<defs>
<clipPath id="clip0_230_652">
<rect width="56.875" height="65" fill="white"/>
</clipPath>
</defs>
</svg>
