<svg width="65" height="52" viewBox="0 0 65 52" fill="none" xmlns="http://www.w3.org/2000/svg">
<g clip-path="url(#clip0_227_498)">
<path d="M31.9617 11.2023C32.3375 12.0859 32.0531 13.0914 31.332 13.7414L29.0773 15.7523C29.1891 16.443 29.25 17.1539 29.25 17.875C29.25 18.5961 29.1891 19.307 29.0773 19.9977L31.332 22.0086C32.0531 22.6484 32.3375 23.6539 31.9617 24.5477C31.7281 25.0859 31.4742 25.6141 31.1898 26.1219L30.875 26.6703C30.5703 27.1781 30.2352 27.6758 29.8797 28.1531C29.3008 28.925 28.2852 29.1789 27.3711 28.8742L24.507 27.9297C23.4203 28.8234 22.1711 29.5547 20.8305 30.0523L20.2109 32.9977C20.018 33.9422 19.2867 34.6937 18.332 34.8055C17.6516 34.8867 16.9609 34.9273 16.2602 34.9273C15.5594 34.9273 14.8687 34.8867 14.1883 34.8055C13.2336 34.6937 12.5023 33.932 12.3094 32.9977L11.6797 30.0523C10.3289 29.5445 9.08984 28.8234 8.00312 27.9297L5.13906 28.8742C4.225 29.1789 3.20937 28.925 2.63047 28.1531C2.275 27.6758 1.93984 27.1781 1.625 26.6703L1.32031 26.1422C1.03593 25.6344 0.782028 25.1062 0.548434 24.5578C0.172653 23.6742 0.457028 22.6687 1.17812 22.0187L3.43281 20.0078C3.31093 19.307 3.25 18.5961 3.25 17.875C3.25 17.1539 3.31093 16.443 3.42265 15.7523L1.16797 13.7414C0.446871 13.1016 0.162496 12.0961 0.538278 11.2023C0.771871 10.6641 1.02578 10.1359 1.31015 9.61797L1.61484 9.07969C1.91953 8.56172 2.25468 8.07422 2.62031 7.59687C3.19922 6.825 4.21484 6.57109 5.1289 6.87578L7.99297 7.82031C9.07968 6.92656 10.3289 6.19531 11.6695 5.69766L12.2891 2.75234C12.482 1.80781 13.2133 1.05625 14.168 0.944531C14.8586 0.853125 15.5492 0.8125 16.25 0.8125C16.9508 0.8125 17.6414 0.853125 18.3219 0.934375C19.2766 1.04609 20.0078 1.80781 20.2008 2.74219L20.8203 5.69766C22.1711 6.20547 23.4102 6.92656 24.4969 7.82031L27.3609 6.87578C28.275 6.57109 29.2906 6.825 29.8695 7.59687C30.225 8.07422 30.5602 8.56172 30.8648 9.07969L31.1797 9.62812C31.4641 10.1359 31.718 10.6641 31.9516 11.2023H31.9617ZM16.25 22.75C16.8902 22.75 17.5241 22.6239 18.1156 22.3789C18.707 22.1339 19.2445 21.7748 19.6971 21.3221C20.1498 20.8695 20.5089 20.332 20.7539 19.7406C20.9989 19.1491 21.125 18.5152 21.125 17.875C21.125 17.2348 20.9989 16.6009 20.7539 16.0094C20.5089 15.418 20.1498 14.8805 19.6971 14.4279C19.2445 13.9752 18.707 13.6161 18.1156 13.3711C17.5241 13.1261 16.8902 13 16.25 13C15.6098 13 14.9759 13.1261 14.3844 13.3711C13.793 13.6161 13.2555 13.9752 12.8029 14.4279C12.3502 14.8805 11.9911 15.418 11.7461 16.0094C11.5011 16.6009 11.375 17.2348 11.375 17.875C11.375 18.5152 11.5011 19.1491 11.7461 19.7406C11.9911 20.332 12.3502 20.8695 12.8029 21.3221C13.2555 21.7748 13.793 22.1339 14.3844 22.3789C14.9759 22.6239 15.6098 22.75 16.25 22.75Z" fill="white"/>
<path d="M53.7977 51.4617C52.9141 51.8375 51.9086 51.5531 51.2586 50.832L49.2477 48.5773C48.557 48.689 47.8461 48.75 47.125 48.75C46.4039 48.75 45.693 48.689 45.0023 48.5773L42.9914 50.832C42.3516 51.5531 41.3461 51.8375 40.4523 51.4617C39.9141 51.2281 39.3859 50.9742 38.8781 50.6898L38.3297 50.375C37.8219 50.0703 37.3242 49.7351 36.8469 49.3797C36.075 48.8008 35.8211 47.7851 36.1258 46.8711L37.0703 44.007C36.1766 42.9203 35.4453 41.6711 34.9477 40.3304L32.0023 39.7109C31.0578 39.5179 30.3063 38.7867 30.1945 37.832C30.1133 37.1515 30.0727 36.4609 30.0727 35.7601C30.0727 35.0594 30.1133 34.3687 30.1945 33.6883C30.3063 32.7336 31.068 32.0023 32.0023 31.8094L34.9578 31.1898C35.4656 29.839 36.1867 28.6 37.0805 27.5133L36.1359 24.6492C35.8313 23.7351 36.0852 22.7195 36.857 22.1406C37.3344 21.7851 37.832 21.45 38.3398 21.1351L38.868 20.8304C39.3758 20.5461 39.9039 20.2922 40.4523 20.0586C41.3359 19.6828 42.3414 19.9672 42.9914 20.6883L45.0023 22.9429C45.693 22.8312 46.4039 22.7703 47.125 22.7703C47.8461 22.7703 48.557 22.8312 49.2477 22.9429L51.2586 20.6883C51.8984 19.9672 52.9039 19.6828 53.7977 20.0586C54.3359 20.2922 54.8641 20.5461 55.382 20.8304L55.9203 21.1351C56.4383 21.4398 56.9258 21.775 57.4031 22.1406C58.175 22.7195 58.4289 23.7351 58.1242 24.6492L57.1797 27.5133C58.0734 28.6 58.8047 29.8492 59.3023 31.1898L62.2578 31.8094C63.2023 32.0023 63.9539 32.7336 64.0656 33.6883C64.1469 34.3687 64.1875 35.0594 64.1875 35.7601C64.1875 36.4609 64.1469 37.1515 64.0656 37.832C63.9539 38.7867 63.1922 39.5179 62.2578 39.7109L59.3023 40.3203C58.7945 41.6711 58.0734 42.9101 57.1797 43.9969L58.1242 46.8609C58.4289 47.775 58.175 48.7906 57.4031 49.3695C56.9258 49.725 56.4383 50.0601 55.9203 50.3648L55.3719 50.6797C54.8641 50.964 54.3359 51.2179 53.7977 51.4515V51.4617ZM42.25 35.75C42.25 37.0429 42.7636 38.2829 43.6779 39.1971C44.5921 40.1114 45.8321 40.625 47.125 40.625C48.4179 40.625 49.6579 40.1114 50.5722 39.1971C51.4864 38.2829 52 37.0429 52 35.75C52 34.457 51.4864 33.2171 50.5722 32.3028C49.6579 31.3886 48.4179 30.875 47.125 30.875C45.8321 30.875 44.5921 31.3886 43.6779 32.3028C42.7636 33.2171 42.25 34.457 42.25 35.75Z" fill="#3279BE"/>
</g>
<defs>
<clipPath id="clip0_227_498">
<rect width="65" height="52" fill="white"/>
</clipPath>
</defs>
</svg>
