<svg width="65" height="65" viewBox="0 0 65 65" fill="none" xmlns="http://www.w3.org/2000/svg">
<g clip-path="url(#clip0_230_632)">
<path d="M64.1113 5.58594C65.5078 7.33789 65.2285 9.88965 63.4766 11.2988L43.1641 27.5488C41.7168 28.7041 39.6728 28.7422 38.1875 27.625L24.4512 17.3291L6.60156 31.6113C4.8496 33.0078 2.29785 32.7285 0.888667 30.9766C-0.520513 29.2246 -0.228521 26.6729 1.52343 25.2637L21.8359 9.01367C23.2832 7.8584 25.3271 7.82031 26.8125 8.9375L40.5488 19.2334L58.3984 4.95117C60.1504 3.55469 62.7021 3.83398 64.1113 5.58594Z" fill="white"/>
<path d="M24.375 28.4375C22.1279 28.4375 20.3125 30.2529 20.3125 32.5V56.875C20.3125 59.1221 22.1279 60.9375 24.375 60.9375C26.6221 60.9375 28.4375 59.1221 28.4375 56.875V32.5C28.4375 30.2529 26.6221 28.4375 24.375 28.4375ZM8.125 40.625C5.87793 40.625 4.0625 42.4404 4.0625 44.6875V56.875C4.0625 59.1221 5.87793 60.9375 8.125 60.9375C10.3721 60.9375 12.1875 59.1221 12.1875 56.875V44.6875C12.1875 42.4404 10.3721 40.625 8.125 40.625ZM36.5625 40.625V56.875C36.5625 59.1221 38.3779 60.9375 40.625 60.9375C42.8721 60.9375 44.6875 59.1221 44.6875 56.875V40.625C44.6875 38.3779 42.8721 36.5625 40.625 36.5625C38.3779 36.5625 36.5625 38.3779 36.5625 40.625ZM56.875 28.4375C54.6279 28.4375 52.8125 30.2529 52.8125 32.5V56.875C52.8125 59.1221 54.6279 60.9375 56.875 60.9375C59.1221 60.9375 60.9375 59.1221 60.9375 56.875V32.5C60.9375 30.2529 59.1221 28.4375 56.875 28.4375Z" fill="#FF9900"/>
</g>
<defs>
<clipPath id="clip0_230_632">
<rect width="65" height="65" fill="white"/>
</clipPath>
</defs>
</svg>
