<svg width="65" height="58" viewBox="0 0 65 58" fill="none" xmlns="http://www.w3.org/2000/svg">
<path d="M7.22222 3.61111C3.23872 3.61111 0 6.84983 0 10.8333V46.9444C0 50.928 3.23872 54.1667 7.22222 54.1667H57.7778C61.7613 54.1667 65 50.928 65 46.9444V10.8333C65 6.84983 61.7613 3.61111 57.7778 3.61111H7.22222ZM57.7778 10.8333V46.9444H7.22222V10.8333H57.7778Z" fill="white"/>
<path opacity="0.4" d="M57.7778 10.8333H7.22223V28.8889H21.6667C22.355 28.8889 22.9757 29.2726 23.2804 29.882L25.2778 33.8767L30.8863 22.6597C31.191 22.0504 31.8229 21.6667 32.5 21.6667C33.1771 21.6667 33.809 22.0504 34.1137 22.6597L37.2283 28.8889H45.1389C46.132 28.8889 46.9445 29.7014 46.9445 30.6945C46.9445 31.6875 46.132 32.5 45.1389 32.5H36.1111C35.4228 32.5 34.8021 32.1163 34.4974 31.507L32.5 27.5122L26.8915 38.7292C26.5868 39.3386 25.9549 39.7222 25.2778 39.7222C24.6007 39.7222 23.9688 39.3386 23.6641 38.7292L20.5495 32.5H7.22223V46.9445H57.7778V10.8333Z" fill="white"/>
</svg>
