<svg width="65" height="52" viewBox="0 0 65 52" fill="none" xmlns="http://www.w3.org/2000/svg">
<g clip-path="url(#clip0_211_1041)">
<path d="M16.25 32.5C17.5304 32.5 18.7982 32.2478 19.9812 31.7578C21.1641 31.2678 22.2389 30.5497 23.1443 29.6443C24.0497 28.7389 24.7678 27.6641 25.2578 26.4812C25.7478 25.2982 26 24.0304 26 22.75C26 21.4696 25.7478 20.2018 25.2578 19.0188C24.7678 17.8359 24.0497 16.7611 23.1443 15.8557C22.2389 14.9503 21.1641 14.2322 19.9812 13.7422C18.7982 13.2522 17.5304 13 16.25 13C14.9696 13 13.7018 13.2522 12.5188 13.7422C11.3359 14.2322 10.2611 14.9503 9.35571 15.8557C8.45034 16.7611 7.73216 17.8359 7.24217 19.0188C6.75219 20.2018 6.5 21.4696 6.5 22.75C6.5 24.0304 6.75219 25.2982 7.24217 26.4812C7.73216 27.6641 8.45034 28.7389 9.35571 29.6443C10.2611 30.5497 11.3359 31.2678 12.5188 31.7578C13.7018 32.2478 14.9696 32.5 16.25 32.5ZM13.5383 35.75C6.06328 35.75 0 41.8133 0 49.2883C0 50.7914 1.20859 52 2.71172 52H29.7883C31.2812 52 32.5 50.7914 32.5 49.2883C32.5 41.8133 26.4367 35.75 18.9617 35.75H13.5383Z" fill="white"/>
<path d="M16.25 6.5C16.25 2.91484 19.1648 0 22.75 0H58.5C62.0852 0 65 2.91484 65 6.5V35.75C65 39.3352 62.0852 42.25 58.5 42.25H34.2062C33.0078 39.6602 31.1695 37.4258 28.8844 35.75H58.5V6.5H22.75V11.4867C20.8406 10.3797 18.6164 9.75 16.25 9.75V6.5ZM41.9148 14.1477C41.4477 13.6805 41.3156 12.9797 41.5594 12.3805C41.8031 11.7813 42.4023 11.375 43.0625 11.375H52C52.8938 11.375 53.625 12.1062 53.625 13V21.9375C53.625 22.5977 53.2289 23.1867 52.6195 23.4406C52.0102 23.6945 51.3094 23.5523 50.8523 23.0852L48.1102 20.343L40.7266 27.7266C39.7719 28.6812 38.2281 28.6812 37.2836 27.7266L30.7836 21.2266C29.8289 20.2719 29.8289 18.7281 30.7836 17.7836C31.7383 16.8391 33.282 16.8289 34.2266 17.7836L39 22.557L44.657 16.9L41.9148 14.1578V14.1477Z" fill="#3279BE"/>
</g>
<defs>
<clipPath id="clip0_211_1041">
<rect width="65" height="52" fill="white"/>
</clipPath>
</defs>
</svg>
