<svg width="65" height="52" viewBox="0 0 65 52" fill="none" xmlns="http://www.w3.org/2000/svg">
<g clip-path="url(#clip0_233_663)">
<path d="M26.2133 12.807C25.0758 13.132 23.9992 13.5484 22.9937 14.0359C22.1203 14.4523 21.125 14.5234 20.2109 14.2391L14.5336 12.4617L16.4227 15.3359C17.2656 16.6156 17.2555 18.2812 16.4023 19.5508C15.9453 20.2312 15.5594 20.9422 15.2547 21.6633C14.8383 22.6484 14.0359 23.4102 13.0305 23.7656L6.75391 26L13.0305 28.2445C14.0359 28.6 14.8383 29.3617 15.2547 30.3469C15.5594 31.068 15.9453 31.7789 16.4023 32.4594C17.2555 33.7289 17.2656 35.3945 16.4227 36.6742L14.5336 39.5484L20.2109 37.7609C21.1352 37.4766 22.1305 37.5477 22.9937 37.9641C23.9992 38.4516 25.0758 38.8578 26.2133 39.193C27.1172 39.457 27.8891 40.0359 28.3766 40.8281L32.5 47.4297L36.6234 40.8383C37.1211 40.0461 37.893 39.457 38.7867 39.2031C39.9242 38.8781 41.0008 38.4617 42.0063 37.9742C42.8797 37.5578 43.875 37.4867 44.7891 37.7711L50.4664 39.5484L48.5773 36.6641C47.7344 35.3844 47.7445 33.7188 48.5977 32.4492C49.0547 31.7688 49.4406 31.0578 49.7453 30.3367C50.1617 29.3516 50.9641 28.5898 51.9695 28.2344L58.2461 26L51.9695 23.7555C50.9641 23.4 50.1617 22.6383 49.7453 21.6531C49.4406 20.932 49.0547 20.2211 48.5977 19.5406C47.7445 18.2711 47.7344 16.6055 48.5773 15.3258L50.4664 12.4516L44.7891 14.2391C43.8648 14.5234 42.8695 14.4523 42.0063 14.0359C41.0008 13.5484 39.9242 13.1422 38.7867 12.807C37.8828 12.543 37.1109 11.9641 36.6234 11.1719L32.5 4.57031L28.3766 11.1617C27.8789 11.9539 27.107 12.543 26.2133 12.7969V12.807ZM0 26C0 25.025 0.609375 24.1516 1.53359 23.8266L11.7508 20.1805C12.157 19.2258 12.6547 18.3016 13.2437 17.4281L9.05937 11.05C8.52109 10.2375 8.56172 9.17109 9.14062 8.39922C9.71953 7.62734 10.7352 7.29219 11.6695 7.58672L21.3484 10.6133C22.5469 10.0344 23.8266 9.54687 25.157 9.16094L30.0117 1.39141C30.55 0.517969 31.4844 0 32.5 0C33.5156 0 34.45 0.517969 34.9883 1.38125L39.843 9.15078C41.1734 9.53672 42.4531 10.0242 43.6516 10.6031L53.3305 7.57656C54.2648 7.28203 55.2703 7.60703 55.8594 8.38906C56.4484 9.17109 56.4789 10.2273 55.9406 11.0398L51.7461 17.4078C52.3352 18.2812 52.8328 19.2055 53.2391 20.1602L63.4562 23.8062C64.3703 24.1312 64.9898 25.0047 64.9898 25.9797C64.9898 26.9547 64.3805 27.8281 63.4562 28.1531L53.2492 31.8195C52.843 32.7742 52.3453 33.6984 51.7563 34.5719L55.9508 40.9398C56.4891 41.7523 56.4484 42.8188 55.8695 43.5906C55.2906 44.3625 54.275 44.6977 53.3406 44.4031L43.6617 41.3766C42.4633 41.9555 41.1836 42.443 39.8531 42.8289L34.9984 50.5984C34.45 51.482 33.5156 52 32.5 52C31.4844 52 30.55 51.482 30.0117 50.6187L25.157 42.8492C23.8266 42.4633 22.5469 41.9758 21.3484 41.3969L11.6695 44.4234C10.7352 44.718 9.72969 44.393 9.14062 43.6109C8.55156 42.8289 8.52109 41.7727 9.05937 40.9602L13.2539 34.5922C12.6648 33.7188 12.1672 32.7945 11.7609 31.8398L1.53359 28.1734C0.609375 27.8484 0 26.975 0 26Z" fill="#3279BE"/>
<path d="M25.3094 23.8164C25.2281 24.2531 25.1875 24.7102 25.1875 25.1875C25.1875 29.2297 28.4578 32.5 32.5 32.5C36.5422 32.5 39.8125 29.2297 39.8125 25.1875C39.8125 24.7203 39.7719 24.2633 39.6906 23.8164L39.65 23.8266C38.2687 24.3648 36.8164 24.7609 35.3133 24.9742C35.3336 25.2789 35.293 25.5937 35.1711 25.9187C34.6125 27.3812 33.8 28.3969 33.3328 28.8945C33.1195 29.1281 32.8148 29.2398 32.5 29.2398C32.1852 29.2398 31.8805 29.1281 31.6672 28.8945C31.2102 28.3969 30.3875 27.3812 29.8289 25.9187C29.707 25.5937 29.6664 25.2789 29.6867 24.9742C28.1836 24.7609 26.7313 24.3648 25.35 23.8266L25.3094 23.8164Z" fill="white"/>
<path d="M25.3094 23.8164C25.2281 24.2532 25.1875 24.7102 25.1875 25.1875C25.1875 29.2297 28.4578 32.5 32.5 32.5C36.5422 32.5 39.8125 29.2297 39.8125 25.1875C39.8125 24.7203 39.7719 24.2633 39.6906 23.8164L39.65 23.8266C38.2687 24.3649 36.8164 24.761 35.3133 24.9743C35.3336 25.2789 35.293 25.5938 35.1711 25.9188C34.6125 27.3813 33.8 28.3969 33.3328 28.8946C33.1195 29.1282 32.8148 29.2399 32.5 29.2399C32.1852 29.2399 31.8805 29.1282 31.6672 28.8946C31.2102 28.3969 30.3875 27.3813 29.8289 25.9188C29.707 25.5938 29.6664 25.2789 29.6867 24.9743C28.1836 24.761 26.7313 24.3649 25.35 23.8266L25.3094 23.8164ZM22.3539 22.2422C22.8516 20.536 24.893 20.15 26.5484 20.8102C28.3969 21.5414 30.3977 21.9375 32.5 21.9375C34.6023 21.9375 36.6133 21.5414 38.4516 20.8102C40.107 20.1602 42.1484 20.536 42.6461 22.2422C42.9203 23.1766 43.0625 24.1618 43.0625 25.1875C43.0625 31.0172 38.3297 35.75 32.5 35.75C26.6703 35.75 21.9375 31.0172 21.9375 25.1875C21.9375 24.1719 22.0797 23.1766 22.3539 22.2422Z" fill="#3279BE"/>
</g>
<defs>
<clipPath id="clip0_233_663">
<rect width="65" height="52" fill="white"/>
</clipPath>
</defs>
</svg>
