<svg width="640" height="512" viewBox="0 0 640 512" fill="none" xmlns="http://www.w3.org/2000/svg">
<path d="M160 160H96V192V256C96 268.6 103.4 280.1 115 285.2L171.5 310.3C153.7 331.8 144 358.8 144 386.7V392C144 405.3 154.7 416 168 416C181.3 416 192 405.3 192 392V386.8C192 370 197.9 353.6 208.7 340.7L217.1 330.6L259 349.2C263.1 351 267.5 352 272 352H368C372.5 352 376.9 351.1 381 349.2L422.9 330.6L431.3 340.7C442.1 353.6 448 370 448 386.8V392C448 405.3 458.7 416 472 416C485.3 416 496 405.3 496 392V386.8C496 358.9 486.3 331.9 468.5 310.4L525 285.2C536.6 280.1 544 268.6 544 256V192V160H480V192V235.2L462.2 243.1L421.6 219.4C390.7 201.5 355.7 192 320 192C284.3 192 249.3 201.5 218.4 219.5L177.8 243.2L160 235.2V192V160ZM484.3 112H539.7C534.2 102.4 523.8 96 512 96C500.2 96 489.8 102.4 484.3 112ZM128 96C116.2 96 105.8 102.4 100.3 112H155.7C150.2 102.4 139.8 96 128 96Z" fill="white"/>
<path d="M24 112C10.7 112 0 122.7 0 136C0 149.3 10.7 160 24 160H264C277.3 160 288 149.3 288 136C288 122.7 277.3 112 264 112H24ZM376 112C362.7 112 352 122.7 352 136C352 149.3 362.7 160 376 160H616C629.3 160 640 149.3 640 136C640 122.7 629.3 112 616 112H376Z" fill="#39FF6A"/>
</svg>
