<svg width="640" height="512" viewBox="0 0 640 512" fill="none" xmlns="http://www.w3.org/2000/svg">
<path d="M129.1 216.8L64.1 160H137L187.4 204.1L269 186.4C260.6 208 256 231.5 256 256C256 280.5 260.6 304 269 325.6L187.4 307.9L137 352H64.1L129 295.2L127.2 294.8C109 290.8 96 274.7 96 256C96 237.3 109 221.2 127.3 217.2L129.1 216.8ZM384 256C384 239.026 390.743 222.747 402.745 210.745C414.747 198.743 431.026 192 448 192C464.974 192 481.252 198.743 493.255 210.745C505.257 222.747 512 239.026 512 256C512 272.974 505.257 289.252 493.255 301.255C481.252 313.257 464.974 320 448 320C431.026 320 414.747 313.257 402.745 301.255C390.743 289.252 384 272.974 384 256ZM448 288C456.487 288 464.626 284.629 470.627 278.627C476.629 272.626 480 264.487 480 256C480 247.513 476.629 239.374 470.627 233.373C464.626 227.371 456.487 224 448 224C439.513 224 431.374 227.371 425.373 233.373C419.371 239.374 416 247.513 416 256C416 264.487 419.371 272.626 425.373 278.627C431.374 284.629 439.513 288 448 288Z" fill="white"/>
<path d="M448 192C464.974 192 481.252 198.743 493.255 210.745C505.257 222.747 512 239.026 512 256C512 272.974 505.257 289.252 493.255 301.255C481.252 313.257 464.974 320 448 320C431.026 320 414.748 313.257 402.745 301.255C390.743 289.252 384 272.974 384 256C384 239.026 390.743 222.747 402.745 210.745C414.748 198.743 431.026 192 448 192ZM448 448C473.214 448 498.181 443.034 521.475 433.385C544.77 423.736 565.936 409.593 583.765 391.764C601.593 373.936 615.736 352.77 625.385 329.475C635.034 306.181 640 281.214 640 256C640 230.786 635.034 205.819 625.385 182.525C615.736 159.23 601.593 138.064 583.765 120.235C565.936 102.407 544.77 88.264 521.475 78.6151C498.181 68.9662 473.214 64 448 64C422.786 64 397.819 68.9662 374.525 78.6151C351.23 88.264 330.064 102.407 312.236 120.235C294.407 138.064 280.264 159.23 270.615 182.525C260.966 205.819 256 230.786 256 256C256 281.214 260.966 306.181 270.615 329.475C280.264 352.77 294.407 373.936 312.236 391.764C330.064 409.593 351.23 423.736 374.525 433.385C397.819 443.034 422.786 448 448 448ZM0 128C0 145.7 14.3 160 32 160H208C225.7 160 240 145.7 240 128C240 110.3 225.7 96 208 96H32C14.3 96 0 110.3 0 128ZM32 352C14.3 352 0 366.3 0 384C0 401.7 14.3 416 32 416H208C225.7 416 240 401.7 240 384C240 366.3 225.7 352 208 352H32Z" fill="#5EC3FF"/>
</svg>
