<svg width="1401" height="1400" viewBox="0 0 1401 1400" fill="none" xmlns="http://www.w3.org/2000/svg">
<path d="M743.514 844.989C1061.47 760.151 1295.38 615.765 1265.95 522.447C1251.26 475.566 1172.8 450.49 1058 447.965L1069.5 464.412C1136.13 471.104 1179.88 489.376 1189.27 519.304C1213.11 595.237 1006.08 717.33 726.744 791.951C447.411 866.573 201.533 865.45 177.551 789.394C167.444 757.269 198.543 716.974 258.867 675.5L260.5 656.359C156.548 717.573 99.3063 780.768 114.699 829.781C144.124 923.099 425.559 929.827 743.514 844.989Z" fill="url(#paint0_linear_58_1827)" fill-opacity="0.8"/>
<defs>
<linearGradient id="paint0_linear_58_1827" x1="18.7359" y1="858.266" x2="1284.52" y2="423.731" gradientUnits="userSpaceOnUse">
<stop stop-color="#00FFFF"/>
<stop offset="0.32" stop-color="#0049E7"/>
<stop offset="0.64" stop-color="#FF0000"/>
<stop offset="1" stop-color="#FDB700"/>
</linearGradient>
</defs>
</svg>
