<svg width="193" height="193" viewBox="0 0 193 193" fill="none" xmlns="http://www.w3.org/2000/svg">
<g clip-path="url(#clip0_35_3411)">
<circle cx="96.096" cy="89.5023" r="62.2386" stroke="black" stroke-width="0.646465"/>
<path fill-rule="evenodd" clip-rule="evenodd" d="M43.7627 30.8326V34.6551C47.9659 30.7612 50.5884 29.2825 55.7303 28.0073C48.3179 40.1302 43.9428 44.4739 36.2853 44.7759C35.859 44.7927 35.5409 44.3948 35.641 43.9802C36.9619 38.5108 38.7276 35.4816 43.7627 30.8326ZM38.7762 48.7816C36.7006 49.494 35.3943 49.7459 33.353 49.4396C32.812 49.3584 32.395 48.9251 32.3149 48.384C31.8241 45.0671 32.0476 42.836 32.9586 38.9761C27.8254 45.181 26.0817 49.5758 25.982 59.0156C25.9773 59.463 26.4119 59.783 26.8351 59.6378C31.7736 57.9442 34.4996 55.3627 38.7762 48.7816ZM25.0482 64.8474C27.414 64.6895 29.0222 64.3092 31.6288 63.4067C29.1511 68.8882 27.1054 71.2778 22.5279 73.7565C22.2245 73.9208 21.8446 73.8199 21.6696 73.5226C17.3906 66.2556 18.5993 56.4325 22.8193 49.7787C22.6287 56.4947 22.7905 59.9166 23.7241 63.867C23.8674 64.4735 24.4263 64.889 25.0482 64.8474ZM27.9721 75.3726C25.4472 76.7777 23.931 77.4321 21.678 78.114C21.1632 78.2698 20.6044 78.0891 20.2776 77.662C16.7996 73.116 15.456 69.6508 14.1761 62.7419C12.0513 74.0984 12.8177 79.6609 19.9343 87.2574C20.1571 87.4953 20.5243 87.5357 20.7897 87.3466C25.7191 83.8331 26.9254 80.8305 27.9721 75.3726ZM21.8614 93.7871C24.0325 92.6093 25.2113 91.4422 26.9748 89.1667C26.8005 95.9018 25.8067 99.0903 21.813 102.829C21.6188 103.011 21.3294 103.054 21.0888 102.941C11.583 98.46 8.02605 91.9527 8.02605 77.2008C8.60209 78.1739 9.13903 79.094 9.64862 79.9671L9.64902 79.9678C13.2529 86.143 15.489 89.9744 20.513 93.6878C20.906 93.9783 21.4318 94.0201 21.8614 93.7871ZM28.8032 100.634C27.7682 104.465 26.6645 106.386 24.1219 108.842C23.7401 109.211 23.1689 109.304 22.6885 109.078C15.3488 105.628 10.8082 101.001 5.86523 92.1582C5.86523 104.342 9.9847 113.242 24.566 117.63C24.8149 117.704 25.091 117.625 25.2582 117.426C29.337 112.571 29.8287 108.64 28.8032 100.634ZM27.5128 122.789C19.7492 121.594 15.585 118.906 8.69092 112.6C12.1417 123.937 19.8163 131.375 32.6784 131.062C32.9465 131.055 33.187 130.883 33.2783 130.63C35.4067 124.753 35.2585 121.027 33.1248 114.096C31.7969 117.536 30.7619 119.43 28.7694 122.253C28.4856 122.655 27.9991 122.864 27.5128 122.789ZM39.9397 126.228C39.5267 129.845 38.9256 131.93 37.1035 135.284C36.9036 135.652 36.5363 135.901 36.1207 135.952C30.563 136.633 27.107 136.251 20.991 134.87C27.5905 141.143 32.2368 143.095 42.3803 142.705C42.6982 142.692 42.9659 142.453 43.0097 142.138C43.9385 135.464 43.2659 131.886 39.9397 126.228ZM46.8372 144.692C47.2446 141.385 47.2708 139.343 47.087 135.867C51.994 141.086 53.5334 144.476 53.5701 151.064C53.572 151.401 53.3125 151.684 52.977 151.719C42.6401 152.792 37.9854 151.631 31.9613 146.67C39.3062 147.104 43.1667 147.14 46.1788 145.65C46.5483 145.467 46.7868 145.101 46.8372 144.692ZM57.5587 147.999C58.1348 151.785 57.5137 153.225 55.0654 154.813L59.387 156.309C72.3314 155.86 79.2666 156.47 84.9844 159.965C82.7 161.832 79.3228 162.076 72.5182 161.794L76.1749 165.284C83.0376 165.51 86.3018 164.893 90.3034 161.461C86.979 156.642 82.0482 155.093 75.6763 153.65L75.4374 153.596C66.786 151.638 62.3746 150.639 57.5587 147.999ZM148.978 30.8326V34.6551C144.775 30.7612 142.152 29.2825 137.01 28.0073C144.423 40.1302 148.798 44.4739 156.455 44.7759C156.881 44.7927 157.2 44.3948 157.099 43.9802C155.779 38.5108 154.013 35.4816 148.978 30.8326ZM153.964 48.7816C156.04 49.494 157.346 49.7459 159.387 49.4396C159.928 49.3584 160.346 48.9251 160.426 48.384C160.916 45.0671 160.693 42.836 159.782 38.9761C164.915 45.181 166.659 49.5758 166.758 59.0156C166.763 59.463 166.329 59.783 165.905 59.6378C160.967 57.9442 158.241 55.3627 153.964 48.7816ZM167.692 64.8474C165.326 64.6895 163.718 64.3092 161.112 63.4067C163.589 68.8882 165.635 71.2778 170.213 73.7565C170.516 73.9208 170.896 73.8199 171.071 73.5226C175.35 66.2556 174.141 56.4325 169.921 49.7787C170.112 56.4947 169.95 59.9166 169.016 63.867C168.873 64.4735 168.314 64.889 167.692 64.8474ZM164.768 75.3726C167.293 76.7777 168.809 77.4321 171.062 78.114C171.577 78.2698 172.136 78.0891 172.463 77.662C175.941 73.116 177.284 69.6508 178.564 62.7419C180.689 74.0984 179.923 79.6609 172.806 87.2574C172.583 87.4953 172.216 87.5357 171.951 87.3466C167.021 83.8331 165.815 80.8305 164.768 75.3726ZM170.879 93.7871C168.708 92.6093 167.529 91.4422 165.766 89.1667C165.94 95.9018 166.934 99.0903 170.928 102.829C171.122 103.011 171.411 103.054 171.652 102.941C181.158 98.46 184.714 91.9527 184.714 77.2008C184.139 78.1736 183.602 79.0933 183.092 79.9662L183.091 79.9678C179.488 86.143 177.252 89.9744 172.228 93.6878C171.835 93.9783 171.309 94.0201 170.879 93.7871ZM163.937 100.634C164.972 104.465 166.076 106.386 168.619 108.842C169 109.211 169.572 109.304 170.052 109.078C177.392 105.628 181.932 101.001 186.875 92.1582C186.875 104.342 182.756 113.242 168.174 117.63C167.926 117.704 167.649 117.625 167.482 117.426C163.404 112.571 162.912 108.64 163.937 100.634ZM165.228 122.789C172.991 121.594 177.156 118.906 184.05 112.6C180.599 123.937 172.924 131.375 160.062 131.062C159.794 131.055 159.553 130.883 159.462 130.63C157.334 124.753 157.482 121.027 159.616 114.096C160.944 117.536 161.979 119.43 163.971 122.253C164.255 122.655 164.741 122.864 165.228 122.789ZM152.801 126.228C153.214 129.845 153.815 131.93 155.637 135.284C155.837 135.652 156.204 135.901 156.62 135.952C162.177 136.633 165.633 136.251 171.75 134.87C165.15 141.143 160.504 143.095 150.36 142.705C150.042 142.692 149.775 142.453 149.731 142.138C148.802 135.464 149.475 131.886 152.801 126.228ZM145.903 144.692C145.496 141.385 145.47 139.343 145.653 135.867C140.746 141.086 139.207 144.476 139.17 151.064C139.169 151.401 139.428 151.684 139.763 151.719C150.1 152.792 154.755 151.631 160.779 146.67C153.434 147.104 149.574 147.14 146.562 145.65C146.192 145.467 145.954 145.101 145.903 144.692ZM135.182 147.999C134.606 151.785 135.227 153.225 137.675 154.813L133.353 156.309C120.409 155.86 113.474 156.47 107.756 159.965C110.041 161.832 113.418 162.076 120.222 161.794L116.566 165.284C109.703 165.51 106.439 164.893 102.437 161.461C105.761 156.642 110.692 155.093 117.064 153.65L117.303 153.596C125.955 151.638 130.366 150.639 135.182 147.999Z" fill="white"/>
<path d="M43.7627 34.6551H43.4394V35.3951L43.9823 34.8922L43.7627 34.6551ZM43.7627 30.8326H44.0859V30.0942L43.5434 30.5951L43.7627 30.8326ZM55.7303 28.0073L56.0061 28.1759L56.4169 27.504L55.6525 27.6936L55.7303 28.0073ZM36.2853 44.7759L36.2726 44.4529L36.2853 44.7759ZM35.641 43.9802L35.3268 43.9043L35.3268 43.9043L35.641 43.9802ZM33.353 49.4396L33.401 49.1199H33.401L33.353 49.4396ZM38.7762 48.7816L39.0472 48.9577L39.5581 48.1714L38.6712 48.4759L38.7762 48.7816ZM32.3149 48.384L31.9951 48.4313L32.3149 48.384ZM32.9586 38.9761L33.2732 39.0504L32.7095 38.7701L32.9586 38.9761ZM25.982 59.0156L25.6588 59.0122L25.982 59.0156ZM26.8351 59.6378L26.94 59.9436L26.8351 59.6378ZM31.6288 63.4067L31.9234 63.5398L32.2327 62.8555L31.5231 63.1012L31.6288 63.4067ZM25.0482 64.8474L25.0697 65.1699H25.0697L25.0482 64.8474ZM22.5279 73.7565L22.6818 74.0407H22.6818L22.5279 73.7565ZM21.6696 73.5226L21.391 73.6866L21.391 73.6866L21.6696 73.5226ZM22.8193 49.7787L23.1424 49.7879L23.1758 48.6132L22.5464 49.6056L22.8193 49.7787ZM23.7241 63.867L23.4095 63.9414L23.4095 63.9414L23.7241 63.867ZM21.678 78.114L21.5844 77.8047H21.5844L21.678 78.114ZM27.9721 75.3726L28.2895 75.4335L28.4199 74.7535L27.8149 75.0902L27.9721 75.3726ZM20.2776 77.662L20.5343 77.4656L20.2776 77.662ZM14.1761 62.7419L14.4939 62.683L13.8584 62.6824L14.1761 62.7419ZM19.9343 87.2574L19.6984 87.4784L19.6984 87.4784L19.9343 87.2574ZM20.7897 87.3466L20.9773 87.6098H20.9773L20.7897 87.3466ZM26.9748 89.1667L27.2979 89.1751L27.3234 88.1892L26.7193 88.9687L26.9748 89.1667ZM21.8614 93.7871L22.0155 94.0712H22.0155L21.8614 93.7871ZM21.813 102.829L22.0339 103.065H22.0339L21.813 102.829ZM21.0888 102.941L20.951 103.233L20.951 103.233L21.0888 102.941ZM8.02605 77.2008L8.30421 77.0361L7.70282 76.0201V77.2008H8.02605ZM9.64862 79.9671L9.36945 80.1301L9.36998 80.131L9.64862 79.9671ZM9.64902 79.9678L9.92819 79.8049L9.92766 79.804L9.64902 79.9678ZM20.513 93.6878L20.7051 93.4279H20.7051L20.513 93.6878ZM24.1219 108.842L24.3465 109.075H24.3465L24.1219 108.842ZM28.8032 100.634L29.1238 100.593L28.4911 100.55L28.8032 100.634ZM22.6885 109.078L22.551 109.37H22.551L22.6885 109.078ZM5.86523 92.1582L6.14738 92.0005L5.542 90.9175V92.1582H5.86523ZM24.566 117.63L24.4729 117.939H24.4729L24.566 117.63ZM25.2582 117.426L25.5057 117.634H25.5057L25.2582 117.426ZM8.69092 112.6L8.90908 112.362L8.0379 111.565L8.3817 112.694L8.69092 112.6ZM27.5128 122.789L27.562 122.47H27.562L27.5128 122.789ZM32.6784 131.062L32.6705 130.738H32.6705L32.6784 131.062ZM33.2783 130.63L33.5822 130.741L33.2783 130.63ZM33.1248 114.096L33.4337 114.001L33.1592 113.109L32.8232 113.979L33.1248 114.096ZM28.7694 122.253L29.0334 122.439L28.7694 122.253ZM37.1035 135.284L36.8195 135.13L37.1035 135.284ZM39.9397 126.228L40.2183 126.064L39.7283 125.231L39.6185 126.191L39.9397 126.228ZM36.1207 135.952L36.0814 135.631H36.0814L36.1207 135.952ZM20.991 134.87L21.0622 134.555L19.9183 134.296L20.7683 135.104L20.991 134.87ZM42.3803 142.705L42.3679 142.382H42.3679L42.3803 142.705ZM43.0097 142.138L43.3298 142.182L43.0097 142.138ZM47.087 135.867L47.3225 135.646L46.7176 135.002L46.7642 135.884L47.087 135.867ZM46.8372 144.692L47.158 144.731L46.8372 144.692ZM53.5701 151.064L53.8933 151.062L53.5701 151.064ZM52.977 151.719L53.0104 152.04L52.977 151.719ZM31.9613 146.67L31.9803 146.347L30.99 146.289L31.7558 146.919L31.9613 146.67ZM46.1788 145.65L46.3222 145.939H46.3222L46.1788 145.65ZM55.0654 154.813L54.8895 154.542L54.3344 154.902L54.9597 155.119L55.0654 154.813ZM57.5587 147.999L57.714 147.716L57.1408 147.402L57.2391 148.048L57.5587 147.999ZM59.387 156.309L59.2813 156.615L59.3381 156.634L59.3982 156.632L59.387 156.309ZM84.9844 159.965L85.189 160.216L85.5418 159.927L85.153 159.69L84.9844 159.965ZM72.5182 161.794L72.5315 161.471L71.6744 161.435L72.295 162.027L72.5182 161.794ZM76.1749 165.284L75.9518 165.517L76.041 165.603L76.1643 165.607L76.1749 165.284ZM90.3034 161.461L90.5138 161.707L90.7346 161.517L90.5694 161.278L90.3034 161.461ZM75.6763 153.65L75.7476 153.335L75.7476 153.335L75.6763 153.65ZM75.4374 153.596L75.366 153.911L75.366 153.911L75.4374 153.596ZM148.978 34.6551L148.758 34.8922L149.301 35.3951V34.6551H148.978ZM148.978 30.8326L149.197 30.5951L148.655 30.0942V30.8326H148.978ZM137.01 28.0073L137.088 27.6936L136.324 27.504L136.734 28.1759L137.01 28.0073ZM156.455 44.7759L156.468 44.4529L156.455 44.7759ZM157.099 43.9802L156.785 44.0561V44.0561L157.099 43.9802ZM159.387 49.4396L159.339 49.1199L159.387 49.4396ZM153.964 48.7816L154.069 48.4759L153.182 48.1714L153.693 48.9577L153.964 48.7816ZM160.426 48.384L160.745 48.4313L160.426 48.384ZM159.782 38.9761L160.031 38.7701L159.467 39.0504L159.782 38.9761ZM166.758 59.0156L167.082 59.0122V59.0122L166.758 59.0156ZM165.905 59.6378L165.8 59.9436V59.9436L165.905 59.6378ZM161.112 63.4067L161.217 63.1012L160.508 62.8555L160.817 63.5398L161.112 63.4067ZM167.692 64.8474L167.671 65.1699L167.692 64.8474ZM170.213 73.7565L170.059 74.0407L170.213 73.7565ZM171.071 73.5226L170.792 73.3586L171.071 73.5226ZM169.921 49.7787L170.194 49.6056L169.565 48.6132L169.598 49.7879L169.921 49.7787ZM169.016 63.867L168.702 63.7927V63.7927L169.016 63.867ZM171.062 78.114L171.156 77.8047L171.062 78.114ZM164.768 75.3726L164.926 75.0902L164.321 74.7535L164.451 75.4335L164.768 75.3726ZM172.463 77.662L172.206 77.4656V77.4656L172.463 77.662ZM178.564 62.7419L178.882 62.6824L178.247 62.683L178.564 62.7419ZM172.806 87.2574L173.042 87.4784V87.4784L172.806 87.2574ZM171.951 87.3466L171.763 87.6098V87.6098L171.951 87.3466ZM165.766 89.1667L166.021 88.9687L165.417 88.1892L165.443 89.1751L165.766 89.1667ZM170.879 93.7871L170.725 94.0712L170.879 93.7871ZM170.928 102.829L171.148 102.593L170.928 102.829ZM171.652 102.941L171.79 103.233V103.233L171.652 102.941ZM184.714 77.2008H185.038V76.0201L184.436 77.0361L184.714 77.2008ZM183.092 79.9662L182.813 79.8033L182.812 79.805L183.092 79.9662ZM183.091 79.9678L183.371 80.1308L183.372 80.1291L183.091 79.9678ZM172.228 93.6878L172.035 93.4279H172.035L172.228 93.6878ZM168.619 108.842L168.394 109.075L168.619 108.842ZM163.937 100.634L164.249 100.55L163.617 100.593L163.937 100.634ZM170.052 109.078L170.189 109.37L170.052 109.078ZM186.875 92.1582H187.198V90.9175L186.593 92.0005L186.875 92.1582ZM168.174 117.63L168.268 117.939V117.939L168.174 117.63ZM167.482 117.426L167.235 117.634V117.634L167.482 117.426ZM184.05 112.6L184.359 112.694L184.703 111.565L183.831 112.362L184.05 112.6ZM165.228 122.789L165.178 122.47L165.228 122.789ZM160.062 131.062L160.07 130.738H160.07L160.062 131.062ZM159.462 130.63L159.158 130.741L159.158 130.741L159.462 130.63ZM159.616 114.096L159.917 113.979L159.581 113.109L159.307 114.001L159.616 114.096ZM163.971 122.253L163.707 122.439L163.971 122.253ZM155.637 135.284L155.921 135.13L155.921 135.13L155.637 135.284ZM152.801 126.228L153.122 126.191L153.012 125.231L152.522 126.064L152.801 126.228ZM156.62 135.952L156.659 135.631L156.62 135.952ZM171.75 134.87L171.972 135.104L172.822 134.296L171.678 134.555L171.75 134.87ZM150.36 142.705L150.373 142.382L150.36 142.705ZM149.731 142.138L149.411 142.182L149.731 142.138ZM145.653 135.867L145.976 135.884L146.023 135.002L145.418 135.646L145.653 135.867ZM145.903 144.692L145.582 144.731L145.903 144.692ZM139.17 151.064L138.847 151.062L139.17 151.064ZM139.763 151.719L139.797 151.397L139.763 151.719ZM160.779 146.67L160.985 146.919L161.751 146.289L160.76 146.347L160.779 146.67ZM146.562 145.65L146.418 145.939L146.562 145.65ZM137.675 154.813L137.781 155.119L138.406 154.902L137.851 154.542L137.675 154.813ZM135.182 147.999L135.501 148.048L135.6 147.402L135.026 147.716L135.182 147.999ZM133.353 156.309L133.342 156.632L133.402 156.634L133.459 156.615L133.353 156.309ZM107.756 159.965L107.587 159.69L107.199 159.927L107.552 160.216L107.756 159.965ZM120.222 161.794L120.445 162.027L121.066 161.435L120.209 161.471L120.222 161.794ZM116.566 165.284L116.576 165.607L116.7 165.603L116.789 165.517L116.566 165.284ZM102.437 161.461L102.171 161.278L102.006 161.517L102.227 161.707L102.437 161.461ZM117.064 153.65L116.993 153.335L116.993 153.335L117.064 153.65ZM117.303 153.596L117.374 153.911L117.374 153.911L117.303 153.596ZM44.0859 34.6551V30.8326H43.4394V34.6551H44.0859ZM55.6525 27.6936C53.0651 28.3352 51.0945 29.0323 49.2372 30.0668C47.3814 31.1004 45.6535 32.4629 43.543 34.418L43.9823 34.8922C46.0751 32.9534 47.76 31.6296 49.5518 30.6316C51.342 29.6344 53.2535 28.9546 55.8081 28.3211L55.6525 27.6936ZM36.298 45.0988C40.2 44.945 43.2798 43.7557 46.3141 41.0663C49.3309 38.3925 52.299 34.2388 56.0061 28.1759L55.4545 27.8387C51.7492 33.8987 48.8236 37.9783 45.8853 40.5826C42.9647 43.1712 40.0281 44.3048 36.2726 44.4529L36.298 45.0988ZM35.3268 43.9043C35.1777 44.5218 35.6517 45.1243 36.298 45.0988L36.2726 44.4529C36.0663 44.461 35.9041 44.2678 35.9552 44.0561L35.3268 43.9043ZM43.5434 30.5951C41.0151 32.9296 39.291 34.8723 38.0332 36.9302C36.774 38.9904 35.9921 41.1498 35.3268 43.9043L35.9552 44.0561C36.6109 41.3411 37.3723 39.2512 38.5848 37.2673C39.7989 35.281 41.4752 33.3846 43.9819 31.0701L43.5434 30.5951ZM33.305 49.7592C35.4151 50.0759 36.7763 49.8098 38.8811 49.0873L38.6712 48.4759C36.6249 49.1783 35.3735 49.416 33.401 49.1199L33.305 49.7592ZM31.9951 48.4313C32.0952 49.1075 32.6179 49.6561 33.305 49.7592L33.401 49.1199C33.0061 49.0606 32.6947 48.7427 32.6346 48.3367L31.9951 48.4313ZM32.644 38.9019C31.727 42.7868 31.4965 45.0612 31.9951 48.4313L32.6346 48.3367C32.1518 45.073 32.3681 42.8852 33.2732 39.0504L32.644 38.9019ZM26.3053 59.019C26.3549 54.3169 26.8141 50.8983 27.8872 47.8914C28.9596 44.8864 30.6534 42.2696 33.2076 39.1822L32.7095 38.7701C30.1305 41.8875 28.3859 44.5706 27.2783 47.6741C26.1714 50.7758 25.7088 54.2745 25.6588 59.0122L26.3053 59.019ZM26.7303 59.3321C26.5226 59.4033 26.3028 59.2478 26.3053 59.019L25.6588 59.0122C25.6518 59.6782 26.3012 60.1627 26.94 59.9436L26.7303 59.3321ZM38.5051 48.6055C36.3711 51.8894 34.6382 54.1526 32.8355 55.8042C31.0397 57.4495 29.1641 58.4974 26.7303 59.3321L26.94 59.9436C29.4446 59.0846 31.4012 57.9951 33.2722 56.2809C35.1362 54.5731 36.9046 52.2549 39.0472 48.9577L38.5051 48.6055ZM31.5231 63.1012C28.9353 63.9972 27.3561 64.3694 25.0267 64.5249L25.0697 65.1699C27.4718 65.0095 29.109 64.6212 31.7346 63.7121L31.5231 63.1012ZM22.6818 74.0407C24.9924 72.7895 26.6828 71.5505 28.109 69.9205C29.5326 68.2935 30.679 66.2929 31.9234 63.5398L31.3343 63.2735C30.101 66.002 28.9856 67.9369 27.6225 69.4948C26.2621 71.0496 24.6409 72.2447 22.374 73.4722L22.6818 74.0407ZM21.391 73.6866C21.6566 74.1376 22.2292 74.2858 22.6818 74.0407L22.374 73.4722C22.2198 73.5557 22.0327 73.5023 21.9481 73.3586L21.391 73.6866ZM22.5464 49.6056C18.2765 56.3379 17.0374 66.2928 21.391 73.6866L21.9481 73.3586C17.7438 66.2184 18.9221 56.527 23.0923 49.9519L22.5464 49.6056ZM24.0387 63.7927C23.115 59.8843 22.952 56.4964 23.1424 49.7879L22.4962 49.7696C22.3054 56.493 22.466 59.949 23.4095 63.9414L24.0387 63.7927ZM25.0267 64.5249C24.5634 64.5559 24.1459 64.2465 24.0387 63.7927L23.4095 63.9414C23.5889 64.7006 24.2891 65.2221 25.0697 65.1699L25.0267 64.5249ZM21.7716 78.4234C24.0504 77.7337 25.5878 77.0693 28.1292 75.6551L27.8149 75.0902C25.3065 76.4861 23.8116 77.1306 21.5844 77.8047L21.7716 78.4234ZM20.0209 77.8584C20.4293 78.3923 21.1277 78.6183 21.7716 78.4234L21.5844 77.8047C21.1987 77.9214 20.7794 77.7859 20.5343 77.4656L20.0209 77.8584ZM13.8583 62.8008C15.1446 69.7441 16.5036 73.2611 20.0209 77.8584L20.5343 77.4656C17.0956 72.9709 15.7674 69.5575 14.4939 62.683L13.8583 62.8008ZM20.1702 87.0364C16.6357 83.2636 14.7046 80.0244 13.9056 76.3411C13.1043 72.6472 13.4331 68.4704 14.4938 62.8013L13.8584 62.6824C12.7943 68.3699 12.4439 72.6526 13.2738 76.4781C14.1059 80.3143 16.1163 83.6547 19.6984 87.4784L20.1702 87.0364ZM20.6021 87.0834C20.4714 87.1765 20.2848 87.1588 20.1702 87.0364L19.6984 87.4784C20.0295 87.8318 20.5771 87.895 20.9773 87.6098L20.6021 87.0834ZM27.6546 75.3118C27.1327 78.0334 26.577 80.106 25.5549 81.9308C24.536 83.7499 23.0401 85.3456 20.6021 87.0834L20.9773 87.6098C23.4687 85.834 25.0407 84.1717 26.1189 82.2467C27.194 80.3274 27.7648 78.1698 28.2895 75.4335L27.6546 75.3118ZM26.7193 88.9687C24.9716 91.2238 23.8252 92.354 21.7072 93.5029L22.0155 94.0712C24.2398 92.8645 25.4509 91.6606 27.2303 89.3647L26.7193 88.9687ZM22.0339 103.065C24.057 101.171 25.3385 99.3984 26.1298 97.2324C26.9177 95.0755 27.2105 92.552 27.2979 89.1751L26.6516 89.1584C26.5648 92.5165 26.2736 94.9547 25.5226 97.0106C24.7749 99.0572 23.5627 100.748 21.5921 102.593L22.0339 103.065ZM20.951 103.233C21.3096 103.402 21.7415 103.339 22.0339 103.065L21.5921 102.593C21.496 102.683 21.3493 102.706 21.2266 102.649L20.951 103.233ZM7.70282 77.2008C7.70282 84.5957 8.59298 89.9717 10.7054 94.0705C12.8244 98.182 16.1538 100.972 20.951 103.233L21.2266 102.649C16.518 100.429 13.316 97.7248 11.2801 93.7744C9.23759 89.8113 8.34929 84.5577 8.34929 77.2008H7.70282ZM9.92779 79.8042C9.41825 78.9311 8.88083 78.0103 8.30421 77.0361L7.7479 77.3654C8.32335 78.3376 8.85981 79.2568 9.36945 80.1301L9.92779 79.8042ZM9.92766 79.804L9.92726 79.8033L9.36998 80.131L9.37037 80.1316L9.92766 79.804ZM20.7051 93.4279C15.7413 89.7589 13.5343 85.9838 9.92818 79.8049L9.36985 80.1307C12.9716 86.3022 15.2367 90.1899 20.3208 93.9478L20.7051 93.4279ZM21.7072 93.5029C21.3904 93.6748 20.9994 93.6454 20.7051 93.4279L20.3208 93.9478C20.8126 94.3112 21.4732 94.3654 22.0155 94.0712L21.7072 93.5029ZM24.3465 109.075C25.632 107.833 26.5657 106.715 27.3086 105.414C28.0506 104.115 28.5939 102.648 29.1152 100.718L28.4911 100.55C27.9774 102.451 27.4515 103.86 26.7472 105.093C26.0439 106.325 25.1545 107.396 23.8974 108.61L24.3465 109.075ZM22.551 109.37C23.1519 109.653 23.8674 109.537 24.3465 109.075L23.8974 108.61C23.6129 108.885 23.186 108.954 22.826 108.785L22.551 109.37ZM5.58309 92.3159C10.5498 101.202 15.135 105.885 22.551 109.37L22.826 108.785C15.5626 105.371 11.0667 100.801 6.14738 92.0005L5.58309 92.3159ZM24.6591 117.32C17.4194 115.142 12.8169 111.856 10.0169 107.639C7.21351 103.416 6.18847 98.2176 6.18847 92.1582H5.542C5.542 98.2827 6.57669 103.626 9.47834 107.996C12.3834 112.372 17.1313 115.73 24.4729 117.939L24.6591 117.32ZM25.0107 117.218C24.9285 117.316 24.7873 117.359 24.6591 117.32L24.4729 117.939C24.8425 118.05 25.2535 117.934 25.5057 117.634L25.0107 117.218ZM28.4825 100.675C28.9944 104.671 29.1217 107.613 28.6275 110.15C28.1357 112.675 27.0234 114.823 25.0107 117.218L25.5057 117.634C27.5717 115.175 28.7447 112.93 29.262 110.273C29.777 107.63 29.6374 104.603 29.1238 100.593L28.4825 100.675ZM8.47276 112.839C11.9241 115.996 14.711 118.265 17.6178 119.893C20.5308 121.525 23.551 122.506 27.4636 123.109L27.562 122.47C23.711 121.877 20.7673 120.916 17.9337 119.329C15.094 117.738 12.3517 115.511 8.90908 112.362L8.47276 112.839ZM32.6705 130.738C26.3076 130.894 21.2513 129.133 17.3601 125.95C13.4646 122.763 10.7124 118.131 9.00015 112.506L8.3817 112.694C10.1203 118.406 12.9307 123.162 16.9508 126.45C20.9751 129.742 26.1871 131.543 32.6863 131.385L32.6705 130.738ZM32.9744 130.52C32.9286 130.647 32.8061 130.735 32.6705 130.738L32.6863 131.385C33.087 131.375 33.4454 131.118 33.5822 130.741L32.9744 130.52ZM32.8159 114.191C33.8794 117.646 34.4396 120.276 34.4766 122.763C34.5136 125.246 34.0297 127.606 32.9744 130.52L33.5822 130.741C34.6554 127.777 35.1615 125.336 35.123 122.754C35.0846 120.176 34.5039 117.477 33.4337 114.001L32.8159 114.191ZM29.0334 122.439C31.0411 119.595 32.0887 117.678 33.4263 114.212L32.8232 113.979C31.505 117.395 30.4827 119.265 28.5053 122.066L29.0334 122.439ZM27.4636 123.109C28.0725 123.202 28.6797 122.94 29.0334 122.439L28.5053 122.066C28.2915 122.369 27.9258 122.526 27.562 122.47L27.4636 123.109ZM37.3875 135.438C39.2308 132.046 39.8434 129.92 40.2608 126.265L39.6185 126.191C39.2099 129.77 38.6204 131.815 36.8195 135.13L37.3875 135.438ZM36.16 136.273C36.6789 136.209 37.1376 135.898 37.3875 135.438L36.8195 135.13C36.6697 135.405 36.3937 135.593 36.0814 135.631L36.16 136.273ZM20.9198 135.185C27.0589 136.572 30.5541 136.96 36.16 136.273L36.0814 135.631C30.5719 136.307 27.1552 135.931 21.0622 134.555L20.9198 135.185ZM42.3679 142.382C37.3166 142.576 33.6678 142.186 30.4704 140.984C27.2739 139.782 24.4992 137.759 21.2137 134.636L20.7683 135.104C24.0823 138.254 26.9305 140.344 30.2429 141.589C33.5544 142.834 37.3005 143.224 42.3928 143.028L42.3679 142.382ZM42.6895 142.093C42.6676 142.251 42.5312 142.375 42.3679 142.382L42.3928 143.028C42.8651 143.009 43.2641 142.654 43.3298 142.182L42.6895 142.093ZM39.661 126.392C41.3141 129.204 42.2946 131.477 42.7529 133.863C43.2113 136.25 43.1515 138.774 42.6895 142.093L43.3298 142.182C43.7966 138.828 43.865 136.226 43.3877 133.741C42.9104 131.255 41.8915 128.911 40.2183 126.064L39.661 126.392ZM46.7642 135.884C46.9472 139.345 46.921 141.368 46.5164 144.652L47.158 144.731C47.5682 141.402 47.5943 139.34 47.4098 135.85L46.7642 135.884ZM53.8933 151.062C53.8748 147.743 53.4777 145.201 52.4517 142.824C51.4272 140.451 49.7865 138.267 47.3225 135.646L46.8515 136.089C49.2946 138.687 50.877 140.807 51.8582 143.08C52.8378 145.35 53.2287 147.797 53.2469 151.065L53.8933 151.062ZM53.0104 152.04C53.5075 151.989 53.8962 151.569 53.8933 151.062L53.2469 151.065C53.2478 151.233 53.1174 151.379 52.9436 151.397L53.0104 152.04ZM31.7558 146.919C34.7919 149.42 37.5049 150.98 40.7758 151.771C44.0383 152.561 47.8297 152.578 53.0104 152.04L52.9436 151.397C47.7874 151.933 44.083 151.906 40.9279 151.143C37.7812 150.382 35.1547 148.881 32.1667 146.42L31.7558 146.919ZM46.0355 145.36C44.5826 146.079 42.9121 146.437 40.6773 146.558C38.4384 146.68 35.6545 146.564 31.9803 146.347L31.9422 146.993C35.613 147.209 38.4318 147.328 40.7124 147.204C42.9972 147.08 44.763 146.711 46.3222 145.939L46.0355 145.36ZM46.5164 144.652C46.478 144.964 46.2982 145.23 46.0355 145.36L46.3222 145.939C46.7984 145.704 47.0956 145.237 47.158 144.731L46.5164 144.652ZM55.2414 155.085C56.4903 154.274 57.324 153.47 57.7486 152.344C58.1684 151.232 58.1682 149.856 57.8782 147.951L57.2391 148.048C57.5252 149.928 57.5026 151.165 57.1438 152.116C56.7898 153.054 56.0889 153.764 54.8895 154.542L55.2414 155.085ZM59.4927 156.004L55.1711 154.508L54.9597 155.119L59.2813 156.615L59.4927 156.004ZM85.153 159.69C79.3429 156.138 72.3147 155.538 59.3758 155.986L59.3982 156.632C72.3481 156.183 79.1903 156.803 84.8158 160.241L85.153 159.69ZM72.5048 162.116C75.9074 162.258 78.4776 162.269 80.4883 162.006C82.506 161.742 83.9853 161.199 85.189 160.216L84.7799 159.715C83.6991 160.598 82.3476 161.111 80.4044 161.365C78.4543 161.62 75.9335 161.612 72.5315 161.471L72.5048 162.116ZM76.3981 165.05L72.7413 161.56L72.295 162.027L75.9518 165.517L76.3981 165.05ZM90.0929 161.216C88.1216 162.906 86.3485 163.891 84.2321 164.431C82.1047 164.974 79.6113 165.074 76.1856 164.961L76.1643 165.607C79.6012 165.72 82.1713 165.624 84.392 165.057C86.6238 164.488 88.4836 163.447 90.5138 161.707L90.0929 161.216ZM75.6049 153.965C81.9772 155.408 86.7905 156.937 90.0373 161.645L90.5694 161.278C87.1676 156.346 82.1193 154.777 75.7476 153.335L75.6049 153.965ZM75.366 153.911L75.6049 153.965L75.7476 153.335L75.5087 153.281L75.366 153.911ZM57.4033 148.283C62.2664 150.948 66.7251 151.955 75.366 153.911L75.5087 153.281C66.8468 151.32 62.4827 150.33 57.714 147.716L57.4033 148.283ZM149.301 34.6551V30.8326H148.655V34.6551H149.301ZM136.932 28.3211C139.487 28.9546 141.398 29.6344 143.189 30.6316C144.98 31.6296 146.665 32.9534 148.758 34.8922L149.197 34.418C147.087 32.4629 145.359 31.1004 143.503 30.0668C141.646 29.0323 139.675 28.3352 137.088 27.6936L136.932 28.3211ZM156.468 44.4529C152.712 44.3048 149.776 43.1712 146.855 40.5826C143.917 37.9783 140.991 33.8987 137.286 27.8387L136.734 28.1759C140.441 34.2388 143.41 38.3925 146.426 41.0663C149.461 43.7557 152.54 44.945 156.442 45.0988L156.468 44.4529ZM156.785 44.0561C156.836 44.2678 156.674 44.461 156.468 44.4529L156.442 45.0988C157.089 45.1243 157.563 44.5218 157.414 43.9043L156.785 44.0561ZM148.759 31.0701C151.265 33.3846 152.942 35.281 154.156 37.2673C155.368 39.2512 156.13 41.3411 156.785 44.0561L157.414 43.9043C156.748 41.1498 155.966 38.9904 154.707 36.9302C153.449 34.8723 151.725 32.9296 149.197 30.5951L148.759 31.0701ZM159.339 49.1199C157.367 49.416 156.116 49.1783 154.069 48.4759L153.859 49.0873C155.964 49.8098 157.325 50.0759 159.435 49.7592L159.339 49.1199ZM160.106 48.3367C160.046 48.7427 159.734 49.0606 159.339 49.1199L159.435 49.7592C160.123 49.6561 160.645 49.1075 160.745 48.4313L160.106 48.3367ZM159.467 39.0504C160.372 42.8852 160.589 45.073 160.106 48.3367L160.745 48.4313C161.244 45.0612 161.013 42.7868 160.096 38.9019L159.467 39.0504ZM167.082 59.0122C167.032 54.2745 166.569 50.7758 165.462 47.6741C164.355 44.5706 162.61 41.8875 160.031 38.7701L159.533 39.1822C162.087 42.2696 163.781 44.8864 164.853 47.8914C165.926 50.8983 166.386 54.3169 166.435 59.019L167.082 59.0122ZM165.8 59.9436C166.439 60.1627 167.089 59.6782 167.082 59.0122L166.435 59.019C166.438 59.2478 166.218 59.4033 166.01 59.3321L165.8 59.9436ZM153.693 48.9577C155.836 52.2549 157.604 54.5731 159.468 56.2809C161.339 57.9951 163.296 59.0846 165.8 59.9436L166.01 59.3321C163.576 58.4974 161.701 57.4495 159.905 55.8042C158.102 54.1526 156.369 51.8894 154.235 48.6055L153.693 48.9577ZM161.006 63.7121C163.631 64.6212 165.269 65.0095 167.671 65.1699L167.714 64.5249C165.384 64.3694 163.805 63.9972 161.217 63.1012L161.006 63.7121ZM170.367 73.4722C168.1 72.2447 166.478 71.0496 165.118 69.4948C163.755 67.9369 162.639 66.002 161.406 63.2735L160.817 63.5398C162.062 66.2929 163.208 68.2935 164.631 69.9205C166.058 71.5505 167.748 72.7895 170.059 74.0407L170.367 73.4722ZM170.792 73.3586C170.708 73.5023 170.521 73.5557 170.367 73.4722L170.059 74.0407C170.511 74.2858 171.084 74.1376 171.349 73.6866L170.792 73.3586ZM169.648 49.9519C173.818 56.527 174.997 66.2184 170.792 73.3586L171.349 73.6866C175.703 66.2928 174.464 56.3379 170.194 49.6056L169.648 49.9519ZM169.331 63.9414C170.274 59.949 170.435 56.493 170.244 49.7696L169.598 49.7879C169.788 56.4964 169.625 59.8843 168.702 63.7927L169.331 63.9414ZM167.671 65.1699C168.451 65.2221 169.152 64.7006 169.331 63.9414L168.702 63.7927C168.595 64.2465 168.177 64.5559 167.714 64.5249L167.671 65.1699ZM171.156 77.8047C168.929 77.1306 167.434 76.4861 164.926 75.0902L164.611 75.6551C167.153 77.0693 168.69 77.7337 170.969 78.4234L171.156 77.8047ZM172.206 77.4656C171.961 77.7859 171.542 77.9214 171.156 77.8047L170.969 78.4234C171.613 78.6183 172.311 78.3923 172.72 77.8584L172.206 77.4656ZM178.247 62.683C176.973 69.5575 175.645 72.9709 172.206 77.4656L172.72 77.8584C176.237 73.2611 177.596 69.7441 178.882 62.8008L178.247 62.683ZM173.042 87.4784C176.624 83.6547 178.635 80.3143 179.467 76.4781C180.297 72.6526 179.946 68.3699 178.882 62.6824L178.247 62.8013C179.307 68.4704 179.636 72.6472 178.835 76.3411C178.036 80.0244 176.105 83.2636 172.57 87.0364L173.042 87.4784ZM171.763 87.6098C172.163 87.895 172.711 87.8317 173.042 87.4784L172.57 87.0364C172.456 87.1588 172.269 87.1765 172.138 87.0833L171.763 87.6098ZM164.451 75.4335C164.976 78.1698 165.547 80.3274 166.622 82.2467C167.7 84.1717 169.272 85.834 171.763 87.6098L172.138 87.0834C169.7 85.3456 168.205 83.7499 167.186 81.9308C166.163 80.106 165.608 78.0334 165.086 75.3118L164.451 75.4335ZM165.51 89.3647C167.29 91.6606 168.501 92.8645 170.725 94.0712L171.033 93.5029C168.915 92.354 167.769 91.2238 166.021 88.9687L165.51 89.3647ZM171.148 102.593C169.178 100.748 167.966 99.0572 167.218 97.0106C166.467 94.9547 166.176 92.5165 166.089 89.1584L165.443 89.1751C165.53 92.552 165.823 95.0755 166.611 97.2324C167.402 99.3984 168.683 101.171 170.707 103.065L171.148 102.593ZM171.514 102.649C171.391 102.706 171.244 102.683 171.148 102.593L170.707 103.065C170.999 103.339 171.431 103.402 171.79 103.233L171.514 102.649ZM184.391 77.2008C184.391 84.5577 183.503 89.8113 181.46 93.7744C179.424 97.7248 176.223 100.429 171.514 102.649L171.79 103.233C176.587 100.972 179.916 98.182 182.035 94.0705C184.148 89.9717 185.038 84.5957 185.038 77.2008H184.391ZM183.372 80.1292C183.881 79.2562 184.417 78.3373 184.993 77.3654L184.436 77.0361C183.86 78.0099 183.323 78.9305 182.813 79.8033L183.372 80.1292ZM183.372 80.1291L183.373 80.1275L182.812 79.805L182.811 79.8066L183.372 80.1291ZM172.42 93.9478C177.504 90.1899 179.769 86.3022 183.371 80.1308L182.812 79.8049C179.206 85.9839 176.999 89.7589 172.035 93.4279L172.42 93.9478ZM170.725 94.0712C171.267 94.3654 171.928 94.3112 172.42 93.9478L172.035 93.4279C171.741 93.6454 171.35 93.6748 171.033 93.5029L170.725 94.0712ZM168.843 108.61C167.586 107.396 166.697 106.325 165.993 105.093C165.289 103.86 164.763 102.451 164.249 100.55L163.625 100.718C164.147 102.648 164.69 104.115 165.432 105.414C166.175 106.715 167.108 107.833 168.394 109.075L168.843 108.61ZM169.914 108.785C169.555 108.954 169.128 108.885 168.843 108.61L168.394 109.075C168.873 109.537 169.589 109.653 170.189 109.37L169.914 108.785ZM186.593 92.0005C181.674 100.801 177.178 105.371 169.914 108.785L170.189 109.37C177.605 105.885 182.191 101.202 187.157 92.3159L186.593 92.0005ZM168.268 117.939C175.609 115.73 180.357 112.372 183.262 107.996C186.164 103.626 187.198 98.2827 187.198 92.1582H186.552C186.552 98.2176 185.527 103.416 182.724 107.639C179.924 111.856 175.321 115.142 168.081 117.32L168.268 117.939ZM167.235 117.634C167.487 117.934 167.898 118.05 168.268 117.939L168.081 117.32C167.953 117.359 167.812 117.316 167.73 117.218L167.235 117.634ZM163.617 100.593C163.103 104.603 162.963 107.63 163.478 110.273C163.996 112.93 165.169 115.175 167.235 117.634L167.73 117.218C165.717 114.823 164.605 112.675 164.113 110.15C163.619 107.613 163.746 104.671 164.258 100.675L163.617 100.593ZM183.831 112.362C180.389 115.511 177.646 117.738 174.807 119.329C171.973 120.916 169.03 121.877 165.178 122.47L165.277 123.109C169.189 122.506 172.21 121.525 175.123 119.893C178.03 118.265 180.816 115.996 184.268 112.839L183.831 112.362ZM160.054 131.385C166.553 131.543 171.765 129.742 175.79 126.45C179.81 123.162 182.62 118.406 184.359 112.694L183.74 112.506C182.028 118.131 179.276 122.763 175.38 125.95C171.489 129.133 166.433 130.894 160.07 130.738L160.054 131.385ZM159.158 130.741C159.295 131.118 159.653 131.375 160.054 131.385L160.07 130.738C159.934 130.735 159.812 130.647 159.766 130.52L159.158 130.741ZM159.307 114.001C158.237 117.477 157.656 120.176 157.617 122.754C157.579 125.336 158.085 127.777 159.158 130.741L159.766 130.52C158.711 127.606 158.227 125.246 158.264 122.763C158.301 120.276 158.861 117.646 159.925 114.191L159.307 114.001ZM164.235 122.066C162.258 119.265 161.235 117.395 159.917 113.979L159.314 114.212C160.652 117.678 161.699 119.595 163.707 122.439L164.235 122.066ZM165.178 122.47C164.815 122.526 164.449 122.369 164.235 122.066L163.707 122.439C164.061 122.94 164.668 123.202 165.277 123.109L165.178 122.47ZM155.921 135.13C154.12 131.815 153.531 129.77 153.122 126.191L152.48 126.265C152.897 129.92 153.51 132.046 155.353 135.438L155.921 135.13ZM156.659 135.631C156.347 135.593 156.071 135.405 155.921 135.13L155.353 135.438C155.603 135.898 156.062 136.209 156.58 136.273L156.659 135.631ZM171.678 134.555C165.585 135.931 162.169 136.307 156.659 135.631L156.58 136.273C162.186 136.96 165.682 136.572 171.821 135.185L171.678 134.555ZM150.348 143.028C155.44 143.224 159.186 142.834 162.498 141.589C165.81 140.344 168.658 138.254 171.972 135.104L171.527 134.636C168.241 137.759 165.467 139.782 162.27 140.984C159.073 142.186 155.424 142.576 150.373 142.382L150.348 143.028ZM149.411 142.182C149.476 142.654 149.875 143.009 150.348 143.028L150.373 142.382C150.209 142.375 150.073 142.251 150.051 142.093L149.411 142.182ZM152.522 126.064C150.849 128.911 149.83 131.255 149.353 133.741C148.876 136.226 148.944 138.828 149.411 142.182L150.051 142.093C149.589 138.774 149.529 136.25 149.988 133.863C150.446 131.477 151.426 129.204 153.079 126.392L152.522 126.064ZM145.331 135.85C145.146 139.34 145.172 141.402 145.582 144.731L146.224 144.652C145.819 141.368 145.793 139.345 145.976 135.884L145.331 135.85ZM139.494 151.065C139.512 147.797 139.903 145.35 140.882 143.08C141.863 140.807 143.446 138.687 145.889 136.089L145.418 135.646C142.954 138.267 141.313 140.451 140.289 142.824C139.263 145.201 138.866 147.743 138.847 151.062L139.494 151.065ZM139.797 151.397C139.623 151.379 139.493 151.233 139.494 151.065L138.847 151.062C138.844 151.569 139.233 151.989 139.73 152.04L139.797 151.397ZM160.574 146.42C157.586 148.881 154.959 150.382 151.813 151.143C148.657 151.906 144.953 151.933 139.797 151.397L139.73 152.04C144.911 152.578 148.702 152.561 151.965 151.771C155.236 150.98 157.949 149.42 160.985 146.919L160.574 146.42ZM146.418 145.939C147.977 146.711 149.743 147.08 152.028 147.204C154.309 147.328 157.127 147.209 160.798 146.993L160.76 146.347C157.086 146.564 154.302 146.68 152.063 146.558C149.828 146.437 148.158 146.079 146.705 145.36L146.418 145.939ZM145.582 144.731C145.645 145.237 145.942 145.704 146.418 145.939L146.705 145.36C146.442 145.23 146.262 144.964 146.224 144.652L145.582 144.731ZM137.851 154.542C136.652 153.764 135.951 153.054 135.597 152.116C135.238 151.165 135.215 149.928 135.501 148.048L134.862 147.951C134.572 149.856 134.572 151.232 134.992 152.344C135.416 153.47 136.25 154.274 137.499 155.085L137.851 154.542ZM133.459 156.615L137.781 155.119L137.569 154.508L133.248 156.004L133.459 156.615ZM107.925 160.241C113.55 156.803 120.392 156.183 133.342 156.632L133.365 155.986C120.426 155.538 113.398 156.138 107.587 159.69L107.925 160.241ZM120.209 161.471C116.807 161.612 114.286 161.62 112.336 161.365C110.393 161.111 109.041 160.598 107.961 159.715L107.552 160.216C108.755 161.199 110.234 161.742 112.252 162.006C114.263 162.269 116.833 162.258 120.236 162.116L120.209 161.471ZM116.789 165.517L120.445 162.027L119.999 161.56L116.342 165.05L116.789 165.517ZM102.227 161.707C104.257 163.447 106.117 164.488 108.348 165.057C110.569 165.624 113.139 165.72 116.576 165.607L116.555 164.961C113.129 165.074 110.636 164.974 108.508 164.431C106.392 163.891 104.619 162.906 102.648 161.216L102.227 161.707ZM116.993 153.335C110.621 154.777 105.573 156.346 102.171 161.278L102.703 161.645C105.95 156.937 110.763 155.408 117.136 153.965L116.993 153.335ZM117.232 153.281L116.993 153.335L117.136 153.965L117.374 153.911L117.232 153.281ZM135.026 147.716C130.258 150.33 125.894 151.32 117.232 153.281L117.374 153.911C126.015 151.955 130.474 150.948 135.337 148.283L135.026 147.716Z" fill="black"/>
<mask id="mask0_35_3411" style="mask-type:alpha" maskUnits="userSpaceOnUse" x="34" y="27" width="125" height="125">
<circle cx="96.096" cy="89.5021" r="61.9154" fill="#D9D9D9"/>
</mask>
<g mask="url(#mask0_35_3411)">
<circle cx="96.096" cy="89.5021" r="61.9154" fill="url(#paint0_linear_35_3411)"/>
<path fill-rule="evenodd" clip-rule="evenodd" d="M153.577 89.5021C153.577 121.248 127.842 146.983 96.0961 146.983C64.3504 146.983 38.6154 121.248 38.6154 89.5021C38.6154 57.7564 64.3504 32.0214 96.0961 32.0214C127.842 32.0214 153.577 57.7564 153.577 89.5021ZM152.233 89.5021C152.233 120.505 127.099 145.639 96.096 145.639C65.0926 145.639 39.9594 120.505 39.9594 89.5021C39.9594 58.4987 65.0926 33.3655 96.096 33.3655C127.099 33.3655 152.233 58.4987 152.233 89.5021Z" fill="white"/>
<path fill-rule="evenodd" clip-rule="evenodd" d="M158.011 89.5021C158.011 123.697 130.291 151.417 96.096 151.417C61.9011 151.417 34.1807 123.697 34.1807 89.5021C34.1807 55.3071 61.9011 27.5867 96.096 27.5867C130.291 27.5867 158.011 55.3071 158.011 89.5021ZM154.975 89.502C154.975 122.02 128.614 148.381 96.096 148.381C63.5783 148.381 37.2174 122.02 37.2174 89.502C37.2174 56.9843 63.5783 30.6234 96.096 30.6234C128.614 30.6234 154.975 56.9843 154.975 89.502Z" fill="white"/>
<mask id="mask1_35_3411" style="mask-type:alpha" maskUnits="userSpaceOnUse" x="38" y="32" width="116" height="115">
<path fill-rule="evenodd" clip-rule="evenodd" d="M153.577 89.5022C153.577 121.248 127.842 146.983 96.0959 146.983C64.3502 146.983 38.6152 121.248 38.6152 89.5022C38.6152 57.7565 64.3502 32.0215 96.0959 32.0215C127.842 32.0215 153.577 57.7565 153.577 89.5022Z" fill="white"/>
</mask>
<g mask="url(#mask1_35_3411)">
<path d="M90.1787 137.26C94.8782 137.708 95.6532 138.483 96.1186 143.2C96.5665 138.501 97.3415 137.725 102.059 137.26C97.3591 136.812 96.5841 136.037 96.1186 131.32C95.6707 136.02 94.8957 136.795 90.1787 137.26Z" fill="white"/>
<path d="M90.1787 137.26C94.8782 137.708 95.6532 138.483 96.1186 143.2C96.5665 138.501 97.3415 137.725 102.059 137.26C97.3591 136.812 96.5841 136.037 96.1186 131.32C95.6707 136.02 94.8957 136.795 90.1787 137.26Z" fill="white"/>
<path d="M70.8467 134.414C75.5461 134.862 76.3212 135.637 76.7866 140.354C77.2345 135.654 78.0095 134.879 82.7265 134.414C78.027 133.966 77.252 133.191 76.7866 128.474C76.3387 133.173 75.5637 133.948 70.8467 134.414Z" fill="white"/>
<path d="M70.8467 134.414C75.5461 134.862 76.3212 135.637 76.7866 140.354C77.2345 135.654 78.0095 134.879 82.7265 134.414C78.027 133.966 77.252 133.191 76.7866 128.474C76.3387 133.173 75.5637 133.948 70.8467 134.414Z" fill="white"/>
<path d="M109.635 134.414C114.334 134.862 115.109 135.637 115.575 140.354C116.023 135.654 116.798 134.879 121.515 134.414C116.815 133.966 116.04 133.191 115.575 128.474C115.127 133.173 114.352 133.948 109.635 134.414Z" fill="white"/>
<path d="M109.635 134.414C114.334 134.862 115.109 135.637 115.575 140.354C116.023 135.654 116.798 134.879 121.515 134.414C116.815 133.966 116.04 133.191 115.575 128.474C115.127 133.173 114.352 133.948 109.635 134.414Z" fill="white"/>
<path d="M90.1787 41.9748C94.8782 41.5269 95.6532 40.7519 96.1186 36.0349C96.5665 40.7343 97.3415 41.5094 102.059 41.9748C97.3591 42.4227 96.5841 43.1977 96.1186 47.9147C95.6707 43.2153 94.8957 42.4403 90.1787 41.9748Z" fill="white"/>
<path d="M90.1787 41.9748C94.8782 41.5269 95.6532 40.7519 96.1186 36.0349C96.5665 40.7343 97.3415 41.5094 102.059 41.9748C97.3591 42.4227 96.5841 43.1977 96.1186 47.9147C95.6707 43.2153 94.8957 42.4403 90.1787 41.9748Z" fill="white"/>
<path d="M70.8467 44.821C75.5461 44.3731 76.3212 43.5981 76.7866 38.8811C77.2345 43.5805 78.0095 44.3556 82.7265 44.821C78.027 45.2689 77.252 46.0439 76.7866 50.7609C76.3387 46.0615 75.5637 45.2864 70.8467 44.821Z" fill="white"/>
<path d="M70.8467 44.821C75.5461 44.3731 76.3212 43.5981 76.7866 38.8811C77.2345 43.5805 78.0095 44.3556 82.7265 44.821C78.027 45.2689 77.252 46.0439 76.7866 50.7609C76.3387 46.0615 75.5637 45.2864 70.8467 44.821Z" fill="white"/>
<path d="M109.635 44.821C114.334 44.3731 115.109 43.5981 115.575 38.8811C116.023 43.5805 116.798 44.3556 121.515 44.821C116.815 45.2689 116.04 46.0439 115.575 50.7609C115.127 46.0615 114.352 45.2864 109.635 44.821Z" fill="white"/>
<path d="M109.635 44.821C114.334 44.3731 115.109 43.5981 115.575 38.8811C116.023 43.5805 116.798 44.3556 121.515 44.821C116.815 45.2689 116.04 46.0439 115.575 50.7609C115.127 46.0615 114.352 45.2864 109.635 44.821Z" fill="white"/>
<path d="M122.092 85.156C115.3 84.6798 108.577 85.088 102.103 87.3782C100.535 87.9224 99.0363 88.6254 97.6507 89.5777C97.3099 89.3056 97.6052 89.1016 97.7415 88.9202C102.444 82.0495 109.735 78.2853 118.344 79.986C118.662 80.054 119.026 80.054 119.321 80.4848C117.458 81.0064 115.527 81.029 113.597 81.868C117.072 82.1855 120.07 83.2739 123.023 85.0653C122.569 85.088 122.319 85.1107 122.092 85.156Z" fill="white"/>
<path d="M122.092 85.156C115.3 84.6798 108.577 85.088 102.103 87.3782C100.535 87.9224 99.0363 88.6254 97.6507 89.5777C97.3099 89.3056 97.6052 89.1016 97.7415 88.9202C102.444 82.0495 109.735 78.2853 118.344 79.986C118.662 80.054 119.026 80.054 119.321 80.4848C117.458 81.0064 115.527 81.029 113.597 81.868C117.072 82.1855 120.07 83.2739 123.023 85.0653C122.569 85.088 122.319 85.1107 122.092 85.156Z" fill="black"/>
<path d="M122.092 85.156C115.3 84.6798 108.577 85.088 102.103 87.3782C100.535 87.9224 99.0363 88.6254 97.6507 89.5777C97.3099 89.3056 97.6052 89.1016 97.7415 88.9202C102.444 82.0495 109.735 78.2853 118.344 79.986C118.662 80.054 119.026 80.054 119.321 80.4848C117.458 81.0064 115.527 81.029 113.597 81.868C117.072 82.1855 120.07 83.2739 123.023 85.0653C122.569 85.088 122.319 85.1107 122.092 85.156Z" fill="#FBB603"/>
<path d="M122.092 85.156C115.3 84.6798 108.577 85.088 102.103 87.3782C100.535 87.9224 99.0363 88.6254 97.6507 89.5777C97.3099 89.3056 97.6052 89.1016 97.7415 88.9202C102.444 82.0495 109.735 78.2853 118.344 79.986C118.662 80.054 119.026 80.054 119.321 80.4848C117.458 81.0064 115.527 81.029 113.597 81.868C117.072 82.1855 120.07 83.2739 123.023 85.0653C122.569 85.088 122.319 85.1107 122.092 85.156Z" fill="url(#paint1_linear_35_3411)"/>
<path d="M116.845 69.5779C118.639 70.6663 120.252 72.0042 121.729 73.5008C122.342 74.113 123.16 74.4305 124.091 74.9747C119.775 77.0155 115.482 77.1062 110.916 76.2445C111.302 75.7457 111.689 75.6323 112.052 75.5189C112.415 75.4055 112.756 75.2922 113.233 75.1334C112.438 74.1357 111.87 73.1153 111.302 72.0722C110.848 71.2332 110.984 70.9158 111.984 71.0292C112.347 71.0745 112.711 71.0292 113.233 71.0292C112.188 70.0088 111.03 69.5326 109.849 69.0337C108.667 68.5348 107.373 69.0564 106.123 68.6029C108.327 67.4691 110.553 67.6959 112.802 67.8999C114.187 68.3308 115.573 68.8296 116.845 69.5779ZM115.823 72.231C114.914 72.163 114.096 71.8455 113.188 72.0496C113.528 72.7752 114.006 73.2967 114.573 73.7502C114.846 73.9543 115.187 74.1584 115.505 73.9997C115.823 73.8636 115.527 73.5235 115.573 73.2967C115.664 72.9793 115.732 72.6618 115.823 72.231Z" fill="white"/>
<path d="M116.845 69.5779C118.639 70.6663 120.252 72.0042 121.729 73.5008C122.342 74.113 123.16 74.4305 124.091 74.9747C119.775 77.0155 115.482 77.1062 110.916 76.2445C111.302 75.7457 111.689 75.6323 112.052 75.5189C112.415 75.4055 112.756 75.2922 113.233 75.1334C112.438 74.1357 111.87 73.1153 111.302 72.0722C110.848 71.2332 110.984 70.9158 111.984 71.0292C112.347 71.0745 112.711 71.0292 113.233 71.0292C112.188 70.0088 111.03 69.5326 109.849 69.0337C108.667 68.5348 107.373 69.0564 106.123 68.6029C108.327 67.4691 110.553 67.6959 112.802 67.8999C114.187 68.3308 115.573 68.8296 116.845 69.5779ZM115.823 72.231C114.914 72.163 114.096 71.8455 113.188 72.0496C113.528 72.7752 114.006 73.2967 114.573 73.7502C114.846 73.9543 115.187 74.1584 115.505 73.9997C115.823 73.8636 115.527 73.5235 115.573 73.2967C115.664 72.9793 115.732 72.6618 115.823 72.231Z" fill="black"/>
<path d="M116.845 69.5779C118.639 70.6663 120.252 72.0042 121.729 73.5008C122.342 74.113 123.16 74.4305 124.091 74.9747C119.775 77.0155 115.482 77.1062 110.916 76.2445C111.302 75.7457 111.689 75.6323 112.052 75.5189C112.415 75.4055 112.756 75.2922 113.233 75.1334C112.438 74.1357 111.87 73.1153 111.302 72.0722C110.848 71.2332 110.984 70.9158 111.984 71.0292C112.347 71.0745 112.711 71.0292 113.233 71.0292C112.188 70.0088 111.03 69.5326 109.849 69.0337C108.667 68.5348 107.373 69.0564 106.123 68.6029C108.327 67.4691 110.553 67.6959 112.802 67.8999C114.187 68.3308 115.573 68.8296 116.845 69.5779ZM115.823 72.231C114.914 72.163 114.096 71.8455 113.188 72.0496C113.528 72.7752 114.006 73.2967 114.573 73.7502C114.846 73.9543 115.187 74.1584 115.505 73.9997C115.823 73.8636 115.527 73.5235 115.573 73.2967C115.664 72.9793 115.732 72.6618 115.823 72.231Z" fill="#FBB603"/>
<path d="M116.845 69.5779C118.639 70.6663 120.252 72.0042 121.729 73.5008C122.342 74.113 123.16 74.4305 124.091 74.9747C119.775 77.0155 115.482 77.1062 110.916 76.2445C111.302 75.7457 111.689 75.6323 112.052 75.5189C112.415 75.4055 112.756 75.2922 113.233 75.1334C112.438 74.1357 111.87 73.1153 111.302 72.0722C110.848 71.2332 110.984 70.9158 111.984 71.0292C112.347 71.0745 112.711 71.0292 113.233 71.0292C112.188 70.0088 111.03 69.5326 109.849 69.0337C108.667 68.5348 107.373 69.0564 106.123 68.6029C108.327 67.4691 110.553 67.6959 112.802 67.8999C114.187 68.3308 115.573 68.8296 116.845 69.5779ZM115.823 72.231C114.914 72.163 114.096 71.8455 113.188 72.0496C113.528 72.7752 114.006 73.2967 114.573 73.7502C114.846 73.9543 115.187 74.1584 115.505 73.9997C115.823 73.8636 115.527 73.5235 115.573 73.2967C115.664 72.9793 115.732 72.6618 115.823 72.231Z" fill="url(#paint2_linear_35_3411)"/>
<path d="M63.8733 115.405C63.419 113.659 62.8738 111.936 62.4877 110.167C61.8516 107.174 61.5109 104.158 61.3292 101.097C61.2838 100.53 61.4882 100.19 61.9879 99.9178C62.9647 99.419 63.8733 98.8294 64.85 98.3305C65.327 98.0811 65.4406 97.7863 65.3725 97.2648C64.6456 91.7319 64.6002 86.1991 65.2816 80.6663C65.327 80.2128 64.9182 79.3511 65.6451 79.3511C66.1902 79.3511 65.8722 80.2354 65.9176 80.6889C66.4174 86.9928 68.1437 92.9564 71.0285 98.58C71.5056 99.5097 71.392 99.8952 70.4379 100.303C69.4839 100.689 68.1664 100.916 67.7348 101.8C67.3033 102.662 67.7576 103.863 67.8939 104.906C68.2119 107.219 68.5526 109.51 69.5293 111.664C69.7792 113.138 70.5515 114.385 71.2103 115.677C71.4374 116.131 71.6646 116.108 72.0734 115.836C73.6635 114.77 75.2763 113.727 76.9118 112.73C77.2979 112.48 77.3888 112.276 77.2298 111.845C76.7982 110.643 76.4347 109.419 76.0259 108.217C75.5034 105.791 75.0037 103.387 74.822 100.916C74.7538 100.054 74.8674 99.4416 75.7987 99.1922C76.4802 99.0108 76.6846 98.6253 76.6165 97.877C76.2303 93.6821 76.3893 89.5097 77.4569 85.4055C77.5478 85.0427 77.5705 84.6799 77.9112 84.317C78.1384 86.0404 78.1384 87.741 78.5018 89.3964C79.1606 92.5256 80.0691 95.5868 81.5911 98.3986C81.9772 99.1242 81.8182 99.3963 81.1141 99.7137C79.0924 100.643 79.0924 100.666 79.4331 102.911C79.5921 103.954 79.683 104.997 80.0919 105.995C80.2736 107.174 80.7506 108.217 81.1822 109.306C81.4548 110.008 81.7274 110.167 82.477 109.804C85.7706 108.149 89.2234 106.789 92.7442 105.7C93.4938 105.473 94.1298 105.519 94.8113 105.813C97.1964 106.811 98.9908 108.489 100.422 110.598C102.671 113.954 103.92 117.695 104.465 121.641C104.624 122.82 105.147 123.16 106.192 123.296C110.417 123.841 114.301 123.251 117.595 120.19C117.617 121.301 116.89 121.958 116.436 122.843C116.822 122.843 117.14 122.866 117.436 122.843C119.911 122.525 123.841 118.262 123.977 115.791C124 115.496 123.932 115.292 123.637 115.156C120.661 113.818 118.571 111.414 116.186 109.328C113.551 106.97 110.553 105.111 106.873 104.884C106.26 104.838 106.123 104.612 106.033 104.09C105.805 102.888 105.783 101.687 105.896 100.485C106.214 96.6752 107.236 93.0018 108.372 89.3737C108.622 88.5574 109.076 88.1719 109.871 87.9225C112.665 87.0835 115.527 87.0381 118.412 86.9928C121.729 87.4689 125.022 88.0358 128.339 89.419C127.748 88.3079 126.703 87.9905 126.067 87.1061C126.999 86.9701 127.703 87.4009 128.407 87.6957C130.906 88.7614 133.268 90.0766 135.267 92.0041C135.494 92.2308 135.698 92.4576 136.016 92.2081C136.425 91.8907 135.994 91.6866 135.835 91.5052C134.699 90.3034 133.563 89.1469 132.428 87.9678C133.563 87.7637 134.404 88.4893 135.335 88.9429C136.357 89.4417 137.379 90.0313 138.174 90.9156C138.561 91.3691 138.947 91.4598 139.287 90.8249C139.469 90.4621 139.719 90.122 139.923 89.7592C140.491 88.7161 140.764 87.8771 139.583 86.8794C138.015 85.5642 137.357 83.6141 136.993 81.6186C136.834 80.8023 137.084 80.4168 137.97 80.4849C138.492 80.5302 139.015 80.4849 139.855 80.4849C139.197 80.054 138.742 79.7139 138.243 79.4191C134.472 77.1742 130.406 75.6776 126.181 74.5665C125.727 74.4532 125.204 74.4078 124.977 73.8863C124.841 72.6618 124.273 71.596 123.818 70.4849C122.728 67.8092 121.024 65.9271 117.958 65.5417C116.618 65.3829 115.391 64.7027 113.96 64.9294C112.052 65.2242 110.167 65.5417 108.304 66.0859C106.033 66.6528 103.943 67.7185 101.467 68.6482C102.603 67.2196 103.829 66.4033 104.897 65.4056C105.851 64.816 106.782 64.2265 107.782 63.5916C105.76 62.7752 104.056 63.5235 102.375 64.4079C99.2407 65.6097 96.3105 67.2423 93.1531 69.011C94.4251 66.7208 96.2877 65.3149 97.9459 63.7503C98.582 63.4782 99.1726 63.1607 99.7404 62.6392C97.4917 62.3671 95.3337 62.2764 93.1758 62.4351C91.6311 62.4805 90.1092 61.9362 88.4056 62.2764C89.1779 62.9793 89.8821 63.5916 90.5863 64.2265C90.8134 64.4305 91.1087 64.6346 90.8815 64.9521C90.6317 65.2695 90.3818 65.0428 90.1092 64.8841C87.7469 63.5916 85.2255 62.7072 82.636 62.0043C82.2725 61.8909 81.9091 61.9589 81.5456 61.8002C79.6149 61.0746 77.5705 60.9612 75.5261 60.9612C74.822 60.9612 74.6402 61.2333 74.6402 61.8909C74.7084 64.2038 75.14 66.4487 75.9804 68.6029C76.0486 68.8069 76.0259 69.1924 76.412 69.1471C76.7982 69.1017 76.8209 68.7843 76.8436 68.4668C76.9345 67.4918 77.048 66.5167 77.1389 65.5417C77.1843 65.0201 77.3433 64.816 77.9112 64.9067C82.1362 65.587 86.1341 66.8342 89.7004 69.2605C89.8821 69.3965 90.2228 69.4419 90.132 69.85C88.6782 69.6913 87.2926 68.9657 85.6571 69.2151C87.5651 70.1901 87.5651 70.2128 86.9064 72.1629C86.543 73.274 85.9751 74.2944 85.4072 75.3148C84.5895 76.5166 83.5446 77.537 82.4997 78.5348C82.2498 78.7615 81.9772 79.079 81.6138 78.8976C81.2276 78.6935 81.6138 78.376 81.6365 78.1493C81.8182 77.1516 81.8637 76.1765 81.6138 75.2015C81.4548 74.6346 81.2276 74.3398 80.5462 74.3171C78.2292 74.2264 76.3212 74.9747 74.9583 76.9475C74.4585 76.562 74.1632 76.0405 73.8679 75.5416C72.0734 72.4804 70.8923 69.2378 70.6651 65.655C70.5288 63.5235 70.756 63.8637 68.757 63.7503C66.3719 63.6369 66.3719 63.6596 65.4633 65.8138C62.3968 73.1833 58.2626 79.918 53.0382 85.9724C52.4476 86.6526 52.3794 87.0381 53.3107 87.2422C54.8554 87.5823 54.4919 88.6707 54.3784 89.7138C53.4698 98.1491 50.9484 106.04 46.2463 113.183C45.4059 114.453 44.3837 115.541 43.4297 116.698C43.2252 116.925 43.0435 117.265 42.5211 117.242C43.2025 115.519 43.9067 113.909 44.4746 112.253C46.4962 106.312 47.8818 100.235 47.2912 93.9088C46.9959 90.9156 46.4962 87.8998 44.8607 85.2467C44.52 84.6798 44.6336 84.3397 45.0879 83.9089C50.2896 78.7842 53.6288 72.5938 55.764 65.6777C55.9457 65.0881 56.082 64.4532 56.241 63.8637C55.923 63.6369 55.5595 63.7276 55.2415 63.7503C50.7439 63.8637 46.2464 64.0677 41.7488 64.4306C38.2733 64.7027 34.7752 65.0201 31.2998 65.3149C34.2982 62.2083 37.66 59.51 41.1809 57.0156C41.5443 56.7662 41.9078 56.6755 42.3393 56.6528C49.222 56.2673 56.1047 56.5621 62.9647 57.0383C65.3498 57.197 67.7121 57.4692 70.0745 57.7413C70.6424 57.8093 70.7787 57.6506 70.8923 57.129C71.3238 54.9068 71.3466 54.9068 73.5954 55.4057C74.4358 55.5871 75.4126 56.1313 76.0713 55.8819C76.6619 55.6551 76.8663 54.5213 77.2979 53.8411C79.9102 49.8048 79.7511 49.7821 84.5213 50.9159C89.0416 51.9817 92.8578 54.5667 96.4468 57.4011C97.3781 58.1494 98.3321 58.4669 99.5133 58.5122C107.577 58.807 115.527 59.9861 123.341 61.9589C123.932 62.1176 124.318 62.4124 124.636 62.934C126.022 65.3603 127.385 67.7865 128.316 70.4169C128.498 70.9384 128.77 71.1879 129.27 71.3466C136.584 73.5688 142.536 77.9225 147.965 83.0926C148.419 83.5234 148.351 83.9089 148.192 84.4077C147.51 86.4259 146.102 87.8771 144.421 89.0789C143.899 89.4417 143.581 89.8272 143.422 90.4621C142.627 93.2966 140.832 95.36 138.311 96.8113C137.766 97.1287 137.379 97.5142 137.061 98.0358C135.131 101.256 132.337 103.342 128.498 104.362C129.77 101.188 129.838 98.1038 128.975 94.9972C128.702 94.0222 127.794 94.4077 127.18 94.1356C126.976 94.0902 126.794 94.0675 126.59 94.0222C126.567 93.8861 126.476 93.8861 126.363 93.9315C124.114 93.3646 121.82 93.0018 119.503 92.7523C118.844 92.6843 118.412 92.7977 118.049 93.4326C116.799 95.6548 115.845 97.945 115.346 100.462C114.846 102.956 115.618 104.906 117.413 106.539C118.367 107.401 119.366 108.194 120.32 109.079C120.775 109.51 121.206 109.51 121.751 109.283C123.932 108.33 125.522 106.857 126.317 104.362C127.998 106.607 128.157 108.92 127.612 111.346C127.566 111.573 127.544 111.8 127.43 112.004C126.862 112.979 127.362 113.296 128.271 113.342C128.702 113.364 129.066 113.319 128.952 114.022C127.839 120.598 121.547 127.968 112.688 128.013C112.347 128.013 112.029 127.945 111.575 127.899C112.279 127.151 113.392 126.97 113.688 125.791C108.895 127.763 104.056 128.194 99.0363 127.582C99.218 126.811 99.4224 126.085 99.536 125.337C99.854 123.342 99.5814 121.482 98.6956 119.623C97.4008 116.925 95.9243 114.362 93.9935 112.049C93.3575 111.278 92.8805 111.142 91.9492 111.618C82.9313 116.335 75.3671 122.752 68.8933 130.53C66.2129 133.75 63.8051 137.174 61.7153 140.825C61.261 141.641 60.9657 141.573 60.3297 141.097C58.3535 139.645 56.4 138.149 54.4692 136.652C53.7196 136.063 53.7878 135.655 54.2193 134.929C57.2405 129.918 60.9203 125.428 65.2589 121.482C65.8268 120.961 66.0312 120.575 65.6451 119.804C64.9182 118.308 64.4184 116.834 63.8733 115.405ZM131.746 95.4508C131.95 96.902 132.132 98.3306 131.791 99.7364C131.746 99.9178 131.451 100.122 131.701 100.281C131.882 100.394 132.109 100.281 132.314 100.122C133.336 99.2829 134.222 98.3305 134.903 97.1968C135.085 96.8793 135.131 96.6526 134.744 96.5165C133.768 96.1764 132.859 95.6549 131.746 95.4508ZM125.727 108.217C124.954 109.442 124.023 110.19 122.978 110.87C125 112.208 125.181 112.14 125.727 109.85C125.817 109.374 125.886 108.92 125.727 108.217Z" fill="white"/>
<path d="M63.8733 115.405C63.419 113.659 62.8738 111.936 62.4877 110.167C61.8516 107.174 61.5109 104.158 61.3292 101.097C61.2838 100.53 61.4882 100.19 61.9879 99.9178C62.9647 99.419 63.8733 98.8294 64.85 98.3305C65.327 98.0811 65.4406 97.7863 65.3725 97.2648C64.6456 91.7319 64.6002 86.1991 65.2816 80.6663C65.327 80.2128 64.9182 79.3511 65.6451 79.3511C66.1902 79.3511 65.8722 80.2354 65.9176 80.6889C66.4174 86.9928 68.1437 92.9564 71.0285 98.58C71.5056 99.5097 71.392 99.8952 70.4379 100.303C69.4839 100.689 68.1664 100.916 67.7348 101.8C67.3033 102.662 67.7576 103.863 67.8939 104.906C68.2119 107.219 68.5526 109.51 69.5293 111.664C69.7792 113.138 70.5515 114.385 71.2103 115.677C71.4374 116.131 71.6646 116.108 72.0734 115.836C73.6635 114.77 75.2763 113.727 76.9118 112.73C77.2979 112.48 77.3888 112.276 77.2298 111.845C76.7982 110.643 76.4347 109.419 76.0259 108.217C75.5034 105.791 75.0037 103.387 74.822 100.916C74.7538 100.054 74.8674 99.4416 75.7987 99.1922C76.4802 99.0108 76.6846 98.6253 76.6165 97.877C76.2303 93.6821 76.3893 89.5097 77.4569 85.4055C77.5478 85.0427 77.5705 84.6799 77.9112 84.317C78.1384 86.0404 78.1384 87.741 78.5018 89.3964C79.1606 92.5256 80.0691 95.5868 81.5911 98.3986C81.9772 99.1242 81.8182 99.3963 81.1141 99.7137C79.0924 100.643 79.0924 100.666 79.4331 102.911C79.5921 103.954 79.683 104.997 80.0919 105.995C80.2736 107.174 80.7506 108.217 81.1822 109.306C81.4548 110.008 81.7274 110.167 82.477 109.804C85.7706 108.149 89.2234 106.789 92.7442 105.7C93.4938 105.473 94.1298 105.519 94.8113 105.813C97.1964 106.811 98.9908 108.489 100.422 110.598C102.671 113.954 103.92 117.695 104.465 121.641C104.624 122.82 105.147 123.16 106.192 123.296C110.417 123.841 114.301 123.251 117.595 120.19C117.617 121.301 116.89 121.958 116.436 122.843C116.822 122.843 117.14 122.866 117.436 122.843C119.911 122.525 123.841 118.262 123.977 115.791C124 115.496 123.932 115.292 123.637 115.156C120.661 113.818 118.571 111.414 116.186 109.328C113.551 106.97 110.553 105.111 106.873 104.884C106.26 104.838 106.123 104.612 106.033 104.09C105.805 102.888 105.783 101.687 105.896 100.485C106.214 96.6752 107.236 93.0018 108.372 89.3737C108.622 88.5574 109.076 88.1719 109.871 87.9225C112.665 87.0835 115.527 87.0381 118.412 86.9928C121.729 87.4689 125.022 88.0358 128.339 89.419C127.748 88.3079 126.703 87.9905 126.067 87.1061C126.999 86.9701 127.703 87.4009 128.407 87.6957C130.906 88.7614 133.268 90.0766 135.267 92.0041C135.494 92.2308 135.698 92.4576 136.016 92.2081C136.425 91.8907 135.994 91.6866 135.835 91.5052C134.699 90.3034 133.563 89.1469 132.428 87.9678C133.563 87.7637 134.404 88.4893 135.335 88.9429C136.357 89.4417 137.379 90.0313 138.174 90.9156C138.561 91.3691 138.947 91.4598 139.287 90.8249C139.469 90.4621 139.719 90.122 139.923 89.7592C140.491 88.7161 140.764 87.8771 139.583 86.8794C138.015 85.5642 137.357 83.6141 136.993 81.6186C136.834 80.8023 137.084 80.4168 137.97 80.4849C138.492 80.5302 139.015 80.4849 139.855 80.4849C139.197 80.054 138.742 79.7139 138.243 79.4191C134.472 77.1742 130.406 75.6776 126.181 74.5665C125.727 74.4532 125.204 74.4078 124.977 73.8863C124.841 72.6618 124.273 71.596 123.818 70.4849C122.728 67.8092 121.024 65.9271 117.958 65.5417C116.618 65.3829 115.391 64.7027 113.96 64.9294C112.052 65.2242 110.167 65.5417 108.304 66.0859C106.033 66.6528 103.943 67.7185 101.467 68.6482C102.603 67.2196 103.829 66.4033 104.897 65.4056C105.851 64.816 106.782 64.2265 107.782 63.5916C105.76 62.7752 104.056 63.5235 102.375 64.4079C99.2407 65.6097 96.3105 67.2423 93.1531 69.011C94.4251 66.7208 96.2877 65.3149 97.9459 63.7503C98.582 63.4782 99.1726 63.1607 99.7404 62.6392C97.4917 62.3671 95.3337 62.2764 93.1758 62.4351C91.6311 62.4805 90.1092 61.9362 88.4056 62.2764C89.1779 62.9793 89.8821 63.5916 90.5863 64.2265C90.8134 64.4305 91.1087 64.6346 90.8815 64.9521C90.6317 65.2695 90.3818 65.0428 90.1092 64.8841C87.7469 63.5916 85.2255 62.7072 82.636 62.0043C82.2725 61.8909 81.9091 61.9589 81.5456 61.8002C79.6149 61.0746 77.5705 60.9612 75.5261 60.9612C74.822 60.9612 74.6402 61.2333 74.6402 61.8909C74.7084 64.2038 75.14 66.4487 75.9804 68.6029C76.0486 68.8069 76.0259 69.1924 76.412 69.1471C76.7982 69.1017 76.8209 68.7843 76.8436 68.4668C76.9345 67.4918 77.048 66.5167 77.1389 65.5417C77.1843 65.0201 77.3433 64.816 77.9112 64.9067C82.1362 65.587 86.1341 66.8342 89.7004 69.2605C89.8821 69.3965 90.2228 69.4419 90.132 69.85C88.6782 69.6913 87.2926 68.9657 85.6571 69.2151C87.5651 70.1901 87.5651 70.2128 86.9064 72.1629C86.543 73.274 85.9751 74.2944 85.4072 75.3148C84.5895 76.5166 83.5446 77.537 82.4997 78.5348C82.2498 78.7615 81.9772 79.079 81.6138 78.8976C81.2276 78.6935 81.6138 78.376 81.6365 78.1493C81.8182 77.1516 81.8637 76.1765 81.6138 75.2015C81.4548 74.6346 81.2276 74.3398 80.5462 74.3171C78.2292 74.2264 76.3212 74.9747 74.9583 76.9475C74.4585 76.562 74.1632 76.0405 73.8679 75.5416C72.0734 72.4804 70.8923 69.2378 70.6651 65.655C70.5288 63.5235 70.756 63.8637 68.757 63.7503C66.3719 63.6369 66.3719 63.6596 65.4633 65.8138C62.3968 73.1833 58.2626 79.918 53.0382 85.9724C52.4476 86.6526 52.3794 87.0381 53.3107 87.2422C54.8554 87.5823 54.4919 88.6707 54.3784 89.7138C53.4698 98.1491 50.9484 106.04 46.2463 113.183C45.4059 114.453 44.3837 115.541 43.4297 116.698C43.2252 116.925 43.0435 117.265 42.5211 117.242C43.2025 115.519 43.9067 113.909 44.4746 112.253C46.4962 106.312 47.8818 100.235 47.2912 93.9088C46.9959 90.9156 46.4962 87.8998 44.8607 85.2467C44.52 84.6798 44.6336 84.3397 45.0879 83.9089C50.2896 78.7842 53.6288 72.5938 55.764 65.6777C55.9457 65.0881 56.082 64.4532 56.241 63.8637C55.923 63.6369 55.5595 63.7276 55.2415 63.7503C50.7439 63.8637 46.2464 64.0677 41.7488 64.4306C38.2733 64.7027 34.7752 65.0201 31.2998 65.3149C34.2982 62.2083 37.66 59.51 41.1809 57.0156C41.5443 56.7662 41.9078 56.6755 42.3393 56.6528C49.222 56.2673 56.1047 56.5621 62.9647 57.0383C65.3498 57.197 67.7121 57.4692 70.0745 57.7413C70.6424 57.8093 70.7787 57.6506 70.8923 57.129C71.3238 54.9068 71.3466 54.9068 73.5954 55.4057C74.4358 55.5871 75.4126 56.1313 76.0713 55.8819C76.6619 55.6551 76.8663 54.5213 77.2979 53.8411C79.9102 49.8048 79.7511 49.7821 84.5213 50.9159C89.0416 51.9817 92.8578 54.5667 96.4468 57.4011C97.3781 58.1494 98.3321 58.4669 99.5133 58.5122C107.577 58.807 115.527 59.9861 123.341 61.9589C123.932 62.1176 124.318 62.4124 124.636 62.934C126.022 65.3603 127.385 67.7865 128.316 70.4169C128.498 70.9384 128.77 71.1879 129.27 71.3466C136.584 73.5688 142.536 77.9225 147.965 83.0926C148.419 83.5234 148.351 83.9089 148.192 84.4077C147.51 86.4259 146.102 87.8771 144.421 89.0789C143.899 89.4417 143.581 89.8272 143.422 90.4621C142.627 93.2966 140.832 95.36 138.311 96.8113C137.766 97.1287 137.379 97.5142 137.061 98.0358C135.131 101.256 132.337 103.342 128.498 104.362C129.77 101.188 129.838 98.1038 128.975 94.9972C128.702 94.0222 127.794 94.4077 127.18 94.1356C126.976 94.0902 126.794 94.0675 126.59 94.0222C126.567 93.8861 126.476 93.8861 126.363 93.9315C124.114 93.3646 121.82 93.0018 119.503 92.7523C118.844 92.6843 118.412 92.7977 118.049 93.4326C116.799 95.6548 115.845 97.945 115.346 100.462C114.846 102.956 115.618 104.906 117.413 106.539C118.367 107.401 119.366 108.194 120.32 109.079C120.775 109.51 121.206 109.51 121.751 109.283C123.932 108.33 125.522 106.857 126.317 104.362C127.998 106.607 128.157 108.92 127.612 111.346C127.566 111.573 127.544 111.8 127.43 112.004C126.862 112.979 127.362 113.296 128.271 113.342C128.702 113.364 129.066 113.319 128.952 114.022C127.839 120.598 121.547 127.968 112.688 128.013C112.347 128.013 112.029 127.945 111.575 127.899C112.279 127.151 113.392 126.97 113.688 125.791C108.895 127.763 104.056 128.194 99.0363 127.582C99.218 126.811 99.4224 126.085 99.536 125.337C99.854 123.342 99.5814 121.482 98.6956 119.623C97.4008 116.925 95.9243 114.362 93.9935 112.049C93.3575 111.278 92.8805 111.142 91.9492 111.618C82.9313 116.335 75.3671 122.752 68.8933 130.53C66.2129 133.75 63.8051 137.174 61.7153 140.825C61.261 141.641 60.9657 141.573 60.3297 141.097C58.3535 139.645 56.4 138.149 54.4692 136.652C53.7196 136.063 53.7878 135.655 54.2193 134.929C57.2405 129.918 60.9203 125.428 65.2589 121.482C65.8268 120.961 66.0312 120.575 65.6451 119.804C64.9182 118.308 64.4184 116.834 63.8733 115.405ZM131.746 95.4508C131.95 96.902 132.132 98.3306 131.791 99.7364C131.746 99.9178 131.451 100.122 131.701 100.281C131.882 100.394 132.109 100.281 132.314 100.122C133.336 99.2829 134.222 98.3305 134.903 97.1968C135.085 96.8793 135.131 96.6526 134.744 96.5165C133.768 96.1764 132.859 95.6549 131.746 95.4508ZM125.727 108.217C124.954 109.442 124.023 110.19 122.978 110.87C125 112.208 125.181 112.14 125.727 109.85C125.817 109.374 125.886 108.92 125.727 108.217Z" fill="black"/>
<path d="M63.8733 115.405C63.419 113.659 62.8738 111.936 62.4877 110.167C61.8516 107.174 61.5109 104.158 61.3292 101.097C61.2838 100.53 61.4882 100.19 61.9879 99.9178C62.9647 99.419 63.8733 98.8294 64.85 98.3305C65.327 98.0811 65.4406 97.7863 65.3725 97.2648C64.6456 91.7319 64.6002 86.1991 65.2816 80.6663C65.327 80.2128 64.9182 79.3511 65.6451 79.3511C66.1902 79.3511 65.8722 80.2354 65.9176 80.6889C66.4174 86.9928 68.1437 92.9564 71.0285 98.58C71.5056 99.5097 71.392 99.8952 70.4379 100.303C69.4839 100.689 68.1664 100.916 67.7348 101.8C67.3033 102.662 67.7576 103.863 67.8939 104.906C68.2119 107.219 68.5526 109.51 69.5293 111.664C69.7792 113.138 70.5515 114.385 71.2103 115.677C71.4374 116.131 71.6646 116.108 72.0734 115.836C73.6635 114.77 75.2763 113.727 76.9118 112.73C77.2979 112.48 77.3888 112.276 77.2298 111.845C76.7982 110.643 76.4347 109.419 76.0259 108.217C75.5034 105.791 75.0037 103.387 74.822 100.916C74.7538 100.054 74.8674 99.4416 75.7987 99.1922C76.4802 99.0108 76.6846 98.6253 76.6165 97.877C76.2303 93.6821 76.3893 89.5097 77.4569 85.4055C77.5478 85.0427 77.5705 84.6799 77.9112 84.317C78.1384 86.0404 78.1384 87.741 78.5018 89.3964C79.1606 92.5256 80.0691 95.5868 81.5911 98.3986C81.9772 99.1242 81.8182 99.3963 81.1141 99.7137C79.0924 100.643 79.0924 100.666 79.4331 102.911C79.5921 103.954 79.683 104.997 80.0919 105.995C80.2736 107.174 80.7506 108.217 81.1822 109.306C81.4548 110.008 81.7274 110.167 82.477 109.804C85.7706 108.149 89.2234 106.789 92.7442 105.7C93.4938 105.473 94.1298 105.519 94.8113 105.813C97.1964 106.811 98.9908 108.489 100.422 110.598C102.671 113.954 103.92 117.695 104.465 121.641C104.624 122.82 105.147 123.16 106.192 123.296C110.417 123.841 114.301 123.251 117.595 120.19C117.617 121.301 116.89 121.958 116.436 122.843C116.822 122.843 117.14 122.866 117.436 122.843C119.911 122.525 123.841 118.262 123.977 115.791C124 115.496 123.932 115.292 123.637 115.156C120.661 113.818 118.571 111.414 116.186 109.328C113.551 106.97 110.553 105.111 106.873 104.884C106.26 104.838 106.123 104.612 106.033 104.09C105.805 102.888 105.783 101.687 105.896 100.485C106.214 96.6752 107.236 93.0018 108.372 89.3737C108.622 88.5574 109.076 88.1719 109.871 87.9225C112.665 87.0835 115.527 87.0381 118.412 86.9928C121.729 87.4689 125.022 88.0358 128.339 89.419C127.748 88.3079 126.703 87.9905 126.067 87.1061C126.999 86.9701 127.703 87.4009 128.407 87.6957C130.906 88.7614 133.268 90.0766 135.267 92.0041C135.494 92.2308 135.698 92.4576 136.016 92.2081C136.425 91.8907 135.994 91.6866 135.835 91.5052C134.699 90.3034 133.563 89.1469 132.428 87.9678C133.563 87.7637 134.404 88.4893 135.335 88.9429C136.357 89.4417 137.379 90.0313 138.174 90.9156C138.561 91.3691 138.947 91.4598 139.287 90.8249C139.469 90.4621 139.719 90.122 139.923 89.7592C140.491 88.7161 140.764 87.8771 139.583 86.8794C138.015 85.5642 137.357 83.6141 136.993 81.6186C136.834 80.8023 137.084 80.4168 137.97 80.4849C138.492 80.5302 139.015 80.4849 139.855 80.4849C139.197 80.054 138.742 79.7139 138.243 79.4191C134.472 77.1742 130.406 75.6776 126.181 74.5665C125.727 74.4532 125.204 74.4078 124.977 73.8863C124.841 72.6618 124.273 71.596 123.818 70.4849C122.728 67.8092 121.024 65.9271 117.958 65.5417C116.618 65.3829 115.391 64.7027 113.96 64.9294C112.052 65.2242 110.167 65.5417 108.304 66.0859C106.033 66.6528 103.943 67.7185 101.467 68.6482C102.603 67.2196 103.829 66.4033 104.897 65.4056C105.851 64.816 106.782 64.2265 107.782 63.5916C105.76 62.7752 104.056 63.5235 102.375 64.4079C99.2407 65.6097 96.3105 67.2423 93.1531 69.011C94.4251 66.7208 96.2877 65.3149 97.9459 63.7503C98.582 63.4782 99.1726 63.1607 99.7404 62.6392C97.4917 62.3671 95.3337 62.2764 93.1758 62.4351C91.6311 62.4805 90.1092 61.9362 88.4056 62.2764C89.1779 62.9793 89.8821 63.5916 90.5863 64.2265C90.8134 64.4305 91.1087 64.6346 90.8815 64.9521C90.6317 65.2695 90.3818 65.0428 90.1092 64.8841C87.7469 63.5916 85.2255 62.7072 82.636 62.0043C82.2725 61.8909 81.9091 61.9589 81.5456 61.8002C79.6149 61.0746 77.5705 60.9612 75.5261 60.9612C74.822 60.9612 74.6402 61.2333 74.6402 61.8909C74.7084 64.2038 75.14 66.4487 75.9804 68.6029C76.0486 68.8069 76.0259 69.1924 76.412 69.1471C76.7982 69.1017 76.8209 68.7843 76.8436 68.4668C76.9345 67.4918 77.048 66.5167 77.1389 65.5417C77.1843 65.0201 77.3433 64.816 77.9112 64.9067C82.1362 65.587 86.1341 66.8342 89.7004 69.2605C89.8821 69.3965 90.2228 69.4419 90.132 69.85C88.6782 69.6913 87.2926 68.9657 85.6571 69.2151C87.5651 70.1901 87.5651 70.2128 86.9064 72.1629C86.543 73.274 85.9751 74.2944 85.4072 75.3148C84.5895 76.5166 83.5446 77.537 82.4997 78.5348C82.2498 78.7615 81.9772 79.079 81.6138 78.8976C81.2276 78.6935 81.6138 78.376 81.6365 78.1493C81.8182 77.1516 81.8637 76.1765 81.6138 75.2015C81.4548 74.6346 81.2276 74.3398 80.5462 74.3171C78.2292 74.2264 76.3212 74.9747 74.9583 76.9475C74.4585 76.562 74.1632 76.0405 73.8679 75.5416C72.0734 72.4804 70.8923 69.2378 70.6651 65.655C70.5288 63.5235 70.756 63.8637 68.757 63.7503C66.3719 63.6369 66.3719 63.6596 65.4633 65.8138C62.3968 73.1833 58.2626 79.918 53.0382 85.9724C52.4476 86.6526 52.3794 87.0381 53.3107 87.2422C54.8554 87.5823 54.4919 88.6707 54.3784 89.7138C53.4698 98.1491 50.9484 106.04 46.2463 113.183C45.4059 114.453 44.3837 115.541 43.4297 116.698C43.2252 116.925 43.0435 117.265 42.5211 117.242C43.2025 115.519 43.9067 113.909 44.4746 112.253C46.4962 106.312 47.8818 100.235 47.2912 93.9088C46.9959 90.9156 46.4962 87.8998 44.8607 85.2467C44.52 84.6798 44.6336 84.3397 45.0879 83.9089C50.2896 78.7842 53.6288 72.5938 55.764 65.6777C55.9457 65.0881 56.082 64.4532 56.241 63.8637C55.923 63.6369 55.5595 63.7276 55.2415 63.7503C50.7439 63.8637 46.2464 64.0677 41.7488 64.4306C38.2733 64.7027 34.7752 65.0201 31.2998 65.3149C34.2982 62.2083 37.66 59.51 41.1809 57.0156C41.5443 56.7662 41.9078 56.6755 42.3393 56.6528C49.222 56.2673 56.1047 56.5621 62.9647 57.0383C65.3498 57.197 67.7121 57.4692 70.0745 57.7413C70.6424 57.8093 70.7787 57.6506 70.8923 57.129C71.3238 54.9068 71.3466 54.9068 73.5954 55.4057C74.4358 55.5871 75.4126 56.1313 76.0713 55.8819C76.6619 55.6551 76.8663 54.5213 77.2979 53.8411C79.9102 49.8048 79.7511 49.7821 84.5213 50.9159C89.0416 51.9817 92.8578 54.5667 96.4468 57.4011C97.3781 58.1494 98.3321 58.4669 99.5133 58.5122C107.577 58.807 115.527 59.9861 123.341 61.9589C123.932 62.1176 124.318 62.4124 124.636 62.934C126.022 65.3603 127.385 67.7865 128.316 70.4169C128.498 70.9384 128.77 71.1879 129.27 71.3466C136.584 73.5688 142.536 77.9225 147.965 83.0926C148.419 83.5234 148.351 83.9089 148.192 84.4077C147.51 86.4259 146.102 87.8771 144.421 89.0789C143.899 89.4417 143.581 89.8272 143.422 90.4621C142.627 93.2966 140.832 95.36 138.311 96.8113C137.766 97.1287 137.379 97.5142 137.061 98.0358C135.131 101.256 132.337 103.342 128.498 104.362C129.77 101.188 129.838 98.1038 128.975 94.9972C128.702 94.0222 127.794 94.4077 127.18 94.1356C126.976 94.0902 126.794 94.0675 126.59 94.0222C126.567 93.8861 126.476 93.8861 126.363 93.9315C124.114 93.3646 121.82 93.0018 119.503 92.7523C118.844 92.6843 118.412 92.7977 118.049 93.4326C116.799 95.6548 115.845 97.945 115.346 100.462C114.846 102.956 115.618 104.906 117.413 106.539C118.367 107.401 119.366 108.194 120.32 109.079C120.775 109.51 121.206 109.51 121.751 109.283C123.932 108.33 125.522 106.857 126.317 104.362C127.998 106.607 128.157 108.92 127.612 111.346C127.566 111.573 127.544 111.8 127.43 112.004C126.862 112.979 127.362 113.296 128.271 113.342C128.702 113.364 129.066 113.319 128.952 114.022C127.839 120.598 121.547 127.968 112.688 128.013C112.347 128.013 112.029 127.945 111.575 127.899C112.279 127.151 113.392 126.97 113.688 125.791C108.895 127.763 104.056 128.194 99.0363 127.582C99.218 126.811 99.4224 126.085 99.536 125.337C99.854 123.342 99.5814 121.482 98.6956 119.623C97.4008 116.925 95.9243 114.362 93.9935 112.049C93.3575 111.278 92.8805 111.142 91.9492 111.618C82.9313 116.335 75.3671 122.752 68.8933 130.53C66.2129 133.75 63.8051 137.174 61.7153 140.825C61.261 141.641 60.9657 141.573 60.3297 141.097C58.3535 139.645 56.4 138.149 54.4692 136.652C53.7196 136.063 53.7878 135.655 54.2193 134.929C57.2405 129.918 60.9203 125.428 65.2589 121.482C65.8268 120.961 66.0312 120.575 65.6451 119.804C64.9182 118.308 64.4184 116.834 63.8733 115.405ZM131.746 95.4508C131.95 96.902 132.132 98.3306 131.791 99.7364C131.746 99.9178 131.451 100.122 131.701 100.281C131.882 100.394 132.109 100.281 132.314 100.122C133.336 99.2829 134.222 98.3305 134.903 97.1968C135.085 96.8793 135.131 96.6526 134.744 96.5165C133.768 96.1764 132.859 95.6549 131.746 95.4508ZM125.727 108.217C124.954 109.442 124.023 110.19 122.978 110.87C125 112.208 125.181 112.14 125.727 109.85C125.817 109.374 125.886 108.92 125.727 108.217Z" fill="#FBB603"/>
<path d="M63.8733 115.405C63.419 113.659 62.8738 111.936 62.4877 110.167C61.8516 107.174 61.5109 104.158 61.3292 101.097C61.2838 100.53 61.4882 100.19 61.9879 99.9178C62.9647 99.419 63.8733 98.8294 64.85 98.3305C65.327 98.0811 65.4406 97.7863 65.3725 97.2648C64.6456 91.7319 64.6002 86.1991 65.2816 80.6663C65.327 80.2128 64.9182 79.3511 65.6451 79.3511C66.1902 79.3511 65.8722 80.2354 65.9176 80.6889C66.4174 86.9928 68.1437 92.9564 71.0285 98.58C71.5056 99.5097 71.392 99.8952 70.4379 100.303C69.4839 100.689 68.1664 100.916 67.7348 101.8C67.3033 102.662 67.7576 103.863 67.8939 104.906C68.2119 107.219 68.5526 109.51 69.5293 111.664C69.7792 113.138 70.5515 114.385 71.2103 115.677C71.4374 116.131 71.6646 116.108 72.0734 115.836C73.6635 114.77 75.2763 113.727 76.9118 112.73C77.2979 112.48 77.3888 112.276 77.2298 111.845C76.7982 110.643 76.4347 109.419 76.0259 108.217C75.5034 105.791 75.0037 103.387 74.822 100.916C74.7538 100.054 74.8674 99.4416 75.7987 99.1922C76.4802 99.0108 76.6846 98.6253 76.6165 97.877C76.2303 93.6821 76.3893 89.5097 77.4569 85.4055C77.5478 85.0427 77.5705 84.6799 77.9112 84.317C78.1384 86.0404 78.1384 87.741 78.5018 89.3964C79.1606 92.5256 80.0691 95.5868 81.5911 98.3986C81.9772 99.1242 81.8182 99.3963 81.1141 99.7137C79.0924 100.643 79.0924 100.666 79.4331 102.911C79.5921 103.954 79.683 104.997 80.0919 105.995C80.2736 107.174 80.7506 108.217 81.1822 109.306C81.4548 110.008 81.7274 110.167 82.477 109.804C85.7706 108.149 89.2234 106.789 92.7442 105.7C93.4938 105.473 94.1298 105.519 94.8113 105.813C97.1964 106.811 98.9908 108.489 100.422 110.598C102.671 113.954 103.92 117.695 104.465 121.641C104.624 122.82 105.147 123.16 106.192 123.296C110.417 123.841 114.301 123.251 117.595 120.19C117.617 121.301 116.89 121.958 116.436 122.843C116.822 122.843 117.14 122.866 117.436 122.843C119.911 122.525 123.841 118.262 123.977 115.791C124 115.496 123.932 115.292 123.637 115.156C120.661 113.818 118.571 111.414 116.186 109.328C113.551 106.97 110.553 105.111 106.873 104.884C106.26 104.838 106.123 104.612 106.033 104.09C105.805 102.888 105.783 101.687 105.896 100.485C106.214 96.6752 107.236 93.0018 108.372 89.3737C108.622 88.5574 109.076 88.1719 109.871 87.9225C112.665 87.0835 115.527 87.0381 118.412 86.9928C121.729 87.4689 125.022 88.0358 128.339 89.419C127.748 88.3079 126.703 87.9905 126.067 87.1061C126.999 86.9701 127.703 87.4009 128.407 87.6957C130.906 88.7614 133.268 90.0766 135.267 92.0041C135.494 92.2308 135.698 92.4576 136.016 92.2081C136.425 91.8907 135.994 91.6866 135.835 91.5052C134.699 90.3034 133.563 89.1469 132.428 87.9678C133.563 87.7637 134.404 88.4893 135.335 88.9429C136.357 89.4417 137.379 90.0313 138.174 90.9156C138.561 91.3691 138.947 91.4598 139.287 90.8249C139.469 90.4621 139.719 90.122 139.923 89.7592C140.491 88.7161 140.764 87.8771 139.583 86.8794C138.015 85.5642 137.357 83.6141 136.993 81.6186C136.834 80.8023 137.084 80.4168 137.97 80.4849C138.492 80.5302 139.015 80.4849 139.855 80.4849C139.197 80.054 138.742 79.7139 138.243 79.4191C134.472 77.1742 130.406 75.6776 126.181 74.5665C125.727 74.4532 125.204 74.4078 124.977 73.8863C124.841 72.6618 124.273 71.596 123.818 70.4849C122.728 67.8092 121.024 65.9271 117.958 65.5417C116.618 65.3829 115.391 64.7027 113.96 64.9294C112.052 65.2242 110.167 65.5417 108.304 66.0859C106.033 66.6528 103.943 67.7185 101.467 68.6482C102.603 67.2196 103.829 66.4033 104.897 65.4056C105.851 64.816 106.782 64.2265 107.782 63.5916C105.76 62.7752 104.056 63.5235 102.375 64.4079C99.2407 65.6097 96.3105 67.2423 93.1531 69.011C94.4251 66.7208 96.2877 65.3149 97.9459 63.7503C98.582 63.4782 99.1726 63.1607 99.7404 62.6392C97.4917 62.3671 95.3337 62.2764 93.1758 62.4351C91.6311 62.4805 90.1092 61.9362 88.4056 62.2764C89.1779 62.9793 89.8821 63.5916 90.5863 64.2265C90.8134 64.4305 91.1087 64.6346 90.8815 64.9521C90.6317 65.2695 90.3818 65.0428 90.1092 64.8841C87.7469 63.5916 85.2255 62.7072 82.636 62.0043C82.2725 61.8909 81.9091 61.9589 81.5456 61.8002C79.6149 61.0746 77.5705 60.9612 75.5261 60.9612C74.822 60.9612 74.6402 61.2333 74.6402 61.8909C74.7084 64.2038 75.14 66.4487 75.9804 68.6029C76.0486 68.8069 76.0259 69.1924 76.412 69.1471C76.7982 69.1017 76.8209 68.7843 76.8436 68.4668C76.9345 67.4918 77.048 66.5167 77.1389 65.5417C77.1843 65.0201 77.3433 64.816 77.9112 64.9067C82.1362 65.587 86.1341 66.8342 89.7004 69.2605C89.8821 69.3965 90.2228 69.4419 90.132 69.85C88.6782 69.6913 87.2926 68.9657 85.6571 69.2151C87.5651 70.1901 87.5651 70.2128 86.9064 72.1629C86.543 73.274 85.9751 74.2944 85.4072 75.3148C84.5895 76.5166 83.5446 77.537 82.4997 78.5348C82.2498 78.7615 81.9772 79.079 81.6138 78.8976C81.2276 78.6935 81.6138 78.376 81.6365 78.1493C81.8182 77.1516 81.8637 76.1765 81.6138 75.2015C81.4548 74.6346 81.2276 74.3398 80.5462 74.3171C78.2292 74.2264 76.3212 74.9747 74.9583 76.9475C74.4585 76.562 74.1632 76.0405 73.8679 75.5416C72.0734 72.4804 70.8923 69.2378 70.6651 65.655C70.5288 63.5235 70.756 63.8637 68.757 63.7503C66.3719 63.6369 66.3719 63.6596 65.4633 65.8138C62.3968 73.1833 58.2626 79.918 53.0382 85.9724C52.4476 86.6526 52.3794 87.0381 53.3107 87.2422C54.8554 87.5823 54.4919 88.6707 54.3784 89.7138C53.4698 98.1491 50.9484 106.04 46.2463 113.183C45.4059 114.453 44.3837 115.541 43.4297 116.698C43.2252 116.925 43.0435 117.265 42.5211 117.242C43.2025 115.519 43.9067 113.909 44.4746 112.253C46.4962 106.312 47.8818 100.235 47.2912 93.9088C46.9959 90.9156 46.4962 87.8998 44.8607 85.2467C44.52 84.6798 44.6336 84.3397 45.0879 83.9089C50.2896 78.7842 53.6288 72.5938 55.764 65.6777C55.9457 65.0881 56.082 64.4532 56.241 63.8637C55.923 63.6369 55.5595 63.7276 55.2415 63.7503C50.7439 63.8637 46.2464 64.0677 41.7488 64.4306C38.2733 64.7027 34.7752 65.0201 31.2998 65.3149C34.2982 62.2083 37.66 59.51 41.1809 57.0156C41.5443 56.7662 41.9078 56.6755 42.3393 56.6528C49.222 56.2673 56.1047 56.5621 62.9647 57.0383C65.3498 57.197 67.7121 57.4692 70.0745 57.7413C70.6424 57.8093 70.7787 57.6506 70.8923 57.129C71.3238 54.9068 71.3466 54.9068 73.5954 55.4057C74.4358 55.5871 75.4126 56.1313 76.0713 55.8819C76.6619 55.6551 76.8663 54.5213 77.2979 53.8411C79.9102 49.8048 79.7511 49.7821 84.5213 50.9159C89.0416 51.9817 92.8578 54.5667 96.4468 57.4011C97.3781 58.1494 98.3321 58.4669 99.5133 58.5122C107.577 58.807 115.527 59.9861 123.341 61.9589C123.932 62.1176 124.318 62.4124 124.636 62.934C126.022 65.3603 127.385 67.7865 128.316 70.4169C128.498 70.9384 128.77 71.1879 129.27 71.3466C136.584 73.5688 142.536 77.9225 147.965 83.0926C148.419 83.5234 148.351 83.9089 148.192 84.4077C147.51 86.4259 146.102 87.8771 144.421 89.0789C143.899 89.4417 143.581 89.8272 143.422 90.4621C142.627 93.2966 140.832 95.36 138.311 96.8113C137.766 97.1287 137.379 97.5142 137.061 98.0358C135.131 101.256 132.337 103.342 128.498 104.362C129.77 101.188 129.838 98.1038 128.975 94.9972C128.702 94.0222 127.794 94.4077 127.18 94.1356C126.976 94.0902 126.794 94.0675 126.59 94.0222C126.567 93.8861 126.476 93.8861 126.363 93.9315C124.114 93.3646 121.82 93.0018 119.503 92.7523C118.844 92.6843 118.412 92.7977 118.049 93.4326C116.799 95.6548 115.845 97.945 115.346 100.462C114.846 102.956 115.618 104.906 117.413 106.539C118.367 107.401 119.366 108.194 120.32 109.079C120.775 109.51 121.206 109.51 121.751 109.283C123.932 108.33 125.522 106.857 126.317 104.362C127.998 106.607 128.157 108.92 127.612 111.346C127.566 111.573 127.544 111.8 127.43 112.004C126.862 112.979 127.362 113.296 128.271 113.342C128.702 113.364 129.066 113.319 128.952 114.022C127.839 120.598 121.547 127.968 112.688 128.013C112.347 128.013 112.029 127.945 111.575 127.899C112.279 127.151 113.392 126.97 113.688 125.791C108.895 127.763 104.056 128.194 99.0363 127.582C99.218 126.811 99.4224 126.085 99.536 125.337C99.854 123.342 99.5814 121.482 98.6956 119.623C97.4008 116.925 95.9243 114.362 93.9935 112.049C93.3575 111.278 92.8805 111.142 91.9492 111.618C82.9313 116.335 75.3671 122.752 68.8933 130.53C66.2129 133.75 63.8051 137.174 61.7153 140.825C61.261 141.641 60.9657 141.573 60.3297 141.097C58.3535 139.645 56.4 138.149 54.4692 136.652C53.7196 136.063 53.7878 135.655 54.2193 134.929C57.2405 129.918 60.9203 125.428 65.2589 121.482C65.8268 120.961 66.0312 120.575 65.6451 119.804C64.9182 118.308 64.4184 116.834 63.8733 115.405ZM131.746 95.4508C131.95 96.902 132.132 98.3306 131.791 99.7364C131.746 99.9178 131.451 100.122 131.701 100.281C131.882 100.394 132.109 100.281 132.314 100.122C133.336 99.2829 134.222 98.3305 134.903 97.1968C135.085 96.8793 135.131 96.6526 134.744 96.5165C133.768 96.1764 132.859 95.6549 131.746 95.4508ZM125.727 108.217C124.954 109.442 124.023 110.19 122.978 110.87C125 112.208 125.181 112.14 125.727 109.85C125.817 109.374 125.886 108.92 125.727 108.217Z" fill="url(#paint3_linear_35_3411)"/>
</g>
<path d="M96.0957 32.8301C127.395 32.8301 152.768 58.2028 152.769 89.502C152.769 120.801 127.395 146.175 96.0957 146.175C64.7965 146.175 39.4238 120.801 39.4238 89.502C39.4239 58.2028 64.7966 32.8302 96.0957 32.8301Z" stroke="white" stroke-width="1.61659"/>
</g>
</g>
<defs>
<linearGradient id="paint0_linear_35_3411" x1="50.3325" y1="44.075" x2="140.515" y2="135.937" gradientUnits="userSpaceOnUse">
<stop stop-color="#020202"/>
<stop offset="0.33" stop-color="#0049AD"/>
<stop offset="1"/>
</linearGradient>
<linearGradient id="paint1_linear_35_3411" x1="58.7991" y1="50.2727" x2="135.711" y2="127.185" gradientUnits="userSpaceOnUse">
<stop stop-color="#FBB603"/>
<stop offset="0.315" stop-color="white"/>
<stop offset="0.685" stop-color="#FBB603"/>
<stop offset="1" stop-color="white"/>
</linearGradient>
<linearGradient id="paint2_linear_35_3411" x1="58.7991" y1="50.2727" x2="135.711" y2="127.185" gradientUnits="userSpaceOnUse">
<stop stop-color="#FBB603"/>
<stop offset="0.315" stop-color="white"/>
<stop offset="0.685" stop-color="#FBB603"/>
<stop offset="1" stop-color="white"/>
</linearGradient>
<linearGradient id="paint3_linear_35_3411" x1="58.7991" y1="50.2727" x2="135.711" y2="127.185" gradientUnits="userSpaceOnUse">
<stop stop-color="#FBB603"/>
<stop offset="0.315" stop-color="white"/>
<stop offset="0.685" stop-color="#FBB603"/>
<stop offset="1" stop-color="white"/>
</linearGradient>
<clipPath id="clip0_35_3411">
<rect width="192" height="192" fill="white" transform="translate(0.5 0.5)"/>
</clipPath>
</defs>
</svg>
