<svg width="1244" height="200" viewBox="0 0 1244 200" fill="none" xmlns="http://www.w3.org/2000/svg">
<g clip-path="url(#clip0_38_104)">
<g clip-path="url(#clip1_38_104)">
<path d="M872.787 33.6489C882.65 70.458 779.341 130.122 642.039 166.912C504.737 203.702 385.435 203.686 375.572 166.877C365.71 130.068 469.02 70.404 606.322 33.6141C743.624 -3.17572 862.924 -3.15996 872.787 33.6489ZM838.54 42.8253C829.678 9.75074 726.521 8.65377 608.134 40.3755C489.746 72.0974 400.958 124.626 409.819 157.701C418.682 190.776 521.839 191.872 640.227 160.15C758.615 128.428 847.403 75.9002 838.54 42.8253Z" fill="url(#paint0_linear_38_104)"/>
<path d="M831.922 44.5986C840.164 75.3572 753.836 125.214 639.104 155.956C524.37 186.699 424.679 186.686 416.438 155.927C408.196 125.169 494.525 75.3119 609.257 44.5693C723.99 13.8269 823.68 13.8402 831.922 44.5986ZM803.305 52.2666C795.899 24.6287 709.699 23.7121 610.771 50.2196C511.844 76.7272 437.65 120.621 445.055 148.259C452.461 175.898 538.662 176.815 637.59 150.307C736.518 123.799 810.711 79.9048 803.305 52.2666Z" fill="url(#paint1_linear_38_104)"/>
</g>
<g clip-path="url(#clip2_38_104)">
<path d="M296.368 11.44L297.904 7.936C298.32 7.232 298.896 6.64 299.632 6.16C300.368 5.68 301.392 5.44 302.704 5.44H315.952L313.36 11.44H296.368ZM289.936 34C289.392 34 288.832 33.856 288.256 33.568C287.84 33.248 287.632 32.768 287.632 32.128C287.632 31.52 287.808 30.816 288.16 30.016L294.4 16.048H301.84L296.848 27.28H306.304L303.424 34H289.936ZM315.423 11.44L316.575 8.848C317.023 7.824 317.663 7.008 318.495 6.4C319.327 5.76 320.399 5.44 321.711 5.44H335.535C336.303 5.44 337.103 5.712 337.935 6.256C338.767 6.8 339.183 7.44 339.183 8.176L339.039 8.896L337.887 11.44H315.423ZM335.919 16L329.775 29.92C329.295 31.072 328.559 32.048 327.567 32.848C326.703 33.616 325.583 34 324.207 34H309.375C308.927 34 308.415 33.696 307.839 33.088C307.359 32.448 307.119 31.712 307.119 30.88C307.119 30.624 307.215 30.176 307.407 29.536L313.407 16H320.895L317.103 24.544L316.911 25.408C316.911 25.92 317.023 26.352 317.247 26.704C317.503 26.992 317.759 27.184 318.015 27.28H321.087C321.823 27.28 322.479 27.056 323.055 26.608C323.663 26.128 324.207 25.424 324.687 24.496L328.479 16H335.919ZM343.585 5.44H355.921C357.265 5.44 358.289 5.616 358.993 5.968C359.697 6.32 360.049 6.784 360.049 7.36L359.905 7.936C360.673 6.816 361.329 6.128 361.873 5.872C362.449 5.584 363.137 5.44 363.937 5.44H373.249C374.273 5.44 375.089 5.696 375.697 6.208C376.337 6.688 376.657 7.488 376.657 8.608V9.52L376.417 10.48C376.417 10.704 376.337 10.976 376.177 11.296L375.649 12.592L366.337 34H358.897L367.825 13.696L368.065 12.736C368.065 11.872 367.121 11.44 365.233 11.44H362.257L352.273 34H344.833L354.001 13.216L354.193 12.4C354.193 11.76 353.057 11.44 350.785 11.44H340.897L343.585 5.44ZM346.369 16L338.449 34H330.913L338.929 16H346.369ZM378.132 16H389.46C390.26 16 390.916 15.6 391.428 14.8L392.388 12.64C392.58 12.256 392.484 11.984 392.1 11.824C391.716 11.632 391.316 11.504 390.9 11.44H380.1L382.788 5.44H399.348C400.02 5.44 400.628 5.648 401.172 6.064C401.716 6.448 401.988 6.96 401.988 7.6L401.844 8.32L396.9 19.216C396.548 20.08 396.132 20.752 395.652 21.232C395.236 21.744 394.196 22 392.532 22H382.932L377.652 34H370.116L378.132 16ZM425.853 5.44L415.005 29.92C414.429 31.072 413.693 32.048 412.797 32.848C411.933 33.616 410.781 34 409.341 34H396.765C396.349 34 395.853 33.696 395.277 33.088C395.117 32.896 394.973 32.672 394.845 32.416C394.621 31.968 394.509 31.456 394.509 30.88C394.509 30.624 394.605 30.176 394.797 29.536L405.549 5.44H412.989L404.493 24.544L404.157 25.984C404.157 26.464 404.285 26.816 404.541 27.04L405.501 27.28H406.317C407.117 27.28 407.757 27.104 408.237 26.752C408.749 26.368 409.293 25.616 409.869 24.496L418.317 5.44H425.853ZM420.603 34L428.619 16H436.011L428.139 34H420.603ZM425.739 11.44L428.475 5.44H446.379L443.786 11.44H425.739ZM437.85 34L450.474 5.44H466.794C467.242 5.44 467.85 5.728 468.618 6.304C469.258 6.88 469.578 7.536 469.578 8.272C469.578 8.592 469.514 8.88 469.386 9.136L465.93 16.96C465.546 17.856 464.906 18.656 464.01 19.36C463.082 19.904 461.978 20.176 460.698 20.176C461.178 20.176 461.69 20.432 462.234 20.944C462.778 21.424 463.05 22.048 463.05 22.816C463.05 23.168 462.986 23.488 462.858 23.776L458.346 34H450.954L455.082 24.64L455.274 23.872L455.466 23.056C455.466 22.384 455.178 22.048 454.602 22.048H450.618L445.338 34H437.85ZM457.098 16.048L458.298 15.904C458.618 15.808 458.922 15.6 459.21 15.28L460.266 12.88L460.41 12.4C460.41 11.76 459.882 11.44 458.826 11.44H455.322L453.21 16.048H457.098ZM461.602 34L474.226 5.44H493.426L490.738 11.44H479.074L476.578 16.96H488.386L485.698 22.96H473.986L472.018 27.28H483.826L480.802 34H461.602ZM484.818 34L497.442 5.44H504.882L500.226 16L509.49 5.44H518.466L505.266 20.752L509.25 34H502.146L498.162 20.752L497.586 22L492.306 34H484.818Z" fill="#3279BE"/>
<path d="M756.424 193L771.928 175H778.36L768.664 186.28H777.016L781.48 172.216C781.64 171.64 781.448 171.208 780.904 170.92C780.392 170.6 779.88 170.44 779.368 170.44H771.688L774.376 164.44H788.536C789.08 164.44 789.528 164.616 789.88 164.968C790.232 165.32 790.408 165.816 790.408 166.456C790.408 166.84 790.344 167.208 790.216 167.56L782.056 193H756.424ZM811.485 170.44H802.029L794.973 186.28H804.429L801.549 193H788.061C787.517 193 786.957 192.856 786.381 192.568C785.965 192.248 785.757 191.768 785.757 191.128C785.757 190.52 785.933 189.816 786.285 189.016L796.029 166.936C796.445 166.232 797.021 165.64 797.757 165.16C798.493 164.68 799.517 164.44 800.829 164.44H814.077L811.485 170.44ZM804.612 193L820.116 175H826.548L816.852 186.28H825.204L829.668 172.216C829.828 171.64 829.636 171.208 829.092 170.92C828.58 170.6 828.068 170.44 827.556 170.44H819.876L822.564 164.44H836.724C837.268 164.44 837.716 164.616 838.068 164.968C838.42 165.32 838.596 165.816 838.596 166.456C838.596 166.84 838.532 167.208 838.404 167.56L830.244 193H804.612ZM845.273 164.44H864.425C865.577 164.44 866.153 165.112 866.153 166.456C866.153 166.872 866.009 167.512 865.721 168.376L856.552 189.16C856.073 190.248 855.321 191.16 854.297 191.896C853.305 192.632 852.057 193 850.553 193H832.601L845.273 164.44ZM850.073 170.44L843.065 186.28H848.297C849.097 186.28 849.721 186.104 850.169 185.752C850.617 185.368 851.049 184.696 851.465 183.736L856.121 173.176C856.313 172.728 856.409 172.344 856.409 172.024C856.409 170.968 855.225 170.44 852.857 170.44H850.073ZM857.867 193L870.491 164.44H889.691L887.003 170.44H875.339L872.843 175.96H884.651L881.963 181.96H870.251L868.283 186.28H880.091L877.067 193H857.867ZM887.996 193H880.46L893.132 164.44H905.468C906.812 164.44 907.836 164.616 908.54 164.968C909.244 165.32 909.596 165.784 909.596 166.36L909.452 166.936C910.22 165.816 910.876 165.128 911.42 164.872C911.996 164.584 912.684 164.44 913.484 164.44H922.796C923.82 164.44 924.636 164.696 925.244 165.208C925.884 165.688 926.204 166.488 926.204 167.608V168.52L925.964 169.48C925.964 169.704 925.884 169.976 925.724 170.296L925.196 171.592L915.884 193H908.444L917.372 172.696L917.612 171.736C917.612 170.872 916.668 170.44 914.78 170.44H911.804L901.82 193H894.38L903.548 172.216L903.74 171.4C903.74 170.76 902.604 170.44 900.332 170.44H897.98L887.996 193ZM947.313 164.44H954.753L948.705 178.36C948.417 179 947.649 179.64 946.401 180.28C945.153 180.76 943.761 181 942.225 181H940.065L934.689 193H926.337L931.617 181H929.361C928.177 181 927.217 180.856 926.481 180.568C925.745 180.28 925.377 179.704 925.377 178.84C925.377 178.296 925.537 177.656 925.857 176.92L931.473 164.44H938.913L935.697 171.736L935.169 172.936L935.025 173.992C935.025 174.664 935.393 175 936.129 175L940.305 174.952C941.137 174.952 941.873 174.664 942.513 174.088C943.153 173.512 943.681 172.696 944.097 171.64L947.313 164.44Z" fill="#3279BE"/>
</g>
<g filter="url(#filter0_d_38_104)">
<path d="M74.9826 61.2427C90.4497 61.2427 98.1832 68.1169 98.1832 81.8654V97.3324C98.1832 109.362 90.9652 115.377 76.5293 115.377H38.8929L31.1594 97.3324H64.6713C71.5455 97.3324 74.9826 94.7546 74.9826 89.5989V87.0211C74.9826 81.8654 71.5455 79.2875 64.6713 79.2875H28.5815V136H5.38098V61.2427H74.9826ZM111.072 76.1941H129.633V136H111.072V76.1941ZM212.021 121.564C211.299 131.188 205.146 136 193.563 136H158.505C146.131 136 139.944 130.501 139.944 119.502V92.6923C139.944 81.6935 146.131 76.1941 158.505 76.1941H193.563C205.868 76.1941 212.021 80.9546 212.021 90.4754V90.63H166.754C161.254 90.63 158.505 92.6923 158.505 96.8169V115.377C158.505 119.467 161.254 121.53 166.754 121.564H212.021ZM268.578 111.253L259.556 94.8577L236.871 136H218.31L249.245 76.1941H269.867L300.801 136H282.241L276.57 125.689H257.494L251.307 111.253H268.578ZM354.42 105.066C359.92 105.066 362.669 103.004 362.669 98.8791V96.8169C362.669 92.6923 359.92 90.63 354.42 90.63H325.549V136H306.988V76.1941H362.669C375.043 76.1941 381.23 81.6935 381.23 92.6923V105.066C381.23 109.19 379.838 111.94 377.054 113.315C379.838 114.655 381.23 117.405 381.23 121.564V136H362.669V125.689C362.669 121.564 359.92 119.502 354.42 119.502H333.798L327.611 105.066H354.42ZM410.102 136H391.541V76.1941H451.347C463.721 76.1941 469.907 81.6935 469.907 92.6923V119.502C469.907 130.501 463.721 136 451.347 136H418.351L412.164 121.564H443.098C448.597 121.564 451.347 119.502 451.347 115.377V96.8169C451.347 92.6923 448.597 90.63 443.098 90.63H410.102V136ZM591.066 105.066L614.266 68.9762C617.704 63.8205 622.859 61.2427 629.734 61.2427H650.356V136H627.156V87.0211L596.222 136H585.91L554.976 87.0211V136H531.776V61.2427H552.398C559.273 61.2427 564.428 63.8205 567.865 68.9762L591.066 105.066ZM709.389 111.253L700.366 94.8577L677.681 136H659.121L690.055 76.1941H710.678L741.612 136H723.051L717.38 125.689H698.304L692.117 111.253H709.389ZM764.297 76.1941C769.796 76.1941 774.608 78.2564 778.733 82.381L809.667 117.44V76.1941H828.227V136H811.729C806.23 136 801.418 133.938 797.293 129.813L766.359 94.7546V136H747.799V76.1941H764.297ZM850.912 76.1941H902.469V90.63H857.099V121.564H902.469V136H850.912C842.663 136 838.538 131.875 838.538 123.626V88.5678C838.538 80.3187 842.663 76.1941 850.912 76.1941ZM892.157 98.8791L898.344 113.315H865.348L859.161 98.8791H892.157ZM966.399 76.1941H984.96V119.502C984.96 130.501 978.773 136 966.399 136H931.341C918.967 136 912.78 130.501 912.78 119.502V76.1941H931.341V115.377C931.341 119.467 934.09 121.53 939.59 121.564H958.15C963.65 121.564 966.399 119.502 966.399 115.377V76.1941ZM1032.39 117.285L1055.08 76.1941H1073.64L1042.7 136H1022.08L991.147 76.1941H1009.71L1032.39 117.285ZM1092.2 76.1941H1143.75V90.63H1098.38V121.564H1143.75V136H1092.2C1083.95 136 1079.82 131.875 1079.82 123.626V88.5678C1079.82 80.3187 1083.95 76.1941 1092.2 76.1941ZM1133.44 98.8791L1139.63 113.315H1106.63L1100.45 98.8791H1133.44ZM1201.5 105.066C1207 105.066 1209.75 103.004 1209.75 98.8791V96.8169C1209.75 92.6923 1207 90.63 1201.5 90.63H1172.63V136H1154.07V76.1941H1209.75C1222.12 76.1941 1228.31 81.6935 1228.31 92.6923V105.066C1228.31 109.19 1226.92 111.94 1224.13 113.315C1226.92 114.655 1228.31 117.405 1228.31 121.564V136H1209.75V125.689C1209.75 121.564 1207 119.502 1201.5 119.502H1180.88L1174.69 105.066H1201.5Z" fill="white"/>
</g>
</g>
<defs>
<filter id="filter0_d_38_104" x="0.380981" y="58.2427" width="1242.93" height="94.7573" filterUnits="userSpaceOnUse" color-interpolation-filters="sRGB">
<feFlood flood-opacity="0" result="BackgroundImageFix"/>
<feColorMatrix in="SourceAlpha" type="matrix" values="0 0 0 0 0 0 0 0 0 0 0 0 0 0 0 0 0 0 127 0" result="hardAlpha"/>
<feOffset dx="5" dy="7"/>
<feGaussianBlur stdDeviation="5"/>
<feComposite in2="hardAlpha" operator="out"/>
<feColorMatrix type="matrix" values="0 0 0 0 0 0 0 0 0 0 0 0 0 0 0 0 0 0 1 0"/>
<feBlend mode="normal" in2="BackgroundImageFix" result="effect1_dropShadow_38_104"/>
<feBlend mode="normal" in="SourceGraphic" in2="effect1_dropShadow_38_104" result="shape"/>
</filter>
<linearGradient id="paint0_linear_38_104" x1="339.766" y1="177.96" x2="908.289" y2="14.6875" gradientUnits="userSpaceOnUse">
<stop stop-color="#00FFFF"/>
<stop offset="0.32" stop-color="#0049E7"/>
<stop offset="0.64" stop-color="#FF0000"/>
<stop offset="1" stop-color="#FDB700"/>
</linearGradient>
<linearGradient id="paint1_linear_38_104" x1="386.517" y1="165.189" x2="861.588" y2="28.754" gradientUnits="userSpaceOnUse">
<stop stop-color="#00FFFF"/>
<stop offset="0.32" stop-color="#0049E7"/>
<stop offset="0.64" stop-color="#FF0000"/>
<stop offset="1" stop-color="#FDB700"/>
</linearGradient>
<clipPath id="clip0_38_104">
<rect width="1244" height="200" fill="white"/>
</clipPath>
<clipPath id="clip1_38_104">
<rect width="507" height="200" fill="white" transform="translate(371)"/>
</clipPath>
<clipPath id="clip2_38_104">
<rect width="705" height="200" fill="white" transform="translate(271)"/>
</clipPath>
</defs>
</svg>
