<svg width="705" height="208" viewBox="0 0 705 208" fill="none" xmlns="http://www.w3.org/2000/svg">
<g clip-path="url(#clip0_1_289)">
<path fill-rule="evenodd" clip-rule="evenodd" d="M601.787 36.6489C611.65 73.458 508.341 133.122 371.039 169.912C233.737 206.702 114.435 206.686 104.572 169.877C94.71 133.068 198.02 73.404 335.322 36.6141C472.624 -0.175723 591.924 -0.159966 601.787 36.6489ZM567.54 45.8253C558.678 12.7507 455.521 11.6538 337.134 43.3755C218.746 75.0974 129.958 127.626 138.819 160.701C147.682 193.776 250.839 194.872 369.227 163.15C487.615 131.428 576.403 78.9002 567.54 45.8253Z" fill="url(#paint0_linear_1_289)"/>
<path fill-rule="evenodd" clip-rule="evenodd" d="M560.922 47.5986C569.164 78.3573 482.836 128.214 368.104 158.956C253.37 189.699 153.679 189.686 145.438 158.927C137.196 128.169 223.525 78.312 338.257 47.5694C452.99 16.8269 552.68 16.8403 560.922 47.5986ZM532.305 55.2667C524.899 27.6287 438.699 26.7122 339.771 53.2197C240.844 79.7273 166.65 123.621 174.055 151.259C181.461 178.898 267.662 179.815 366.59 153.307C465.518 126.799 539.711 82.9049 532.305 55.2667Z" fill="url(#paint1_linear_1_289)"/>
<g filter="url(#filter0_d_1_289)">
<path d="M88.1795 58.1283V112.263C88.1795 126.011 80.446 132.886 64.9789 132.886H39.2005C23.7335 132.886 16 126.871 16 114.841H54.6676C61.5418 114.841 64.9789 112.263 64.9789 107.107V58.1283H88.1795ZM113.442 73.0798H164.999V87.5157H119.629V118.45H164.999V132.886H113.442C105.193 132.886 101.069 128.761 101.069 120.512V85.4534C101.069 77.2043 105.193 73.0798 113.442 73.0798ZM154.688 95.7647L160.875 110.201H127.878L121.691 95.7647H154.688ZM193.871 73.0798H235.116C247.49 73.0798 253.677 78.5792 253.677 89.5779V116.387C253.677 127.386 247.49 132.886 235.116 132.886H193.871C181.497 132.886 175.31 127.386 175.31 116.387V89.5779C175.31 78.5792 181.497 73.0798 193.871 73.0798ZM193.871 93.7025V112.263C193.871 116.353 196.621 118.415 202.12 118.45H226.867C232.367 118.45 235.116 116.387 235.116 112.263V93.7025C235.116 89.5779 232.367 87.5157 226.867 87.5157H202.12C196.621 87.5157 193.871 89.5779 193.871 93.7025ZM319.669 73.0798C332.043 73.0798 338.23 78.5792 338.23 89.5779V101.952C338.23 111.575 332.455 116.387 320.907 116.387H290.798L284.611 101.952H311.42C316.92 101.952 319.669 99.8893 319.669 95.7647V93.7025C319.669 89.5779 316.92 87.5157 311.42 87.5157H282.549V132.886H263.988V73.0798H319.669ZM394.685 108.138L385.662 91.7433L362.977 132.886H344.417L375.351 73.0798H395.973L426.907 132.886H408.347L402.676 122.574H383.6L377.413 108.138H394.685ZM480.527 101.952C486.026 101.952 488.776 99.8893 488.776 95.7647V93.7025C488.776 89.5779 486.026 87.5157 480.527 87.5157H451.655V132.886H433.094V73.0798H488.776C501.149 73.0798 507.336 78.5792 507.336 89.5779V101.952C507.336 106.076 505.944 108.826 503.16 110.201C505.944 111.541 507.336 114.291 507.336 118.45V132.886H488.776V122.574C488.776 118.45 486.026 116.387 480.527 116.387H459.904L453.717 101.952H480.527ZM536.208 132.886H517.647V73.0798H577.453C589.827 73.0798 596.014 78.5792 596.014 89.5779V116.387C596.014 127.386 589.827 132.886 577.453 132.886H544.457L538.27 118.45H569.204C574.704 118.45 577.453 116.387 577.453 112.263V93.7025C577.453 89.5779 574.704 87.5157 569.204 87.5157H536.208V132.886ZM642.415 96.5897L662.006 73.0798H682.629L651.695 108.654V132.886H633.135V108.654L602.201 73.0798H622.823L642.415 96.5897Z" fill="white"/>
</g>
<path d="M25.368 11.44L26.904 7.936C27.32 7.232 27.896 6.64 28.632 6.16C29.368 5.68 30.392 5.44 31.704 5.44H44.952L42.36 11.44H25.368ZM18.936 34C18.392 34 17.832 33.856 17.256 33.568C16.84 33.248 16.632 32.768 16.632 32.128C16.632 31.52 16.808 30.816 17.16 30.016L23.4 16.048H30.84L25.848 27.28H35.304L32.424 34H18.936ZM44.4225 11.44L45.5745 8.848C46.0225 7.824 46.6625 7.008 47.4945 6.4C48.3265 5.76 49.3985 5.44 50.7105 5.44H64.5345C65.3025 5.44 66.1025 5.712 66.9345 6.256C67.7665 6.8 68.1825 7.44 68.1825 8.176L68.0385 8.896L66.8865 11.44H44.4225ZM64.9185 16L58.7745 29.92C58.2945 31.072 57.5585 32.048 56.5665 32.848C55.7025 33.616 54.5825 34 53.2065 34H38.3745C37.9265 34 37.4145 33.696 36.8385 33.088C36.3585 32.448 36.1185 31.712 36.1185 30.88C36.1185 30.624 36.2145 30.176 36.4065 29.536L42.4065 16H49.8945L46.1025 24.544L45.9105 25.408C45.9105 25.92 46.0225 26.352 46.2465 26.704C46.5025 26.992 46.7585 27.184 47.0145 27.28H50.0865C50.8225 27.28 51.4785 27.056 52.0545 26.608C52.6625 26.128 53.2065 25.424 53.6865 24.496L57.4785 16H64.9185ZM72.585 5.44H84.921C86.265 5.44 87.289 5.616 87.993 5.968C88.697 6.32 89.049 6.784 89.049 7.36L88.905 7.936C89.673 6.816 90.329 6.128 90.873 5.872C91.449 5.584 92.137 5.44 92.937 5.44H102.249C103.273 5.44 104.089 5.696 104.697 6.208C105.337 6.688 105.657 7.488 105.657 8.608V9.52L105.417 10.48C105.417 10.704 105.337 10.976 105.177 11.296L104.649 12.592L95.337 34H87.897L96.825 13.696L97.065 12.736C97.065 11.872 96.121 11.44 94.233 11.44H91.257L81.273 34H73.833L83.001 13.216L83.193 12.4C83.193 11.76 82.057 11.44 79.785 11.44H69.897L72.585 5.44ZM75.369 16L67.449 34H59.913L67.929 16H75.369ZM107.132 16H118.46C119.26 16 119.916 15.6 120.428 14.8L121.388 12.64C121.58 12.256 121.484 11.984 121.1 11.824C120.716 11.632 120.316 11.504 119.9 11.44H109.1L111.788 5.44H128.348C129.02 5.44 129.628 5.648 130.172 6.064C130.716 6.448 130.988 6.96 130.988 7.6L130.844 8.32L125.9 19.216C125.548 20.08 125.132 20.752 124.652 21.232C124.236 21.744 123.196 22 121.532 22H111.932L106.652 34H99.1163L107.132 16ZM154.853 5.44L144.005 29.92C143.429 31.072 142.693 32.048 141.797 32.848C140.933 33.616 139.781 34 138.341 34H125.765C125.349 34 124.853 33.696 124.277 33.088C124.117 32.896 123.973 32.672 123.845 32.416C123.621 31.968 123.509 31.456 123.509 30.88C123.509 30.624 123.605 30.176 123.797 29.536L134.549 5.44H141.989L133.493 24.544L133.157 25.984C133.157 26.464 133.285 26.816 133.541 27.04L134.501 27.28H135.317C136.117 27.28 136.757 27.104 137.237 26.752C137.749 26.368 138.293 25.616 138.869 24.496L147.317 5.44H154.853ZM149.603 34L157.619 16H165.011L157.139 34H149.603ZM154.739 11.44L157.475 5.44H175.379L172.786 11.44H154.739ZM166.85 34L179.474 5.44H195.794C196.242 5.44 196.85 5.728 197.618 6.304C198.258 6.88 198.578 7.536 198.578 8.272C198.578 8.592 198.514 8.88 198.386 9.136L194.93 16.96C194.546 17.856 193.906 18.656 193.01 19.36C192.082 19.904 190.978 20.176 189.698 20.176C190.178 20.176 190.69 20.432 191.234 20.944C191.778 21.424 192.05 22.048 192.05 22.816C192.05 23.168 191.986 23.488 191.858 23.776L187.346 34H179.954L184.082 24.64L184.274 23.872L184.466 23.056C184.466 22.384 184.178 22.048 183.602 22.048H179.618L174.338 34H166.85ZM186.098 16.048L187.298 15.904C187.618 15.808 187.922 15.6 188.21 15.28L189.266 12.88L189.41 12.4C189.41 11.76 188.882 11.44 187.826 11.44H184.322L182.21 16.048H186.098ZM190.602 34L203.226 5.44H222.426L219.738 11.44H208.074L205.578 16.96H217.386L214.698 22.96H202.986L201.018 27.28H212.826L209.802 34H190.602ZM213.818 34L226.442 5.44H233.882L229.226 16L238.49 5.44H247.466L234.266 20.752L238.25 34H231.146L227.162 20.752L226.586 22L221.306 34H213.818Z" fill="#3279BE"/>
<path d="M485.424 201L500.928 183H507.36L497.664 194.28H506.016L510.48 180.216C510.64 179.64 510.448 179.208 509.904 178.92C509.392 178.6 508.88 178.44 508.368 178.44H500.688L503.376 172.44H517.536C518.08 172.44 518.528 172.616 518.88 172.968C519.232 173.32 519.408 173.816 519.408 174.456C519.408 174.84 519.344 175.208 519.216 175.56L511.056 201H485.424ZM540.485 178.44H531.029L523.973 194.28H533.429L530.549 201H517.061C516.517 201 515.957 200.856 515.381 200.568C514.965 200.248 514.757 199.768 514.757 199.128C514.757 198.52 514.933 197.816 515.285 197.016L525.029 174.936C525.445 174.232 526.021 173.64 526.757 173.16C527.493 172.68 528.517 172.44 529.829 172.44H543.077L540.485 178.44ZM533.612 201L549.116 183H555.548L545.852 194.28H554.204L558.668 180.216C558.828 179.64 558.636 179.208 558.092 178.92C557.58 178.6 557.068 178.44 556.556 178.44H548.876L551.564 172.44H565.724C566.268 172.44 566.716 172.616 567.068 172.968C567.42 173.32 567.596 173.816 567.596 174.456C567.596 174.84 567.532 175.208 567.404 175.56L559.244 201H533.612ZM574.273 172.44H593.425C594.577 172.44 595.153 173.112 595.153 174.456C595.153 174.872 595.009 175.512 594.721 176.376L585.552 197.16C585.073 198.248 584.321 199.16 583.297 199.896C582.305 200.632 581.057 201 579.553 201H561.601L574.273 172.44ZM579.073 178.44L572.065 194.28H577.297C578.097 194.28 578.721 194.104 579.169 193.752C579.617 193.368 580.049 192.696 580.465 191.736L585.121 181.176C585.313 180.728 585.409 180.344 585.409 180.024C585.409 178.968 584.225 178.44 581.857 178.44H579.073ZM586.867 201L599.491 172.44H618.691L616.003 178.44H604.339L601.843 183.96H613.651L610.963 189.96H599.251L597.283 194.28H609.091L606.067 201H586.867ZM616.996 201H609.46L622.132 172.44H634.468C635.812 172.44 636.836 172.616 637.54 172.968C638.244 173.32 638.596 173.784 638.596 174.36L638.452 174.936C639.22 173.816 639.876 173.128 640.42 172.872C640.996 172.584 641.684 172.44 642.484 172.44H651.796C652.82 172.44 653.636 172.696 654.244 173.208C654.884 173.688 655.204 174.488 655.204 175.608V176.52L654.964 177.48C654.964 177.704 654.884 177.976 654.724 178.296L654.196 179.592L644.884 201H637.444L646.372 180.696L646.612 179.736C646.612 178.872 645.668 178.44 643.78 178.44H640.804L630.82 201H623.38L632.548 180.216L632.74 179.4C632.74 178.76 631.604 178.44 629.332 178.44H626.98L616.996 201ZM676.313 172.44H683.753L677.705 186.36C677.417 187 676.649 187.64 675.401 188.28C674.153 188.76 672.761 189 671.225 189H669.065L663.689 201H655.337L660.617 189H658.361C657.177 189 656.217 188.856 655.481 188.568C654.745 188.28 654.377 187.704 654.377 186.84C654.377 186.296 654.537 185.656 654.857 184.92L660.473 172.44H667.913L664.697 179.736L664.169 180.936L664.025 181.992C664.025 182.664 664.393 183 665.129 183L669.305 182.952C670.137 182.952 670.873 182.664 671.513 182.088C672.153 181.512 672.681 180.696 673.097 179.64L676.313 172.44Z" fill="#3279BE"/>
</g>
<defs>
<filter id="filter0_d_1_289" x="11" y="55.1283" width="686.629" height="94.7573" filterUnits="userSpaceOnUse" color-interpolation-filters="sRGB">
<feFlood flood-opacity="0" result="BackgroundImageFix"/>
<feColorMatrix in="SourceAlpha" type="matrix" values="0 0 0 0 0 0 0 0 0 0 0 0 0 0 0 0 0 0 127 0" result="hardAlpha"/>
<feOffset dx="5" dy="7"/>
<feGaussianBlur stdDeviation="5"/>
<feComposite in2="hardAlpha" operator="out"/>
<feColorMatrix type="matrix" values="0 0 0 0 0 0 0 0 0 0 0 0 0 0 0 0 0 0 1 0"/>
<feBlend mode="normal" in2="BackgroundImageFix" result="effect1_dropShadow_1_289"/>
<feBlend mode="normal" in="SourceGraphic" in2="effect1_dropShadow_1_289" result="shape"/>
</filter>
<linearGradient id="paint0_linear_1_289" x1="68.7663" y1="180.96" x2="637.289" y2="17.6875" gradientUnits="userSpaceOnUse">
<stop stop-color="#00FFFF"/>
<stop offset="0.32" stop-color="#0049E7"/>
<stop offset="0.64" stop-color="#FF0000"/>
<stop offset="1" stop-color="#FDB700"/>
</linearGradient>
<linearGradient id="paint1_linear_1_289" x1="115.517" y1="168.189" x2="590.588" y2="31.754" gradientUnits="userSpaceOnUse">
<stop stop-color="#00FFFF"/>
<stop offset="0.32" stop-color="#0049E7"/>
<stop offset="0.64" stop-color="#FF0000"/>
<stop offset="1" stop-color="#FDB700"/>
</linearGradient>
<clipPath id="clip0_1_289">
<rect width="705" height="208" fill="white"/>
</clipPath>
</defs>
</svg>
