<svg width="1428" height="200" viewBox="0 0 1428 200" fill="none" xmlns="http://www.w3.org/2000/svg">
<g clip-path="url(#clip0_174_150)">
<g clip-path="url(#clip1_174_150)">
<path d="M966.787 33.6489C976.65 70.458 873.341 130.122 736.039 166.912C598.737 203.702 479.435 203.686 469.572 166.877C459.71 130.068 563.02 70.404 700.322 33.6141C837.624 -3.17572 956.924 -3.15996 966.787 33.6489ZM932.54 42.8253C923.678 9.75074 820.521 8.65377 702.134 40.3755C583.746 72.0974 494.958 124.626 503.819 157.701C512.682 190.776 615.839 191.872 734.227 160.15C852.615 128.428 941.403 75.9002 932.54 42.8253Z" fill="url(#paint0_linear_174_150)"/>
<path d="M925.922 44.5986C934.164 75.3572 847.836 125.214 733.104 155.956C618.37 186.699 518.679 186.686 510.438 155.927C502.196 125.169 588.525 75.3119 703.257 44.5693C817.99 13.8269 917.68 13.8402 925.922 44.5986ZM897.305 52.2666C889.899 24.6287 803.699 23.7121 704.771 50.2196C605.844 76.7272 531.65 120.621 539.055 148.259C546.461 175.898 632.662 176.815 731.59 150.307C830.518 123.799 904.711 79.9048 897.305 52.2666Z" fill="url(#paint1_linear_174_150)"/>
</g>
<g clip-path="url(#clip2_174_150)">
<path d="M390.368 11.44L391.904 7.936C392.32 7.232 392.896 6.64 393.632 6.16C394.368 5.68 395.392 5.44 396.704 5.44H409.952L407.36 11.44H390.368ZM383.936 34C383.392 34 382.832 33.856 382.256 33.568C381.84 33.248 381.632 32.768 381.632 32.128C381.632 31.52 381.808 30.816 382.16 30.016L388.4 16.048H395.84L390.848 27.28H400.304L397.424 34H383.936ZM409.423 11.44L410.575 8.848C411.023 7.824 411.663 7.008 412.495 6.4C413.327 5.76 414.399 5.44 415.711 5.44H429.535C430.303 5.44 431.103 5.712 431.935 6.256C432.767 6.8 433.183 7.44 433.183 8.176L433.039 8.896L431.887 11.44H409.423ZM429.919 16L423.775 29.92C423.295 31.072 422.559 32.048 421.567 32.848C420.703 33.616 419.583 34 418.207 34H403.375C402.927 34 402.415 33.696 401.839 33.088C401.359 32.448 401.119 31.712 401.119 30.88C401.119 30.624 401.215 30.176 401.407 29.536L407.407 16H414.895L411.103 24.544L410.911 25.408C410.911 25.92 411.023 26.352 411.247 26.704C411.503 26.992 411.759 27.184 412.015 27.28H415.087C415.823 27.28 416.479 27.056 417.055 26.608C417.663 26.128 418.207 25.424 418.687 24.496L422.479 16H429.919ZM437.585 5.44H449.921C451.265 5.44 452.289 5.616 452.993 5.968C453.697 6.32 454.049 6.784 454.049 7.36L453.905 7.936C454.673 6.816 455.329 6.128 455.873 5.872C456.449 5.584 457.137 5.44 457.937 5.44H467.249C468.273 5.44 469.089 5.696 469.697 6.208C470.337 6.688 470.657 7.488 470.657 8.608V9.52L470.417 10.48C470.417 10.704 470.337 10.976 470.177 11.296L469.649 12.592L460.337 34H452.897L461.825 13.696L462.065 12.736C462.065 11.872 461.121 11.44 459.233 11.44H456.257L446.273 34H438.833L448.001 13.216L448.193 12.4C448.193 11.76 447.057 11.44 444.785 11.44H434.897L437.585 5.44ZM440.369 16L432.449 34H424.913L432.929 16H440.369ZM472.132 16H483.46C484.26 16 484.916 15.6 485.428 14.8L486.388 12.64C486.58 12.256 486.484 11.984 486.1 11.824C485.716 11.632 485.316 11.504 484.9 11.44H474.1L476.788 5.44H493.348C494.02 5.44 494.628 5.648 495.172 6.064C495.716 6.448 495.988 6.96 495.988 7.6L495.844 8.32L490.9 19.216C490.548 20.08 490.132 20.752 489.652 21.232C489.236 21.744 488.196 22 486.532 22H476.932L471.652 34H464.116L472.132 16ZM519.853 5.44L509.005 29.92C508.429 31.072 507.693 32.048 506.797 32.848C505.933 33.616 504.781 34 503.341 34H490.765C490.349 34 489.853 33.696 489.277 33.088C489.117 32.896 488.973 32.672 488.845 32.416C488.621 31.968 488.509 31.456 488.509 30.88C488.509 30.624 488.605 30.176 488.797 29.536L499.549 5.44H506.989L498.493 24.544L498.157 25.984C498.157 26.464 498.285 26.816 498.541 27.04L499.501 27.28H500.317C501.117 27.28 501.757 27.104 502.237 26.752C502.749 26.368 503.293 25.616 503.869 24.496L512.317 5.44H519.853ZM514.603 34L522.619 16H530.011L522.139 34H514.603ZM519.739 11.44L522.475 5.44H540.379L537.786 11.44H519.739ZM531.85 34L544.474 5.44H560.794C561.242 5.44 561.85 5.728 562.618 6.304C563.258 6.88 563.578 7.536 563.578 8.272C563.578 8.592 563.514 8.88 563.386 9.136L559.93 16.96C559.546 17.856 558.906 18.656 558.01 19.36C557.082 19.904 555.978 20.176 554.698 20.176C555.178 20.176 555.69 20.432 556.234 20.944C556.778 21.424 557.05 22.048 557.05 22.816C557.05 23.168 556.986 23.488 556.858 23.776L552.346 34H544.954L549.082 24.64L549.274 23.872L549.466 23.056C549.466 22.384 549.178 22.048 548.602 22.048H544.618L539.338 34H531.85ZM551.098 16.048L552.298 15.904C552.618 15.808 552.922 15.6 553.21 15.28L554.266 12.88L554.41 12.4C554.41 11.76 553.882 11.44 552.826 11.44H549.322L547.21 16.048H551.098ZM555.602 34L568.226 5.44H587.426L584.738 11.44H573.074L570.578 16.96H582.386L579.698 22.96H567.986L566.018 27.28H577.826L574.802 34H555.602ZM578.818 34L591.442 5.44H598.882L594.226 16L603.49 5.44H612.466L599.266 20.752L603.25 34H596.146L592.162 20.752L591.586 22L586.306 34H578.818Z" fill="#3279BE"/>
<path d="M850.424 193L865.928 175H872.36L862.664 186.28H871.016L875.48 172.216C875.64 171.64 875.448 171.208 874.904 170.92C874.392 170.6 873.88 170.44 873.368 170.44H865.688L868.376 164.44H882.536C883.08 164.44 883.528 164.616 883.88 164.968C884.232 165.32 884.408 165.816 884.408 166.456C884.408 166.84 884.344 167.208 884.216 167.56L876.056 193H850.424ZM905.485 170.44H896.029L888.973 186.28H898.429L895.549 193H882.061C881.517 193 880.957 192.856 880.381 192.568C879.965 192.248 879.757 191.768 879.757 191.128C879.757 190.52 879.933 189.816 880.285 189.016L890.029 166.936C890.445 166.232 891.021 165.64 891.757 165.16C892.493 164.68 893.517 164.44 894.829 164.44H908.077L905.485 170.44ZM898.612 193L914.116 175H920.548L910.852 186.28H919.204L923.668 172.216C923.828 171.64 923.636 171.208 923.092 170.92C922.58 170.6 922.068 170.44 921.556 170.44H913.876L916.564 164.44H930.724C931.268 164.44 931.716 164.616 932.068 164.968C932.42 165.32 932.596 165.816 932.596 166.456C932.596 166.84 932.532 167.208 932.404 167.56L924.244 193H898.612ZM939.273 164.44H958.425C959.577 164.44 960.153 165.112 960.153 166.456C960.153 166.872 960.009 167.512 959.721 168.376L950.552 189.16C950.073 190.248 949.321 191.16 948.297 191.896C947.305 192.632 946.057 193 944.553 193H926.601L939.273 164.44ZM944.073 170.44L937.065 186.28H942.297C943.097 186.28 943.721 186.104 944.169 185.752C944.617 185.368 945.049 184.696 945.465 183.736L950.121 173.176C950.313 172.728 950.409 172.344 950.409 172.024C950.409 170.968 949.225 170.44 946.857 170.44H944.073ZM951.867 193L964.491 164.44H983.691L981.003 170.44H969.339L966.843 175.96H978.651L975.963 181.96H964.251L962.283 186.28H974.091L971.067 193H951.867ZM981.996 193H974.46L987.132 164.44H999.468C1000.81 164.44 1001.84 164.616 1002.54 164.968C1003.24 165.32 1003.6 165.784 1003.6 166.36L1003.45 166.936C1004.22 165.816 1004.88 165.128 1005.42 164.872C1006 164.584 1006.68 164.44 1007.48 164.44H1016.8C1017.82 164.44 1018.64 164.696 1019.24 165.208C1019.88 165.688 1020.2 166.488 1020.2 167.608V168.52L1019.96 169.48C1019.96 169.704 1019.88 169.976 1019.72 170.296L1019.2 171.592L1009.88 193H1002.44L1011.37 172.696L1011.61 171.736C1011.61 170.872 1010.67 170.44 1008.78 170.44H1005.8L995.82 193H988.38L997.548 172.216L997.74 171.4C997.74 170.76 996.604 170.44 994.332 170.44H991.98L981.996 193ZM1041.31 164.44H1048.75L1042.71 178.36C1042.42 179 1041.65 179.64 1040.4 180.28C1039.15 180.76 1037.76 181 1036.23 181H1034.07L1028.69 193H1020.34L1025.62 181H1023.36C1022.18 181 1021.22 180.856 1020.48 180.568C1019.75 180.28 1019.38 179.704 1019.38 178.84C1019.38 178.296 1019.54 177.656 1019.86 176.92L1025.47 164.44H1032.91L1029.7 171.736L1029.17 172.936L1029.03 173.992C1029.03 174.664 1029.39 175 1030.13 175L1034.31 174.952C1035.14 174.952 1035.87 174.664 1036.51 174.088C1037.15 173.512 1037.68 172.696 1038.1 171.64L1041.31 164.44Z" fill="#3279BE"/>
</g>
<g filter="url(#filter0_d_174_150)">
<path d="M15.9213 61.2427H80.3673V79.2875H23.6548V136H0.454285V76.7097C0.454285 66.3984 5.60996 61.2427 15.9213 61.2427ZM67.4781 89.5989L75.2116 107.644H33.9662L26.2327 89.5989H67.4781ZM140.689 105.066C146.188 105.066 148.938 103.004 148.938 98.8791V96.8169C148.938 92.6923 146.188 90.63 140.689 90.63H111.817V136H93.2565V76.1941H148.938C161.311 76.1941 167.498 81.6935 167.498 92.6923V105.066C167.498 109.19 166.106 111.94 163.322 113.315C166.106 114.655 167.498 117.405 167.498 121.564V136H148.938V125.689C148.938 121.564 146.188 119.502 140.689 119.502H120.066L113.879 105.066H140.689ZM223.953 111.253L214.93 94.8577L192.245 136H173.685L204.619 76.1941H225.242L256.176 136H237.615L231.944 125.689H212.868L206.681 111.253H223.953ZM334.439 121.564C333.717 131.188 327.565 136 315.982 136H280.923C268.55 136 262.363 130.501 262.363 119.502V92.6923C262.363 81.6935 268.55 76.1941 280.923 76.1941H315.982C328.287 76.1941 334.439 80.9546 334.439 90.4754V90.63H289.172C283.673 90.63 280.923 92.6923 280.923 96.8169V115.377C280.923 119.467 283.673 121.53 289.172 121.564H334.439ZM344.854 76.1941H412.908V90.63H344.854V76.1941ZM369.601 92.6923L388.161 96.8169V136H369.601V92.6923ZM476.839 76.1941H495.399V119.502C495.399 130.501 489.212 136 476.839 136H441.78C429.407 136 423.22 130.501 423.22 119.502V76.1941H441.78V115.377C441.78 119.467 444.53 121.53 450.029 121.564H468.59C474.089 121.564 476.839 119.502 476.839 115.377V76.1941ZM553.143 105.066C558.642 105.066 561.392 103.004 561.392 98.8791V96.8169C561.392 92.6923 558.642 90.63 553.143 90.63H524.271V136H505.711V76.1941H561.392C573.766 76.1941 579.952 81.6935 579.952 92.6923V105.066C579.952 109.19 578.56 111.94 575.776 113.315C578.56 114.655 579.952 117.405 579.952 121.564V136H561.392V125.689C561.392 121.564 558.642 119.502 553.143 119.502H532.52L526.333 105.066H553.143ZM602.637 76.1941H654.194V90.63H608.824V121.564H654.194V136H602.637C594.388 136 590.264 131.875 590.264 123.626V88.5678C590.264 80.3187 594.388 76.1941 602.637 76.1941ZM643.883 98.8791L650.07 113.315H617.073L610.887 98.8791H643.883ZM683.066 136H664.506V76.1941H724.311C736.685 76.1941 742.872 81.6935 742.872 92.6923V119.502C742.872 130.501 736.685 136 724.311 136H691.315L685.128 121.564H716.062C721.562 121.564 724.311 119.502 724.311 115.377V96.8169C724.311 92.6923 721.562 90.63 716.062 90.63H683.066V136ZM820.207 61.2427H884.653V79.2875H827.94V136H804.74V76.7097C804.74 66.3984 809.896 61.2427 820.207 61.2427ZM871.764 89.5989L879.497 107.644H838.252L830.518 89.5989H871.764ZM944.974 105.066C950.474 105.066 953.223 103.004 953.223 98.8791V96.8169C953.223 92.6923 950.474 90.63 944.974 90.63H916.103V136H897.542V76.1941H953.223C965.597 76.1941 971.784 81.6935 971.784 92.6923V105.066C971.784 109.19 970.392 111.94 967.608 113.315C970.392 114.655 971.784 117.405 971.784 121.564V136H953.223V125.689C953.223 121.564 950.474 119.502 944.974 119.502H924.352L918.165 105.066H944.974ZM1000.66 76.1941H1041.9C1054.27 76.1941 1060.46 81.6935 1060.46 92.6923V119.502C1060.46 130.501 1054.27 136 1041.9 136H1000.66C988.282 136 982.095 130.501 982.095 119.502V92.6923C982.095 81.6935 988.282 76.1941 1000.66 76.1941ZM1000.66 96.8169V115.377C1000.66 119.467 1003.41 121.53 1008.9 121.564H1033.65C1039.15 121.564 1041.9 119.502 1041.9 115.377V96.8169C1041.9 92.6923 1039.15 90.63 1033.65 90.63H1008.9C1003.41 90.63 1000.66 92.6923 1000.66 96.8169ZM1087.27 76.1941C1092.77 76.1941 1097.58 78.2564 1101.71 82.381L1132.64 117.44V76.1941H1151.2V136H1134.7C1129.2 136 1124.39 133.938 1120.27 129.813L1089.33 94.7546V136H1070.77V76.1941H1087.27ZM1161.51 76.1941H1229.57V90.63H1161.51V76.1941ZM1186.26 92.6923L1204.82 96.8169V136H1186.26V92.6923ZM1239.88 76.1941H1258.44V136H1239.88V76.1941ZM1281.12 76.1941H1332.68V90.63H1287.31V121.564H1332.68V136H1281.12C1272.88 136 1268.75 131.875 1268.75 123.626V88.5678C1268.75 80.3187 1272.88 76.1941 1281.12 76.1941ZM1322.37 98.8791L1328.56 113.315H1295.56L1289.37 98.8791H1322.37ZM1390.42 105.066C1395.92 105.066 1398.67 103.004 1398.67 98.8791V96.8169C1398.67 92.6923 1395.92 90.63 1390.42 90.63H1361.55V136H1342.99V76.1941H1398.67C1411.05 76.1941 1417.23 81.6935 1417.23 92.6923V105.066C1417.23 109.19 1415.84 111.94 1413.06 113.315C1415.84 114.655 1417.23 117.405 1417.23 121.564V136H1398.67V125.689C1398.67 121.564 1395.92 119.502 1390.42 119.502H1369.8L1363.62 105.066H1390.42Z" fill="white"/>
</g>
</g>
<defs>
<filter id="filter0_d_174_150" x="-4.54572" y="58.2427" width="1436.78" height="94.7573" filterUnits="userSpaceOnUse" color-interpolation-filters="sRGB">
<feFlood flood-opacity="0" result="BackgroundImageFix"/>
<feColorMatrix in="SourceAlpha" type="matrix" values="0 0 0 0 0 0 0 0 0 0 0 0 0 0 0 0 0 0 127 0" result="hardAlpha"/>
<feOffset dx="5" dy="7"/>
<feGaussianBlur stdDeviation="5"/>
<feComposite in2="hardAlpha" operator="out"/>
<feColorMatrix type="matrix" values="0 0 0 0 0 0 0 0 0 0 0 0 0 0 0 0 0 0 1 0"/>
<feBlend mode="normal" in2="BackgroundImageFix" result="effect1_dropShadow_174_150"/>
<feBlend mode="normal" in="SourceGraphic" in2="effect1_dropShadow_174_150" result="shape"/>
</filter>
<linearGradient id="paint0_linear_174_150" x1="433.766" y1="177.96" x2="1002.29" y2="14.6875" gradientUnits="userSpaceOnUse">
<stop stop-color="#00FFFF"/>
<stop offset="0.32" stop-color="#0049E7"/>
<stop offset="0.64" stop-color="#FF0000"/>
<stop offset="1" stop-color="#FDB700"/>
</linearGradient>
<linearGradient id="paint1_linear_174_150" x1="480.517" y1="165.189" x2="955.588" y2="28.754" gradientUnits="userSpaceOnUse">
<stop stop-color="#00FFFF"/>
<stop offset="0.32" stop-color="#0049E7"/>
<stop offset="0.64" stop-color="#FF0000"/>
<stop offset="1" stop-color="#FDB700"/>
</linearGradient>
<clipPath id="clip0_174_150">
<rect width="1428" height="200" fill="white"/>
</clipPath>
<clipPath id="clip1_174_150">
<rect width="507" height="200" fill="white" transform="translate(465)"/>
</clipPath>
<clipPath id="clip2_174_150">
<rect width="705" height="200" fill="white" transform="translate(365)"/>
</clipPath>
</defs>
</svg>
