<svg width="1396" height="200" viewBox="0 0 1396 200" fill="none" xmlns="http://www.w3.org/2000/svg">
<g clip-path="url(#clip0_139_130)">
<g clip-path="url(#clip1_139_130)">
<path d="M950.787 33.6489C960.65 70.458 857.341 130.122 720.039 166.912C582.737 203.702 463.435 203.686 453.572 166.877C443.71 130.068 547.02 70.404 684.322 33.6141C821.624 -3.17572 940.924 -3.15997 950.787 33.6489ZM916.54 42.8253C907.678 9.75074 804.521 8.65377 686.134 40.3755C567.746 72.0974 478.958 124.626 487.819 157.701C496.682 190.776 599.839 191.872 718.227 160.15C836.615 128.428 925.403 75.9002 916.54 42.8253Z" fill="url(#paint0_linear_139_130)"/>
<path d="M909.922 44.5986C918.164 75.3572 831.836 125.214 717.104 155.956C602.37 186.699 502.679 186.686 494.438 155.927C486.196 125.169 572.525 75.3119 687.257 44.5693C801.99 13.8269 901.68 13.8402 909.922 44.5986ZM881.305 52.2666C873.899 24.6287 787.699 23.7121 688.771 50.2196C589.844 76.7272 515.65 120.621 523.055 148.259C530.461 175.898 616.662 176.815 715.59 150.307C814.518 123.799 888.711 79.9048 881.305 52.2666Z" fill="url(#paint1_linear_139_130)"/>
</g>
<g clip-path="url(#clip2_139_130)">
<path d="M374.368 11.44L375.904 7.936C376.32 7.232 376.896 6.64 377.632 6.16C378.368 5.68 379.392 5.44 380.704 5.44H393.952L391.36 11.44H374.368ZM367.936 34C367.392 34 366.832 33.856 366.256 33.568C365.84 33.248 365.632 32.768 365.632 32.128C365.632 31.52 365.808 30.816 366.16 30.016L372.4 16.048H379.84L374.848 27.28H384.304L381.424 34H367.936ZM393.423 11.44L394.575 8.848C395.023 7.824 395.663 7.008 396.495 6.4C397.327 5.76 398.399 5.44 399.711 5.44H413.535C414.303 5.44 415.103 5.712 415.935 6.256C416.767 6.8 417.183 7.44 417.183 8.176L417.039 8.896L415.887 11.44H393.423ZM413.919 16L407.775 29.92C407.295 31.072 406.559 32.048 405.567 32.848C404.703 33.616 403.583 34 402.207 34H387.375C386.927 34 386.415 33.696 385.839 33.088C385.359 32.448 385.119 31.712 385.119 30.88C385.119 30.624 385.215 30.176 385.407 29.536L391.407 16H398.895L395.103 24.544L394.911 25.408C394.911 25.92 395.023 26.352 395.247 26.704C395.503 26.992 395.759 27.184 396.015 27.28H399.087C399.823 27.28 400.479 27.056 401.055 26.608C401.663 26.128 402.207 25.424 402.687 24.496L406.479 16H413.919ZM421.585 5.44H433.921C435.265 5.44 436.289 5.616 436.993 5.968C437.697 6.32 438.049 6.784 438.049 7.36L437.905 7.936C438.673 6.816 439.329 6.128 439.873 5.872C440.449 5.584 441.137 5.44 441.937 5.44H451.249C452.273 5.44 453.089 5.696 453.697 6.208C454.337 6.688 454.657 7.488 454.657 8.608V9.52L454.417 10.48C454.417 10.704 454.337 10.976 454.177 11.296L453.649 12.592L444.337 34H436.897L445.825 13.696L446.065 12.736C446.065 11.872 445.121 11.44 443.233 11.44H440.257L430.273 34H422.833L432.001 13.216L432.193 12.4C432.193 11.76 431.057 11.44 428.785 11.44H418.897L421.585 5.44ZM424.369 16L416.449 34H408.913L416.929 16H424.369ZM456.132 16H467.46C468.26 16 468.916 15.6 469.428 14.8L470.388 12.64C470.58 12.256 470.484 11.984 470.1 11.824C469.716 11.632 469.316 11.504 468.9 11.44H458.1L460.788 5.44H477.348C478.02 5.44 478.628 5.648 479.172 6.064C479.716 6.448 479.988 6.96 479.988 7.6L479.844 8.32L474.9 19.216C474.548 20.08 474.132 20.752 473.652 21.232C473.236 21.744 472.196 22 470.532 22H460.932L455.652 34H448.116L456.132 16ZM503.853 5.44L493.005 29.92C492.429 31.072 491.693 32.048 490.797 32.848C489.933 33.616 488.781 34 487.341 34H474.765C474.349 34 473.853 33.696 473.277 33.088C473.117 32.896 472.973 32.672 472.845 32.416C472.621 31.968 472.509 31.456 472.509 30.88C472.509 30.624 472.605 30.176 472.797 29.536L483.549 5.44H490.989L482.493 24.544L482.157 25.984C482.157 26.464 482.285 26.816 482.541 27.04L483.501 27.28H484.317C485.117 27.28 485.757 27.104 486.237 26.752C486.749 26.368 487.293 25.616 487.869 24.496L496.317 5.44H503.853ZM498.603 34L506.619 16H514.011L506.139 34H498.603ZM503.739 11.44L506.475 5.44H524.379L521.786 11.44H503.739ZM515.85 34L528.474 5.44H544.794C545.242 5.44 545.85 5.728 546.618 6.304C547.258 6.88 547.578 7.536 547.578 8.272C547.578 8.592 547.514 8.88 547.386 9.136L543.93 16.96C543.546 17.856 542.906 18.656 542.01 19.36C541.082 19.904 539.978 20.176 538.698 20.176C539.178 20.176 539.69 20.432 540.234 20.944C540.778 21.424 541.05 22.048 541.05 22.816C541.05 23.168 540.986 23.488 540.858 23.776L536.346 34H528.954L533.082 24.64L533.274 23.872L533.466 23.056C533.466 22.384 533.178 22.048 532.602 22.048H528.618L523.338 34H515.85ZM535.098 16.048L536.298 15.904C536.618 15.808 536.922 15.6 537.21 15.28L538.266 12.88L538.41 12.4C538.41 11.76 537.882 11.44 536.826 11.44H533.322L531.21 16.048H535.098ZM539.602 34L552.226 5.44H571.426L568.738 11.44H557.074L554.578 16.96H566.386L563.698 22.96H551.986L550.018 27.28H561.826L558.802 34H539.602ZM562.818 34L575.442 5.44H582.882L578.226 16L587.49 5.44H596.466L583.266 20.752L587.25 34H580.146L576.162 20.752L575.586 22L570.306 34H562.818Z" fill="#3279BE"/>
<path d="M834.424 193L849.928 175H856.36L846.664 186.28H855.016L859.48 172.216C859.64 171.64 859.448 171.208 858.904 170.92C858.392 170.6 857.88 170.44 857.368 170.44H849.688L852.376 164.44H866.536C867.08 164.44 867.528 164.616 867.88 164.968C868.232 165.32 868.408 165.816 868.408 166.456C868.408 166.84 868.344 167.208 868.216 167.56L860.056 193H834.424ZM889.485 170.44H880.029L872.973 186.28H882.429L879.549 193H866.061C865.517 193 864.957 192.856 864.381 192.568C863.965 192.248 863.757 191.768 863.757 191.128C863.757 190.52 863.933 189.816 864.285 189.016L874.029 166.936C874.445 166.232 875.021 165.64 875.757 165.16C876.493 164.68 877.517 164.44 878.829 164.44H892.077L889.485 170.44ZM882.612 193L898.116 175H904.548L894.852 186.28H903.204L907.668 172.216C907.828 171.64 907.636 171.208 907.092 170.92C906.58 170.6 906.068 170.44 905.556 170.44H897.876L900.564 164.44H914.724C915.268 164.44 915.716 164.616 916.068 164.968C916.42 165.32 916.596 165.816 916.596 166.456C916.596 166.84 916.532 167.208 916.404 167.56L908.244 193H882.612ZM923.273 164.44H942.425C943.577 164.44 944.153 165.112 944.153 166.456C944.153 166.872 944.009 167.512 943.721 168.376L934.552 189.16C934.073 190.248 933.321 191.16 932.297 191.896C931.305 192.632 930.057 193 928.553 193H910.601L923.273 164.44ZM928.073 170.44L921.065 186.28H926.297C927.097 186.28 927.721 186.104 928.169 185.752C928.617 185.368 929.049 184.696 929.465 183.736L934.121 173.176C934.313 172.728 934.409 172.344 934.409 172.024C934.409 170.968 933.225 170.44 930.857 170.44H928.073ZM935.867 193L948.491 164.44H967.691L965.003 170.44H953.339L950.843 175.96H962.651L959.963 181.96H948.251L946.283 186.28H958.091L955.067 193H935.867ZM965.996 193H958.46L971.132 164.44H983.468C984.812 164.44 985.836 164.616 986.54 164.968C987.244 165.32 987.596 165.784 987.596 166.36L987.452 166.936C988.22 165.816 988.876 165.128 989.42 164.872C989.996 164.584 990.684 164.44 991.484 164.44H1000.8C1001.82 164.44 1002.64 164.696 1003.24 165.208C1003.88 165.688 1004.2 166.488 1004.2 167.608V168.52L1003.96 169.48C1003.96 169.704 1003.88 169.976 1003.72 170.296L1003.2 171.592L993.884 193H986.444L995.372 172.696L995.612 171.736C995.612 170.872 994.668 170.44 992.78 170.44H989.804L979.82 193H972.38L981.548 172.216L981.74 171.4C981.74 170.76 980.604 170.44 978.332 170.44H975.98L965.996 193ZM1025.31 164.44H1032.75L1026.71 178.36C1026.42 179 1025.65 179.64 1024.4 180.28C1023.15 180.76 1021.76 181 1020.23 181H1018.07L1012.69 193H1004.34L1009.62 181H1007.36C1006.18 181 1005.22 180.856 1004.48 180.568C1003.75 180.28 1003.38 179.704 1003.38 178.84C1003.38 178.296 1003.54 177.656 1003.86 176.92L1009.47 164.44H1016.91L1013.7 171.736L1013.17 172.936L1013.03 173.992C1013.03 174.664 1013.39 175 1014.13 175L1018.31 174.952C1019.14 174.952 1019.87 174.664 1020.51 174.088C1021.15 173.512 1021.68 172.696 1022.1 171.64L1025.31 164.44Z" fill="#3279BE"/>
</g>
<g filter="url(#filter0_d_139_130)">
<path d="M92.6456 61.2427L113.268 115.377L136.469 61.2427H159.669L128.735 136H113.268C104.676 136 99.5199 133.422 97.8013 128.266L82.3343 89.5989L64.2894 136H47.7912C39.8859 136 35.0739 133.422 33.3553 128.266L4.99911 61.2427H28.1997L51.4002 115.377L72.0229 61.2427H92.6456ZM213.546 111.253L204.524 94.8577L181.839 136H163.278L194.212 76.1941H214.835L245.769 136H227.209L221.538 125.689H202.462L196.275 111.253H213.546ZM299.388 105.066C304.888 105.066 307.637 103.004 307.637 98.8791V96.8169C307.637 92.6923 304.888 90.63 299.388 90.63H270.516V136H251.956V76.1941H307.637C320.011 76.1941 326.198 81.6935 326.198 92.6923V105.066C326.198 109.19 324.806 111.94 322.022 113.315C324.806 114.655 326.198 117.405 326.198 121.564V136H307.637V125.689C307.637 121.564 304.888 119.502 299.388 119.502H278.766L272.579 105.066H299.388ZM392.19 76.1941C404.564 76.1941 410.751 81.6935 410.751 92.6923V105.066C410.751 114.69 404.977 119.502 393.428 119.502H363.319L357.132 105.066H383.941C389.441 105.066 392.19 103.004 392.19 98.8791V96.8169C392.19 92.6923 389.441 90.63 383.941 90.63H355.07V136H336.509V76.1941H392.19ZM562.74 117.955C561.812 129.985 554.113 136 539.643 136H495.82C480.353 136 472.619 129.126 472.619 115.377V81.8654C472.619 68.1169 480.353 61.2427 495.82 61.2427H539.643C555.041 61.2427 562.74 67.2061 562.74 79.1329V79.2875H506.131C499.257 79.2875 495.82 81.8654 495.82 87.0211V110.222C495.82 115.343 499.257 117.921 506.131 117.955H562.74ZM594.293 76.1941H635.538C647.912 76.1941 654.099 81.6935 654.099 92.6923V119.502C654.099 130.501 647.912 136 635.538 136H594.293C581.919 136 575.733 130.501 575.733 119.502V92.6923C575.733 81.6935 581.919 76.1941 594.293 76.1941ZM594.293 96.8169V115.377C594.293 119.467 597.043 121.53 602.542 121.564H627.289C632.789 121.564 635.538 119.502 635.538 115.377V96.8169C635.538 92.6923 632.789 90.63 627.289 90.63H602.542C597.043 90.63 594.293 92.6923 594.293 96.8169ZM711.842 105.066C717.342 105.066 720.092 103.004 720.092 98.8791V96.8169C720.092 92.6923 717.342 90.63 711.842 90.63H682.971V136H664.41V76.1941H720.092C732.465 76.1941 738.652 81.6935 738.652 92.6923V105.066C738.652 109.19 737.26 111.94 734.476 113.315C737.26 114.655 738.652 117.405 738.652 121.564V136H720.092V125.689C720.092 121.564 717.342 119.502 711.842 119.502H691.22L685.033 105.066H711.842ZM761.337 76.1941H812.894V90.63H767.524V121.564H812.894V136H761.337C753.088 136 748.963 131.875 748.963 123.626V88.5678C748.963 80.3187 753.088 76.1941 761.337 76.1941ZM802.582 98.8791L808.769 113.315H775.773L769.586 98.8791H802.582ZM874.762 61.2427H939.208C954.675 61.2427 962.408 68.1169 962.408 81.8654V89.5989C962.408 91.4893 961.549 93.2079 959.831 94.7546C964.986 98.2604 967.564 103.416 967.564 110.222V117.955C967.564 129.985 960.346 136 945.91 136H874.762V61.2427ZM928.896 89.5989C935.771 89.5989 939.208 87.8803 939.208 84.4432C939.208 81.0061 935.771 79.2875 928.896 79.2875H897.962V117.955H934.052C940.926 117.955 944.363 116.237 944.363 112.799C944.363 109.362 940.926 107.644 934.052 107.644H908.274L900.54 89.5989H928.896ZM1027.89 105.066C1033.38 105.066 1036.13 103.004 1036.13 98.8791V96.8169C1036.13 92.6923 1033.38 90.63 1027.89 90.63H999.014V136H980.453V76.1941H1036.13C1048.51 76.1941 1054.7 81.6935 1054.7 92.6923V105.066C1054.7 109.19 1053.3 111.94 1050.52 113.315C1053.3 114.655 1054.7 117.405 1054.7 121.564V136H1036.13V125.689C1036.13 121.564 1033.38 119.502 1027.89 119.502H1007.26L1001.08 105.066H1027.89ZM1077.38 76.1941H1128.94V90.63H1083.57V121.564H1128.94V136H1077.38C1069.13 136 1065.01 131.875 1065.01 123.626V88.5678C1065.01 80.3187 1069.13 76.1941 1077.38 76.1941ZM1118.63 98.8791L1124.81 113.315H1091.82L1085.63 98.8791H1118.63ZM1185.39 111.253L1176.37 94.8577L1153.68 136H1135.12L1166.06 76.1941H1186.68L1217.61 136H1199.05L1193.38 125.689H1174.31L1168.12 111.253H1185.39ZM1295.88 121.564C1295.16 131.188 1289 136 1277.42 136H1242.36C1229.99 136 1223.8 130.501 1223.8 119.502V92.6923C1223.8 81.6935 1229.99 76.1941 1242.36 76.1941H1277.42C1289.73 76.1941 1295.88 80.9546 1295.88 90.4754V90.63H1250.61C1245.11 90.63 1242.36 92.6923 1242.36 96.8169V115.377C1242.36 119.467 1245.11 121.53 1250.61 121.564H1295.88ZM1306.29 76.1941H1324.85V136H1306.29V76.1941ZM1380.53 76.1941V136H1361.97V113.315H1333.1L1326.91 98.8791H1361.97V76.1941H1380.53Z" fill="white"/>
</g>
</g>
<defs>
<filter id="filter0_d_139_130" x="-0.00088501" y="58.2427" width="1395.53" height="94.7573" filterUnits="userSpaceOnUse" color-interpolation-filters="sRGB">
<feFlood flood-opacity="0" result="BackgroundImageFix"/>
<feColorMatrix in="SourceAlpha" type="matrix" values="0 0 0 0 0 0 0 0 0 0 0 0 0 0 0 0 0 0 127 0" result="hardAlpha"/>
<feOffset dx="5" dy="7"/>
<feGaussianBlur stdDeviation="5"/>
<feComposite in2="hardAlpha" operator="out"/>
<feColorMatrix type="matrix" values="0 0 0 0 0 0 0 0 0 0 0 0 0 0 0 0 0 0 1 0"/>
<feBlend mode="normal" in2="BackgroundImageFix" result="effect1_dropShadow_139_130"/>
<feBlend mode="normal" in="SourceGraphic" in2="effect1_dropShadow_139_130" result="shape"/>
</filter>
<linearGradient id="paint0_linear_139_130" x1="417.766" y1="177.96" x2="986.289" y2="14.6875" gradientUnits="userSpaceOnUse">
<stop stop-color="#00FFFF"/>
<stop offset="0.32" stop-color="#0049E7"/>
<stop offset="0.64" stop-color="#FF0000"/>
<stop offset="1" stop-color="#FDB700"/>
</linearGradient>
<linearGradient id="paint1_linear_139_130" x1="464.517" y1="165.189" x2="939.588" y2="28.754" gradientUnits="userSpaceOnUse">
<stop stop-color="#00FFFF"/>
<stop offset="0.32" stop-color="#0049E7"/>
<stop offset="0.64" stop-color="#FF0000"/>
<stop offset="1" stop-color="#FDB700"/>
</linearGradient>
<clipPath id="clip0_139_130">
<rect width="1396" height="200" fill="white"/>
</clipPath>
<clipPath id="clip1_139_130">
<rect width="507" height="200" fill="white" transform="translate(449)"/>
</clipPath>
<clipPath id="clip2_139_130">
<rect width="705" height="200" fill="white" transform="translate(349)"/>
</clipPath>
</defs>
</svg>
