<svg width="705" height="200" viewBox="0 0 705 200" fill="none" xmlns="http://www.w3.org/2000/svg">
<g clip-path="url(#clip0_22_60)">
<g clip-path="url(#clip1_22_60)">
<path d="M600.787 33.6489C610.65 70.458 507.341 130.122 370.039 166.912C232.737 203.702 113.435 203.686 103.572 166.877C93.71 130.068 197.02 70.404 334.322 33.6141C471.624 -3.17572 590.924 -3.15996 600.787 33.6489ZM566.54 42.8253C557.678 9.75074 454.521 8.65377 336.134 40.3755C217.746 72.0974 128.958 124.626 137.819 157.701C146.682 190.776 249.839 191.872 368.227 160.15C486.615 128.428 575.403 75.9002 566.54 42.8253Z" fill="url(#paint0_linear_22_60)"/>
<path d="M559.922 44.5986C568.164 75.3573 481.836 125.214 367.104 155.956C252.37 186.699 152.679 186.686 144.438 155.927C136.196 125.169 222.525 75.312 337.257 44.5694C451.99 13.8269 551.68 13.8403 559.922 44.5986ZM531.305 52.2667C523.899 24.6287 437.699 23.7122 338.771 50.2197C239.844 76.7273 165.65 120.621 173.055 148.259C180.461 175.898 266.662 176.815 365.59 150.307C464.518 123.799 538.711 79.9049 531.305 52.2667Z" fill="url(#paint1_linear_22_60)"/>
</g>
<g filter="url(#filter0_d_22_60)">
<path d="M229.176 117.955C228.248 129.985 220.549 136 206.079 136H162.256C146.788 136 139.055 129.126 139.055 115.377V81.8654C139.055 68.1169 146.788 61.2427 162.256 61.2427H206.079C221.477 61.2427 229.176 67.2061 229.176 79.1329V79.2875H172.567C165.693 79.2875 162.256 81.8654 162.256 87.0211V110.222C162.256 115.343 165.693 117.921 172.567 117.955H229.176ZM242.169 76.1941H260.729V136H242.169V76.1941ZM316.41 76.1941V136H297.85V113.315H268.978L262.791 98.8791H297.85V76.1941H316.41ZM339.095 76.1941H390.652V90.63H345.282V121.564H390.652V136H339.095C330.846 136 326.722 131.875 326.722 123.626V88.5678C326.722 80.3187 330.846 76.1941 339.095 76.1941ZM380.341 98.8791L386.527 113.315H353.531L347.344 98.8791H380.341ZM419.524 76.1941H454.582C466.956 76.1941 473.143 81.0061 473.143 90.63H427.773C422.308 90.63 419.575 91.9877 419.575 94.703V94.7546C419.575 96.8169 422.308 97.848 427.773 97.848L454.634 99.9103C466.973 101.285 473.143 106.784 473.143 116.408V119.502C473.143 130.501 466.956 136 454.582 136H419.524C407.15 136 400.963 131.188 400.963 121.564H448.396C452.52 121.564 454.6 120.189 454.634 117.44C454.634 115.377 452.555 114.346 448.396 114.346L419.524 112.284C407.15 110.909 400.963 105.41 400.963 95.7857V92.6923C400.963 81.6935 407.15 76.1941 419.524 76.1941ZM502.015 76.1941H537.073C549.447 76.1941 555.634 81.0061 555.634 90.63H510.264C504.799 90.63 502.066 91.9877 502.066 94.703V94.7546C502.066 96.8169 504.799 97.848 510.264 97.848L537.125 99.9103C549.464 101.285 555.634 106.784 555.634 116.408V119.502C555.634 130.501 549.447 136 537.073 136H502.015C489.641 136 483.454 131.188 483.454 121.564H530.886C535.011 121.564 537.09 120.189 537.125 117.44C537.125 115.377 535.045 114.346 530.886 114.346L502.015 112.284C489.641 110.909 483.454 105.41 483.454 95.7857V92.6923C483.454 81.6935 489.641 76.1941 502.015 76.1941Z" fill="white"/>
</g>
<g clip-path="url(#clip2_22_60)">
<path d="M25.368 11.44L26.904 7.936C27.32 7.232 27.896 6.64 28.632 6.16C29.368 5.68 30.392 5.44 31.704 5.44H44.952L42.36 11.44H25.368ZM18.936 34C18.392 34 17.832 33.856 17.256 33.568C16.84 33.248 16.632 32.768 16.632 32.128C16.632 31.52 16.808 30.816 17.16 30.016L23.4 16.048H30.84L25.848 27.28H35.304L32.424 34H18.936ZM44.4225 11.44L45.5745 8.848C46.0225 7.824 46.6625 7.008 47.4945 6.4C48.3265 5.76 49.3985 5.44 50.7105 5.44H64.5345C65.3025 5.44 66.1025 5.712 66.9345 6.256C67.7665 6.8 68.1825 7.44 68.1825 8.176L68.0385 8.896L66.8865 11.44H44.4225ZM64.9185 16L58.7745 29.92C58.2945 31.072 57.5585 32.048 56.5665 32.848C55.7025 33.616 54.5825 34 53.2065 34H38.3745C37.9265 34 37.4145 33.696 36.8385 33.088C36.3585 32.448 36.1185 31.712 36.1185 30.88C36.1185 30.624 36.2145 30.176 36.4065 29.536L42.4065 16H49.8945L46.1025 24.544L45.9105 25.408C45.9105 25.92 46.0225 26.352 46.2465 26.704C46.5025 26.992 46.7585 27.184 47.0145 27.28H50.0865C50.8225 27.28 51.4785 27.056 52.0545 26.608C52.6625 26.128 53.2065 25.424 53.6865 24.496L57.4785 16H64.9185ZM72.585 5.44H84.921C86.265 5.44 87.289 5.616 87.993 5.968C88.697 6.32 89.049 6.784 89.049 7.36L88.905 7.936C89.673 6.816 90.329 6.128 90.873 5.872C91.449 5.584 92.137 5.44 92.937 5.44H102.249C103.273 5.44 104.089 5.696 104.697 6.208C105.337 6.688 105.657 7.488 105.657 8.608V9.52L105.417 10.48C105.417 10.704 105.337 10.976 105.177 11.296L104.649 12.592L95.337 34H87.897L96.825 13.696L97.065 12.736C97.065 11.872 96.121 11.44 94.233 11.44H91.257L81.273 34H73.833L83.001 13.216L83.193 12.4C83.193 11.76 82.057 11.44 79.785 11.44H69.897L72.585 5.44ZM75.369 16L67.449 34H59.913L67.929 16H75.369ZM107.132 16H118.46C119.26 16 119.916 15.6 120.428 14.8L121.388 12.64C121.58 12.256 121.484 11.984 121.1 11.824C120.716 11.632 120.316 11.504 119.9 11.44H109.1L111.788 5.44H128.348C129.02 5.44 129.628 5.648 130.172 6.064C130.716 6.448 130.988 6.96 130.988 7.6L130.844 8.32L125.9 19.216C125.548 20.08 125.132 20.752 124.652 21.232C124.236 21.744 123.196 22 121.532 22H111.932L106.652 34H99.1163L107.132 16ZM154.853 5.44L144.005 29.92C143.429 31.072 142.693 32.048 141.797 32.848C140.933 33.616 139.781 34 138.341 34H125.765C125.349 34 124.853 33.696 124.277 33.088C124.117 32.896 123.973 32.672 123.845 32.416C123.621 31.968 123.509 31.456 123.509 30.88C123.509 30.624 123.605 30.176 123.797 29.536L134.549 5.44H141.989L133.493 24.544L133.157 25.984C133.157 26.464 133.285 26.816 133.541 27.04L134.501 27.28H135.317C136.117 27.28 136.757 27.104 137.237 26.752C137.749 26.368 138.293 25.616 138.869 24.496L147.317 5.44H154.853ZM149.603 34L157.619 16H165.011L157.139 34H149.603ZM154.739 11.44L157.475 5.44H175.379L172.786 11.44H154.739ZM166.85 34L179.474 5.44H195.794C196.242 5.44 196.85 5.728 197.618 6.304C198.258 6.88 198.578 7.536 198.578 8.272C198.578 8.592 198.514 8.88 198.386 9.136L194.93 16.96C194.546 17.856 193.906 18.656 193.01 19.36C192.082 19.904 190.978 20.176 189.698 20.176C190.178 20.176 190.69 20.432 191.234 20.944C191.778 21.424 192.05 22.048 192.05 22.816C192.05 23.168 191.986 23.488 191.858 23.776L187.346 34H179.954L184.082 24.64L184.274 23.872L184.466 23.056C184.466 22.384 184.178 22.048 183.602 22.048H179.618L174.338 34H166.85ZM186.098 16.048L187.298 15.904C187.618 15.808 187.922 15.6 188.21 15.28L189.266 12.88L189.41 12.4C189.41 11.76 188.882 11.44 187.826 11.44H184.322L182.21 16.048H186.098ZM190.602 34L203.226 5.44H222.426L219.738 11.44H208.074L205.578 16.96H217.386L214.698 22.96H202.986L201.018 27.28H212.826L209.802 34H190.602ZM213.818 34L226.442 5.44H233.882L229.226 16L238.49 5.44H247.466L234.266 20.752L238.25 34H231.146L227.162 20.752L226.586 22L221.306 34H213.818Z" fill="#3279BE"/>
<path d="M485.424 193L500.928 175H507.36L497.664 186.28H506.016L510.48 172.216C510.64 171.64 510.448 171.208 509.904 170.92C509.392 170.6 508.88 170.44 508.368 170.44H500.688L503.376 164.44H517.536C518.08 164.44 518.528 164.616 518.88 164.968C519.232 165.32 519.408 165.816 519.408 166.456C519.408 166.84 519.344 167.208 519.216 167.56L511.056 193H485.424ZM540.485 170.44H531.029L523.973 186.28H533.429L530.549 193H517.061C516.517 193 515.957 192.856 515.381 192.568C514.965 192.248 514.757 191.768 514.757 191.128C514.757 190.52 514.933 189.816 515.285 189.016L525.029 166.936C525.445 166.232 526.021 165.64 526.757 165.16C527.493 164.68 528.517 164.44 529.829 164.44H543.077L540.485 170.44ZM533.612 193L549.116 175H555.548L545.852 186.28H554.204L558.668 172.216C558.828 171.64 558.636 171.208 558.092 170.92C557.58 170.6 557.068 170.44 556.556 170.44H548.876L551.564 164.44H565.724C566.268 164.44 566.716 164.616 567.068 164.968C567.42 165.32 567.596 165.816 567.596 166.456C567.596 166.84 567.532 167.208 567.404 167.56L559.244 193H533.612ZM574.273 164.44H593.425C594.577 164.44 595.153 165.112 595.153 166.456C595.153 166.872 595.009 167.512 594.721 168.376L585.552 189.16C585.073 190.248 584.321 191.16 583.297 191.896C582.305 192.632 581.057 193 579.553 193H561.601L574.273 164.44ZM579.073 170.44L572.065 186.28H577.297C578.097 186.28 578.721 186.104 579.169 185.752C579.617 185.368 580.049 184.696 580.465 183.736L585.121 173.176C585.313 172.728 585.409 172.344 585.409 172.024C585.409 170.968 584.225 170.44 581.857 170.44H579.073ZM586.867 193L599.491 164.44H618.691L616.003 170.44H604.339L601.843 175.96H613.651L610.963 181.96H599.251L597.283 186.28H609.091L606.067 193H586.867ZM616.996 193H609.46L622.132 164.44H634.468C635.812 164.44 636.836 164.616 637.54 164.968C638.244 165.32 638.596 165.784 638.596 166.36L638.452 166.936C639.22 165.816 639.876 165.128 640.42 164.872C640.996 164.584 641.684 164.44 642.484 164.44H651.796C652.82 164.44 653.636 164.696 654.244 165.208C654.884 165.688 655.204 166.488 655.204 167.608V168.52L654.964 169.48C654.964 169.704 654.884 169.976 654.724 170.296L654.196 171.592L644.884 193H637.444L646.372 172.696L646.612 171.736C646.612 170.872 645.668 170.44 643.78 170.44H640.804L630.82 193H623.38L632.548 172.216L632.74 171.4C632.74 170.76 631.604 170.44 629.332 170.44H626.98L616.996 193ZM676.313 164.44H683.753L677.705 178.36C677.417 179 676.649 179.64 675.401 180.28C674.153 180.76 672.761 181 671.225 181H669.065L663.689 193H655.337L660.617 181H658.361C657.177 181 656.217 180.856 655.481 180.568C654.745 180.28 654.377 179.704 654.377 178.84C654.377 178.296 654.537 177.656 654.857 176.92L660.473 164.44H667.913L664.697 171.736L664.169 172.936L664.025 173.992C664.025 174.664 664.393 175 665.129 175L669.305 174.952C670.137 174.952 670.873 174.664 671.513 174.088C672.153 173.512 672.681 172.696 673.097 171.64L676.313 164.44Z" fill="#3279BE"/>
</g>
</g>
<defs>
<filter id="filter0_d_22_60" x="134.055" y="58.2427" width="436.579" height="94.7573" filterUnits="userSpaceOnUse" color-interpolation-filters="sRGB">
<feFlood flood-opacity="0" result="BackgroundImageFix"/>
<feColorMatrix in="SourceAlpha" type="matrix" values="0 0 0 0 0 0 0 0 0 0 0 0 0 0 0 0 0 0 127 0" result="hardAlpha"/>
<feOffset dx="5" dy="7"/>
<feGaussianBlur stdDeviation="5"/>
<feComposite in2="hardAlpha" operator="out"/>
<feColorMatrix type="matrix" values="0 0 0 0 0 0 0 0 0 0 0 0 0 0 0 0 0 0 1 0"/>
<feBlend mode="normal" in2="BackgroundImageFix" result="effect1_dropShadow_22_60"/>
<feBlend mode="normal" in="SourceGraphic" in2="effect1_dropShadow_22_60" result="shape"/>
</filter>
<linearGradient id="paint0_linear_22_60" x1="67.7663" y1="177.96" x2="636.289" y2="14.6875" gradientUnits="userSpaceOnUse">
<stop stop-color="#00FFFF"/>
<stop offset="0.32" stop-color="#0049E7"/>
<stop offset="0.64" stop-color="#FF0000"/>
<stop offset="1" stop-color="#FDB700"/>
</linearGradient>
<linearGradient id="paint1_linear_22_60" x1="114.517" y1="165.189" x2="589.588" y2="28.754" gradientUnits="userSpaceOnUse">
<stop stop-color="#00FFFF"/>
<stop offset="0.32" stop-color="#0049E7"/>
<stop offset="0.64" stop-color="#FF0000"/>
<stop offset="1" stop-color="#FDB700"/>
</linearGradient>
<clipPath id="clip0_22_60">
<rect width="705" height="200" fill="white"/>
</clipPath>
<clipPath id="clip1_22_60">
<rect width="507" height="200" fill="white" transform="translate(99)"/>
</clipPath>
<clipPath id="clip2_22_60">
<rect width="705" height="200" fill="white"/>
</clipPath>
</defs>
</svg>
