<svg width="936" height="200" viewBox="0 0 936 200" fill="none" xmlns="http://www.w3.org/2000/svg">
<g clip-path="url(#clip0_17_2)">
<g clip-path="url(#clip1_17_2)">
<path d="M716.787 33.6489C726.65 70.458 623.341 130.122 486.039 166.912C348.737 203.702 229.435 203.686 219.572 166.877C209.71 130.068 313.02 70.404 450.322 33.6141C587.624 -3.17572 706.924 -3.15996 716.787 33.6489ZM682.54 42.8253C673.678 9.75074 570.521 8.65377 452.134 40.3755C333.746 72.0974 244.958 124.626 253.819 157.701C262.682 190.776 365.839 191.872 484.227 160.15C602.615 128.428 691.403 75.9002 682.54 42.8253Z" fill="url(#paint0_linear_17_2)"/>
<path d="M675.922 44.5986C684.164 75.3573 597.836 125.214 483.104 155.956C368.37 186.699 268.679 186.686 260.438 155.927C252.196 125.169 338.525 75.312 453.257 44.5694C567.99 13.8269 667.68 13.8403 675.922 44.5986ZM647.305 52.2667C639.899 24.6287 553.699 23.7122 454.771 50.2197C355.844 76.7273 281.65 120.621 289.055 148.259C296.461 175.898 382.662 176.815 481.59 150.307C580.518 123.799 654.711 79.9049 647.305 52.2667Z" fill="url(#paint1_linear_17_2)"/>
</g>
<g clip-path="url(#clip2_17_2)">
<path d="M140.368 11.44L141.904 7.936C142.32 7.232 142.896 6.64 143.632 6.16C144.368 5.68 145.392 5.44 146.704 5.44H159.952L157.36 11.44H140.368ZM133.936 34C133.392 34 132.832 33.856 132.256 33.568C131.84 33.248 131.632 32.768 131.632 32.128C131.632 31.52 131.808 30.816 132.16 30.016L138.4 16.048H145.84L140.848 27.28H150.304L147.424 34H133.936ZM159.423 11.44L160.575 8.848C161.023 7.824 161.663 7.008 162.495 6.4C163.327 5.76 164.399 5.44 165.711 5.44H179.535C180.303 5.44 181.103 5.712 181.935 6.256C182.767 6.8 183.183 7.44 183.183 8.176L183.039 8.896L181.887 11.44H159.423ZM179.919 16L173.775 29.92C173.295 31.072 172.559 32.048 171.567 32.848C170.703 33.616 169.583 34 168.207 34H153.375C152.927 34 152.415 33.696 151.839 33.088C151.359 32.448 151.119 31.712 151.119 30.88C151.119 30.624 151.215 30.176 151.407 29.536L157.407 16H164.895L161.103 24.544L160.911 25.408C160.911 25.92 161.023 26.352 161.247 26.704C161.503 26.992 161.759 27.184 162.015 27.28H165.087C165.823 27.28 166.479 27.056 167.055 26.608C167.663 26.128 168.207 25.424 168.687 24.496L172.479 16H179.919ZM187.585 5.44H199.921C201.265 5.44 202.289 5.616 202.993 5.968C203.697 6.32 204.049 6.784 204.049 7.36L203.905 7.936C204.673 6.816 205.329 6.128 205.873 5.872C206.449 5.584 207.137 5.44 207.937 5.44H217.249C218.273 5.44 219.089 5.696 219.697 6.208C220.337 6.688 220.657 7.488 220.657 8.608V9.52L220.417 10.48C220.417 10.704 220.337 10.976 220.177 11.296L219.649 12.592L210.337 34H202.897L211.825 13.696L212.065 12.736C212.065 11.872 211.121 11.44 209.233 11.44H206.257L196.273 34H188.833L198.001 13.216L198.193 12.4C198.193 11.76 197.057 11.44 194.785 11.44H184.897L187.585 5.44ZM190.369 16L182.449 34H174.913L182.929 16H190.369ZM222.132 16H233.46C234.26 16 234.916 15.6 235.428 14.8L236.388 12.64C236.58 12.256 236.484 11.984 236.1 11.824C235.716 11.632 235.316 11.504 234.9 11.44H224.1L226.788 5.44H243.348C244.02 5.44 244.628 5.648 245.172 6.064C245.716 6.448 245.988 6.96 245.988 7.6L245.844 8.32L240.9 19.216C240.548 20.08 240.132 20.752 239.652 21.232C239.236 21.744 238.196 22 236.532 22H226.932L221.652 34H214.116L222.132 16ZM269.853 5.44L259.005 29.92C258.429 31.072 257.693 32.048 256.797 32.848C255.933 33.616 254.781 34 253.341 34H240.765C240.349 34 239.853 33.696 239.277 33.088C239.117 32.896 238.973 32.672 238.845 32.416C238.621 31.968 238.509 31.456 238.509 30.88C238.509 30.624 238.605 30.176 238.797 29.536L249.549 5.44H256.989L248.493 24.544L248.157 25.984C248.157 26.464 248.285 26.816 248.541 27.04L249.501 27.28H250.317C251.117 27.28 251.757 27.104 252.237 26.752C252.749 26.368 253.293 25.616 253.869 24.496L262.317 5.44H269.853ZM264.603 34L272.619 16H280.011L272.139 34H264.603ZM269.739 11.44L272.475 5.44H290.379L287.786 11.44H269.739ZM281.85 34L294.474 5.44H310.794C311.242 5.44 311.85 5.728 312.618 6.304C313.258 6.88 313.578 7.536 313.578 8.272C313.578 8.592 313.514 8.88 313.386 9.136L309.93 16.96C309.546 17.856 308.906 18.656 308.01 19.36C307.082 19.904 305.978 20.176 304.698 20.176C305.178 20.176 305.69 20.432 306.234 20.944C306.778 21.424 307.05 22.048 307.05 22.816C307.05 23.168 306.986 23.488 306.858 23.776L302.346 34H294.954L299.082 24.64L299.274 23.872L299.466 23.056C299.466 22.384 299.178 22.048 298.602 22.048H294.618L289.338 34H281.85ZM301.098 16.048L302.298 15.904C302.618 15.808 302.922 15.6 303.21 15.28L304.266 12.88L304.41 12.4C304.41 11.76 303.882 11.44 302.826 11.44H299.322L297.21 16.048H301.098ZM305.602 34L318.226 5.44H337.426L334.738 11.44H323.074L320.578 16.96H332.386L329.698 22.96H317.986L316.018 27.28H327.826L324.802 34H305.602ZM328.818 34L341.442 5.44H348.882L344.226 16L353.49 5.44H362.466L349.266 20.752L353.25 34H346.146L342.162 20.752L341.586 22L336.306 34H328.818Z" fill="#3279BE"/>
<path d="M600.424 193L615.928 175H622.36L612.664 186.28H621.016L625.48 172.216C625.64 171.64 625.448 171.208 624.904 170.92C624.392 170.6 623.88 170.44 623.368 170.44H615.688L618.376 164.44H632.536C633.08 164.44 633.528 164.616 633.88 164.968C634.232 165.32 634.408 165.816 634.408 166.456C634.408 166.84 634.344 167.208 634.216 167.56L626.056 193H600.424ZM655.485 170.44H646.029L638.973 186.28H648.429L645.549 193H632.061C631.517 193 630.957 192.856 630.381 192.568C629.965 192.248 629.757 191.768 629.757 191.128C629.757 190.52 629.933 189.816 630.285 189.016L640.029 166.936C640.445 166.232 641.021 165.64 641.757 165.16C642.493 164.68 643.517 164.44 644.829 164.44H658.077L655.485 170.44ZM648.612 193L664.116 175H670.548L660.852 186.28H669.204L673.668 172.216C673.828 171.64 673.636 171.208 673.092 170.92C672.58 170.6 672.068 170.44 671.556 170.44H663.876L666.564 164.44H680.724C681.268 164.44 681.716 164.616 682.068 164.968C682.42 165.32 682.596 165.816 682.596 166.456C682.596 166.84 682.532 167.208 682.404 167.56L674.244 193H648.612ZM689.273 164.44H708.425C709.577 164.44 710.153 165.112 710.153 166.456C710.153 166.872 710.009 167.512 709.721 168.376L700.552 189.16C700.073 190.248 699.321 191.16 698.297 191.896C697.305 192.632 696.057 193 694.553 193H676.601L689.273 164.44ZM694.073 170.44L687.065 186.28H692.297C693.097 186.28 693.721 186.104 694.169 185.752C694.617 185.368 695.049 184.696 695.465 183.736L700.121 173.176C700.313 172.728 700.409 172.344 700.409 172.024C700.409 170.968 699.225 170.44 696.857 170.44H694.073ZM701.867 193L714.491 164.44H733.691L731.003 170.44H719.339L716.843 175.96H728.651L725.963 181.96H714.251L712.283 186.28H724.091L721.067 193H701.867ZM731.996 193H724.46L737.132 164.44H749.468C750.812 164.44 751.836 164.616 752.54 164.968C753.244 165.32 753.596 165.784 753.596 166.36L753.452 166.936C754.22 165.816 754.876 165.128 755.42 164.872C755.996 164.584 756.684 164.44 757.484 164.44H766.796C767.82 164.44 768.636 164.696 769.244 165.208C769.884 165.688 770.204 166.488 770.204 167.608V168.52L769.964 169.48C769.964 169.704 769.884 169.976 769.724 170.296L769.196 171.592L759.884 193H752.444L761.372 172.696L761.612 171.736C761.612 170.872 760.668 170.44 758.78 170.44H755.804L745.82 193H738.38L747.548 172.216L747.74 171.4C747.74 170.76 746.604 170.44 744.332 170.44H741.98L731.996 193ZM791.313 164.44H798.753L792.705 178.36C792.417 179 791.649 179.64 790.401 180.28C789.153 180.76 787.761 181 786.225 181H784.065L778.689 193H770.337L775.617 181H773.361C772.177 181 771.217 180.856 770.481 180.568C769.745 180.28 769.377 179.704 769.377 178.84C769.377 178.296 769.537 177.656 769.857 176.92L775.473 164.44H782.913L779.697 171.736L779.169 172.936L779.025 173.992C779.025 174.664 779.393 175 780.129 175L784.305 174.952C785.137 174.952 785.873 174.664 786.513 174.088C787.153 173.512 787.681 172.696 788.097 171.64L791.313 164.44Z" fill="#3279BE"/>
</g>
<g filter="url(#filter0_d_17_2)">
<path d="M64.5682 105.066L87.7688 68.9762C91.2059 63.8205 96.3616 61.2427 103.236 61.2427H123.859V136H100.658V87.0211L69.7239 136H59.4126L28.4785 87.0211V136H5.27795V61.2427H25.9007C32.7749 61.2427 37.9306 63.8205 41.3677 68.9762L64.5682 105.066ZM136.748 76.1941H155.308V136H136.748V76.1941ZM182.118 76.1941C187.617 76.1941 192.429 78.2564 196.554 82.381L227.488 117.44V76.1941H246.048V136H229.55C224.051 136 219.239 133.938 215.114 129.813L184.18 94.7546V136H165.62V76.1941H182.118ZM268.733 76.1941H320.29V90.63H274.92V121.564H320.29V136H268.733C260.484 136 256.359 131.875 256.359 123.626V88.5678C256.359 80.3187 260.484 76.1941 268.733 76.1941ZM309.978 98.8791L316.165 113.315H283.169L276.982 98.8791H309.978ZM349.162 76.1941H384.22C396.594 76.1941 402.781 81.0061 402.781 90.63H357.411C351.946 90.63 349.213 91.9877 349.213 94.703V94.7546C349.213 96.8169 351.946 97.848 357.411 97.848L384.272 99.9103C396.611 101.285 402.781 106.784 402.781 116.408V119.502C402.781 130.501 396.594 136 384.22 136H349.162C336.788 136 330.601 131.188 330.601 121.564H378.033C382.158 121.564 384.237 120.189 384.272 117.44C384.272 115.377 382.192 114.346 378.033 114.346L349.162 112.284C336.788 110.909 330.601 105.41 330.601 95.7857V92.6923C330.601 81.6935 336.788 76.1941 349.162 76.1941ZM479.085 76.1941L495.583 119.502L514.143 76.1941H532.704L507.957 136H495.583C488.709 136 484.584 133.938 483.209 129.813L470.836 98.8791L456.4 136H443.201C436.877 136 433.027 133.938 431.652 129.813L408.967 76.1941H427.528L446.088 119.502L462.587 76.1941H479.085ZM551.264 76.1941H602.821V90.63H557.451V121.564H602.821V136H551.264C543.015 136 538.891 131.875 538.891 123.626V88.5678C538.891 80.3187 543.015 76.1941 551.264 76.1941ZM592.51 98.8791L598.696 113.315H565.7L559.513 98.8791H592.51ZM625.506 76.1941H677.063V90.63H631.693V121.564H677.063V136H625.506C617.257 136 613.132 131.875 613.132 123.626V88.5678C613.132 80.3187 617.257 76.1941 625.506 76.1941ZM666.751 98.8791L672.938 113.315H639.942L633.755 98.8791H666.751ZM743.055 76.1941C755.429 76.1941 761.616 81.6935 761.616 92.6923V105.066C761.616 114.69 755.841 119.502 744.293 119.502H714.184L707.997 105.066H734.806C740.306 105.066 743.055 103.004 743.055 98.8791V96.8169C743.055 92.6923 740.306 90.63 734.806 90.63H705.935V136H687.374V76.1941H743.055ZM784.301 76.1941H835.858V90.63H790.488V121.564H835.858V136H784.301C776.052 136 771.927 131.875 771.927 123.626V88.5678C771.927 80.3187 776.052 76.1941 784.301 76.1941ZM825.546 98.8791L831.733 113.315H798.737L792.55 98.8791H825.546ZM893.601 105.066C899.101 105.066 901.85 103.004 901.85 98.8791V96.8169C901.85 92.6923 899.101 90.63 893.601 90.63H864.729V136H846.169V76.1941H901.85C914.224 76.1941 920.411 81.6935 920.411 92.6923V105.066C920.411 109.19 919.019 111.94 916.235 113.315C919.019 114.655 920.411 117.405 920.411 121.564V136H901.85V125.689C901.85 121.564 899.101 119.502 893.601 119.502H872.978L866.792 105.066H893.601Z" fill="white"/>
</g>
</g>
<defs>
<filter id="filter0_d_17_2" x="0.277954" y="58.2427" width="935.133" height="94.7573" filterUnits="userSpaceOnUse" color-interpolation-filters="sRGB">
<feFlood flood-opacity="0" result="BackgroundImageFix"/>
<feColorMatrix in="SourceAlpha" type="matrix" values="0 0 0 0 0 0 0 0 0 0 0 0 0 0 0 0 0 0 127 0" result="hardAlpha"/>
<feOffset dx="5" dy="7"/>
<feGaussianBlur stdDeviation="5"/>
<feComposite in2="hardAlpha" operator="out"/>
<feColorMatrix type="matrix" values="0 0 0 0 0 0 0 0 0 0 0 0 0 0 0 0 0 0 1 0"/>
<feBlend mode="normal" in2="BackgroundImageFix" result="effect1_dropShadow_17_2"/>
<feBlend mode="normal" in="SourceGraphic" in2="effect1_dropShadow_17_2" result="shape"/>
</filter>
<linearGradient id="paint0_linear_17_2" x1="183.766" y1="177.96" x2="752.289" y2="14.6875" gradientUnits="userSpaceOnUse">
<stop stop-color="#00FFFF"/>
<stop offset="0.32" stop-color="#0049E7"/>
<stop offset="0.64" stop-color="#FF0000"/>
<stop offset="1" stop-color="#FDB700"/>
</linearGradient>
<linearGradient id="paint1_linear_17_2" x1="230.517" y1="165.189" x2="705.588" y2="28.754" gradientUnits="userSpaceOnUse">
<stop stop-color="#00FFFF"/>
<stop offset="0.32" stop-color="#0049E7"/>
<stop offset="0.64" stop-color="#FF0000"/>
<stop offset="1" stop-color="#FDB700"/>
</linearGradient>
<clipPath id="clip0_17_2">
<rect width="936" height="200" fill="white"/>
</clipPath>
<clipPath id="clip1_17_2">
<rect width="507" height="200" fill="white" transform="translate(215)"/>
</clipPath>
<clipPath id="clip2_17_2">
<rect width="705" height="200" fill="white" transform="translate(115)"/>
</clipPath>
</defs>
</svg>
